<svg xmlns="http://www.w3.org/2000/svg"><defs><font id="FiraGO-Medium" horiz-adv-x="0"><font-face font-family="FiraGO Medium" font-weight="500" panose-1="2 11 6 3 5 0 0 2 0 4" ascent="800" descent="-200" x-height="529" cap-height="691" bbox="-771 -689 2498 1316" underline-thickness="50" underline-position="-100" unicode-range="U+000D-FEFF"/><glyph glyph-name="f_f" unicode="ff" horiz-adv-x="633" d="M523 640.5Q507 623 507 585v-56h126l-14-92H507V0H379v437H217V0H89v437H6v92h83v48q0 75 49 121t142 46q40 0 75.5-8t74.5-25q49 44 134 44 72 0 137-31l-37-86q-43 20-87 20-38 0-54-17.5zM379 587q0 25 6 47-48 16-93 16-42 0-58.5-16T217 581v-52h162v58z"/><glyph glyph-name="f_f_i" unicode="ffi" horiz-adv-x="876" d="M801 529V0H673v437H507V0H379v437H217V0H89v437H6v92h83v48q0 75 49 121t142 46q40 0 75-8t76-25q54 44 151 44 84 0 162-38l-38-85q-55 25-113 25-49 0-67.5-17.5T507 583v-54h294zm-422 56q0 27 6 49-48 16-93 16-42 0-58.5-16T217 581v-52h162v56z"/><glyph glyph-name="f_f_j" unicode="ffj" horiz-adv-x="876" d="M801 47q0-78-22.5-127.5t-63-79.5T609-217l-41 93q39 18 60.5 35.5t33 47.5T673 39v398H507V0H379v437H217V0H89v437H6v92h83v48q0 75 49 121t142 46q40 0 75-8t76-25q54 44 151 44 84 0 162-38l-38-85q-55 25-111 25-51 0-69.5-17.5T507 583v-54h294V47zM379 585q0 27 6 49-48 16-93 16-42 0-58.5-16T217 581v-52h162v56z"/><glyph glyph-name="f_f_l" unicode="ffl" horiz-adv-x="908" d="M895 3q-43-18-91-18-59 0-91.5 35T680 120v525q-46 14-95 14-44 0-61-17t-17-56v-57h113l-14-92h-99V0H379v437H217V0H89v437H6v92h83v48q0 75 49 121t142 46q40 0 75-8t76-25q49 44 139 44 55 0 119-19l119 13V129q0-22 7-31.5t23-9.5q15 0 30 5zM379 587q0 25 6 47-48 16-93 16-42 0-58.5-16T217 581v-52h162v58z"/><glyph glyph-name="f_j" unicode="fj" horiz-adv-x="586" d="M511 47q0-78-22.5-127.5T425-160t-107-57l-40 93q39 18 60.5 35.5t33 47.5T383 39v398H217V0H89v437H6v92h83v56q0 77 50 123.5T292 755q84 0 162-38l-39-85q-53 25-111 25-50 0-68.5-17.5T217 583v-54h294V47z"/><glyph glyph-name="fi" unicode="fi" horiz-adv-x="586" d="M454 717l-39-85q-53 25-112 25-49 0-67.5-17.5T217 583v-54h294V0H383v437H217V0H89v437H6v92h83v56q0 77 50 123.5T292 755q84 0 162-38z"/><glyph glyph-name="fl" unicode="fl" horiz-adv-x="618" d="M605 3q-43-18-91-18-60 0-92 34.5T390 120v525q-46 14-95 14-44 0-61-17t-17-56v-57h113l-14-92h-99V0H89v437H6v92h83v58q0 75 49 121.5T280 755q55 0 119-19l119 13V129q0-22 7-31.5t23-9.5q15 0 30 5z"/><glyph glyph-name="uni0E240E45" unicode="ฤๅ" horiz-adv-x="950" d="M817 543q51-45 51-137v-602l-128 14v582q0 50-25 70.5T635 491q-49 0-109-16 25-46 25-113v-568l-128 14v555q0 64-27.5 93T304 485q-89 0-149-56 71-13 142-42v-80q-54-3-78.5-27T194 206v-75q0-26 9-36.5T231 84q20 0 35 7l23-86q-47-20-87-20-63 0-95.5 35.5T74 121v82q0 63 33 98.5t91 46.5q-76 23-147 29v75q103 126 265 126 96 0 153-39 95 49 188 49 109 0 160-45z"/><glyph glyph-name="uni0E260E45" unicode="ฦๅ" horiz-adv-x="948" d="M815 543q51-45 51-137v-602l-128 14v582q0 50-25 70.5T633 491q-50 0-108-16 24-46 24-113v-568l-128 14v555q0 64-26.5 93T306 485q-87 0-145-56 71-14 143-42v-80q-39-2-60-27.5T223 198v-77q0-59-30.5-94T85-8Q64-8 50-6l-3 88h9q21 0 30 6.5t11 18 2 35.5v76q0 54 28.5 86.5T205 347q-73 24-148 30v75q38 48 100.5 87T318 578q92 0 150-38 96 48 187 48 109 0 160-45z"/><glyph glyph-name="uniFEFB" unicode="ﻟﺎ" horiz-adv-x="644" arabic-form="isolated" d="M588 184q0-95-59-139.5T337 0H90l10 114q112 86 172.5 139.5T369 359L70 633l136 21 210-203q25 75 25 198v111l104 13V640q0-149-55-261 98-101 98-195zm-161.5-57.5q36.5 4.5 54 18.5t17.5 43q0 22-15.5 48T437 294q-62-84-180-172h63q70 0 106.5 4.5z"/><glyph glyph-name="uniFEFC" unicode="ﻠﺎ" horiz-adv-x="683" arabic-form="final" d="M703 56L683 0q-52 0-92.5 25.5T531 103q-41-56-112.5-79.5T226 0H87L73 123h161q99 0 154 15L102 585l130 19 158-272q51-90 72-157 23 22 30.5 54t7.5 81v450l104 14V240q0-66 18.5-91.5T694 123z"/><glyph glyph-name="uniFEF7" unicode="ﻟﺄ" horiz-adv-x="644" arabic-form="isolated" d="M588 184q0-95-59-139.5T337 0H90l10 114q112 86 172.5 139.5T369 359L70 633l136 21 210-203q25 75 25 198v111l104 13V640q0-149-55-261 98-101 98-195zm-161.5-57.5q36.5 4.5 54 18.5t17.5 43q0 22-15.5 48T437 294q-62-84-180-172h63q70 0 106.5 4.5zM259 728L38 693l-8 61 63 10q-38 34-38 68 0 38 27.5 64t78.5 26q38 0 83-25l-38-59q-26 16-47 16-18 0-26-9t-8-21q0-22 31-49l93 15z"/><glyph glyph-name="uniFEF8" unicode="ﻠﺄ" horiz-adv-x="683" arabic-form="final" d="M703 56L683 0q-52 0-92.5 25.5T531 103q-41-56-112.5-79.5T226 0H87L73 123h161q99 0 154 15L102 585l130 19 158-272q51-90 72-157 23 22 30.5 54t7.5 81v450l104 14V240q0-66 18.5-91.5T694 123zM269 683L48 648l-8 61 63 10q-38 34-38 68 0 38 27.5 64t78.5 26q38 0 83-25l-38-59q-26 16-47 16-18 0-26-9t-8-21q0-22 31-49l93 15z"/><glyph glyph-name="uniFEF9" unicode="ﻟﺈ" horiz-adv-x="644" arabic-form="isolated" d="M588 184q0-95-59-139.5T337 0H90l10 114q112 86 172.5 139.5T369 359L70 633l136 21 210-203q25 75 25 198v111l104 13V640q0-149-55-261 98-101 98-195zm-161.5-57.5q36.5 4.5 54 18.5t17.5 43q0 22-15.5 48T437 294q-62-84-180-172h63q70 0 106.5 4.5zM306-231L85-266l-8 61 63 10q-38 34-38 68 0 38 27.5 64T208-37q38 0 83-25l-38-59q-26 16-47 16-18 0-26-9t-8-21q0-22 31-49l93 15z"/><glyph glyph-name="uniFEFA" unicode="ﻠﺈ" horiz-adv-x="683" arabic-form="final" d="M703 56L683 0q-52 0-92.5 25.5T531 103q-41-56-112.5-79.5T226 0H87L73 123h161q99 0 154 15L102 585l130 19 158-272q51-90 72-157 23 22 30.5 54t7.5 81v450l104 14V240q0-66 18.5-91.5T694 123zM307-231L86-266l-8 61 63 10q-38 34-38 68 0 38 27.5 64T209-37q38 0 83-25l-38-59q-26 16-47 16-18 0-26-9t-8-21q0-22 31-49l93 15z"/><glyph glyph-name="uniFEF5" unicode="ﻟﺂ" horiz-adv-x="644" arabic-form="isolated" d="M588 184q0-95-59-139.5T337 0H90l10 114q112 86 172.5 139.5T369 359L70 633l136 21 210-203q25 75 25 198v111l104 13V640q0-149-55-261 98-101 98-195zm-161.5-57.5q36.5 4.5 54 18.5t17.5 43q0 22-15.5 48T437 294q-62-84-180-172h63q70 0 106.5 4.5zM22 720q12 42 38.5 68t57.5 26q25 0 51-16 9-5 18.5-8.5T207 786q12 0 19 3t22 13l27-48q-21-20-39-28.5t-38-8.5q-15 0-28 6t-15 7q-9 5-18 8.5t-17 3.5q-27 0-42-39z"/><glyph glyph-name="uniFEF6" unicode="ﻠﺂ" horiz-adv-x="683" arabic-form="final" d="M703 56L683 0q-52 0-92.5 25.5T531 103q-41-56-112.5-79.5T226 0H87L73 123h161q99 0 154 15L102 585l130 19 158-272q51-90 72-157 23 22 30.5 54t7.5 81v450l104 14V240q0-66 18.5-91.5T694 123zM32 675q12 42 38.5 68t57.5 26q25 0 51-16 9-5 18.5-8.5T217 741q12 0 19 3t22 13l27-48q-21-20-39-28.5t-38-8.5q-15 0-28 6t-15 7q-9 5-18 8.5t-17 3.5q-27 0-42-39z"/><glyph glyph-name="uni06440671" unicode="ﻟﭑ" horiz-adv-x="644" d="M588 184q0-95-59-139.5T337 0H90l10 114q112 86 172.5 139.5T369 359L70 633l136 21 210-203q25 75 25 198v111l104 13V640q0-149-55-261 98-101 98-195zm-161.5-57.5q36.5 4.5 54 18.5t17.5 43q0 22-15.5 48T437 294q-62-84-180-172h63q70 0 106.5 4.5zM262 887.5q24-20.5 24-57.5 0-51-34-72.5T165 736q-34 0-72 12l-18-35-54 19 29 86q11-4 33-10 24 53 56.5 76.5T206 908q32 0 56-20.5zM227 824q0 22-27 22-18 0-35-13.5T134 798q23-3 42-3 51 0 51 29z"/><glyph glyph-name="uni06440671.fina" unicode="ﻠﭑ" horiz-adv-x="683" d="M703 56L683 0q-52 0-92.5 25.5T531 103q-41-56-112.5-79.5T226 0H87L73 123h161q99 0 154 15L102 585l130 19 158-272q51-90 72-157 23 22 30.5 54t7.5 81v450l104 14V240q0-66 18.5-91.5T694 123zM272 842.5q24-20.5 24-57.5 0-51-34-72.5T175 691q-34 0-72 12l-18-35-54 19 29 86q11-4 33-10 24 53 56.5 76.5T216 863q32 0 56-20.5zM237 779q0 22-27 22-18 0-35-13.5T144 753q23-3 42-3 51 0 51 29z"/><glyph glyph-name="uniFDF2" unicode="اﻟﻠﻪ" horiz-adv-x="1142" arabic-form="isolated" d="M610 747h-69v179l69 8V747zM467.5 631.5Q445 651 445 689q0 32 16 71l52-13q-6-22-6-42 0-12 5-20t14-8q10 0 16.5 8.5T549 710v33h54v-35q0-13 5.5-20t14.5-7q21 0 21 33 0 26-11 53l54 18q9-21 14.5-46t5.5-43q0-38-21-59.5T631 615q-38 0-55 27-19-30-59-30-27 0-49.5 19.5zM1080 774V0H973v760zM752 656l104 14V210q0-114-39.5-162T700 0q-40 0-72.5 17.5T576 65q-16-30-47-47.5T458 0Q350 0 315 92q-22-30-59-46.5T177 29q-68 0-111 39.5T23 172q0 83 74 140.5T295 389v77l105 14V215q0-54 13-75t48-21 48.5 21.5T523 223v330l104 14V226q0-59 14-83t51-24q35 0 47.5 24t12.5 82v431zM295 293q-82-7-128.5-37T120 188q0-29 18-44t51-15q68 0 106 50v114z"/><glyph glyph-name="uni0E1B0E31" unicode="ปั" horiz-adv-x="624" d="M542 646V214q0-65-27.5-117t-81-82T305-15q-117 0-176 58T70 214v172q0 62-6 101.5T45 556l120 14q12-20 22.5-62t10.5-84V220q0-139 107-139 109 0 109 139v419h-1q-87 0-131 27t-44 87q0 29 8 61h88q-3-18-3-38 0-31 18-43t65-13v72l128-15v-51q55 6 110 18l14-79q-59-13-124-19z"/><glyph glyph-name="uni0E1B0E49" unicode="ป้" horiz-adv-x="624" d="M542 777V214q0-65-27.5-117t-81-82T305-15q-117 0-176 58T70 214v172q0 62-6 101.5T45 556l120 14q12-20 22.5-62t10.5-84V220q0-139 107-139 109 0 109 139v472q-41-27-100.5-39T168 639l-27 34q20 31 20 54 0 24-12 34t-35 10q-19 0-42-5l-11 69q34 12 77 12 53 0 85.5-22.5T256 760q0-26-10-46 64 5 103.5 24t63.5 55l5-1z"/><glyph glyph-name="uni0E1B0E4A" unicode="ป๊" horiz-adv-x="624" d="M542 777V214q0-65-27.5-117t-81-82T305-15q-117 0-176 58T70 214v172q0 62-6 101.5T45 556l120 14q12-20 22.5-62t10.5-84V220q0-139 107-139 109 0 109 139v463q-49-43-138-43-25 0-49 4 6 47 6 82 0 21-9 32.5T199 770q-17 0-27.5-16T161 708v-39l-86-7v46q0 30-10 46t-28 16q-16 0-25-11.5T3 725q0-38 10-83h-90q-5 19-8.5 46t-3.5 50q0 51 29.5 80T19 847q45 0 68.5-22t30.5-56q6 33 31.5 55.5T221 847q47 0 74.5-25.5T323 758q0-22-7-45 40 5 64.5 26.5T414 792z"/><glyph glyph-name="uni0E1B0E4B" unicode="ป๋" horiz-adv-x="624" d="M542 777V214q0-65-27.5-117t-81-82T305-15q-117 0-176 58T70 214v172q0 62-6 101.5T45 556l120 14q12-20 22.5-62t10.5-84V220q0-139 107-139 109 0 109 139v572zm-180-70l-75 1 1-63h-98l1 63-79-1 8 77 71-1-1 57 98 10-1-67 75 1v-77z"/><glyph glyph-name="uni0E1B0E4C" unicode="ป์" horiz-adv-x="624" d="M626 675h-84V214q0-65-27.5-117t-81-82T305-15q-117 0-176 58T70 214v172q0 62-6 101.5T45 556l120 14q12-20 22.5-62t10.5-84V220q0-139 107-139 109 0 109 139v455h-39q-23 0-32.5-9t-9.5-33q0-15 2-33h-94q-5 30-5 53 0 52 33.5 76.5T360 754h54v38l128-15v-23h84v-79z"/><glyph glyph-name="uni0E1B0E4D" unicode="ปํ" horiz-adv-x="624" d="M542 777V214q0-65-27.5-117t-81-82T305-15q-117 0-176 58T70 214v172q0 62-6 101.5T45 556l120 14q12-20 22.5-62t10.5-84V220q0-139 107-139 109 0 109 139v572zm-202 43q32-31 32-76t-32-76-83-31-82.5 31-31.5 76 31.5 76 82.5 31 83-31zm-108.5-48q-9.5-10-9.5-28t9.5-28 25.5-10 25.5 10 9.5 28-9.5 28-25.5 10-25.5-10z"/><glyph glyph-name="uni0E1D0E31" unicode="ฝั" horiz-adv-x="763" d="M681 646V209q0-115-45.5-169.5T512-15q-115 0-138 118-15-63-48.5-90.5T231-15q-75 0-119 53.5T68 209v81q0 105 15 167t50 91.5 96 29.5q24 0 47.5-5t37.5-11l-14-85q-19 7-39 7-24 0-38.5-15.5T201 415t-7-107v-96q0-71 15.5-100.5T258 82q29 0 43.5 21.5T316 184v122l115 13V184q0-102 57-102 32 0 48.5 26.5T553 207v432h-2q-86 0-130 27t-44 87q0 29 8 61h88q-4-24-4-38 0-31 18-43t66-13v72l128-15v-50q51 4 110 17l14-79q-73-14-124-19z"/><glyph glyph-name="uni0E1D0E49" unicode="ฝ้" horiz-adv-x="763" d="M681 777V209q0-115-45.5-169.5T512-15q-115 0-138 118-15-63-48.5-90.5T231-15q-75 0-119 53.5T68 209v81q0 105 15 167t50 91.5 96 29.5q24 0 47.5-5t37.5-11l-14-85q-19 7-39 7-24 0-38.5-15.5T201 415t-7-107v-96q0-71 15.5-100.5T258 82q29 0 43.5 21.5T316 184v122l115 13V184q0-102 57-102 32 0 48.5 26.5T553 207v485q-41-27-101-39t-146-14l-27 34q20 29 20 54 0 24-11.5 34T252 771q-19 0-42-5l-10 69q34 12 76 12 54 0 86.5-22.5T395 760q0-27-11-46 64 5 103.5 24t63.5 55l4-1z"/><glyph glyph-name="uni0E1D0E4A" unicode="ฝ๊" horiz-adv-x="763" d="M681 777V209q0-115-45.5-169.5T512-15q-115 0-138 118-15-63-48.5-90.5T231-15q-75 0-119 53.5T68 209v81q0 105 15 167t50 91.5 96 29.5q24 0 47.5-5t37.5-11l-14-85q-19 7-39 7-24 0-38.5-15.5T201 415t-7-107v-96q0-71 15.5-100.5T258 82q29 0 43.5 21.5T316 184v122l115 13V184q0-102 57-102 32 0 48.5 26.5T553 207v476q-49-43-139-43-26 0-48 4 5 39 5 82 0 21-9 32.5T338 770q-18 0-28.5-15.5T299 708v-39l-86-7v46q0 30-10 46t-27 16q-16 0-25-11.5t-9-33.5q0-42 9-83H61q-5 19-8 46t-3 50q0 51 29 80t78 29q45 0 69-22t31-56q6 33 31.5 55.5T359 847q48 0 75-25.5t27-63.5q0-22-7-45 41 5 65.5 26t33.5 53z"/><glyph glyph-name="uni0E1D0E4B" unicode="ฝ๋" horiz-adv-x="763" d="M681 777V209q0-115-45.5-169.5T512-15q-115 0-138 118-15-63-48.5-90.5T231-15q-75 0-119 53.5T68 209v81q0 105 15 167t50 91.5 96 29.5q24 0 47.5-5t37.5-11l-14-85q-19 7-39 7-24 0-38.5-15.5T201 415t-7-107v-96q0-71 15.5-100.5T258 82q29 0 43.5 21.5T316 184v122l115 13V184q0-102 57-102 32 0 48.5 26.5T553 207v585zm-181-70l-75 1 1-63h-98l1 63-79-1 8 77 71-1-1 57 98 10-1-67 75 1v-77z"/><glyph glyph-name="uni0E1D0E4C" unicode="ฝ์" horiz-adv-x="763" d="M764 675h-83V209q0-115-45.5-169.5T512-15q-115 0-138 118-15-63-48.5-90.5T231-15q-75 0-119 53.5T68 209v81q0 105 15 167t50 91.5 96 29.5q24 0 47.5-5t37.5-11l-14-85q-19 7-39 7-24 0-38.5-15.5T201 415t-7-107v-96q0-71 15.5-100.5T258 82q29 0 43.5 21.5T316 184v122l115 13V184q0-102 57-102 32 0 48.5 26.5T553 207v468h-40q-23 0-32-9t-9-33q0-15 2-33h-95q0 5-2 21.5t-2 31.5q0 52 33.5 76.5T499 754h54v38l128-15v-23h83v-79z"/><glyph glyph-name="uni0E1D0E4D" unicode="ฝํ" horiz-adv-x="763" d="M681 777V209q0-115-45.5-169.5T512-15q-115 0-138 118-15-63-48.5-90.5T231-15q-75 0-119 53.5T68 209v81q0 105 15 167t50 91.5 96 29.5q24 0 47.5-5t37.5-11l-14-85q-19 7-39 7-24 0-38.5-15.5T201 415t-7-107v-96q0-71 15.5-100.5T258 82q29 0 43.5 21.5T316 184v122l115 13V184q0-102 57-102 32 0 48.5 26.5T553 207v585zm-203 43q32-31 32-76t-32-76-83-31-82.5 31-31.5 76 31.5 76 82.5 31 83-31zm-108.5-48q-9.5-10-9.5-28t9.5-28 25.5-10 25.5 10 9.5 28-9.5 28-25.5 10-25.5-10z"/><glyph glyph-name="uni0E1F0E31" unicode="ฟั" horiz-adv-x="784" d="M749 644l-15-78L629 0H463l-81 445L293 0H133L69 356q-14 83-28.5 125.5T8 554l110 20q47-60 67-205l39-277 92 474h134l90-474 74 474 11 73q-82 2-123.5 28.5T460 753q0 29 8 61h88q-3-18-3-38 0-32 18.5-44t66.5-12l11 72h127l-12-66q55 6 110 18l14-79q-55-12-139-21z"/><glyph glyph-name="uni0E1F0E49" unicode="ฟ้" horiz-adv-x="770" d="M734 566L629 0H463l-81 445L293 0H133L69 356q-14 83-28.5 125.5T8 554l110 20q47-60 67-205l39-277 92 474h134l90-474 74 474 9 50q5 32 16 74-40-26-96.5-37.5T410 639l-27 35q20 29 20 53t-12 34-35 10q-19 0-42-5l-11 69q34 12 77 12 53 0 85.5-23t32.5-66q0-22-11-43 56 5 95 24t65 53l129-1z"/><glyph glyph-name="uni0E1F0E4A" unicode="ฟ๊" horiz-adv-x="770" d="M776 791l-42-225L629 0H463l-81 445L293 0H133L69 356q-14 83-28.5 125.5T8 554l110 20q47-60 67-205l39-277 92 474h134l90-474 74 474 7 39q6 38 15 67-45-32-120-32-26 0-48 4 5 52 5 82 0 21-9 32.5T439 770q-17 0-27.5-16T401 708v-39l-86-7v46q0 30-10 46t-27 16q-16 0-25-11.5t-9-33.5q0-42 9-83h-90q-12 50-12 96 0 51 29.5 80t78.5 29q45 0 68.5-22t30.5-56q7 33 32 55.5t71 22.5q47 0 74.5-25.5T563 758q0-22-7-45 38 6 61 27t32 52z"/><glyph glyph-name="uni0E1F0E4B" unicode="ฟ๋" horiz-adv-x="770" d="M776 792L629 0H463l-81 445L293 0H133L69 356q-14 83-28.5 125.5T8 554l110 20q47-60 67-205l39-277 92 474h134l90-474 74 474 35 226h127zm-191-85l-75 1 1-63h-98l1 63-79-1 8 77 71-1-1 57 98 10-1-67 75 1v-77z"/><glyph glyph-name="uni0E1F0E4C" unicode="ฟ์" horiz-adv-x="784" d="M848 675h-94l-20-109L629 0H463l-81 445L293 0H133L69 356q-14 83-28.5 125.5T8 554l110 20q47-60 67-205l39-277 92 474h134l90-474 91 583h-34q-23 0-32.5-9t-9.5-33q0-15 2-33h-94q-5 30-5 53 0 52 33.5 76.5T582 754h61l6 38h127l-7-38h79v-79z"/><glyph glyph-name="uni0E1F0E4D" unicode="ฟํ" horiz-adv-x="770" d="M776 792L629 0H463l-81 445L293 0H133L69 356q-14 83-28.5 125.5T8 554l110 20q47-60 67-205l39-277 92 474h134l90-474 74 474 35 226h127zm-213 28q32-31 32-76t-32-76-83-31-82.5 31-31.5 76 31.5 76 82.5 31 83-31zm-108.5-48q-9.5-10-9.5-28t9.5-28 25.5-10 25.5 10 9.5 28-9.5 28-25.5 10-25.5-10z"/><glyph glyph-name="uni0E310E4A" unicode="ั๊" d="M-521.5 670q-37.5 26-37.5 83 0 16 3 33t7 28h86q-4-24-4-37 0-26 16-35.5t60-9.5q41 0 96 10.5t107 31.5l21-81q-63-24-127-36.5T-412 644q-72 0-109.5 26zM-30 1037q-31-84-86-119.5T-253 882q-13 0-43 3 5 47 5 74 0 20-8 30t-23 10q-16 0-25-14t-9-42v-35l-77-6v41q0 27-9.5 41.5T-467 999t-23-10.5-8-30.5q0-38 9-74h-81q-11 42-11 86 0 46 26.5 72t70.5 26q41 0 62-20t27-50q6 30 29 50t64 20q43 0 67.5-23t24.5-57q0-22-7-43 77 12 107 108z"/><glyph glyph-name="uniFE8E" unicode="ا" horiz-adv-x="251" arabic-form="final" d="M60 760l104 13V228q0-61 21.5-83t76.5-22l9-65-20-58q-96 0-143.5 52.5T60 223v537z"/><glyph glyph-name="uniFE84" unicode="أ" horiz-adv-x="251" arabic-form="final" d="M60 629l104 13V228q0-61 21.5-83t76.5-22l9-65-20-58q-96 0-143.5 52.5T60 223v406zm165 86L4 680l-8 61 63 10q-38 34-38 68 0 38 27.5 64t78.5 26q38 0 83-25l-38-59q-26 16-47 16-18 0-26-9t-8-21q0-22 31-49l93 15z"/><glyph glyph-name="uniFE88" unicode="إ" horiz-adv-x="251" arabic-form="final" d="M60 760l104 13V228q0-61 21.5-83t76.5-22l9-65-20-58q-96 0-143.5 52.5T60 223v537zm179-991L18-266l-8 61 63 10q-38 34-38 68 0 38 27.5 64T141-37q38 0 83-25l-38-59q-26 16-47 16-18 0-26-9t-8-21q0-22 31-49l93 15z"/><glyph glyph-name="uniFE82" unicode="آ" horiz-adv-x="251" arabic-form="final" d="M60 629l104 13V228q0-61 21.5-83t76.5-22l9-65-20-58q-96 0-143.5 52.5T60 223v406zm-71 78q12 42 38.5 68T85 801q25 0 51-16 9-5 18.5-8.5T174 773q12 0 19 3t22 13l27-48q-21-20-39-28.5t-38-8.5q-15 0-28 6t-15 7q-9 5-18 8.5T87 729q-27 0-42-39z"/><glyph glyph-name="uniFB51" unicode="ٱ" horiz-adv-x="251" arabic-form="final" d="M60 629l104 13V228q0-61 21.5-83t76.5-22l9-65-20-58q-96 0-143.5 52.5T60 223v406zm168 245.5q24-20.5 24-57.5 0-51-34-72.5T131 723q-34 0-72 12l-18-35-54 19 29 86q11-4 33-10 24 53 56.5 76.5T172 895q32 0 56-20.5zM193 811q0 22-27 22-18 0-35-13.5T100 785q23-3 42-3 51 0 51 29z"/><glyph glyph-name="uniFD3D" unicode="ﴽ" horiz-adv-x="231" arabic-form="isolated" d="M62 0v629l107 13V0H62zM4 848l224 43-2-65L2 783zm0-97l224 43-2-65L2 686z"/><glyph glyph-name="uniFD3C" unicode="ﴼ" horiz-adv-x="251" arabic-form="final" d="M60 629l104 13V228q0-61 21.5-83t76.5-22l9-65-20-58q-96 0-143.5 52.5T60 223v406zM1 847l224 43-2-65-224-43zm0-97l224 43-2-65-224-43z"/><glyph glyph-name="uni066E.init" unicode="ٮ" horiz-adv-x="306" d="M99.5 129.5q29.5 6.5 40 22T150 198q0 59-47 185l109 36q21-61 32-123.5T255 186q0-75-23.5-115T154 15.5 0 0l-20 57 30 66q60 0 89.5 6.5z"/><glyph glyph-name="uni066E.medi" unicode="ٮ" horiz-adv-x="338" d="M358 58L338 0q-64 0-103.5 15T170 70q-25-40-63.5-55T0 0l-20 57 31 66q52 0 74 9.5t27 28 5 62.5v115h105V224q0-42 8.5-62.5t35-29.5 82.5-9z"/><glyph glyph-name="uni066E.fina" unicode="ٮ" horiz-adv-x="982" d="M1002 60L982 0q-78 0-124 17.5T781 80q-74-44-162-67T407-15v-1h-71v1q-115 5-178.5 28T68 79.5 42 195q0 40 10 82t28 79l80-25q-19-63-19-111 0-41 19.5-64.5t70-35T377 107q115 3 210.5 22.5T737 180v163h104v-93q0-52 11.5-78t43.5-37.5 96-11.5z"/><glyph glyph-name="uniFE90" unicode="ب" horiz-adv-x="982" arabic-form="final" d="M1002 60L982 0q-78 0-124 17.5T781 80q-74-44-162-67T407-15v-1h-71v1q-115 5-178.5 28T68 79.5 42 195q0 40 10 82t28 79l80-25q-19-63-19-111 0-41 19.5-64.5t70-35T377 107q115 3 210.5 22.5T737 180v163h104v-93q0-52 11.5-78t43.5-37.5 96-11.5zM331-196q-18 18-18 44t18 44 44 18 44-18 18-44-18-44-44-18-44 18z"/><glyph glyph-name="uniFE92" unicode="ب" horiz-adv-x="338" arabic-form="medial" d="M358 58L338 0q-64 0-103.5 15T170 70q-25-40-63.5-55T0 0l-20 57 31 66q52 0 74 9.5t27 28 5 62.5v115h105V224q0-42 8.5-62.5t35-29.5 82.5-9zM125-196q-18 18-18 44t18 44 44 18 44-18 18-44-18-44-44-18-44 18z"/><glyph glyph-name="uniFE91" unicode="ب" horiz-adv-x="306" d="M99.5 129.5q29.5 6.5 40 22T150 198q0 59-47 185l109 36q21-61 32-123.5T255 186q0-75-23.5-115T154 15.5 0 0l-20 57 30 66q60 0 89.5 6.5zM101-196q-18 18-18 44t18 44 44 18 44-18 18-44-18-44-44-18-44 18z"/><glyph glyph-name="uniFB57" unicode="پ" horiz-adv-x="982" arabic-form="final" d="M1002 60L982 0q-78 0-124 17.5T781 80q-74-44-162-67T407-15v-1h-71v1q-115 5-178.5 28T68 79.5 42 195q0 40 10 82t28 79l80-25q-19-63-19-111 0-41 19.5-64.5t70-35T377 107q115 3 210.5 22.5T737 180v163h104v-93q0-52 11.5-78t43.5-37.5 96-11.5zM327.5-106.5Q344-123 344-145q0-24-16.5-40.5T289-202q-24 0-40.5 16.5T232-145q0 23 16.5 39T289-90q22 0 38.5-16.5zm174 .5q16.5-16 16.5-39 0-24-16.5-40.5T461-202q-22 0-38.5 16.5T406-145q0 22 16.5 38.5T461-90q24 0 40.5-16zM414-234.5q16-16.5 16-39.5t-16-39.5-39-16.5-39 16.5-16 39.5 16 39.5 39 16.5 39-16.5z"/><glyph glyph-name="uniFB59" unicode="پ" horiz-adv-x="338" arabic-form="medial" d="M358 58L338 0q-64 0-103.5 15T170 70q-25-40-63.5-55T0 0l-20 57 31 66q52 0 74 9.5t27 28 5 62.5v115h105V224q0-42 8.5-62.5t35-29.5 82.5-9zM121.5-106.5Q138-123 138-145q0-24-16.5-40.5T83-202q-24 0-40.5 16.5T26-145q0 23 16.5 39T83-90q22 0 38.5-16.5zm174 .5q16.5-16 16.5-39 0-24-16.5-40.5T255-202q-22 0-38.5 16.5T200-145q0 22 16.5 38.5T255-90q24 0 40.5-16zM208-234.5q16-16.5 16-39.5t-16-39.5-39-16.5-39 16.5-16 39.5 16 39.5 39 16.5 39-16.5z"/><glyph glyph-name="uniFB58" unicode="پ" horiz-adv-x="306" d="M99.5 129.5q29.5 6.5 40 22T150 198q0 59-47 185l109 36q21-61 32-123.5T255 186q0-75-23.5-115T154 15.5 0 0l-20 57 30 66q60 0 89.5 6.5zm-2-236Q114-123 114-145q0-24-16.5-40.5T59-202q-24 0-40.5 16.5T2-145q0 23 16.5 39T59-90q22 0 38.5-16.5zm174 .5q16.5-16 16.5-39 0-24-16.5-40.5T231-202q-22 0-38.5 16.5T176-145q0 22 16.5 38.5T231-90q24 0 40.5-16zM184-234.5q16-16.5 16-39.5t-16-39.5-39-16.5-39 16.5T90-274t16 39.5 39 16.5 39-16.5z"/><glyph glyph-name="uniFB53" unicode="ٻ" horiz-adv-x="982" arabic-form="final" d="M1002 60L982 0q-78 0-124 17.5T781 80q-74-44-162-67T407-15v-1h-71v1q-115 5-178.5 28T68 79.5 42 195q0 40 10 82t28 79l80-25q-19-63-19-111 0-41 19.5-64.5t70-35T377 107q115 3 210.5 22.5T737 180v163h104v-93q0-52 11.5-78t43.5-37.5 96-11.5zM334-173q-17 17-17 41t17 40.5T375-75t41-16.5 17-40.5-17-41-41-17-41 17zm.5-154.5Q318-311 318-286q0 24 16.5 41t41.5 17q23 0 40.5-17t17.5-41-17-41-41-17q-25 0-41.5 16.5z"/><glyph glyph-name="uniFB55" unicode="ٻ" horiz-adv-x="338" arabic-form="medial" d="M358 58L338 0q-64 0-103.5 15T170 70q-25-40-63.5-55T0 0l-20 57 31 66q52 0 74 9.5t27 28 5 62.5v115h105V224q0-42 8.5-62.5t35-29.5 82.5-9zM128-173q-17 17-17 41t17 40.5T169-75t41-16.5 17-40.5-17-41-41-17-41 17zm.5-154.5Q112-311 112-286q0 24 16.5 41t41.5 17q23 0 40.5-17t17.5-41-17-41-41-17q-25 0-41.5 16.5z"/><glyph glyph-name="uniFB54" unicode="ٻ" horiz-adv-x="306" d="M99.5 129.5q29.5 6.5 40 22T150 198q0 59-47 185l109 36q21-61 32-123.5T255 186q0-75-23.5-115T154 15.5 0 0l-20 57 30 66q60 0 89.5 6.5zM105-173q-17 17-17 41t17 40.5T146-75t41-16.5 17-40.5-17-41-41-17-41 17zm.5-154.5Q89-311 89-286q0 24 16.5 41t41.5 17q23 0 40.5-17t17.5-41-17-41-41-17q-25 0-41.5 16.5z"/><glyph glyph-name="uniFB5B" unicode="ڀ" horiz-adv-x="982" arabic-form="final" d="M1002 60L982 0q-78 0-124 17.5T781 80q-74-44-162-67T407-15v-1h-71v1q-115 5-178.5 28T68 79.5 42 195q0 40 10 82t28 79l80-25q-19-63-19-111 0-41 19.5-64.5t70-35T377 107q115 3 210.5 22.5T737 180v163h104v-93q0-52 11.5-78t43.5-37.5 96-11.5zM261-169.5Q245-154 245-132q0 24 16 39.5T300-77t38.5-15.5T354-132q0-22-16-37.5T300-185q-23 0-39 15.5zm150 0Q395-154 395-132q0 24 15.5 39.5T449-77t39-15.5 16-39.5q0-22-16-37.5T449-185q-22 0-38 15.5zM261-313q-16 16-16 39t16 38.5 39 15.5 38.5-16 15.5-38q0-23-15.5-39T300-329t-39 16zm149.5 0Q395-297 395-274q0 22 16 38t38 16q23 0 39-16t16-38q0-23-16-39t-39-16-38.5 16z"/><glyph glyph-name="uniFB5D" unicode="ڀ" horiz-adv-x="338" arabic-form="medial" d="M358 58L338 0q-64 0-103.5 15T170 70q-25-40-63.5-55T0 0l-20 57 31 66q52 0 74 9.5t27 28 5 62.5v115h105V224q0-42 8.5-62.5t35-29.5 82.5-9zM55-169.5Q39-154 39-132q0 24 16 39.5T94-77t38.5-15.5T148-132q0-22-16-37.5T94-185q-23 0-39 15.5zm150 0Q189-154 189-132q0 24 15.5 39.5T243-77t39-15.5 16-39.5q0-22-16-37.5T243-185q-22 0-38 15.5zM55-313q-16 16-16 39t16 38.5T94-220t38.5-16 15.5-38q0-23-15.5-39T94-329t-39 16zm149.5 0Q189-297 189-274q0 22 16 38t38 16q23 0 39-16t16-38q0-23-16-39t-39-16-38.5 16z"/><glyph glyph-name="uniFB5C" unicode="ڀ" horiz-adv-x="306" d="M99.5 129.5q29.5 6.5 40 22T150 198q0 59-47 185l109 36q21-61 32-123.5T255 186q0-75-23.5-115T154 15.5 0 0l-20 57 30 66q60 0 89.5 6.5zM31-169.5Q15-154 15-132q0 24 16 39.5T70-77t38.5-15.5T124-132q0-22-16-37.5T70-185q-23 0-39 15.5zm150 0Q165-154 165-132q0 24 15.5 39.5T219-77t39-15.5 16-39.5q0-22-16-37.5T219-185q-22 0-38 15.5zM31-313q-16 16-16 39t16 38.5T70-220t38.5-16 15.5-38q0-23-15.5-39T70-329t-39 16zm149.5 0Q165-297 165-274q0 22 16 38t38 16q23 0 39-16t16-38q0-23-16-39t-39-16-38.5 16z"/><glyph glyph-name="uniFBE9" unicode="ى" horiz-adv-x="338" arabic-form="medial" d="M358 58L338 0q-64 0-103.5 15T170 70q-25-40-63.5-55T0 0l-20 57 31 66q52 0 74 9.5t27 28 5 62.5v115h105V224q0-42 8.5-62.5t35-29.5 82.5-9z"/><glyph glyph-name="uniFBE8" unicode="ى" horiz-adv-x="306" d="M99.5 129.5q29.5 6.5 40 22T150 198q0 59-47 185l109 36q21-61 32-123.5T255 186q0-75-23.5-115T154 15.5 0 0l-20 57 30 66q60 0 89.5 6.5z"/><glyph glyph-name="uniFE96" unicode="ت" horiz-adv-x="982" arabic-form="final" d="M1002 60L982 0q-78 0-124 17.5T781 80q-74-44-162-67T407-15v-1h-71v1q-115 5-178.5 28T68 79.5 42 195q0 40 10 82t28 79l80-25q-19-63-19-111 0-41 19.5-64.5t70-35T377 107q115 3 210.5 22.5T737 180v163h104v-93q0-52 11.5-78t43.5-37.5 96-11.5zM344 413q-17 17-17 41t17 41 40 17q24 0 41-17t17-41-17-41-41-17q-23 0-40 17zm160 0q-17 17-17 41t17 41 41 17q23 0 40.5-17t17.5-41-17.5-41-40.5-17q-24 0-41 17z"/><glyph glyph-name="uniFE98" unicode="ت" horiz-adv-x="338" arabic-form="medial" d="M358 58L338 0q-64 0-103.5 15T170 70q-25-40-63.5-55T0 0l-20 57 31 66q52 0 74 9.5t27 28 5 62.5v115h105V224q0-42 8.5-62.5t35-29.5 82.5-9zM49 449q-17 17-17 41t17 41 40 17q24 0 41-17t17-41-17-41-41-17q-23 0-40 17zm160 0q-17 17-17 41t17 41 41 17q23 0 40.5-17t17.5-41-17.5-41-40.5-17q-24 0-41 17z"/><glyph glyph-name="uniFE97" unicode="ت" horiz-adv-x="306" d="M99.5 129.5q29.5 6.5 40 22T150 198q0 59-47 185l109 36q21-61 32-123.5T255 186q0-75-23.5-115T154 15.5 0 0l-20 57 30 66q60 0 89.5 6.5zM6 517q-17 17-17 41t17 41 40 17q24 0 41-17t17-41-17-41-41-17q-23 0-40 17zm160 0q-17 17-17 41t17 41 41 17q23 0 40.5-17t17.5-41-17.5-41-40.5-17q-24 0-41 17z"/><glyph glyph-name="uni067C.init" unicode="ټ" horiz-adv-x="302" d="M5.5 517Q-12 534-12 558t17 41 41 17 41-16.5 17-41.5q0-24-17-41t-41-17q-23 0-40.5 17zm160.5 0q-17 17-17 41 0 25 17 41.5t41 16.5 40.5-16.5T264 558q0-24-17-41t-40-17q-24 0-41 17zm76-423.5Q229 58 200 37q24-26 24-62 0-38-26-63.5T133-114 67.5-88.5 41-25q0 15 4 26Q31 0 0 0l-20 57 30 66q60 0 89.5 6.5t40 22T150 198q0 59-47 185l109 36q21-61 32-123.5T255 186q0-57-13-92.5zM131 10l-14-3Q95-1 95-25q0-14 10.5-24.5T133-60t27 10.5T170-25q0 16-10 25.5T133 10h-2z"/><glyph glyph-name="uni067C.medi" unicode="ټ" horiz-adv-x="338" d="M48 448q-17 17-17 42 0 24 17 40.5T89 547t41-16.5 17-40.5q0-25-17-42t-41-17-41 17zm161 0q-17 17-17 42 0 24 17 40.5t41 16.5q23 0 40-16.5t17-40.5q0-25-17-42t-40-17q-24 0-41 17zm25.5-433Q195 30 170 70q-2-5-10-15 20-12 31.5-32T203-22q0-38-26-63.5T111-111q-39 0-65.5 25.5T19-22q0 11 3 22H0l-20 57 31 66q52 0 74 9.5t27 28 5 62.5v115h105V224q0-42 8.5-62.5t35-29.5 82.5-9l10-65-20-58q-64 0-103.5 15zM139-46.5Q149-36 149-22q0 16-10.5 25.5T111 13 84 3.5 74-22q0-14 10-24.5T111-57q18 0 28 10.5z"/><glyph glyph-name="uni067C.fina" unicode="ټ" horiz-adv-x="982" d="M344 413q-17 17-17 41 0 25 17 41.5t41 16.5 41-16.5 17-41.5q0-24-17-41t-41-17-41 17zm160 0q-17 17-17 41 0 25 17 41.5t42 16.5q24 0 40.5-16.5T603 454q0-24-17-41t-40-17q-25 0-42 17zm498-353L982 0q-78 0-124 17.5T781 80q-67-40-146-62.5T449-12q8-19 8-38 0-39-25.5-64.5T366-140q-39 0-65.5 26T274-50q0 21 9 39-94 8-146 32.5t-73.5 66T42 195q0 40 10 82t28 79l80-25q-19-63-19-111 0-41 19.5-64.5t70-35T377 107q115 3 210.5 22.5T737 180v163h104v-93q0-52 11.5-78t43.5-37.5 96-11.5zM393.5-74.5Q404-64 404-50q0 13-8.5 22.5T374-16h-17q-13-2-21-11.5T328-50q0-14 10.5-24.5T366-85t27.5 10.5z"/><glyph glyph-name="uni067D.init" unicode="ٽ" horiz-adv-x="306" d="M99.5 129.5q29.5 6.5 40 22T150 198q0 59-47 185l109 36q21-61 32-123.5T255 186q0-75-23.5-115T154 15.5 0 0l-20 57 30 66q60 0 89.5 6.5zm-20 568Q96 681 96 658t-16.5-39.5T41 602q-24 0-40.5 16.5T-16 658 .5 697.5 41 714q22 0 38.5-16.5zm174 0Q270 681 270 658t-16.5-39.5T213 602q-22 0-38.5 16.5T158 658t16.5 39.5T213 714q24 0 40.5-16.5zm-87.5-129q16-16.5 16-39.5t-16-39.5-39-16.5-39 16.5T72 529t16 39.5 39 16.5 39-16.5z"/><glyph glyph-name="uni067D.medi" unicode="ٽ" horiz-adv-x="338" d="M358 58L338 0q-64 0-103.5 15T170 70q-25-40-63.5-55T0 0l-20 57 31 66q52 0 74 9.5t27 28 5 62.5v115h105V224q0-42 8.5-62.5t35-29.5 82.5-9zM122.5 629.5Q139 613 139 590t-16.5-39.5T84 534q-24 0-40.5 16.5T27 590t16.5 39.5T84 646q22 0 38.5-16.5zm174 0Q313 613 313 590t-16.5-39.5T256 534q-22 0-38.5 16.5T201 590t16.5 39.5T256 646q24 0 40.5-16.5zm-87.5-129q16-16.5 16-39.5t-16-39.5-39-16.5-39 16.5-16 39.5 16 39.5 39 16.5 39-16.5z"/><glyph glyph-name="uni067D.fina" unicode="ٽ" horiz-adv-x="982" d="M1002 60L982 0q-78 0-124 17.5T781 80q-74-44-162-67T407-15v-1h-71v1q-115 5-178.5 28T68 79.5 42 195q0 40 10 82t28 79l80-25q-19-63-19-111 0-41 19.5-64.5t70-35T377 107q115 3 210.5 22.5T737 180v163h104v-93q0-52 11.5-78t43.5-37.5 96-11.5zM417.5 593.5Q434 577 434 554t-16.5-39.5T379 498q-24 0-40.5 16.5T322 554t16.5 39.5T379 610q22 0 38.5-16.5zm174 0Q608 577 608 554t-16.5-39.5T551 498q-22 0-38.5 16.5T496 554t16.5 39.5T551 610q24 0 40.5-16.5zm-87.5-129q16-16.5 16-39.5t-16-39.5-39-16.5-39 16.5-16 39.5 16 39.5 39 16.5 39-16.5z"/><glyph glyph-name="uniFE9A" unicode="ث" horiz-adv-x="982" arabic-form="final" d="M1002 60L982 0q-78 0-124 17.5T781 80q-74-44-162-67T407-15v-1h-71v1q-115 5-178.5 28T68 79.5 42 195q0 40 10 82t28 79l80-25q-19-63-19-111 0-41 19.5-64.5t70-35T377 107q115 3 210.5 22.5T737 180v163h104v-93q0-52 11.5-78t43.5-37.5 96-11.5zM426 526.5Q410 543 410 566t16 39.5 39 16.5 39-16.5 16-39.5-16-39.5-39-16.5-39 16.5zM338.5 398Q322 414 322 437t16.5 39.5T379 493q22 0 38.5-16.5T434 437q0-22-16.5-38.5T379 382q-24 0-40.5 16zm174 .5Q496 415 496 437q0 23 16.5 39.5T551 493q24 0 40.5-16.5T608 437t-16.5-39-40.5-16q-22 0-38.5 16.5z"/><glyph glyph-name="uniFE9C" unicode="ث" horiz-adv-x="338" arabic-form="medial" d="M358 58L338 0q-64 0-103.5 15T170 70q-25-40-63.5-55T0 0l-20 57 31 66q52 0 74 9.5t27 28 5 62.5v115h105V224q0-42 8.5-62.5t35-29.5 82.5-9zM131 562.5Q115 579 115 602t16 39.5 39 16.5 39-16.5 16-39.5-16-39.5-39-16.5-39 16.5zM43.5 434Q27 450 27 473t16.5 39.5T84 529q22 0 38.5-16.5T139 473q0-22-16.5-38.5T84 418q-24 0-40.5 16zm174 .5Q201 451 201 473q0 23 16.5 39.5T256 529q24 0 40.5-16.5T313 473t-16.5-39-40.5-16q-22 0-38.5 16.5z"/><glyph glyph-name="uniFE9B" unicode="ث" horiz-adv-x="306" d="M99.5 129.5q29.5 6.5 40 22T150 198q0 59-47 185l109 36q21-61 32-123.5T255 186q0-75-23.5-115T154 15.5 0 0l-20 57 30 66q60 0 89.5 6.5zM88 630.5Q72 647 72 670t16 39.5 39 16.5 39-16.5 16-39.5-16-39.5-39-16.5-39 16.5zM.5 502Q-16 518-16 541T.5 580.5 41 597q22 0 38.5-16.5T96 541q0-22-16.5-38.5T41 486q-24 0-40.5 16zm174 .5Q158 519 158 541q0 23 16.5 39.5T213 597q24 0 40.5-16.5T270 541t-16.5-39-40.5-16q-22 0-38.5 16.5z"/><glyph glyph-name="uniFB67" unicode="ٹ" horiz-adv-x="982" arabic-form="final" d="M1002 60L982 0q-78 0-124 17.5T781 80q-74-44-162-67T407-15v-1h-71v1q-115 5-178.5 28T68 79.5 42 195q0 40 10 82t28 79l80-25q-19-63-19-111 0-41 19.5-64.5t70-35T377 107q115 3 210.5 22.5T737 180v163h104v-93q0-52 11.5-78t43.5-37.5 96-11.5zM569.5 535q21.5-26 21.5-65 0-33-24.5-61T490 381H335l7 59h32l2 4v151h58v-71q20 20 38 28.5t38 8.5q38 0 59.5-26zm-46-87.5Q536 455 536 472q0 29-32 29-22 0-44.5-17T416 440h64q31 0 43.5 7.5z"/><glyph glyph-name="uniFB69" unicode="ٹ" horiz-adv-x="338" arabic-form="medial" d="M358 58L338 0q-64 0-103.5 15T170 70q-25-40-63.5-55T0 0l-20 57 31 66q52 0 74 9.5t27 28 5 62.5v115h105V224q0-42 8.5-62.5t35-29.5 82.5-9zm-83.5 513q21.5-26 21.5-65 0-33-24.5-61T195 417H40l7 59h32l2 4v151h58v-71q20 20 38 28.5t38 8.5q38 0 59.5-26zm-46-87.5Q241 491 241 508q0 29-32 29-22 0-44.5-17T121 476h64q31 0 43.5 7.5z"/><glyph glyph-name="uniFB68" unicode="ٹ" horiz-adv-x="306" d="M99.5 129.5q29.5 6.5 40 22T150 198q0 59-47 185l109 36q21-61 32-123.5T255 186q0-75-23.5-115T154 15.5 0 0l-20 57 30 66q60 0 89.5 6.5zm132 509.5q21.5-26 21.5-65 0-33-24.5-61T152 485H-3l7 59h32l2 4v151h58v-71q20 20 38 28.5t38 8.5q38 0 59.5-26zm-46-87.5Q198 559 198 576q0 29-32 29-22 0-44.5-17T78 544h64q31 0 43.5 7.5z"/><glyph glyph-name="uniFB5F" unicode="ٺ" horiz-adv-x="982" arabic-form="final" d="M1002 60L982 0q-78 0-124 17.5T781 80q-74-44-162-67T407-15v-1h-71v1q-115 5-178.5 28T68 79.5 42 195q0 40 10 82t28 79l80-25q-19-63-19-111 0-41 19.5-64.5t70-35T377 107q115 3 210.5 22.5T737 180v163h104v-93q0-52 11.5-78t43.5-37.5 96-11.5zM425 534q-17 17-17 41t17 41 41 17 41-17 17-41-17-41-41-17-41 17zm.5-154Q409 397 409 421t16.5 41 41.5 17q23 0 40.5-17t17.5-41-17.5-41-40.5-17q-25 0-41.5 17z"/><glyph glyph-name="uniFB61" unicode="ٺ" horiz-adv-x="338" arabic-form="medial" d="M358 58L338 0q-64 0-103.5 15T170 70q-25-40-63.5-55T0 0l-20 57 31 66q52 0 74 9.5t27 28 5 62.5v115h105V224q0-42 8.5-62.5t35-29.5 82.5-9zM129 570q-17 17-17 41t17 41 41 17 41-17 17-41-17-41-41-17-41 17zm.5-154Q113 433 113 457t16.5 41 41.5 17q23 0 40.5-17t17.5-41-17.5-41-40.5-17q-25 0-41.5 17z"/><glyph glyph-name="uniFB60" unicode="ٺ" horiz-adv-x="306" d="M99.5 129.5q29.5 6.5 40 22T150 198q0 59-47 185l109 36q21-61 32-123.5T255 186q0-75-23.5-115T154 15.5 0 0l-20 57 30 66q60 0 89.5 6.5zM86 638q-17 17-17 41t17 41 41 17 41-17 17-41-17-41-41-17-41 17zm.5-154Q70 501 70 525t16.5 41 41.5 17q23 0 40.5-17t17.5-41-17.5-41-40.5-17q-25 0-41.5 17z"/><glyph glyph-name="uniFB63" unicode="ٿ" horiz-adv-x="982" arabic-form="final" d="M1002 60L982 0q-78 0-124 17.5T781 80q-74-44-162-67T407-15v-1h-71v1q-115 5-178.5 28T68 79.5 42 195q0 40 10 82t28 79l80-25q-19-63-19-111 0-41 19.5-64.5t70-35T377 107q115 3 210.5 22.5T737 180v163h104v-93q0-52 11.5-78t43.5-37.5 96-11.5zM352.5 522Q336 538 336 559q0 24 16 40t39 16 38.5-16 15.5-40q0-21-16-37t-38-16-38.5 16zm149.5 0q-16 16-16 37 0 24 15.5 40t38.5 16 39-16 16-40q0-21-16-37t-39-16q-22 0-38 16zM352 379q-16 16-16 39 0 22 16 38t39 16 38.5-15.5T445 418t-15.5-39-38.5-16-39 16zm149.5 0Q486 395 486 418t16 38.5 38 15.5q23 0 39-15.5t16-38.5-16-39-39-16-38.5 16z"/><glyph glyph-name="uniFB65" unicode="ٿ" horiz-adv-x="338" arabic-form="medial" d="M358 58L338 0q-64 0-103.5 15T170 70q-25-40-63.5-55T0 0l-20 57 31 66q52 0 74 9.5t27 28 5 62.5v115h105V224q0-42 8.5-62.5t35-29.5 82.5-9zM57.5 558Q41 574 41 595q0 24 16 40t39 16 38.5-16 15.5-40q0-21-16-37t-38-16-38.5 16zm149.5 0q-16 16-16 37 0 24 15.5 40t38.5 16 39-16 16-40q0-21-16-37t-39-16q-22 0-38 16zM57 415q-16 16-16 39 0 22 16 38t39 16 38.5-15.5T150 454t-15.5-39T96 399t-39 16zm149.5 0Q191 431 191 454t16 38.5 38 15.5q23 0 39-15.5t16-38.5-16-39-39-16-38.5 16z"/><glyph glyph-name="uniFB64" unicode="ٿ" horiz-adv-x="306" d="M99.5 129.5q29.5 6.5 40 22T150 198q0 59-47 185l109 36q21-61 32-123.5T255 186q0-75-23.5-115T154 15.5 0 0l-20 57 30 66q60 0 89.5 6.5zM14.5 626Q-2 642-2 663q0 24 16 40t39 16 38.5-16 15.5-40q0-21-16-37t-38-16-38.5 16zm149.5 0q-16 16-16 37 0 24 15.5 40t38.5 16 39-16 16-40q0-21-16-37t-39-16q-22 0-38 16zM14 483q-16 16-16 39 0 22 16 38t39 16 38.5-15.5T107 522t-15.5-39T53 467t-39 16zm149.5 0Q148 499 148 522t16 38.5 38 15.5q23 0 39-15.5t16-38.5-16-39-39-16-38.5 16z"/><glyph glyph-name="uniFE9E" unicode="ج" horiz-adv-x="679" arabic-form="final" d="M271 142.5Q201 103 170 50T139-57q0-93 67.5-140T399-244q61 0 117 12.5t99 34.5l44-107q-46-29-115.5-46.5T388-368q-112 0-189.5 37t-116 103.5T44-75q0 142 99 238.5T434 288q-19 7-38.5 17.5T368 320q-38 21-67 31t-72 10q-69 0-133-37L43 425q41 26 90 40t99 14q45 0 82-12t65-29.5 69-47.5q50-37 88.5-58t87.5-28l-12-103-67-3q8-33 23-48.5t42.5-21T689 123l10-67-20-56q-99 0-159 48.5T451 193q-110-11-180-50.5zM327-96q-18 18-18 44t18 44 44 18 44-18 18-44-18-44-44-18-44 18z"/><glyph glyph-name="uniFEA0" unicode="ج" horiz-adv-x="727" arabic-form="medial" d="M747 56L727 0Q612 0 549 45.5T474 184q-42-12-81.5-31T291 100q-89-50-153.5-75T0 0l-20 57 30 66q72 0 129 18.5T277 199q62 30 110 49t105 30q-45 14-99 42-46 22-76.5 31.5T239 361q-61 0-125-37L58 427q42 24 89.5 38t86.5 14q57 0 98-10.5t69.5-26T468 400q50-35 93.5-58T673 303l-15-101-91-3q7-35 24-51t48.5-20.5T737 123zM355-146q-18 18-18 44t18 44 44 18 44-18 18-44-18-44-44-18-44 18z"/><glyph glyph-name="uniFE9F" unicode="ج" horiz-adv-x="709" d="M341 466q43-13 70.5-33t65.5-54q48-44 89-71t107-44l-15-101-101-7q-71-5-129.5-24T285 76q-88-38-149-57T0 0l-20 57 30 66q66 0 121 15t141 47q63 25 111 40.5T485 249q-38 19-84 54-28 21-47 32t-48 18.5-70 7.5q-62 0-126-37L56 427q42 25 90 38.5t91 13.5q61 0 104-13zm-79-662q-18 18-18 44t18 44 44 18 44-18 18-44-18-44-44-18-44 18z"/><glyph glyph-name="uniFB7B" unicode="چ" horiz-adv-x="679" arabic-form="final" d="M520 48.5Q460 97 451 193q-110-11-180-50.5T170 50 139-57q0-93 67.5-140T399-244q61 0 117 12.5t99 34.5l44-107q-46-29-115.5-46.5T388-368q-112 0-189.5 37t-116 103.5T44-75q0 142 99 238.5T434 288q-19 7-38.5 17.5T368 320q-38 21-67 31t-72 10q-69 0-133-37L43 425q41 26 90 40t99 14q45 0 82-12t65-29.5 69-47.5q50-37 88.5-58t87.5-28l-12-103-67-3q8-33 23-48.5t42.5-21T689 123l10-67-20-56q-99 0-159 48.5zm-203-12Q333 21 333 0q0-22-16-38t-37-16q-22 0-38 15.5T226 0q0 21 16 36.5T280 52q21 0 37-15.5zm165.5-75Q467-54 444-54q-21 0-36.5 16T392 0q0 21 15.5 36.5T444 52q22 0 38-15.5T498 0q0-23-15.5-38.5zm-157-122Q310-145 310-123t15.5 37.5T362-70t37-15.5 16-37.5-16-37.5-37-15.5-36.5 15.5z"/><glyph glyph-name="uniFB7D" unicode="چ" horiz-adv-x="727" arabic-form="medial" d="M747 56L727 0Q612 0 549 45.5T474 184q-42-12-81.5-31T291 100q-89-50-153.5-75T0 0l-20 57 30 66q72 0 129 18.5T277 199q62 30 110 49t105 30q-45 14-99 42-46 22-76.5 31.5T239 361q-61 0-125-37L58 427q42 24 89.5 38t86.5 14q57 0 98-10.5t69.5-26T468 400q50-35 93.5-58T673 303l-15-101-91-3q7-35 24-51t48.5-20.5T737 123zM351.5-56.5Q368-73 368-95q0-24-16.5-40.5T313-152q-24 0-40.5 16.5T256-95q0 23 16.5 39T313-40q22 0 38.5-16.5zm174 .5Q542-72 542-95q0-24-16.5-40.5T485-152q-22 0-38.5 16.5T430-95q0 22 16.5 38.5T485-40q24 0 40.5-16zM438-184.5q16-16.5 16-39.5t-16-39.5-39-16.5-39 16.5-16 39.5 16 39.5 39 16.5 39-16.5z"/><glyph glyph-name="uniFB7C" unicode="چ" horiz-adv-x="709" d="M341 466q43-13 70.5-33t65.5-54q48-44 89-71t107-44l-15-101-101-7q-71-5-129.5-24T285 76q-88-38-149-57T0 0l-20 57 30 66q66 0 121 15t141 47q63 25 111 40.5T485 249q-38 19-84 54-28 21-47 32t-48 18.5-70 7.5q-62 0-126-37L56 427q42 25 90 38.5t91 13.5q61 0 104-13zm-82.5-572.5Q275-123 275-145q0-24-16.5-40.5T220-202q-24 0-40.5 16.5T163-145q0 23 16.5 39T220-90q22 0 38.5-16.5zm174 .5q16.5-16 16.5-39 0-24-16.5-40.5T392-202q-22 0-38.5 16.5T337-145q0 22 16.5 38.5T392-90q24 0 40.5-16zM345-234.5q16-16.5 16-39.5t-16-39.5-39-16.5-39 16.5-16 39.5 16 39.5 39 16.5 39-16.5z"/><glyph glyph-name="uniFB7F" unicode="ڇ" horiz-adv-x="679" arabic-form="final" d="M520 48.5Q460 97 451 193q-110-11-180-50.5T170 50 139-57q0-93 67.5-140T399-244q61 0 117 12.5t99 34.5l44-107q-46-29-115.5-46.5T388-368q-112 0-189.5 37t-116 103.5T44-75q0 142 99 238.5T434 288q-19 7-38.5 17.5T368 320q-38 21-67 31t-72 10q-69 0-133-37L43 425q41 26 90 40t99 14q45 0 82-12t65-29.5 69-47.5q50-37 88.5-58t87.5-28l-12-103-67-3q8-33 23-48.5t42.5-21T689 123l10-67-20-56q-99 0-159 48.5zm-183 13Q352 46 352 24q0-21-15-36t-36-15q-22 0-37 15t-15 36q0 22 15 37.5T301 77q21 0 36-15.5zm142.5 0Q495 46 495 24q0-21-15.5-36T442-27q-21 0-36 15t-15 36q0 22 15 37.5T442 77q22 0 37.5-15.5zM337-74q15-15 15-37t-15-37-36-15q-22 0-37 15t-15 37 15 37 37 15q21 0 36-15zm142.5 0Q495-89 495-111t-15.5-37-37.5-15q-21 0-36 15t-15 37 15 37 36 15q22 0 37.5-15z"/><glyph glyph-name="uniFB81" unicode="ڇ" horiz-adv-x="727" arabic-form="medial" d="M747 56L727 0Q612 0 549 45.5T474 184q-42-12-81.5-31T291 100q-89-50-153.5-75T0 0l-20 57 30 66q72 0 129 18.5T277 199q62 30 110 49t105 30q-45 14-99 42-46 22-76.5 31.5T239 361q-61 0-125-37L58 427q42 24 89.5 38t86.5 14q57 0 98-10.5t69.5-26T468 400q50-35 93.5-58T673 303l-15-101-91-3q7-35 24-51t48.5-20.5T737 123zM285-119.5Q269-104 269-82q0 24 16 39.5T324-27t38.5-15.5T378-82q0-22-16-37.5T324-135q-23 0-39 15.5zm150 0Q419-104 419-82q0 24 15.5 39.5T473-27t39-15.5T528-82q0-22-16-37.5T473-135q-22 0-38 15.5zM285-263q-16 16-16 39t16 38.5 39 15.5 38.5-16 15.5-38q0-23-15.5-39T324-279t-39 16zm149.5 0Q419-247 419-224q0 22 16 38t38 16q23 0 39-16t16-38q0-23-16-39t-39-16-38.5 16z"/><glyph glyph-name="uniFB80" unicode="ڇ" horiz-adv-x="709" d="M341 466q43-13 70.5-33t65.5-54q48-44 89-71t107-44l-15-101-101-7q-71-5-129.5-24T285 76q-88-38-149-57T0 0l-20 57 30 66q66 0 121 15t141 47q63 25 111 40.5T485 249q-38 19-84 54-28 21-47 32t-48 18.5-70 7.5q-62 0-126-37L56 427q42 25 90 38.5t91 13.5q61 0 104-13zM192-169.5Q176-154 176-132q0 24 16 39.5T231-77t38.5-15.5T285-132q0-22-16-37.5T231-185q-23 0-39 15.5zm150 0Q326-154 326-132q0 24 15.5 39.5T380-77t39-15.5 16-39.5q0-22-16-37.5T380-185q-22 0-38 15.5zM192-313q-16 16-16 39t16 38.5 39 15.5 38.5-16 15.5-38q0-23-15.5-39T231-329t-39 16zm149.5 0Q326-297 326-274q0 22 16 38t38 16q23 0 39-16t16-38q0-23-16-39t-39-16-38.5 16z"/><glyph glyph-name="uni06BF.init" unicode="ڿ" horiz-adv-x="709" d="M341 466q43-13 70.5-33t65.5-54q48-44 89-71t107-44l-15-101-101-7q-71-5-129.5-24T285 76q-88-38-149-57T0 0l-20 57 30 66q66 0 121 15t141 47q63 25 111 40.5T485 249q-38 19-84 54-28 21-47 32t-48 18.5-70 7.5q-62 0-126-37L56 427q42 25 90 38.5t91 13.5q61 0 104-13zm-82.5-572.5Q275-123 275-145q0-24-16.5-40.5T220-202q-24 0-40.5 16.5T163-145q0 23 16.5 39T220-90q22 0 38.5-16.5zm174 .5q16.5-16 16.5-39 0-24-16.5-40.5T392-202q-22 0-38.5 16.5T337-145q0 22 16.5 38.5T392-90q24 0 40.5-16zM345-234.5q16-16.5 16-39.5t-16-39.5-39-16.5-39 16.5-16 39.5 16 39.5 39 16.5 39-16.5zM191 565q-18 18-18 44t18 44 44 18 44-18 18-44-18-44-44-18-44 18z"/><glyph glyph-name="uni06BF.medi" unicode="ڿ" horiz-adv-x="727" d="M747 56L727 0Q612 0 549 45.5T474 184q-42-12-81.5-31T291 100q-89-50-153.5-75T0 0l-20 57 30 66q72 0 129 18.5T277 199q62 30 110 49t105 30q-45 14-99 42-46 22-76.5 31.5T239 361q-61 0-125-37L58 427q42 24 89.5 38t86.5 14q57 0 98-10.5t69.5-26T468 400q50-35 93.5-58T673 303l-15-101-91-3q7-35 24-51t48.5-20.5T737 123zM351.5-56.5Q368-73 368-95q0-24-16.5-40.5T313-152q-24 0-40.5 16.5T256-95q0 23 16.5 39T313-40q22 0 38.5-16.5zm174 .5Q542-72 542-95q0-24-16.5-40.5T485-152q-22 0-38.5 16.5T430-95q0 22 16.5 38.5T485-40q24 0 40.5-16zM438-184.5q16-16.5 16-39.5t-16-39.5-39-16.5-39 16.5-16 39.5 16 39.5 39 16.5 39-16.5zM188 565q-18 18-18 44t18 44 44 18 44-18 18-44-18-44-44-18-44 18z"/><glyph glyph-name="uni06BF.fina" unicode="ڿ" horiz-adv-x="679" d="M520 48.5Q460 97 451 193q-110-11-180-50.5T170 50 139-57q0-93 67.5-140T399-244q61 0 117 12.5t99 34.5l44-107q-46-29-115.5-46.5T388-368q-112 0-189.5 37t-116 103.5T44-75q0 142 99 238.5T434 288q-19 7-38.5 17.5T368 320q-38 21-67 31t-72 10q-69 0-133-37L43 425q41 26 90 40t99 14q45 0 82-12t65-29.5 69-47.5q50-37 88.5-58t87.5-28l-12-103-67-3q8-33 23-48.5t42.5-21T689 123l10-67-20-56q-99 0-159 48.5zm-203-12Q333 21 333 0q0-22-16-38t-37-16q-22 0-38 15.5T226 0q0 21 16 36.5T280 52q21 0 37-15.5zm165.5-75Q467-54 444-54q-21 0-36.5 16T392 0q0 21 15.5 36.5T444 52q22 0 38-15.5T498 0q0-23-15.5-38.5zm-157-122Q310-145 310-123t15.5 37.5T362-70t37-15.5 16-37.5-16-37.5-37-15.5-36.5 15.5zM188 565q-18 18-18 44t18 44 44 18 44-18 18-44-18-44-44-18-44 18z"/><glyph glyph-name="uniFB77" unicode="ڃ" horiz-adv-x="679" arabic-form="final" d="M271 142.5Q201 103 170 50T139-57q0-93 67.5-140T399-244q61 0 117 12.5t99 34.5l44-107q-46-29-115.5-46.5T388-368q-112 0-189.5 37t-116 103.5T44-75q0 142 99 238.5T434 288q-19 7-38.5 17.5T368 320q-38 21-67 31t-72 10q-69 0-133-37L43 425q41 26 90 40t99 14q45 0 82-12t65-29.5 69-47.5q50-37 88.5-58t87.5-28l-12-103-67-3q8-33 23-48.5t42.5-21T689 123l10-67-20-56q-99 0-159 48.5T451 193q-110-11-180-50.5zM250-89q-17 17-17 41 0 25 17 41.5T290 10q24 0 41-16.5T348-48q0-24-17-41t-41-17q-23 0-40 17zm160 0q-17 17-17 41 0 25 17 41.5T451 10t41-17 17-41-17.5-41-40.5-17q-24 0-41 17z"/><glyph glyph-name="uniFB79" unicode="ڃ" horiz-adv-x="727" arabic-form="medial" d="M747 56L727 0Q612 0 549 45.5T474 184q-42-12-81.5-31T291 100q-89-50-153.5-75T0 0l-20 57 30 66q72 0 129 18.5T277 199q62 30 110 49t105 30q-45 14-99 42-46 22-76.5 31.5T239 361q-61 0-125-37L58 427q42 24 89.5 38t86.5 14q57 0 98-10.5t69.5-26T468 400q50-35 93.5-58T673 303l-15-101-91-3q7-35 24-51t48.5-20.5T737 123zM278-134q-17 17-17 41t17 41 40 17q24 0 41-17t17-41-17-41-41-17q-23 0-40 17zm160 0q-17 17-17 41t17 41 41 17q23 0 40.5-17T537-93t-17.5-41-40.5-17q-24 0-41 17z"/><glyph glyph-name="uniFB78" unicode="ڃ" horiz-adv-x="709" d="M341 466q43-13 70.5-33t65.5-54q48-44 89-71t107-44l-15-101-101-7q-71-5-129.5-24T285 76q-88-38-149-57T0 0l-20 57 30 66q66 0 121 15t141 47q63 25 111 40.5T485 249q-38 19-84 54-28 21-47 32t-48 18.5-70 7.5q-62 0-126-37L56 427q42 25 90 38.5t91 13.5q61 0 104-13zM185-184q-17 17-17 41t17 41 40 17q24 0 41-17t17-41-17-41-41-17q-23 0-40 17zm160 0q-17 17-17 41t17 41 41 17q23 0 40.5-17t17.5-41-17.5-41-40.5-17q-24 0-41 17z"/><glyph glyph-name="uniFB73" unicode="ڄ" horiz-adv-x="679" arabic-form="final" d="M271 142.5Q201 103 170 50T139-57q0-93 67.5-140T399-244q61 0 117 12.5t99 34.5l44-107q-46-29-115.5-46.5T388-368q-112 0-189.5 37t-116 103.5T44-75q0 142 99 238.5T434 288q-19 7-38.5 17.5T368 320q-38 21-67 31t-72 10q-69 0-133-37L43 425q41 26 90 40t99 14q45 0 82-12t65-29.5 69-47.5q50-37 88.5-58t87.5-28l-12-103-67-3q8-33 23-48.5t42.5-21T689 123l10-67-20-56q-99 0-159 48.5T451 193q-110-11-180-50.5zM332-29q-17 17-17 41t17 41 41 17 41-17 17-41-17-41-41-17-41 17zm.5-154Q316-166 316-142t16.5 41T373-84t41-17 17-41-17-41-41-17-40.5 17z"/><glyph glyph-name="uniFB75" unicode="ڄ" horiz-adv-x="727" arabic-form="medial" d="M747 56L727 0Q612 0 549 45.5T474 184q-42-12-81.5-31T291 100q-89-50-153.5-75T0 0l-20 57 30 66q72 0 129 18.5T277 199q62 30 110 49t105 30q-45 14-99 42-46 22-76.5 31.5T239 361q-61 0-125-37L58 427q42 24 89.5 38t86.5 14q57 0 98-10.5t69.5-26T468 400q50-35 93.5-58T673 303l-15-101-91-3q7-35 24-51t48.5-20.5T737 123zM358-123q-17 17-17 41t17 40.5T399-25t41-16.5T457-82t-17-41-41-17-41 17zm.5-154.5Q342-261 342-236q0 24 16.5 41t41.5 17q23 0 40.5-17t17.5-41-17-41-41-17q-25 0-41.5 16.5z"/><glyph glyph-name="uniFB74" unicode="ڄ" horiz-adv-x="709" d="M341 466q43-13 70.5-33t65.5-54q48-44 89-71t107-44l-15-101-101-7q-71-5-129.5-24T285 76q-88-38-149-57T0 0l-20 57 30 66q66 0 121 15t141 47q63 25 111 40.5T485 249q-38 19-84 54-28 21-47 32t-48 18.5-70 7.5q-62 0-126-37L56 427q42 25 90 38.5t91 13.5q61 0 104-13zm-76-639q-17 17-17 41t17 40.5T306-75t41-16.5 17-40.5-17-41-41-17-41 17zm.5-154.5Q249-311 249-286q0 24 16.5 41t41.5 17q23 0 40.5-17t17.5-41-17-41-41-17q-25 0-41.5 16.5z"/><glyph glyph-name="uniFEA2" unicode="ح" horiz-adv-x="679" arabic-form="final" d="M271 142.5Q201 103 170 50T139-57q0-93 67.5-140T399-244q61 0 117 12.5t99 34.5l44-107q-46-29-115.5-46.5T388-368q-112 0-189.5 37t-116 103.5T44-75q0 142 99 238.5T434 288q-19 7-38.5 17.5T368 320q-38 21-67 31t-72 10q-69 0-133-37L43 425q41 26 90 40t99 14q45 0 82-12t65-29.5 69-47.5q50-37 88.5-58t87.5-28l-12-103-67-3q8-33 23-48.5t42.5-21T689 123l10-67-20-56q-99 0-159 48.5T451 193q-110-11-180-50.5z"/><glyph glyph-name="uniFEA4" unicode="ح" horiz-adv-x="727" arabic-form="medial" d="M747 56L727 0Q612 0 549 45.5T474 184q-42-12-81.5-31T291 100q-89-50-153.5-75T0 0l-20 57 30 66q72 0 129 18.5T277 199q62 30 110 49t105 30q-45 14-99 42-46 22-76.5 31.5T239 361q-61 0-125-37L58 427q42 24 89.5 38t86.5 14q57 0 98-10.5t69.5-26T468 400q50-35 93.5-58T673 303l-15-101-91-3q7-35 24-51t48.5-20.5T737 123z"/><glyph glyph-name="uniFEA3" unicode="ح" horiz-adv-x="709" d="M341 466q43-13 70.5-33t65.5-54q48-44 89-71t107-44l-15-101-101-7q-71-5-129.5-24T285 76q-88-38-149-57T0 0l-20 57 30 66q66 0 121 15t141 47q63 25 111 40.5T485 249q-38 19-84 54-28 21-47 32t-48 18.5-70 7.5q-62 0-126-37L56 427q42 25 90 38.5t91 13.5q61 0 104-13z"/><glyph glyph-name="uni0681.init" unicode="ځ" horiz-adv-x="709" d="M341 466q43-13 70.5-33t65.5-54q48-44 89-71t107-44l-15-101-101-7q-71-5-129.5-24T285 76q-88-38-149-57T0 0l-20 57 30 66q66 0 121 15t141 47q63 25 111 40.5T485 249q-38 19-84 54-28 21-47 32t-48 18.5-70 7.5q-62 0-126-37L56 427q42 25 90 38.5t91 13.5q61 0 104-13zm8 91l-221-35-8 61 63 10q-38 34-38 68 0 38 27.5 64t78.5 26q38 0 83-25l-38-59q-26 16-47 16-18 0-26-9t-8-21q0-22 31-49l93 15z"/><glyph glyph-name="uni0681.medi" unicode="ځ" horiz-adv-x="727" d="M747 56L727 0Q612 0 549 45.5T474 184q-42-12-81.5-31T291 100q-89-50-153.5-75T0 0l-20 57 30 66q72 0 129 18.5T277 199q62 30 110 49t105 30q-45 14-99 42-46 22-76.5 31.5T239 361q-61 0-125-37L58 427q42 24 89.5 38t86.5 14q57 0 98-10.5t69.5-26T468 400q50-35 93.5-58T673 303l-15-101-91-3q7-35 24-51t48.5-20.5T737 123zM346 557l-221-35-8 61 63 10q-38 34-38 68 0 38 27.5 64t78.5 26q38 0 83-25l-38-59q-26 16-47 16-18 0-26-9t-8-21q0-22 31-49l93 15z"/><glyph glyph-name="uni0681.fina" unicode="ځ" horiz-adv-x="679" d="M271 142.5Q201 103 170 50T139-57q0-93 67.5-140T399-244q61 0 117 12.5t99 34.5l44-107q-46-29-115.5-46.5T388-368q-112 0-189.5 37t-116 103.5T44-75q0 142 99 238.5T434 288q-19 7-38.5 17.5T368 320q-38 21-67 31t-72 10q-69 0-133-37L43 425q41 26 90 40t99 14q45 0 82-12t65-29.5 69-47.5q50-37 88.5-58t87.5-28l-12-103-67-3q8-33 23-48.5t42.5-21T689 123l10-67-20-56q-99 0-159 48.5T451 193q-110-11-180-50.5zM346 557l-221-35-8 61 63 10q-38 34-38 68 0 38 27.5 64t78.5 26q38 0 83-25l-38-59q-26 16-47 16-18 0-26-9t-8-21q0-22 31-49l93 15z"/><glyph glyph-name="uni0682.init" unicode="ڂ" horiz-adv-x="709" d="M341 466q43-13 70.5-33t65.5-54q48-44 89-71t107-44l-15-101-101-7q-71-5-129.5-24T285 76q-88-38-149-57T0 0l-20 57 30 66q66 0 121 15t141 47q63 25 111 40.5T485 249q-38 19-84 54-28 21-47 32t-48 18.5-70 7.5q-62 0-126-37L56 427q42 25 90 38.5t91 13.5q61 0 104-13zM196 702q-17 17-17 41t17 41 41 17 41-17 17-41-17-41-41-17-41 17zm.5-154Q180 565 180 589t16.5 41 41.5 17q23 0 40.5-17t17.5-41-17.5-41-40.5-17q-25 0-41.5 17z"/><glyph glyph-name="uni0682.medi" unicode="ڂ" horiz-adv-x="727" d="M747 56L727 0Q612 0 549 45.5T474 184q-42-12-81.5-31T291 100q-89-50-153.5-75T0 0l-20 57 30 66q72 0 129 18.5T277 199q62 30 110 49t105 30q-45 14-99 42-46 22-76.5 31.5T239 361q-61 0-125-37L58 427q42 24 89.5 38t86.5 14q57 0 98-10.5t69.5-26T468 400q50-35 93.5-58T673 303l-15-101-91-3q7-35 24-51t48.5-20.5T737 123zM194 702q-17 17-17 41t17 41 41 17 41-17 17-41-17-41-41-17-41 17zm.5-154Q178 565 178 589t16.5 41 41.5 17q23 0 40.5-17t17.5-41-17.5-41-40.5-17q-25 0-41.5 17z"/><glyph glyph-name="uni0682.fina" unicode="ڂ" horiz-adv-x="679" d="M271 142.5Q201 103 170 50T139-57q0-93 67.5-140T399-244q61 0 117 12.5t99 34.5l44-107q-46-29-115.5-46.5T388-368q-112 0-189.5 37t-116 103.5T44-75q0 142 99 238.5T434 288q-19 7-38.5 17.5T368 320q-38 21-67 31t-72 10q-69 0-133-37L43 425q41 26 90 40t99 14q45 0 82-12t65-29.5 69-47.5q50-37 88.5-58t87.5-28l-12-103-67-3q8-33 23-48.5t42.5-21T689 123l10-67-20-56q-99 0-159 48.5T451 193q-110-11-180-50.5zM193 702q-17 17-17 41t17 41 41 17 41-17 17-41-17-41-41-17-41 17zm.5-154Q177 565 177 589t16.5 41 41.5 17q23 0 40.5-17t17.5-41-17.5-41-40.5-17q-25 0-41.5 17z"/><glyph glyph-name="uni0685.init" unicode="څ" horiz-adv-x="709" d="M341 466q43-13 70.5-33t65.5-54q48-44 89-71t107-44l-15-101-101-7q-71-5-129.5-24T285 76q-88-38-149-57T0 0l-20 57 30 66q66 0 121 15t141 47q63 25 111 40.5T485 249q-38 19-84 54-28 21-47 32t-48 18.5-70 7.5q-62 0-126-37L56 427q42 25 90 38.5t91 13.5q61 0 104-13zM198 694.5Q182 711 182 734t16 39.5 39 16.5 39-16.5 16-39.5-16-39.5-39-16.5-39 16.5zM110.5 566Q94 582 94 605t16.5 39.5T151 661q22 0 38.5-16.5T206 605q0-22-16.5-38.5T151 550q-24 0-40.5 16zm174 .5Q268 583 268 605q0 23 16.5 39.5T323 661q24 0 40.5-16.5T380 605t-16.5-39-40.5-16q-22 0-38.5 16.5z"/><glyph glyph-name="uni0685.medi" unicode="څ" horiz-adv-x="727" d="M747 56L727 0Q612 0 549 45.5T474 184q-42-12-81.5-31T291 100q-89-50-153.5-75T0 0l-20 57 30 66q72 0 129 18.5T277 199q62 30 110 49t105 30q-45 14-99 42-46 22-76.5 31.5T239 361q-61 0-125-37L58 427q42 24 89.5 38t86.5 14q57 0 98-10.5t69.5-26T468 400q50-35 93.5-58T673 303l-15-101-91-3q7-35 24-51t48.5-20.5T737 123zM195 694.5Q179 711 179 734t16 39.5 39 16.5 39-16.5 16-39.5-16-39.5-39-16.5-39 16.5zM107.5 566Q91 582 91 605t16.5 39.5T148 661q22 0 38.5-16.5T203 605q0-22-16.5-38.5T148 550q-24 0-40.5 16zm174 .5Q265 583 265 605q0 23 16.5 39.5T320 661q24 0 40.5-16.5T377 605t-16.5-39-40.5-16q-22 0-38.5 16.5z"/><glyph glyph-name="uni0685.fina" unicode="څ" horiz-adv-x="679" d="M271 142.5Q201 103 170 50T139-57q0-93 67.5-140T399-244q61 0 117 12.5t99 34.5l44-107q-46-29-115.5-46.5T388-368q-112 0-189.5 37t-116 103.5T44-75q0 142 99 238.5T434 288q-19 7-38.5 17.5T368 320q-38 21-67 31t-72 10q-69 0-133-37L43 425q41 26 90 40t99 14q45 0 82-12t65-29.5 69-47.5q50-37 88.5-58t87.5-28l-12-103-67-3q8-33 23-48.5t42.5-21T689 123l10-67-20-56q-99 0-159 48.5T451 193q-110-11-180-50.5zm-76 552Q179 711 179 734t16 39.5 39 16.5 39-16.5 16-39.5-16-39.5-39-16.5-39 16.5zM107.5 566Q91 582 91 605t16.5 39.5T148 661q22 0 38.5-16.5T203 605q0-22-16.5-38.5T148 550q-24 0-40.5 16zm174 .5Q265 583 265 605q0 23 16.5 39.5T320 661q24 0 40.5-16.5T377 605t-16.5-39-40.5-16q-22 0-38.5 16.5z"/><glyph glyph-name="uniFEA6" unicode="خ" horiz-adv-x="679" arabic-form="final" d="M271 142.5Q201 103 170 50T139-57q0-93 67.5-140T399-244q61 0 117 12.5t99 34.5l44-107q-46-29-115.5-46.5T388-368q-112 0-189.5 37t-116 103.5T44-75q0 142 99 238.5T434 288q-19 7-38.5 17.5T368 320q-38 21-67 31t-72 10q-69 0-133-37L43 425q41 26 90 40t99 14q45 0 82-12t65-29.5 69-47.5q50-37 88.5-58t87.5-28l-12-103-67-3q8-33 23-48.5t42.5-21T689 123l10-67-20-56q-99 0-159 48.5T451 193q-110-11-180-50.5zM188 565q-18 18-18 44t18 44 44 18 44-18 18-44-18-44-44-18-44 18z"/><glyph glyph-name="uniFEA8" unicode="خ" horiz-adv-x="727" arabic-form="medial" d="M747 56L727 0Q612 0 549 45.5T474 184q-42-12-81.5-31T291 100q-89-50-153.5-75T0 0l-20 57 30 66q72 0 129 18.5T277 199q62 30 110 49t105 30q-45 14-99 42-46 22-76.5 31.5T239 361q-61 0-125-37L58 427q42 24 89.5 38t86.5 14q57 0 98-10.5t69.5-26T468 400q50-35 93.5-58T673 303l-15-101-91-3q7-35 24-51t48.5-20.5T737 123zM188 565q-18 18-18 44t18 44 44 18 44-18 18-44-18-44-44-18-44 18z"/><glyph glyph-name="uniFEA7" unicode="خ" horiz-adv-x="709" d="M341 466q43-13 70.5-33t65.5-54q48-44 89-71t107-44l-15-101-101-7q-71-5-129.5-24T285 76q-88-38-149-57T0 0l-20 57 30 66q66 0 121 15t141 47q63 25 111 40.5T485 249q-38 19-84 54-28 21-47 32t-48 18.5-70 7.5q-62 0-126-37L56 427q42 25 90 38.5t91 13.5q61 0 104-13zm-150 99q-18 18-18 44t18 44 44 18 44-18 18-44-18-44-44-18-44 18z"/><glyph glyph-name="uniFEAA" unicode="د" horiz-adv-x="532" arabic-form="final" d="M552 58L532 0q-46 0-86 22.5T383 82q-53-96-203-96Q95-14 23 7l34 120q70-17 132-17 49 0 85.5 12.5T343 161L193 481l114 52 113-296q18-47 32.5-70.5t35-33.5 54.5-10z"/><glyph glyph-name="uniFEAC" unicode="ذ" horiz-adv-x="532" arabic-form="final" d="M552 58L532 0q-46 0-86 22.5T383 82q-53-96-203-96Q95-14 23 7l34 120q70-17 132-17 49 0 85.5 12.5T343 161L193 481l114 52 113-296q18-47 32.5-70.5t35-33.5 54.5-10zM172 613q-18 18-18 44t18 44 44 18 44-18 18-44-18-44-44-18-44 18z"/><glyph glyph-name="uniFC5B" unicode="ﱛ" horiz-adv-x="478" arabic-form="isolated" d="M90.5-10Q49-4 23 5l34 121q64-18 130-18 55 0 103.5 18t48.5 55q0 98-193 277l95 79q75-74 135-170t60-195q0-74-44-116T290-1 180-16q-48 0-89.5 6zM126 611q-18 18-18 44t18 44 44 18 44-18 18-44-18-44-44-18-44 18zm78 359V784h-68v178z"/><glyph glyph-name="uniFB89" unicode="ڈ" horiz-adv-x="532" arabic-form="final" d="M552 58L532 0q-46 0-86 22.5T383 82q-53-96-203-96Q95-14 23 7l34 120q70-17 132-17 49 0 85.5 12.5T343 161L193 481l114 52 113-296q18-47 32.5-70.5t35-33.5 54.5-10zM322.5 751q21.5-26 21.5-65 0-33-24.5-61T243 597H88l7 59h32l2 4v151h58v-71q20 20 38 28.5t38 8.5q38 0 59.5-26zm-46-87.5Q289 671 289 688q0 29-32 29-22 0-44.5-17T169 656h64q31 0 43.5 7.5z"/><glyph glyph-name="uniFB85" unicode="ڌ" horiz-adv-x="532" arabic-form="final" d="M552 58L532 0q-46 0-86 22.5T383 82q-53-96-203-96Q95-14 23 7l34 120q70-17 132-17 49 0 85.5 12.5T343 161L193 481l114 52 113-296q18-47 32.5-70.5t35-33.5 54.5-10zM97 629q-17 17-17 41t17 41 40 17q24 0 41-17t17-41-17-41-41-17q-23 0-40 17zm160 0q-17 17-17 41t17 41 41 17q23 0 40.5-17t17.5-41-17.5-41-40.5-17q-24 0-41 17z"/><glyph glyph-name="uniFB83" unicode="ڍ" horiz-adv-x="532" arabic-form="final" d="M552 58L532 0q-46 0-86 22.5T383 82q-53-96-203-96Q95-14 23 7l34 120q70-17 132-17 49 0 85.5 12.5T343 161L193 481l114 52 113-296q18-47 32.5-70.5t35-33.5 54.5-10zM85-184q-17 17-17 41t17 41 40 17q24 0 41-17t17-41-17-41-41-17q-23 0-40 17zm160 0q-17 17-17 41t17 41 41 17q23 0 40.5-17t17.5-41-17.5-41-40.5-17q-24 0-41 17z"/><glyph glyph-name="uni0689.fina" unicode="ډ" horiz-adv-x="532" d="M552 58L532 0q-46 0-86 22.5T383 82Q348 20 276-1q13-23 13-48 0-38-26-63.5T197-138q-39 0-65.5 25.5T105-49q0 20 8 39Q65-5 23 7l34 120q70-17 132-17 49 0 85.5 12.5T343 161L193 481l114 52 113-296q18-47 32.5-70.5t35-33.5 54.5-10zM225-73.5Q235-63 235-49q0 16-10.5 25.5T197-14t-27-9.5T160-49q0-14 10-24.5T197-84q18 0 28 10.5z"/><glyph glyph-name="uni068A.fina" unicode="ڊ" horiz-adv-x="532" d="M552 58L532 0q-46 0-86 22.5T383 82q-53-96-203-96Q95-14 23 7l34 120q70-17 132-17 49 0 85.5 12.5T343 161L193 481l114 52 113-296q18-47 32.5-70.5t35-33.5 54.5-10zM162-196q-18 18-18 44t18 44 44 18 44-18 18-44-18-44-44-18-44 18z"/><glyph glyph-name="uni068B.fina" unicode="ڋ" horiz-adv-x="532" d="M552 58L532 0q-46 0-86 22.5T383 82q-53-96-203-96Q95-14 23 7l34 120q70-17 132-17 49 0 85.5 12.5T343 161L193 481l114 52 113-296q18-47 32.5-70.5t35-33.5 54.5-10zM162-196q-18 18-18 44t18 44 44 18 44-18 18-44-18-44-44-18-44 18zm160.5 947q21.5-26 21.5-65 0-33-24.5-61T243 597H88l7 59h32l2 4v151h58v-71q20 20 38 28.5t38 8.5q38 0 59.5-26zm-46-87.5Q289 671 289 688q0 29-32 29-22 0-44.5-17T169 656h64q31 0 43.5 7.5z"/><glyph glyph-name="uniFB87" unicode="ڎ" horiz-adv-x="532" arabic-form="final" d="M552 58L532 0q-46 0-86 22.5T383 82q-53-96-203-96Q95-14 23 7l34 120q70-17 132-17 49 0 85.5 12.5T343 161L193 481l114 52 113-296q18-47 32.5-70.5t35-33.5 54.5-10zM179 742.5Q163 759 163 782t16 39.5 39 16.5 39-16.5 16-39.5-16-39.5-39-16.5-39 16.5zM91.5 614Q75 630 75 653t16.5 39.5T132 709q22 0 38.5-16.5T187 653q0-22-16.5-38.5T132 598q-24 0-40.5 16zm174 .5Q249 631 249 653q0 23 16.5 39.5T304 709q24 0 40.5-16.5T361 653t-16.5-39-40.5-16q-22 0-38.5 16.5z"/><glyph glyph-name="uni068F.fina" unicode="ڏ" horiz-adv-x="532" d="M552 58L532 0q-46 0-86 22.5T383 82q-53-96-203-96Q95-14 23 7l34 120q70-17 132-17 49 0 85.5 12.5T343 161L193 481l114 52 113-296q18-47 32.5-70.5t35-33.5 54.5-10zM170.5 809.5Q187 793 187 770t-16.5-39.5T132 714q-24 0-40.5 16.5T75 770t16.5 39.5T132 826q22 0 38.5-16.5zm174 0Q361 793 361 770t-16.5-39.5T304 714q-22 0-38.5 16.5T249 770t16.5 39.5T304 826q24 0 40.5-16.5zm-87.5-129q16-16.5 16-39.5t-16-39.5-39-16.5-39 16.5-16 39.5 16 39.5 39 16.5 39-16.5z"/><glyph glyph-name="uni0690.fina" unicode="ڐ" horiz-adv-x="532" d="M552 58L532 0q-46 0-86 22.5T383 82q-53-96-203-96Q95-14 23 7l34 120q70-17 132-17 49 0 85.5 12.5T343 161L193 481l114 52 113-296q18-47 32.5-70.5t35-33.5 54.5-10zM105.5 738Q89 754 89 775q0 24 16 40t39 16 38.5-16 15.5-40q0-21-16-37t-38-16-38.5 16zm149.5 0q-16 16-16 37 0 24 15.5 40t38.5 16 39-16 16-40q0-21-16-37t-39-16q-22 0-38 16zM105 595q-16 16-16 39 0 22 16 38t39 16 38.5-15.5T198 634t-15.5-39-38.5-16-39 16zm149.5 0Q239 611 239 634t16 38.5 38 15.5q23 0 39-15.5t16-38.5-16-39-39-16-38.5 16z"/><glyph glyph-name="uni06EE.fina" unicode="ۮ" horiz-adv-x="532" d="M552 58L532 0q-46 0-86 22.5T383 82q-53-96-203-96Q95-14 23 7l34 120q70-17 132-17 49 0 85.5 12.5T343 161L193 481l114 52 113-296q18-47 32.5-70.5t35-33.5 54.5-10zM109 619l78 142h60l80-142-58-24-51 84-51-84z"/><glyph glyph-name="uniFEAE" unicode="ر" horiz-adv-x="415" arabic-form="final" d="M435 57L415 0q-38 0-61.5 9.5T315 40q-11-110-87-182T12-254l-45 118q138 39 201 98t63 128q0 42-21.5 101.5T149 329l118 39q16-43 39-119 20-72 45.5-99t73.5-27z"/><glyph glyph-name="uniFEB0" unicode="ز" horiz-adv-x="415" arabic-form="final" d="M435 57L415 0q-38 0-61.5 9.5T315 40q-11-110-87-182T12-254l-45 118q138 39 201 98t63 128q0 42-21.5 101.5T149 329l118 39q16-43 39-119 20-72 45.5-99t73.5-27zM135 472q-18 18-18 44t18 44 44 18 44-18 18-44-18-44-44-18-44 18z"/><glyph glyph-name="uniFB8D" unicode="ڑ" horiz-adv-x="415" arabic-form="final" d="M435 57L415 0q-38 0-61.5 9.5T315 40q-11-110-87-182T12-254l-45 118q138 39 201 98t63 128q0 42-21.5 101.5T149 329l118 39q16-43 39-119 20-72 45.5-99t73.5-27zM285.5 610q21.5-26 21.5-65 0-33-24.5-61T206 456H51l7 59h32l2 4v151h58v-71q20 20 38 28.5t38 8.5q38 0 59.5-26zm-46-87.5Q252 530 252 547q0 29-32 29-22 0-44.5-17T132 515h64q31 0 43.5 7.5z"/><glyph glyph-name="uni0692.fina" unicode="ڒ" horiz-adv-x="415" d="M435 57L415 0q-38 0-61.5 9.5T315 40q-11-110-87-182T12-254l-45 118q138 39 201 98t63 128q0 42-21.5 101.5T149 329l118 39q16-43 39-119 20-72 45.5-99t73.5-27zM181 509l51 85 58-24-80-143h-60L72 570l58 24z"/><glyph glyph-name="uni0693.fina" unicode="ړ" horiz-adv-x="415" d="M435 57L415 0q-38 0-61.5 9.5T315 40q-10-100-75-169 33-6 54-30.5t21-58.5q0-38-26-63.5T224-307t-65.5 25.5T132-218q0 7 1 10-52-26-121-46l-45 118q138 39 201 98t63 128q0 42-21.5 101.5T149 329l118 39q16-43 39-119 20-72 45.5-99t73.5-27zM251-192.5q-10 9.5-27 9.5t-27.5-9.5T186-218q0-14 10.5-24.5T224-253t27 10.5 10 24.5q0 16-10 25.5z"/><glyph glyph-name="uni0694.fina" unicode="ڔ" horiz-adv-x="415" d="M435 57L415 0q-38 0-61.5 9.5T315 40q-11-110-87-182T12-254l-45 118q138 39 201 98t63 128q0 42-21.5 101.5T149 329l118 39q16-43 39-119 20-72 45.5-99t73.5-27zM183-374q-18 18-18 44t18 44 44 18 44-18 18-44-18-44-44-18-44 18z"/><glyph glyph-name="uni0695.fina" unicode="ڕ" horiz-adv-x="415" d="M435 57L415 0q-38 0-61.5 9.5T315 40q-11-110-87-182T12-254l-45 118q138 39 201 98t63 128q0 42-21.5 101.5T149 329l118 39q16-43 39-119 20-72 45.5-99t73.5-27zM227-312l51 85 58-24-80-143h-60l-78 143 58 24z"/><glyph glyph-name="uni0696.fina" unicode="ږ" horiz-adv-x="415" d="M435 57L415 0q-38 0-61.5 9.5T315 40q-11-110-87-182T12-254l-45 118q138 39 201 98t63 128q0 42-21.5 101.5T149 329l118 39q16-43 39-119 20-72 45.5-99t73.5-27zM183-374q-18 18-18 44t18 44 44 18 44-18 18-44-18-44-44-18-44 18zm-48 846q-18 18-18 44t18 44 44 18 44-18 18-44-18-44-44-18-44 18z"/><glyph glyph-name="uni0697.fina" unicode="ڗ" horiz-adv-x="415" d="M435 57L415 0q-38 0-61.5 9.5T315 40q-11-110-87-182T12-254l-45 118q138 39 201 98t63 128q0 42-21.5 101.5T149 329l118 39q16-43 39-119 20-72 45.5-99t73.5-27zM60 488q-17 17-17 41t17 41 40 17q24 0 41-17t17-41-17-41-41-17q-23 0-40 17zm160 0q-17 17-17 41t17 41 41 17q23 0 40.5-17t17.5-41-17.5-41-40.5-17q-24 0-41 17z"/><glyph glyph-name="uniFB8B" unicode="ژ" horiz-adv-x="415" arabic-form="final" d="M435 57L415 0q-38 0-61.5 9.5T315 40q-11-110-87-182T12-254l-45 118q138 39 201 98t63 128q0 42-21.5 101.5T149 329l118 39q16-43 39-119 20-72 45.5-99t73.5-27zM142 601.5Q126 618 126 641t16 39.5 39 16.5 39-16.5 16-39.5-16-39.5-39-16.5-39 16.5zM54.5 473Q38 489 38 512t16.5 39.5T95 568q22 0 38.5-16.5T150 512q0-22-16.5-38.5T95 457q-24 0-40.5 16zm174 .5Q212 490 212 512q0 23 16.5 39.5T267 568q24 0 40.5-16.5T324 512t-16.5-39-40.5-16q-22 0-38.5 16.5z"/><glyph glyph-name="uni0699.fina" unicode="ڙ" horiz-adv-x="415" d="M435 57L415 0q-38 0-61.5 9.5T315 40q-11-110-87-182T12-254l-45 118q138 39 201 98t63 128q0 42-21.5 101.5T149 329l118 39q16-43 39-119 20-72 45.5-99t73.5-27zM68.5 597Q52 613 52 634q0 24 16 40t39 16 38.5-16 15.5-40q0-21-16-37t-38-16-38.5 16zm149.5 0q-16 16-16 37 0 24 15.5 40t38.5 16 39-16 16-40q0-21-16-37t-39-16q-22 0-38 16zM68 454q-16 16-16 39 0 22 16 38t39 16 38.5-15.5T161 493t-15.5-39-38.5-16-39 16zm149.5 0Q202 470 202 493t16 38.5 38 15.5q23 0 39-15.5t16-38.5-16-39-39-16-38.5 16z"/><glyph glyph-name="uniFC5C" unicode="ﱜ" horiz-adv-x="371" arabic-form="isolated" d="M-33-136Q221-58 221 90q0 46-18.5 100T143 327l122 43q24-62 39.5-132.5T320 98q0-129-79-217T14-254zm247 759V437h-68v178z"/><glyph glyph-name="uniFEB2" unicode="س" horiz-adv-x="1316" arabic-form="final" d="M1336 59l-20-59q-55 0-94.5 17.5T1162 65q-45-65-146-65-44 0-80.5 16.5T877 67Q829 0 731 0h-1q-58 0-96 32-4-111-43-175t-108-90-171-26h-1q-137 0-203 66.5T42-5q0 104 51 202l80-24q-27-73-27-158 0-71 42-111.5T322-137q76 0 121.5 18.5T510-60t21 108q0 58-15.5 113T467 287l115 46q7-26 36-106 21-63 48.5-83.5T741 123q38 0 59 25t21 77v113h103V225q0-55 22-78.5t67-23.5q80 0 80 81v172h104V212q0-52 29-70.5t100-18.5z"/><glyph glyph-name="uniFEB4" unicode="س" horiz-adv-x="896" arabic-form="medial" d="M916 59L896 0q-55 0-94.5 17.5T742 65Q697 0 596 0q-44 0-80.5 16.5T457 67Q410 0 319 0q-42 0-79 16.5T182 66q-28-37-73-51.5T0 0l-20 58 31 65q60 0 89.5 17t29.5 64v134h102V223q0-59 23-79.5t65-20.5q38 0 59.5 25t21.5 77v113h103V225q0-55 22-78.5t67-23.5q80 0 80 81v165h104V212q0-52 29-70.5T906 123z"/><glyph glyph-name="uniFEB3" unicode="س" horiz-adv-x="828" d="M766 306.5Q776 250 776 205q0-105-48-155T601 0q-44 0-80.5 16.5T462 67Q415 0 324 0q-43 0-80 16.5T186 66q-28-37-73.5-51.5T0 0l-20 58 30 65q64 0 94.5 17t30.5 64v134h102V223q0-59 22.5-79.5T325 123q38 0 59.5 25t21.5 77v113h103V225q0-55 22-78.5t67-23.5q38 0 55.5 20t17.5 63q0 73-40 183l103 33q22-59 32-115.5z"/><glyph glyph-name="uni069A.init" unicode="ښ" horiz-adv-x="828" d="M766 306.5Q776 250 776 205q0-105-48-155T601 0q-44 0-80.5 16.5T462 67Q415 0 324 0q-43 0-80 16.5T186 66q-28-37-73.5-51.5T0 0l-20 58 30 65q64 0 94.5 17t30.5 64v134h102V223q0-59 22.5-79.5T325 123q38 0 59.5 25t21.5 77v113h103V225q0-55 22-78.5t67-23.5q38 0 55.5 20t17.5 63q0 73-40 183l103 33q22-59 32-115.5zM421-196q-18 18-18 44t18 44 44 18 44-18 18-44-18-44-44-18-44 18zm-20 629q-18 18-18 44t18 44 44 18 44-18 18-44-18-44-44-18-44 18z"/><glyph glyph-name="uni069A.medi" unicode="ښ" horiz-adv-x="896" d="M916 59L896 0q-55 0-94.5 17.5T742 65Q697 0 596 0q-44 0-80.5 16.5T457 67Q410 0 319 0q-42 0-79 16.5T182 66q-28-37-73-51.5T0 0l-20 58 31 65q60 0 89.5 17t29.5 64v134h102V223q0-59 23-79.5t65-20.5q38 0 59.5 25t21.5 77v113h103V225q0-55 22-78.5t67-23.5q80 0 80 81v165h104V212q0-52 29-70.5T906 123zM410-196q-18 18-18 44t18 44 44 18 44-18 18-44-18-44-44-18-44 18zm-4 629q-18 18-18 44t18 44 44 18 44-18 18-44-18-44-44-18-44 18z"/><glyph glyph-name="uni069A.fina" unicode="ښ" horiz-adv-x="1316" d="M1336 59l-20-59q-55 0-94.5 17.5T1162 65q-45-65-146-65-44 0-80.5 16.5T877 67Q829 0 731 0h-1q-58 0-96 32-4-111-43-175t-108-90-171-26h-1q-137 0-203 66.5T42-5q0 104 51 202l80-24q-27-73-27-158 0-71 42-111.5T322-137q76 0 121.5 18.5T510-60t21 108q0 58-15.5 113T467 287l115 46q7-26 36-106 21-63 48.5-83.5T741 123q38 0 59 25t21 77v113h103V225q0-55 22-78.5t67-23.5q80 0 80 81v172h104V212q0-52 29-70.5t100-18.5zM848-196q-18 18-18 44t18 44 44 18 44-18 18-44-18-44-44-18-44 18zm-22 629q-18 18-18 44t18 44 44 18 44-18 18-44-18-44-44-18-44 18z"/><glyph glyph-name="uni069B.init" unicode="ڛ" horiz-adv-x="828" d="M766 306.5Q776 250 776 205q0-105-48-155T601 0q-44 0-80.5 16.5T462 67Q415 0 324 0q-43 0-80 16.5T186 66q-28-37-73.5-51.5T0 0l-20 58 30 65q64 0 94.5 17t30.5 64v134h102V223q0-59 22.5-79.5T325 123q38 0 59.5 25t21.5 77v113h103V225q0-55 22-78.5t67-23.5q38 0 55.5 20t17.5 63q0 73-40 183l103 33q22-59 32-115.5zm-348.5-413Q434-123 434-145q0-24-16.5-40.5T379-202q-24 0-40.5 16.5T322-145q0 23 16.5 39T379-90q22 0 38.5-16.5zm174 .5q16.5-16 16.5-39 0-24-16.5-40.5T551-202q-22 0-38.5 16.5T496-145q0 22 16.5 38.5T551-90q24 0 40.5-16zM504-234.5q16-16.5 16-39.5t-16-39.5-39-16.5-39 16.5-16 39.5 16 39.5 39 16.5 39-16.5z"/><glyph glyph-name="uni069B.medi" unicode="ڛ" horiz-adv-x="896" d="M916 59L896 0q-55 0-94.5 17.5T742 65Q697 0 596 0q-44 0-80.5 16.5T457 67Q410 0 319 0q-42 0-79 16.5T182 66q-28-37-73-51.5T0 0l-20 58 31 65q60 0 89.5 17t29.5 64v134h102V223q0-59 23-79.5t65-20.5q38 0 59.5 25t21.5 77v113h103V225q0-55 22-78.5t67-23.5q80 0 80 81v165h104V212q0-52 29-70.5T906 123zM406.5-106.5Q423-123 423-145q0-24-16.5-40.5T368-202q-24 0-40.5 16.5T311-145q0 23 16.5 39T368-90q22 0 38.5-16.5zm174 .5q16.5-16 16.5-39 0-24-16.5-40.5T540-202q-22 0-38.5 16.5T485-145q0 22 16.5 38.5T540-90q24 0 40.5-16zM493-234.5q16-16.5 16-39.5t-16-39.5-39-16.5-39 16.5-16 39.5 16 39.5 39 16.5 39-16.5z"/><glyph glyph-name="uni069B.fina" unicode="ڛ" horiz-adv-x="1316" d="M1336 59l-20-59q-55 0-94.5 17.5T1162 65q-45-65-146-65-44 0-80.5 16.5T877 67Q829 0 731 0h-1q-58 0-96 32-4-111-43-175t-108-90-171-26h-1q-137 0-203 66.5T42-5q0 104 51 202l80-24q-27-73-27-158 0-71 42-111.5T322-137q76 0 121.5 18.5T510-60t21 108q0 58-15.5 113T467 287l115 46q7-26 36-106 21-63 48.5-83.5T741 123q38 0 59 25t21 77v113h103V225q0-55 22-78.5t67-23.5q80 0 80 81v172h104V212q0-52 29-70.5t100-18.5zM844.5-106.5Q861-123 861-145q0-24-16.5-40.5T806-202q-24 0-40.5 16.5T749-145q0 23 16.5 39T806-90q22 0 38.5-16.5zm174 .5q16.5-16 16.5-39 0-24-16.5-40.5T978-202q-22 0-38.5 16.5T923-145q0 22 16.5 38.5T978-90q24 0 40.5-16zM931-234.5q16-16.5 16-39.5t-16-39.5-39-16.5-39 16.5-16 39.5 16 39.5 39 16.5 39-16.5z"/><glyph glyph-name="uniFEB6" unicode="ش" horiz-adv-x="1316" arabic-form="final" d="M1336 59l-20-59q-55 0-94.5 17.5T1162 65q-45-65-146-65-44 0-80.5 16.5T877 67Q829 0 731 0h-1q-58 0-96 32-4-111-43-175t-108-90-171-26h-1q-137 0-203 66.5T42-5q0 104 51 202l80-24q-27-73-27-158 0-71 42-111.5T322-137q76 0 121.5 18.5T510-60t21 108q0 58-15.5 113T467 287l115 46q7-26 36-106 21-63 48.5-83.5T741 123q38 0 59 25t21 77v113h103V225q0-55 22-78.5t67-23.5q80 0 80 81v172h104V212q0-52 29-70.5t100-18.5zM833 562.5Q817 579 817 602t16 39.5 39 16.5 39-16.5 16-39.5-16-39.5-39-16.5-39 16.5zM745.5 434Q729 450 729 473t16.5 39.5T786 529q22 0 38.5-16.5T841 473q0-22-16.5-38.5T786 418q-24 0-40.5 16zm174 .5Q903 451 903 473q0 23 16.5 39.5T958 529q24 0 40.5-16.5T1015 473t-16.5-39-40.5-16q-22 0-38.5 16.5z"/><glyph glyph-name="uniFEB8" unicode="ش" horiz-adv-x="896" arabic-form="medial" d="M916 59L896 0q-55 0-94.5 17.5T742 65Q697 0 596 0q-44 0-80.5 16.5T457 67Q410 0 319 0q-42 0-79 16.5T182 66q-28-37-73-51.5T0 0l-20 58 31 65q60 0 89.5 17t29.5 64v134h102V223q0-59 23-79.5t65-20.5q38 0 59.5 25t21.5 77v113h103V225q0-55 22-78.5t67-23.5q80 0 80 81v165h104V212q0-52 29-70.5T906 123zM413 562.5Q397 579 397 602t16 39.5 39 16.5 39-16.5 16-39.5-16-39.5-39-16.5-39 16.5zM325.5 434Q309 450 309 473t16.5 39.5T366 529q22 0 38.5-16.5T421 473q0-22-16.5-38.5T366 418q-24 0-40.5 16zm174 .5Q483 451 483 473q0 23 16.5 39.5T538 529q24 0 40.5-16.5T595 473t-16.5-39-40.5-16q-22 0-38.5 16.5z"/><glyph glyph-name="uniFEB7" unicode="ش" horiz-adv-x="828" d="M766 306.5Q776 250 776 205q0-105-48-155T601 0q-44 0-80.5 16.5T462 67Q415 0 324 0q-43 0-80 16.5T186 66q-28-37-73.5-51.5T0 0l-20 58 30 65q64 0 94.5 17t30.5 64v134h102V223q0-59 22.5-79.5T325 123q38 0 59.5 25t21.5 77v113h103V225q0-55 22-78.5t67-23.5q38 0 55.5 20t17.5 63q0 73-40 183l103 33q22-59 32-115.5zm-358 256Q392 579 392 602t16 39.5 39 16.5 39-16.5 16-39.5-16-39.5-39-16.5-39 16.5zM320.5 434Q304 450 304 473t16.5 39.5T361 529q22 0 38.5-16.5T416 473q0-22-16.5-38.5T361 418q-24 0-40.5 16zm174 .5Q478 451 478 473q0 23 16.5 39.5T533 529q24 0 40.5-16.5T590 473t-16.5-39-40.5-16q-22 0-38.5 16.5z"/><glyph glyph-name="uni06FA.init" unicode="ۺ" horiz-adv-x="828" d="M766 306.5Q776 250 776 205q0-105-48-155T601 0q-44 0-80.5 16.5T462 67Q415 0 324 0q-43 0-80 16.5T186 66q-28-37-73.5-51.5T0 0l-20 58 30 65q64 0 94.5 17t30.5 64v134h102V223q0-59 22.5-79.5T325 123q38 0 59.5 25t21.5 77v113h103V225q0-55 22-78.5t67-23.5q38 0 55.5 20t17.5 63q0 73-40 183l103 33q22-59 32-115.5zm-358 256Q392 579 392 602t16 39.5 39 16.5 39-16.5 16-39.5-16-39.5-39-16.5-39 16.5zM320.5 434Q304 450 304 473t16.5 39.5T361 529q22 0 38.5-16.5T416 473q0-22-16.5-38.5T361 418q-24 0-40.5 16zm174 .5Q478 451 478 473q0 23 16.5 39.5T533 529q24 0 40.5-16.5T590 473t-16.5-39-40.5-16q-22 0-38.5 16.5zM421-196q-18 18-18 44t18 44 44 18 44-18 18-44-18-44-44-18-44 18z"/><glyph glyph-name="uni06FA.medi" unicode="ۺ" horiz-adv-x="896" d="M916 59L896 0q-55 0-94.5 17.5T742 65Q697 0 596 0q-44 0-80.5 16.5T457 67Q410 0 319 0q-42 0-79 16.5T182 66q-28-37-73-51.5T0 0l-20 58 31 65q60 0 89.5 17t29.5 64v134h102V223q0-59 23-79.5t65-20.5q38 0 59.5 25t21.5 77v113h103V225q0-55 22-78.5t67-23.5q80 0 80 81v165h104V212q0-52 29-70.5T906 123zM413 562.5Q397 579 397 602t16 39.5 39 16.5 39-16.5 16-39.5-16-39.5-39-16.5-39 16.5zM325.5 434Q309 450 309 473t16.5 39.5T366 529q22 0 38.5-16.5T421 473q0-22-16.5-38.5T366 418q-24 0-40.5 16zm174 .5Q483 451 483 473q0 23 16.5 39.5T538 529q24 0 40.5-16.5T595 473t-16.5-39-40.5-16q-22 0-38.5 16.5zM410-196q-18 18-18 44t18 44 44 18 44-18 18-44-18-44-44-18-44 18z"/><glyph glyph-name="uni06FA.fina" unicode="ۺ" horiz-adv-x="1316" d="M1336 59l-20-59q-55 0-94.5 17.5T1162 65q-45-65-146-65-44 0-80.5 16.5T877 67Q829 0 731 0h-1q-58 0-96 32-4-111-43-175t-108-90-171-26h-1q-137 0-203 66.5T42-5q0 104 51 202l80-24q-27-73-27-158 0-71 42-111.5T322-137q76 0 121.5 18.5T510-60t21 108q0 58-15.5 113T467 287l115 46q7-26 36-106 21-63 48.5-83.5T741 123q38 0 59 25t21 77v113h103V225q0-55 22-78.5t67-23.5q80 0 80 81v172h104V212q0-52 29-70.5t100-18.5zM833 562.5Q817 579 817 602t16 39.5 39 16.5 39-16.5 16-39.5-16-39.5-39-16.5-39 16.5zM745.5 434Q729 450 729 473t16.5 39.5T786 529q22 0 38.5-16.5T841 473q0-22-16.5-38.5T786 418q-24 0-40.5 16zm174 .5Q903 451 903 473q0 23 16.5 39.5T958 529q24 0 40.5-16.5T1015 473t-16.5-39-40.5-16q-22 0-38.5 16.5zM848-196q-18 18-18 44t18 44 44 18 44-18 18-44-18-44-44-18-44 18z"/><glyph glyph-name="uni069C.init" unicode="ڜ" horiz-adv-x="828" d="M766 306.5Q776 250 776 205q0-105-48-155T601 0q-44 0-80.5 16.5T462 67Q415 0 324 0q-43 0-80 16.5T186 66q-28-37-73.5-51.5T0 0l-20 58 30 65q64 0 94.5 17t30.5 64v134h102V223q0-59 22.5-79.5T325 123q38 0 59.5 25t21.5 77v113h103V225q0-55 22-78.5t67-23.5q38 0 55.5 20t17.5 63q0 73-40 183l103 33q22-59 32-115.5zm-358 256Q392 579 392 602t16 39.5 39 16.5 39-16.5 16-39.5-16-39.5-39-16.5-39 16.5zM320.5 434Q304 450 304 473t16.5 39.5T361 529q22 0 38.5-16.5T416 473q0-22-16.5-38.5T361 418q-24 0-40.5 16zm174 .5Q478 451 478 473q0 23 16.5 39.5T533 529q24 0 40.5-16.5T590 473t-16.5-39-40.5-16q-22 0-38.5 16.5zm-77-541Q434-123 434-145q0-24-16.5-40.5T379-202q-24 0-40.5 16.5T322-145q0 23 16.5 39T379-90q22 0 38.5-16.5zm174 .5q16.5-16 16.5-39 0-24-16.5-40.5T551-202q-22 0-38.5 16.5T496-145q0 22 16.5 38.5T551-90q24 0 40.5-16zM504-234.5q16-16.5 16-39.5t-16-39.5-39-16.5-39 16.5-16 39.5 16 39.5 39 16.5 39-16.5z"/><glyph glyph-name="uni069C.medi" unicode="ڜ" horiz-adv-x="896" d="M916 59L896 0q-55 0-94.5 17.5T742 65Q697 0 596 0q-44 0-80.5 16.5T457 67Q410 0 319 0q-42 0-79 16.5T182 66q-28-37-73-51.5T0 0l-20 58 31 65q60 0 89.5 17t29.5 64v134h102V223q0-59 23-79.5t65-20.5q38 0 59.5 25t21.5 77v113h103V225q0-55 22-78.5t67-23.5q80 0 80 81v165h104V212q0-52 29-70.5T906 123zM413 562.5Q397 579 397 602t16 39.5 39 16.5 39-16.5 16-39.5-16-39.5-39-16.5-39 16.5zM325.5 434Q309 450 309 473t16.5 39.5T366 529q22 0 38.5-16.5T421 473q0-22-16.5-38.5T366 418q-24 0-40.5 16zm174 .5Q483 451 483 473q0 23 16.5 39.5T538 529q24 0 40.5-16.5T595 473t-16.5-39-40.5-16q-22 0-38.5 16.5zm-93-541Q423-123 423-145q0-24-16.5-40.5T368-202q-24 0-40.5 16.5T311-145q0 23 16.5 39T368-90q22 0 38.5-16.5zm174 .5q16.5-16 16.5-39 0-24-16.5-40.5T540-202q-22 0-38.5 16.5T485-145q0 22 16.5 38.5T540-90q24 0 40.5-16zM493-234.5q16-16.5 16-39.5t-16-39.5-39-16.5-39 16.5-16 39.5 16 39.5 39 16.5 39-16.5z"/><glyph glyph-name="uni069C.fina" unicode="ڜ" horiz-adv-x="1316" d="M1336 59l-20-59q-55 0-94.5 17.5T1162 65q-45-65-146-65-44 0-80.5 16.5T877 67Q829 0 731 0h-1q-58 0-96 32-4-111-43-175t-108-90-171-26h-1q-137 0-203 66.5T42-5q0 104 51 202l80-24q-27-73-27-158 0-71 42-111.5T322-137q76 0 121.5 18.5T510-60t21 108q0 58-15.5 113T467 287l115 46q7-26 36-106 21-63 48.5-83.5T741 123q38 0 59 25t21 77v113h103V225q0-55 22-78.5t67-23.5q80 0 80 81v172h104V212q0-52 29-70.5t100-18.5zM833 562.5Q817 579 817 602t16 39.5 39 16.5 39-16.5 16-39.5-16-39.5-39-16.5-39 16.5zM745.5 434Q729 450 729 473t16.5 39.5T786 529q22 0 38.5-16.5T841 473q0-22-16.5-38.5T786 418q-24 0-40.5 16zm174 .5Q903 451 903 473q0 23 16.5 39.5T958 529q24 0 40.5-16.5T1015 473t-16.5-39-40.5-16q-22 0-38.5 16.5zm-75-541Q861-123 861-145q0-24-16.5-40.5T806-202q-24 0-40.5 16.5T749-145q0 23 16.5 39T806-90q22 0 38.5-16.5zm174 .5q16.5-16 16.5-39 0-24-16.5-40.5T978-202q-22 0-38.5 16.5T923-145q0 22 16.5 38.5T978-90q24 0 40.5-16zM931-234.5q16-16.5 16-39.5t-16-39.5-39-16.5-39 16.5-16 39.5 16 39.5 39 16.5 39-16.5z"/><glyph glyph-name="uniFEBA" unicode="ص" horiz-adv-x="1359" arabic-form="final" d="M1379 56l-20-56q-40 0-74.5 18.5T1227 68q-43-40-127-54T864 0H731q-59 0-97 32-4-111-43-175t-108-90-171-26h-1q-137 0-203 66.5T42-5q0 104 51 202l80-24q-27-73-27-158 0-71 42-111.5T322-137q76 0 121.5 18.5T510-60t21 108q0 58-15.5 113T467 287l115 46q7-26 36-106 16-47 35-69.5t45-29.5q40 109 99 185.5T926 429t143 39q58 0 105.5-26.5t76-80.5 28.5-133q0-38-6-67 20-22 43-30t54-8zm-314 75.5q65 8.5 93.5 32T1187 235q0 69-33 91t-83 22q-76 0-145.5-50.5T791 123h83q126 0 191 8.5z"/><glyph glyph-name="uniFEBC" unicode="ص" horiz-adv-x="956" arabic-form="medial" d="M976 56L956 0q-40 0-74.5 18.5T823 68q-42-40-126-54T460 0H327q-60 0-98.5 15T164 69q-24-39-62-54T0 0l-20 57 31 66q49 0 70.5 9t26 27.5T112 221v176h104V222q0-34 5.5-53t22-30 49.5-14q39 110 98.5 187.5t130 116.5T665 468q58 0 106-26.5t76.5-80.5T876 228q0-38-6-68 21-21 43-29t53-8zm-314.5 75.5q64.5 8.5 93 32T783 235q0 69-32.5 91T667 348q-76 0-145-50T387 123h84q126 0 190.5 8.5z"/><glyph glyph-name="uniFEBB" unicode="ص" horiz-adv-x="927" d="M771 441.5q48-26.5 76.5-80.5T876 228q0-99-41-147.5T708.5 16 460 0H327q-60 0-98.5 15T164 69q-24-39-62-54T0 0l-20 57 31 66q49 0 70.5 9t26 27.5T112 221v176h104V222q0-34 5.5-53t22-30 49.5-14q39 110 98.5 187.5t130 116.5T665 468q58 0 106-26.5zm-109.5-310q64.5 8.5 93 32T783 235q0 69-32.5 91T667 348q-76 0-145-50T387 123h84q126 0 190.5 8.5z"/><glyph glyph-name="uni069D.init" unicode="ڝ" horiz-adv-x="927" d="M771 441.5q48-26.5 76.5-80.5T876 228q0-99-41-147.5T708.5 16 460 0H327q-60 0-98.5 15T164 69q-24-39-62-54T0 0l-20 57 31 66q49 0 70.5 9t26 27.5T112 221v176h104V222q0-34 5.5-53t22-30 49.5-14q39 110 98.5 187.5t130 116.5T665 468q58 0 106-26.5zm-109.5-310q64.5 8.5 93 32T783 235q0 69-32.5 91T667 348q-76 0-145-50T387 123h84q126 0 190.5 8.5zM42-184q-17 17-17 41t17 41 40 17q24 0 41-17t17-41-17-41-41-17q-23 0-40 17zm160 0q-17 17-17 41t17 41 41 17q23 0 40.5-17t17.5-41-17.5-41-40.5-17q-24 0-41 17z"/><glyph glyph-name="uni069D.medi" unicode="ڝ" horiz-adv-x="956" d="M976 56L956 0q-40 0-74.5 18.5T823 68q-42-40-126-54T460 0H327q-60 0-98.5 15T164 69q-24-39-62-54T0 0l-20 57 31 66q49 0 70.5 9t26 27.5T112 221v176h104V222q0-34 5.5-53t22-30 49.5-14q39 110 98.5 187.5t130 116.5T665 468q58 0 106-26.5t76.5-80.5T876 228q0-38-6-68 21-21 43-29t53-8zm-314.5 75.5q64.5 8.5 93 32T783 235q0 69-32.5 91T667 348q-76 0-145-50T387 123h84q126 0 190.5 8.5zM42-184q-17 17-17 41t17 41 40 17q24 0 41-17t17-41-17-41-41-17q-23 0-40 17zm160 0q-17 17-17 41t17 41 41 17q23 0 40.5-17t17.5-41-17.5-41-40.5-17q-24 0-41 17z"/><glyph glyph-name="uni069D.fina" unicode="ڝ" horiz-adv-x="1359" d="M1379 56l-20-56q-40 0-74.5 18.5T1227 68q-43-40-127-54T864 0H731q-59 0-97 32-4-111-43-175t-108-90-171-26h-1q-137 0-203 66.5T42-5q0 104 51 202l80-24q-27-73-27-158 0-71 42-111.5T322-137q76 0 121.5 18.5T510-60t21 108q0 58-15.5 113T467 287l115 46q7-26 36-106 16-47 35-69.5t45-29.5q40 109 99 185.5T926 429t143 39q58 0 105.5-26.5t76-80.5 28.5-133q0-38-6-67 20-22 43-30t54-8zm-314 75.5q65 8.5 93.5 32T1187 235q0 69-33 91t-83 22q-76 0-145.5-50.5T791 123h83q126 0 191 8.5zM199-430q-17 17-17 41t17 41 40 17q24 0 41-17t17-41-17-41-41-17q-23 0-40 17zm160 0q-17 17-17 41t17 41 41 17q23 0 40.5-17t17.5-41-17.5-41-40.5-17q-24 0-41 17z"/><glyph glyph-name="uni069E.init" unicode="ڞ" horiz-adv-x="927" d="M593.5 676.5Q577 693 577 716q0 22 16.5 38.5T633 771q22 0 38.5-16.5T688 716q0-23-16.5-39.5T633 660q-23 0-39.5 16.5zm-88-129.5Q489 563 489 586q0 24 16.5 40.5T546 643q23 0 39.5-16.5T602 586q0-22-16.5-38.5T546 531q-24 0-40.5 16zm174 79.5Q696 643 719 643q24 0 40.5-16.5T776 586q0-23-16.5-39T719 531q-23 0-39.5 16.5T663 586q0 24 16.5 40.5zm91.5-185q48-26.5 76.5-80.5T876 228q0-99-41-147.5T708.5 16 460 0H327q-60 0-98.5 15T164 69q-24-39-62-54T0 0l-20 57 31 66q49 0 70.5 9t26 27.5T112 221v176h104V222q0-34 5.5-53t22-30 49.5-14q39 110 98.5 187.5t130 116.5T665 468q58 0 106-26.5zm-109.5-310q64.5 8.5 93 32T783 235q0 69-32.5 91T667 348q-76 0-145-50T387 123h84q126 0 190.5 8.5z"/><glyph glyph-name="uni069E.medi" unicode="ڞ" horiz-adv-x="956" d="M593.5 676.5Q577 693 577 716q0 22 16.5 38.5T633 771q22 0 38.5-16.5T688 716q0-23-16.5-39.5T633 660q-23 0-39.5 16.5zm-88-129.5Q489 563 489 586q0 24 16.5 40.5T546 643q23 0 39.5-16.5T602 586q0-22-16.5-38.5T546 531q-24 0-40.5 16zm174 79.5Q696 643 719 643q24 0 40.5-16.5T776 586q0-23-16.5-39T719 531q-23 0-39.5 16.5T663 586q0 24 16.5 40.5zM976 56L956 0q-40 0-74.5 18.5T823 68q-42-40-126-54T460 0H327q-60 0-98.5 15T164 69q-24-39-62-54T0 0l-20 57 31 66q49 0 70.5 9t26 27.5T112 221v176h104V222q0-34 5.5-53t22-30 49.5-14q39 110 98.5 187.5t130 116.5T665 468q58 0 106-26.5t76.5-80.5T876 228q0-38-6-68 21-21 43-29t53-8zm-314.5 75.5q64.5 8.5 93 32T783 235q0 69-32.5 91T667 348q-76 0-145-50T387 123h84q126 0 190.5 8.5z"/><glyph glyph-name="uni069E.fina" unicode="ڞ" horiz-adv-x="1359" d="M997 676.5Q981 693 981 716t16.5 39 38.5 16q23 0 39.5-16.5T1092 716q0-23-16.5-39.5T1036 660t-39 16.5zM909.5 547Q893 563 893 586q0 24 16.5 40.5T950 643q23 0 39-16.5t16-40.5q0-22-16-38.5T950 531q-24 0-40.5 16zm174 79.5Q1100 643 1123 643t40-16.5 17-40.5q0-22-17-38.5t-40-16.5-39.5 16.5T1067 586q0 24 16.5 40.5zM1379 56l-20-56q-40 0-74.5 18.5T1227 68q-43-40-127-54T864 0H731q-59 0-97 32-4-111-43-175t-108-90-171-26h-1q-137 0-203 66.5T42-5q0 104 51 202l80-24q-27-73-27-158 0-71 42-111.5T322-137q76 0 121.5 18.5T510-60t21 108q0 58-15.5 113T467 287l115 46q7-26 36-106 16-47 35-69.5t45-29.5q40 109 99 185.5T926 429t143 39q58 0 105.5-26.5t76-80.5 28.5-133q0-38-6-67 20-22 43-30t54-8zm-314 75.5q65 8.5 93.5 32T1187 235q0 69-33 91t-83 22q-76 0-145.5-50.5T791 123h83q126 0 191 8.5z"/><glyph glyph-name="uniFEBE" unicode="ض" horiz-adv-x="1359" arabic-form="final" d="M990 546q-18 18-18 45 0 26 18 44t44 18 44.5-18 18.5-44q0-27-18.5-45t-44.5-18-44 18zm389-490l-20-56q-40 0-74.5 18.5T1227 68q-43-40-127-54T864 0H731q-59 0-97 32-4-111-43-175t-108-90-171-26h-1q-137 0-203 66.5T42-5q0 104 51 202l80-24q-27-73-27-158 0-71 42-111.5T322-137q76 0 121.5 18.5T510-60t21 108q0 58-15.5 113T467 287l115 46q7-26 36-106 16-47 35-69.5t45-29.5q40 109 99 185.5T926 429t143 39q58 0 105.5-26.5t76-80.5 28.5-133q0-38-6-67 20-22 43-30t54-8zm-314 75.5q65 8.5 93.5 32T1187 235q0 69-33 91t-83 22q-76 0-145.5-50.5T791 123h83q126 0 191 8.5z"/><glyph glyph-name="uniFEC0" unicode="ض" horiz-adv-x="956" arabic-form="medial" d="M586 546q-18 18-18 45 0 26 18 44t45 18q26 0 44-18t18-44q0-27-18-45t-44-18q-27 0-45 18zM976 56L956 0q-40 0-74.5 18.5T823 68q-42-40-126-54T460 0H327q-60 0-98.5 15T164 69q-24-39-62-54T0 0l-20 57 31 66q49 0 70.5 9t26 27.5T112 221v176h104V222q0-34 5.5-53t22-30 49.5-14q39 110 98.5 187.5t130 116.5T665 468q58 0 106-26.5t76.5-80.5T876 228q0-38-6-68 21-21 43-29t53-8zm-314.5 75.5q64.5 8.5 93 32T783 235q0 69-32.5 91T667 348q-76 0-145-50T387 123h84q126 0 190.5 8.5z"/><glyph glyph-name="uniFEBF" unicode="ض" horiz-adv-x="927" d="M586 546q-18 18-18 45 0 26 18 44t45 18q26 0 44-18t18-44q0-27-18-45t-44-18q-27 0-45 18zm185-104.5q48-26.5 76.5-80.5T876 228q0-99-41-147.5T708.5 16 460 0H327q-60 0-98.5 15T164 69q-24-39-62-54T0 0l-20 57 31 66q49 0 70.5 9t26 27.5T112 221v176h104V222q0-34 5.5-53t22-30 49.5-14q39 110 98.5 187.5t130 116.5T665 468q58 0 106-26.5zm-109.5-310q64.5 8.5 93 32T783 235q0 69-32.5 91T667 348q-76 0-145-50T387 123h84q126 0 190.5 8.5z"/><glyph glyph-name="uni06FB.init" unicode="ۻ" horiz-adv-x="927" d="M586 546q-18 18-18 45 0 26 18 44t45 18q26 0 44-18t18-44q0-27-18-45t-44-18q-27 0-45 18zm185-104.5q48-26.5 76.5-80.5T876 228q0-99-41-147.5T708.5 16 460 0H327q-60 0-98.5 15T164 69q-24-39-62-54T0 0l-20 57 31 66q49 0 70.5 9t26 27.5T112 221v176h104V222q0-34 5.5-53t22-30 49.5-14q39 110 98.5 187.5t130 116.5T665 468q58 0 106-26.5zm-109.5-310q64.5 8.5 93 32T783 235q0 69-32.5 91T667 348q-76 0-145-50T387 123h84q126 0 190.5 8.5zM543-108q18-18 18-44t-18-44-44-18-44.5 18-18.5 44 18.5 44T499-90t44-18z"/><glyph glyph-name="uni06FB.medi" unicode="ۻ" horiz-adv-x="956" d="M586 546q-18 18-18 45 0 26 18 44t45 18q26 0 44-18t18-44q0-27-18-45t-44-18q-27 0-45 18zM976 56L956 0q-40 0-74.5 18.5T823 68q-42-40-126-54T460 0H327q-60 0-98.5 15T164 69q-24-39-62-54T0 0l-20 57 31 66q49 0 70.5 9t26 27.5T112 221v176h104V222q0-34 5.5-53t22-30 49.5-14q39 110 98.5 187.5t130 116.5T665 468q58 0 106-26.5t76.5-80.5T876 228q0-38-6-68 21-21 43-29t53-8zm-314.5 75.5q64.5 8.5 93 32T783 235q0 69-32.5 91T667 348q-76 0-145-50T387 123h84q126 0 190.5 8.5zM543-108q18-18 18-44t-18-44-44-18-44.5 18-18.5 44 18.5 44T499-90t44-18z"/><glyph glyph-name="uni06FB.fina" unicode="ۻ" horiz-adv-x="1359" d="M990 546q-18 18-18 45 0 26 18 44t44 18 44.5-18 18.5-44q0-27-18.5-45t-44.5-18-44 18zm389-490l-20-56q-40 0-74.5 18.5T1227 68q-43-40-127-54T864 0H731q-59 0-97 32-4-111-43-175t-108-90-171-26h-1q-137 0-203 66.5T42-5q0 104 51 202l80-24q-27-73-27-158 0-71 42-111.5T322-137q76 0 121.5 18.5T510-60t21 108q0 58-15.5 113T467 287l115 46q7-26 36-106 16-47 35-69.5t45-29.5q40 109 99 185.5T926 429t143 39q58 0 105.5-26.5t76-80.5 28.5-133q0-38-6-67 20-22 43-30t54-8zm-314 75.5q65 8.5 93.5 32T1187 235q0 69-33 91t-83 22q-76 0-145.5-50.5T791 123h83q126 0 191 8.5zM947-108q18-18 18-44t-18-44-44-18q-27 0-45 18t-18 44 18 44 45 18q26 0 44-18z"/><glyph glyph-name="uniFEC2" unicode="ط" horiz-adv-x="846" arabic-form="final" d="M866 56L846 0q-42 0-79 21t-60 55q-40-45-125.5-60.5T337 0H27l23 123h105l24 53v584l104 13V334q59 66 125 100t134 34q58 0 105.5-26.5t76-80.5T752 228q0-29-3-55 22-29 47-39.5t60-10.5zm-327.5 75.5q64.5 8.5 93 32T660 235q0 69-32.5 91T544 348q-76 0-146-50T261 123h87q126 0 190.5 8.5z"/><glyph glyph-name="uniFEC4" unicode="ط" horiz-adv-x="818" arabic-form="medial" d="M838 56L818 0q-42 0-78 20.5T680 75q-42-45-126.5-60T309 0H-1v2l-19 55 30 66h117l24 52v585l104 13V333q59 66 125 100.5T514 468q58 0 106-26.5t76.5-80.5T725 228q0-33-4-56 23-28 48-38.5t59-10.5zm-327.5 75.5q64.5 8.5 93 32T632 235q0 69-32.5 91T516 348q-76 0-146-50T233 123h87q126 0 190.5 8.5z"/><glyph glyph-name="uniFEC3" unicode="ط" horiz-adv-x="776" d="M620 441.5q48-26.5 76.5-80.5T725 228q0-99-41-147.5T557.5 16 309 0H-1v2l-19 55 30 66h117l24 52v585l104 13V333q59 66 125 100.5T514 468q58 0 106-26.5zm-109.5-310q64.5 8.5 93 32T632 235q0 69-32.5 91T516 348q-76 0-146-50T233 123h87q126 0 190.5 8.5z"/><glyph glyph-name="uni069F.init" unicode="ڟ" horiz-adv-x="776" d="M620 441.5q48-26.5 76.5-80.5T725 228q0-99-41-147.5T557.5 16 309 0H-1v2l-19 55 30 66h117l24 52v585l104 13V333q59 66 125 100.5T514 468q58 0 106-26.5zm-109.5-310q64.5 8.5 93 32T632 235q0 69-32.5 91T516 348q-76 0-146-50T233 123h87q126 0 190.5 8.5zm-64.5 544Q430 692 430 715t16 39.5 39 16.5 39-16.5 16-39.5-16-39.5-39-16.5-39 16.5zM358.5 547Q342 563 342 586t16.5 39.5T399 642q22 0 38.5-16.5T454 586q0-22-16.5-38.5T399 531q-24 0-40.5 16zm174 .5Q516 564 516 586q0 23 16.5 39.5T571 642q24 0 40.5-16.5T628 586t-16.5-39-40.5-16q-22 0-38.5 16.5z"/><glyph glyph-name="uni069F.medi" unicode="ڟ" horiz-adv-x="818" d="M838 56L818 0q-42 0-78 20.5T680 75q-42-45-126.5-60T309 0H-1v2l-19 55 30 66h117l24 52v585l104 13V333q59 66 125 100.5T514 468q58 0 106-26.5t76.5-80.5T725 228q0-33-4-56 23-28 48-38.5t59-10.5zm-327.5 75.5q64.5 8.5 93 32T632 235q0 69-32.5 91T516 348q-76 0-146-50T233 123h87q126 0 190.5 8.5zm-64.5 544Q430 692 430 715t16 39.5 39 16.5 39-16.5 16-39.5-16-39.5-39-16.5-39 16.5zM358.5 547Q342 563 342 586t16.5 39.5T399 642q22 0 38.5-16.5T454 586q0-22-16.5-38.5T399 531q-24 0-40.5 16zm174 .5Q516 564 516 586q0 23 16.5 39.5T571 642q24 0 40.5-16.5T628 586t-16.5-39-40.5-16q-22 0-38.5 16.5z"/><glyph glyph-name="uni069F.fina" unicode="ڟ" horiz-adv-x="846" d="M866 56L846 0q-42 0-79 21t-60 55q-40-45-125.5-60.5T337 0H27l23 123h105l24 53v584l104 13V334q59 66 125 100t134 34q58 0 105.5-26.5t76-80.5T752 228q0-29-3-55 22-29 47-39.5t60-10.5zm-327.5 75.5q64.5 8.5 93 32T660 235q0 69-32.5 91T544 348q-76 0-146-50T261 123h87q126 0 190.5 8.5zm-64.5 544Q458 692 458 715t16 39.5 39 16.5 39-16.5 16-39.5-16-39.5-39-16.5-39 16.5zM386.5 547Q370 563 370 586t16.5 39.5T427 642q22 0 38.5-16.5T482 586q0-22-16.5-38.5T427 531q-24 0-40.5 16zm174 .5Q544 564 544 586q0 23 16.5 39.5T599 642q24 0 40.5-16.5T656 586t-16.5-39-40.5-16q-22 0-38.5 16.5z"/><glyph glyph-name="uniFEC6" unicode="ظ" horiz-adv-x="846" arabic-form="final" d="M866 56L846 0q-42 0-79 21t-60 55q-40-45-125.5-60.5T337 0H27l23 123h105l24 53v584l104 13V334q59 66 125 100t134 34q58 0 105.5-26.5t76-80.5T752 228q0-29-3-55 22-29 47-39.5t60-10.5zm-327.5 75.5q64.5 8.5 93 32T660 235q0 69-32.5 91T544 348q-76 0-146-50T261 123h87q126 0 190.5 8.5zM467 546q-18 18-18 44t18 44 44 18 44-18 18-44-18-44-44-18-44 18z"/><glyph glyph-name="uniFEC8" unicode="ظ" horiz-adv-x="818" arabic-form="medial" d="M838 56L818 0q-42 0-78 20.5T680 75q-42-45-126.5-60T309 0H-1v2l-19 55 30 66h117l24 52v585l104 13V333q59 66 125 100.5T514 468q58 0 106-26.5t76.5-80.5T725 228q0-33-4-56 23-28 48-38.5t59-10.5zm-327.5 75.5q64.5 8.5 93 32T632 235q0 69-32.5 91T516 348q-76 0-146-50T233 123h87q126 0 190.5 8.5zM439 546q-18 18-18 44t18 44 44 18 44-18 18-44-18-44-44-18-44 18z"/><glyph glyph-name="uniFEC7" unicode="ظ" horiz-adv-x="776" d="M620 441.5q48-26.5 76.5-80.5T725 228q0-99-41-147.5T557.5 16 309 0H-1v2l-19 55 30 66h117l24 52v585l104 13V333q59 66 125 100.5T514 468q58 0 106-26.5zm-109.5-310q64.5 8.5 93 32T632 235q0 69-32.5 91T516 348q-76 0-146-50T233 123h87q126 0 190.5 8.5zM439 546q-18 18-18 44t18 44 44 18 44-18 18-44-18-44-44-18-44 18z"/><glyph glyph-name="uniFECA" unicode="ع" horiz-adv-x="578" arabic-form="final" d="M553-198l45-107q-102-63-263-63-104 0-172 36t-99.5 93.5T32-114q0 188 176 273-40 42-76 75t-92 72l15 116q47 18 105.5 29T282 462q224 0 224-148 0-54-28.5-95.5T390 142q24-11 57.5-15t97.5-4h44l9-65-20-58h-58q-66 0-123 20.5T282 89Q198 48 161.5 4.5T125-95q0-67 55-108t164-41q122 0 209 46zM210.5 284.5Q244 257 279 227l30-26q55 24 80.5 46.5T415 298q0 26-30.5 38.5T285 349q-64 0-134-18 26-19 59.5-46.5z"/><glyph glyph-name="uniFECC" unicode="ع" horiz-adv-x="606" arabic-form="medial" d="M626 57L606 0h-45q-69 0-125 17.5T330 73q-64-34-138-53.5T45 0H0l-20 58 30 65h18q115 0 216 32-46 48-80.5 79.5T72 305l14 116q47 18 105 29.5T311 462q222 0 222-148 0-44-26.5-88.5T432 140q27-10 60.5-13.5T581 123h36zM242 283.5q33-27.5 43-36.5 27-24 60-51 45 25 70.5 51.5T441 297q0 26-30 39t-97 13q-64 0-132-18 27-20 60-47.5z"/><glyph glyph-name="uniFECB" unicode="ع" horiz-adv-x="568" d="M555 53Q423 21 332.5 10.5T142 0H0l-20 56 30 67h143q-41 37-62.5 80T69 287q0 49 27 93t80.5 71.5T304 479q90 0 164-39l-49-113q-29 15-59.5 22.5T304 357q-63 0-94-26t-31-65q0-76 98-138 56 4 114 15t150 33z"/><glyph glyph-name="uni06A0.init" unicode="ڠ" horiz-adv-x="568" d="M555 53Q423 21 332.5 10.5T142 0H0l-20 56 30 67h143q-41 37-62.5 80T69 287q0 49 27 93t80.5 71.5T304 479q90 0 164-39l-49-113q-29 15-59.5 22.5T304 357q-63 0-94-26t-31-65q0-76 98-138 56 4 114 15t150 33zM265 694.5Q249 711 249 734t16 39.5 39 16.5 39-16.5 16-39.5-16-39.5-39-16.5-39 16.5zM177.5 566Q161 582 161 605t16.5 39.5T218 661q22 0 38.5-16.5T273 605q0-22-16.5-38.5T218 550q-24 0-40.5 16zm174 .5Q335 583 335 605q0 23 16.5 39.5T390 661q24 0 40.5-16.5T447 605t-16.5-39-40.5-16q-22 0-38.5 16.5z"/><glyph glyph-name="uni06A0.medi" unicode="ڠ" horiz-adv-x="606" d="M626 57L606 0h-45q-69 0-125 17.5T330 73q-64-34-138-53.5T45 0H0l-20 58 30 65h18q115 0 216 32-46 48-80.5 79.5T72 305l14 116q47 18 105 29.5T311 462q222 0 222-148 0-44-26.5-88.5T432 140q27-10 60.5-13.5T581 123h36zM242 283.5q33-27.5 43-36.5 27-24 60-51 45 25 70.5 51.5T441 297q0 26-30 39t-97 13q-64 0-132-18 27-20 60-47.5zm29 403Q255 703 255 726t16 39.5 39 16.5 39-16.5 16-39.5-16-39.5-39-16.5-39 16.5zM183.5 558Q167 574 167 597t16.5 39.5T224 653q22 0 38.5-16.5T279 597q0-22-16.5-38.5T224 542q-24 0-40.5 16zm174 .5Q341 575 341 597q0 23 16.5 39.5T396 653q24 0 40.5-16.5T453 597t-16.5-39-40.5-16q-22 0-38.5 16.5z"/><glyph glyph-name="uni06A0.fina" unicode="ڠ" horiz-adv-x="578" d="M553-198l45-107q-102-63-263-63-104 0-172 36t-99.5 93.5T32-114q0 188 176 273-40 42-76 75t-92 72l15 116q47 18 105.5 29T282 462q224 0 224-148 0-54-28.5-95.5T390 142q24-11 57.5-15t97.5-4h44l9-65-20-58h-58q-66 0-123 20.5T282 89Q198 48 161.5 4.5T125-95q0-67 55-108t164-41q122 0 209 46zM210.5 284.5Q244 257 279 227l30-26q55 24 80.5 46.5T415 298q0 26-30.5 38.5T285 349q-64 0-134-18 26-19 59.5-46.5zm48.5 401Q243 702 243 725t16 39.5 39 16.5 39-16.5 16-39.5-16-39.5-39-16.5-39 16.5zM171.5 557Q155 573 155 596t16.5 39.5T212 652q22 0 38.5-16.5T267 596q0-22-16.5-38.5T212 541q-24 0-40.5 16zm174 .5Q329 574 329 596q0 23 16.5 39.5T384 652q24 0 40.5-16.5T441 596t-16.5-39-40.5-16q-22 0-38.5 16.5z"/><glyph glyph-name="uniFECE" unicode="غ" horiz-adv-x="578" arabic-form="final" d="M553-198l45-107q-102-63-263-63-104 0-172 36t-99.5 93.5T32-114q0 188 176 273-40 42-76 75t-92 72l15 116q47 18 105.5 29T282 462q224 0 224-148 0-54-28.5-95.5T390 142q24-11 57.5-15t97.5-4h44l9-65-20-58h-58q-66 0-123 20.5T282 89Q198 48 161.5 4.5T125-95q0-67 55-108t164-41q122 0 209 46zM210.5 284.5Q244 257 279 227l30-26q55 24 80.5 46.5T415 298q0 26-30.5 38.5T285 349q-64 0-134-18 26-19 59.5-46.5zM252 556q-18 18-18 44t18 44 44 18 44-18 18-44-18-44-44-18-44 18z"/><glyph glyph-name="uniFED0" unicode="غ" horiz-adv-x="606" arabic-form="medial" d="M626 57L606 0h-45q-69 0-125 17.5T330 73q-64-34-138-53.5T45 0H0l-20 58 30 65h18q115 0 216 32-46 48-80.5 79.5T72 305l14 116q47 18 105 29.5T311 462q222 0 222-148 0-44-26.5-88.5T432 140q27-10 60.5-13.5T581 123h36zM242 283.5q33-27.5 43-36.5 27-24 60-51 45 25 70.5 51.5T441 297q0 26-30 39t-97 13q-64 0-132-18 27-20 60-47.5zM264 557q-18 18-18 44t18 44 44 18 44-18 18-44-18-44-44-18-44 18z"/><glyph glyph-name="uniFECF" unicode="غ" horiz-adv-x="568" d="M555 53Q423 21 332.5 10.5T142 0H0l-20 56 30 67h143q-41 37-62.5 80T69 287q0 49 27 93t80.5 71.5T304 479q90 0 164-39l-49-113q-29 15-59.5 22.5T304 357q-63 0-94-26t-31-65q0-76 98-138 56 4 114 15t150 33zM258 565q-18 18-18 44t18 44 44 18 44-18 18-44-18-44-44-18-44 18z"/><glyph glyph-name="uni06FC.init" unicode="ۼ" horiz-adv-x="568" d="M555 53Q423 21 332.5 10.5T142 0H0l-20 56 30 67h143q-41 37-62.5 80T69 287q0 49 27 93t80.5 71.5T304 479q90 0 164-39l-49-113q-29 15-59.5 22.5T304 357q-63 0-94-26t-31-65q0-76 98-138 56 4 114 15t150 33zM258 565q-18 18-18 44t18 44 44 18 44-18 18-44-18-44-44-18-44 18zm-42-761q-18 18-18 44t18 44 44 18 44-18 18-44-18-44-44-18-44 18z"/><glyph glyph-name="uni06FC.medi" unicode="ۼ" horiz-adv-x="606" d="M626 57L606 0h-45q-69 0-125 17.5T330 73q-64-34-138-53.5T45 0H0l-20 58 30 65h18q115 0 216 32-46 48-80.5 79.5T72 305l14 116q47 18 105 29.5T311 462q222 0 222-148 0-44-26.5-88.5T432 140q27-10 60.5-13.5T581 123h36zM242 283.5q33-27.5 43-36.5 27-24 60-51 45 25 70.5 51.5T441 297q0 26-30 39t-97 13q-64 0-132-18 27-20 60-47.5zM264 557q-18 18-18 44t18 44 44 18 44-18 18-44-18-44-44-18-44 18zm23-753q-18 18-18 44t18 44 44 18 44-18 18-44-18-44-44-18-44 18z"/><glyph glyph-name="uni06FC.fina" unicode="ۼ" horiz-adv-x="578" d="M553-198l45-107q-102-63-263-63-104 0-172 36t-99.5 93.5T32-114q0 188 176 273-40 42-76 75t-92 72l15 116q47 18 105.5 29T282 462q224 0 224-148 0-54-28.5-95.5T390 142q24-11 57.5-15t97.5-4h44l9-65-20-58h-58q-66 0-123 20.5T282 89Q198 48 161.5 4.5T125-95q0-67 55-108t164-41q122 0 209 46zM210.5 284.5Q244 257 279 227l30-26q55 24 80.5 46.5T415 298q0 26-30.5 38.5T285 349q-64 0-134-18 26-19 59.5-46.5zM252 556q-18 18-18 44t18 44 44 18 44-18 18-44-18-44-44-18-44 18zm21-682q-18 18-18 44t18 44 44 18 44-18 18-44-18-44-44-18-44 18z"/><glyph glyph-name="uniFED2" unicode="ف" horiz-adv-x="972" arabic-form="final" d="M992 57L971 0h-52q-51 0-104.5 13T712 49Q588-6 408-14l-1-2h-71l-1 1q-115 5-178.5 28t-89 66.5T42 195q0 40 10 82t28 79l80-25q-19-63-19-111 0-42 20-65.5t72-35T383 107q128 1 220 17-38 36-59 79t-21 90q0 55 25.5 102t69 75.5T711 499q57 0 100.5-27.5t68-74.5T904 294q0-43-18.5-86T829 127q33-4 76-4h76zM642 207q26-32 72-52 95 42 95 128 0 41-27.5 70T714 382q-42 0-70-29t-28-71q0-43 26-75zm23 377q-18 18-18 44t18 44 44 18 44-18 18-44-18-44-44-18-44 18z"/><glyph glyph-name="uniFED4" unicode="ف" horiz-adv-x="526" arabic-form="medial" d="M546 57L526 0h-66q-47 0-97 12.5T267 48Q171 0 54 0H0l-20 57 30 66h57q53 0 88 5-78 78-78 168 0 55 25.5 102t69 75.5T265 502q56 0 100.5-28t69-74.5T459 297q0-42-20.5-86T380 129q47-6 100-6h55zm-275 99q93 41 93 128 0 41-28 70t-68 29q-42 0-69.5-29T171 283q0-85 100-127zm-51 430q-18 18-18 44t18 44 44 18 44-18 18-44-18-44-44-18-44 18z"/><glyph glyph-name="uniFED3" unicode="ف" horiz-adv-x="475" d="M323 554.5Q369 521 396 454t27-163q0-118-42-180.5T249.5 24 0 0l-20 58 30 65q122 0 188.5 10t95 31.5T328 223q-37-29-112-29-83 0-135 50T29 377q0 59 26 107t70 76 96 28q56 0 102-33.5zm-170.5-237Q185 292 248 292q46 0 82 14-11 171-111 171-43 0-71-25.5T120 387q0-44 32.5-69.5zM175 674q-18 18-18 44t18 44 44 18 44-18 18-44-18-44-44-18-44 18z"/><glyph glyph-name="uniFB6B" unicode="ڤ" horiz-adv-x="972" arabic-form="final" d="M992 57L971 0h-52q-51 0-104.5 13T712 49Q588-6 408-14l-1-2h-71l-1 1q-115 5-178.5 28t-89 66.5T42 195q0 40 10 82t28 79l80-25q-19-63-19-111 0-42 20-65.5t72-35T383 107q128 1 220 17-38 36-59 79t-21 90q0 55 25.5 102t69 75.5T711 499q57 0 100.5-27.5t68-74.5T904 294q0-43-18.5-86T829 127q33-4 76-4h76zM642 207q26-32 72-52 95 42 95 128 0 41-27.5 70T714 382q-42 0-70-29t-28-71q0-43 26-75zm30 506.5Q656 730 656 753t16 39.5 39 16.5 39-16.5 16-39.5-16-39.5-39-16.5-39 16.5zM584.5 585Q568 601 568 624t16.5 39.5T625 680q22 0 38.5-16.5T680 624q0-22-16.5-38.5T625 569q-24 0-40.5 16zm174 .5Q742 602 742 624q0 23 16.5 39.5T797 680q24 0 40.5-16.5T854 624t-16.5-39-40.5-16q-22 0-38.5 16.5z"/><glyph glyph-name="uniFB6D" unicode="ڤ" horiz-adv-x="526" arabic-form="medial" d="M546 57L526 0h-66q-47 0-97 12.5T267 48Q171 0 54 0H0l-20 57 30 66h57q53 0 88 5-78 78-78 168 0 55 25.5 102t69 75.5T265 502q56 0 100.5-28t69-74.5T459 297q0-42-20.5-86T380 129q47-6 100-6h55zm-275 99q93 41 93 128 0 41-28 70t-68 29q-42 0-69.5-29T171 283q0-85 100-127zm-44 559.5Q211 732 211 755t16 39.5 39 16.5 39-16.5 16-39.5-16-39.5-39-16.5-39 16.5zM139.5 587Q123 603 123 626t16.5 39.5T180 682q22 0 38.5-16.5T235 626q0-22-16.5-38.5T180 571q-24 0-40.5 16zm174 .5Q297 604 297 626q0 23 16.5 39.5T352 682q24 0 40.5-16.5T409 626t-16.5-39-40.5-16q-22 0-38.5 16.5z"/><glyph glyph-name="uniFB6C" unicode="ڤ" horiz-adv-x="475" d="M323 554.5Q369 521 396 454t27-163q0-118-42-180.5T249.5 24 0 0l-20 58 30 65q122 0 188.5 10t95 31.5T328 223q-37-29-112-29-83 0-135 50T29 377q0 59 26 107t70 76 96 28q56 0 102-33.5zm-170.5-237Q185 292 248 292q46 0 82 14-11 171-111 171-43 0-71-25.5T120 387q0-44 32.5-69.5zm29.5 486Q166 820 166 843t16 39.5 39 16.5 39-16.5 16-39.5-16-39.5-39-16.5-39 16.5zM94.5 675Q78 691 78 714t16.5 39.5T135 770q22 0 38.5-16.5T190 714q0-22-16.5-38.5T135 659q-24 0-40.5 16zm174 .5Q252 692 252 714q0 23 16.5 39.5T307 770q24 0 40.5-16.5T364 714t-16.5-39-40.5-16q-22 0-38.5 16.5z"/><glyph glyph-name="uni06A1.init" unicode="ڡ" horiz-adv-x="475" d="M323 554.5Q369 521 396 454t27-163q0-118-42-180.5T249.5 24 0 0l-20 58 30 65q122 0 188.5 10t95 31.5T328 223q-37-29-112-29-83 0-135 50T29 377q0 59 26 107t70 76 96 28q56 0 102-33.5zm-170.5-237Q185 292 248 292q46 0 82 14-11 171-111 171-43 0-71-25.5T120 387q0-44 32.5-69.5z"/><glyph glyph-name="uni06A1.medi" unicode="ڡ" horiz-adv-x="526" d="M546 57L526 0h-66q-47 0-97 12.5T267 48Q171 0 54 0H0l-20 57 30 66h57q53 0 88 5-78 78-78 168 0 55 25.5 102t69 75.5T265 502q56 0 100.5-28t69-74.5T459 297q0-42-20.5-86T380 129q47-6 100-6h55zm-275 99q93 41 93 128 0 41-28 70t-68 29q-42 0-69.5-29T171 283q0-85 100-127z"/><glyph glyph-name="uni06A1.fina" unicode="ڡ" horiz-adv-x="972" d="M992 57L971 0h-52q-51 0-104.5 13T712 49Q588-6 408-14l-1-2h-71l-1 1q-115 5-178.5 28t-89 66.5T42 195q0 40 10 82t28 79l80-25q-19-63-19-111 0-42 20-65.5t72-35T383 107q128 1 220 17-38 36-59 79t-21 90q0 55 25.5 102t69 75.5T711 499q57 0 100.5-27.5t68-74.5T904 294q0-43-18.5-86T829 127q33-4 76-4h76zM642 207q26-32 72-52 95 42 95 128 0 41-27.5 70T714 382q-42 0-70-29t-28-71q0-43 26-75z"/><glyph glyph-name="uni06A2.init" unicode="ڢ" horiz-adv-x="475" d="M323 554.5Q369 521 396 454t27-163q0-118-42-180.5T249.5 24 0 0l-20 58 30 65q122 0 188.5 10t95 31.5T328 223q-37-29-112-29-83 0-135 50T29 377q0 59 26 107t70 76 96 28q56 0 102-33.5zm-170.5-237Q185 292 248 292q46 0 82 14-11 171-111 171-43 0-71-25.5T120 387q0-44 32.5-69.5zM164-196q-18 18-18 44t18 44 44 18 44-18 18-44-18-44-44-18-44 18z"/><glyph glyph-name="uni06A2.medi" unicode="ڢ" horiz-adv-x="526" d="M546 57L526 0h-66q-47 0-97 12.5T267 48Q171 0 54 0H0l-20 57 30 66h57q53 0 88 5-78 78-78 168 0 55 25.5 102t69 75.5T265 502q56 0 100.5-28t69-74.5T459 297q0-42-20.5-86T380 129q47-6 100-6h55zm-275 99q93 41 93 128 0 41-28 70t-68 29q-42 0-69.5-29T171 283q0-85 100-127zm-47-352q-18 18-18 44t18 44 44 18 44-18 18-44-18-44-44-18-44 18z"/><glyph glyph-name="uni06A2.fina" unicode="ڢ" horiz-adv-x="972" d="M992 57L971 0h-52q-51 0-104.5 13T712 49Q588-6 408-14l-1-2h-71l-1 1q-115 5-178.5 28t-89 66.5T42 195q0 40 10 82t28 79l80-25q-19-63-19-111 0-42 20-65.5t72-35T383 107q128 1 220 17-38 36-59 79t-21 90q0 55 25.5 102t69 75.5T711 499q57 0 100.5-27.5t68-74.5T904 294q0-43-18.5-86T829 127q33-4 76-4h76zM642 207q26-32 72-52 95 42 95 128 0 41-27.5 70T714 382q-42 0-70-29t-28-71q0-43 26-75zm28-403q-18 18-18 44t18 44 44 18 44-18 18-44-18-44-44-18-44 18z"/><glyph glyph-name="uni06A3.init" unicode="ڣ" horiz-adv-x="475" d="M323 554.5Q369 521 396 454t27-163q0-118-42-180.5T249.5 24 0 0l-20 58 30 65q122 0 188.5 10t95 31.5T328 223q-37-29-112-29-83 0-135 50T29 377q0 59 26 107t70 76 96 28q56 0 102-33.5zm-170.5-237Q185 292 248 292q46 0 82 14-11 171-111 171-43 0-71-25.5T120 387q0-44 32.5-69.5zM175 674q-18 18-18 44t18 44 44 18 44-18 18-44-18-44-44-18-44 18zm-15-870q-18 18-18 44t18 44 44 18 44-18 18-44-18-44-44-18-44 18z"/><glyph glyph-name="uni06A3.medi" unicode="ڣ" horiz-adv-x="526" d="M546 57L526 0h-66q-47 0-97 12.5T267 48Q171 0 54 0H0l-20 57 30 66h57q53 0 88 5-78 78-78 168 0 55 25.5 102t69 75.5T265 502q56 0 100.5-28t69-74.5T459 297q0-42-20.5-86T380 129q47-6 100-6h55zm-275 99q93 41 93 128 0 41-28 70t-68 29q-42 0-69.5-29T171 283q0-85 100-127zm-51 430q-18 18-18 44t18 44 44 18 44-18 18-44-18-44-44-18-44 18zm0-782q-18 18-18 44t18 44 44 18 44-18 18-44-18-44-44-18-44 18z"/><glyph glyph-name="uni06A3.fina" unicode="ڣ" horiz-adv-x="972" d="M992 57L971 0h-52q-51 0-104.5 13T712 49Q588-6 408-14l-1-2h-71l-1 1q-115 5-178.5 28t-89 66.5T42 195q0 40 10 82t28 79l80-25q-19-63-19-111 0-42 20-65.5t72-35T383 107q128 1 220 17-38 36-59 79t-21 90q0 55 25.5 102t69 75.5T711 499q57 0 100.5-27.5t68-74.5T904 294q0-43-18.5-86T829 127q33-4 76-4h76zM642 207q26-32 72-52 95 42 95 128 0 41-27.5 70T714 382q-42 0-70-29t-28-71q0-43 26-75zm23 377q-18 18-18 44t18 44 44 18 44-18 18-44-18-44-44-18-44 18zm1-780q-18 18-18 44t18 44 44 18 44-18 18-44-18-44-44-18-44 18z"/><glyph glyph-name="uni06A5.init" unicode="ڥ" horiz-adv-x="475" d="M323 554.5Q369 521 396 454t27-163q0-118-42-180.5T249.5 24 0 0l-20 58 30 65q122 0 188.5 10t95 31.5T328 223q-37-29-112-29-83 0-135 50T29 377q0 59 26 107t70 76 96 28q56 0 102-33.5zm-170.5-237Q185 292 248 292q46 0 82 14-11 171-111 171-43 0-71-25.5T120 387q0-44 32.5-69.5zm8-424Q177-123 177-145q0-24-16.5-40.5T122-202q-24 0-40.5 16.5T65-145q0 23 16.5 39T122-90q22 0 38.5-16.5zm174 .5q16.5-16 16.5-39 0-24-16.5-40.5T294-202q-22 0-38.5 16.5T239-145q0 22 16.5 38.5T294-90q24 0 40.5-16zM247-234.5q16-16.5 16-39.5t-16-39.5-39-16.5-39 16.5-16 39.5 16 39.5 39 16.5 39-16.5z"/><glyph glyph-name="uni06A5.medi" unicode="ڥ" horiz-adv-x="526" d="M546 57L526 0h-66q-47 0-97 12.5T267 48Q171 0 54 0H0l-20 57 30 66h57q53 0 88 5-78 78-78 168 0 55 25.5 102t69 75.5T265 502q56 0 100.5-28t69-74.5T459 297q0-42-20.5-86T380 129q47-6 100-6h55zm-275 99q93 41 93 128 0 41-28 70t-68 29q-42 0-69.5-29T171 283q0-85 100-127zm-50.5-262.5Q237-123 237-145q0-24-16.5-40.5T182-202q-24 0-40.5 16.5T125-145q0 23 16.5 39T182-90q22 0 38.5-16.5zm174 .5q16.5-16 16.5-39 0-24-16.5-40.5T354-202q-22 0-38.5 16.5T299-145q0 22 16.5 38.5T354-90q24 0 40.5-16zM307-234.5q16-16.5 16-39.5t-16-39.5-39-16.5-39 16.5-16 39.5 16 39.5 39 16.5 39-16.5z"/><glyph glyph-name="uni06A5.fina" unicode="ڥ" horiz-adv-x="972" d="M992 57L971 0h-52q-51 0-104.5 13T712 49Q588-6 408-14l-1-2h-71l-1 1q-115 5-178.5 28t-89 66.5T42 195q0 40 10 82t28 79l80-25q-19-63-19-111 0-42 20-65.5t72-35T383 107q128 1 220 17-38 36-59 79t-21 90q0 55 25.5 102t69 75.5T711 499q57 0 100.5-27.5t68-74.5T904 294q0-43-18.5-86T829 127q33-4 76-4h76zM642 207q26-32 72-52 95 42 95 128 0 41-27.5 70T714 382q-42 0-70-29t-28-71q0-43 26-75zm24.5-313.5Q683-123 683-145q0-24-16.5-40.5T628-202q-24 0-40.5 16.5T571-145q0 23 16.5 39T628-90q22 0 38.5-16.5zm174 .5q16.5-16 16.5-39 0-24-16.5-40.5T800-202q-22 0-38.5 16.5T745-145q0 22 16.5 38.5T800-90q24 0 40.5-16zM753-234.5q16-16.5 16-39.5t-16-39.5-39-16.5-39 16.5-16 39.5 16 39.5 39 16.5 39-16.5z"/><glyph glyph-name="uniFB6F" unicode="ڦ" horiz-adv-x="972" arabic-form="final" d="M992 57L971 0h-52q-51 0-104.5 13T712 49Q588-6 408-14l-1-2h-71l-1 1q-115 5-178.5 28t-89 66.5T42 195q0 40 10 82t28 79l80-25q-19-63-19-111 0-42 20-65.5t72-35T383 107q128 1 220 17-38 36-59 79t-21 90q0 55 25.5 102t69 75.5T711 499q57 0 100.5-27.5t68-74.5T904 294q0-43-18.5-86T829 127q33-4 76-4h76zM642 207q26-32 72-52 95 42 95 128 0 41-27.5 70T714 382q-42 0-70-29t-28-71q0-43 26-75zm-43.5 502Q582 725 582 746q0 24 16 40t39 16 38.5-16 15.5-40q0-21-16-37t-38-16-38.5 16zm149.5 0q-16 16-16 37 0 24 15.5 40t38.5 16 39-16 16-40q0-21-16-37t-39-16q-22 0-38 16zM598 566q-16 16-16 39 0 22 16 38t39 16 38.5-15.5T691 605t-15.5-39-38.5-16-39 16zm149.5 0Q732 582 732 605t16 38.5 38 15.5q23 0 39-15.5t16-38.5-16-39-39-16-38.5 16z"/><glyph glyph-name="uniFB71" unicode="ڦ" horiz-adv-x="526" arabic-form="medial" d="M546 57L526 0h-66q-47 0-97 12.5T267 48Q171 0 54 0H0l-20 57 30 66h57q53 0 88 5-78 78-78 168 0 55 25.5 102t69 75.5T265 502q56 0 100.5-28t69-74.5T459 297q0-42-20.5-86T380 129q47-6 100-6h55zm-275 99q93 41 93 128 0 41-28 70t-68 29q-42 0-69.5-29T171 283q0-85 100-127zM153.5 711Q137 727 137 748q0 24 16 40t39 16 38.5-16 15.5-40q0-21-16-37t-38-16-38.5 16zm149.5 0q-16 16-16 37 0 24 15.5 40t38.5 16 39-16 16-40q0-21-16-37t-39-16q-22 0-38 16zM153 568q-16 16-16 39 0 22 16 38t39 16 38.5-15.5T246 607t-15.5-39-38.5-16-39 16zm149.5 0Q287 584 287 607t16 38.5 38 15.5q23 0 39-15.5t16-38.5-16-39-39-16-38.5 16z"/><glyph glyph-name="uniFB70" unicode="ڦ" horiz-adv-x="475" d="M323 554.5Q369 521 396 454t27-163q0-118-42-180.5T249.5 24 0 0l-20 58 30 65q122 0 188.5 10t95 31.5T328 223q-37-29-112-29-83 0-135 50T29 377q0 59 26 107t70 76 96 28q56 0 102-33.5zm-170.5-237Q185 292 248 292q46 0 82 14-11 171-111 171-43 0-71-25.5T120 387q0-44 32.5-69.5zm-44 481.5Q92 815 92 836q0 24 16 40t39 16 38.5-16 15.5-40q0-21-16-37t-38-16-38.5 16zm149.5 0q-16 16-16 37 0 24 15.5 40t38.5 16 39-16 16-40q0-21-16-37t-39-16q-22 0-38 16zM108 656q-16 16-16 39 0 22 16 38t39 16 38.5-15.5T201 695t-15.5-39-38.5-16-39 16zm149.5 0Q242 672 242 695t16 38.5 38 15.5q23 0 39-15.5t16-38.5-16-39-39-16-38.5 16z"/><glyph glyph-name="uni066F.init" unicode="ٯ" horiz-adv-x="475" d="M323 554.5Q369 521 396 454t27-163q0-118-42-180.5T249.5 24 0 0l-20 58 30 65q122 0 188.5 10t95 31.5T328 223q-37-29-112-29-83 0-135 50T29 377q0 59 26 107t70 76 96 28q56 0 102-33.5zm-170.5-237Q185 292 248 292q46 0 82 14-11 171-111 171-43 0-71-25.5T120 387q0-44 32.5-69.5z"/><glyph glyph-name="uni066F.medi" unicode="ٯ" horiz-adv-x="526" d="M546 57L526 0h-66q-47 0-97 12.5T267 48Q171 0 54 0H0l-20 57 30 66h57q53 0 88 5-78 78-78 168 0 55 25.5 102t69 75.5T265 502q56 0 100.5-28t69-74.5T459 297q0-42-20.5-86T380 129q47-6 100-6h55zm-275 99q93 41 93 128 0 41-28 70t-68 29q-42 0-69.5-29T171 283q0-85 100-127z"/><glyph glyph-name="uni066F.fina" unicode="ٯ" horiz-adv-x="803" d="M803 0h-91q-19-132-99.5-196.5T374-261q-174 0-253 64.5T42-4q0 102 50 200l80-24q-26-70-26-156 0-77 53.5-115.5T384-138q112 0 166.5 37.5T620 0h-57Q441 0 383 50t-58 137q0 59 26 107t70 76 96 28q54 0 98.5-31t72.5-93 31-151h94l10-66zM627 118q-11 168-112 168-43 0-71-25t-28-64q0-43 31-62.5t97-19.5q55 0 83 3z"/><glyph glyph-name="uniFED6" unicode="ق" horiz-adv-x="803" arabic-form="final" d="M803 0h-91q-19-132-99.5-196.5T374-261q-174 0-253 64.5T42-4q0 102 50 200l80-24q-26-70-26-156 0-77 53.5-115.5T384-138q112 0 166.5 37.5T620 0h-57Q441 0 383 50t-58 137q0 59 26 107t70 76 96 28q54 0 98.5-31t72.5-93 31-151h94l10-66zM627 118q-11 168-112 168-43 0-71-25t-28-64q0-43 31-62.5t97-19.5q55 0 83 3zM396 500q-17 17-17 41t17 41 40 17q24 0 41-17t17-41-17-41-41-17q-23 0-40 17zm160 0q-17 17-17 41t17 41 41 17q23 0 40.5-17t17.5-41-17.5-41-40.5-17q-24 0-41 17z"/><glyph glyph-name="uniFED8" unicode="ق" horiz-adv-x="526" arabic-form="medial" d="M546 57L526 0h-66q-47 0-97 12.5T267 48Q171 0 54 0H0l-20 57 30 66h57q53 0 88 5-78 78-78 168 0 55 25.5 102t69 75.5T265 502q56 0 100.5-28t69-74.5T459 297q0-42-20.5-86T380 129q47-6 100-6h55zm-275 99q93 41 93 128 0 41-28 70t-68 29q-42 0-69.5-29T171 283q0-85 100-127zM145 602q-17 17-17 41t17 41 40 17q24 0 41-17t17-41-17-41-41-17q-23 0-40 17zm160 0q-17 17-17 41t17 41 41 17q23 0 40.5-17t17.5-41-17.5-41-40.5-17q-24 0-41 17z"/><glyph glyph-name="uniFED7" unicode="ق" horiz-adv-x="475" d="M323 554.5Q369 521 396 454t27-163q0-118-42-180.5T249.5 24 0 0l-20 58 30 65q122 0 188.5 10t95 31.5T328 223q-37-29-112-29-83 0-135 50T29 377q0 59 26 107t70 76 96 28q56 0 102-33.5zm-170.5-237Q185 292 248 292q46 0 82 14-11 171-111 171-43 0-71-25.5T120 387q0-44 32.5-69.5zM100 690q-17 17-17 41t17 41 40 17q24 0 41-17t17-41-17-41-41-17q-23 0-40 17zm160 0q-17 17-17 41t17 41 41 17q23 0 40.5-17t17.5-41-17.5-41-40.5-17q-24 0-41 17z"/><glyph glyph-name="uni06A7.init" unicode="ڧ" horiz-adv-x="475" d="M323 554.5Q369 521 396 454t27-163q0-118-42-180.5T249.5 24 0 0l-20 58 30 65q122 0 188.5 10t95 31.5T328 223q-37-29-112-29-83 0-135 50T29 377q0 59 26 107t70 76 96 28q56 0 102-33.5zm-170.5-237Q185 292 248 292q46 0 82 14-11 171-111 171-43 0-71-25.5T120 387q0-44 32.5-69.5zM175 674q-18 18-18 44t18 44 44 18 44-18 18-44-18-44-44-18-44 18z"/><glyph glyph-name="uni06A7.medi" unicode="ڧ" horiz-adv-x="526" d="M546 57L526 0h-66q-47 0-97 12.5T267 48Q171 0 54 0H0l-20 57 30 66h57q53 0 88 5-78 78-78 168 0 55 25.5 102t69 75.5T265 502q56 0 100.5-28t69-74.5T459 297q0-42-20.5-86T380 129q47-6 100-6h55zm-275 99q93 41 93 128 0 41-28 70t-68 29q-42 0-69.5-29T171 283q0-85 100-127zm-51 430q-18 18-18 44t18 44 44 18 44-18 18-44-18-44-44-18-44 18z"/><glyph glyph-name="uni06A7.fina" unicode="ڧ" horiz-adv-x="803" d="M803 0h-91q-19-132-99.5-196.5T374-261q-174 0-253 64.5T42-4q0 102 50 200l80-24q-26-70-26-156 0-77 53.5-115.5T384-138q112 0 166.5 37.5T620 0h-57Q441 0 383 50t-58 137q0 59 26 107t70 76 96 28q54 0 98.5-31t72.5-93 31-151h94l10-66zM627 118q-11 168-112 168-43 0-71-25t-28-64q0-43 31-62.5t97-19.5q55 0 83 3zM471 484q-18 18-18 44t18 44 44 18 44-18 18-44-18-44-44-18-44 18z"/><glyph glyph-name="uni06A8.init" unicode="ڨ" horiz-adv-x="475" d="M323 554.5Q369 521 396 454t27-163q0-118-42-180.5T249.5 24 0 0l-20 58 30 65q122 0 188.5 10t95 31.5T328 223q-37-29-112-29-83 0-135 50T29 377q0 59 26 107t70 76 96 28q56 0 102-33.5zm-170.5-237Q185 292 248 292q46 0 82 14-11 171-111 171-43 0-71-25.5T120 387q0-44 32.5-69.5zm29.5 486Q166 820 166 843t16 39.5 39 16.5 39-16.5 16-39.5-16-39.5-39-16.5-39 16.5zM94.5 675Q78 691 78 714t16.5 39.5T135 770q22 0 38.5-16.5T190 714q0-22-16.5-38.5T135 659q-24 0-40.5 16zm174 .5Q252 692 252 714q0 23 16.5 39.5T307 770q24 0 40.5-16.5T364 714t-16.5-39-40.5-16q-22 0-38.5 16.5z"/><glyph glyph-name="uni06A8.medi" unicode="ڨ" horiz-adv-x="526" d="M546 57L526 0h-66q-47 0-97 12.5T267 48Q171 0 54 0H0l-20 57 30 66h57q53 0 88 5-78 78-78 168 0 55 25.5 102t69 75.5T265 502q56 0 100.5-28t69-74.5T459 297q0-42-20.5-86T380 129q47-6 100-6h55zm-275 99q93 41 93 128 0 41-28 70t-68 29q-42 0-69.5-29T171 283q0-85 100-127zm-44 559.5Q211 732 211 755t16 39.5 39 16.5 39-16.5 16-39.5-16-39.5-39-16.5-39 16.5zM139.5 587Q123 603 123 626t16.5 39.5T180 682q22 0 38.5-16.5T235 626q0-22-16.5-38.5T180 571q-24 0-40.5 16zm174 .5Q297 604 297 626q0 23 16.5 39.5T352 682q24 0 40.5-16.5T409 626t-16.5-39-40.5-16q-22 0-38.5 16.5z"/><glyph glyph-name="uni06A8.fina" unicode="ڨ" horiz-adv-x="803" d="M803 0h-91q-19-132-99.5-196.5T374-261q-174 0-253 64.5T42-4q0 102 50 200l80-24q-26-70-26-156 0-77 53.5-115.5T384-138q112 0 166.5 37.5T620 0h-57Q441 0 383 50t-58 137q0 59 26 107t70 76 96 28q54 0 98.5-31t72.5-93 31-151h94l10-66zM627 118q-11 168-112 168-43 0-71-25t-28-64q0-43 31-62.5t97-19.5q55 0 83 3zM478 613.5Q462 630 462 653t16 39.5 39 16.5 39-16.5 16-39.5-16-39.5-39-16.5-39 16.5zM390.5 485Q374 501 374 524t16.5 39.5T431 580q22 0 38.5-16.5T486 524q0-22-16.5-38.5T431 469q-24 0-40.5 16zm174 .5Q548 502 548 524q0 23 16.5 39.5T603 580q24 0 40.5-16.5T660 524t-16.5-39-40.5-16q-22 0-38.5 16.5z"/><glyph glyph-name="uniFEDA" unicode="ك" horiz-adv-x="854" arabic-form="final" d="M874 60L854 0q-56 0-93.5 16T694 72q-58-38-127-59T408-14l-1-2h-71v1q-115 5-178.5 28T68 79.5 42 195q0 40 10 82t28 79l80-25q-19-63-19-111 0-41 19-64.5t69-35T374 107q161 6 270 67v588l105 14V235q0-42 9-65.5t34-35 72-11.5zM397 340q31 7 31 20 0 12-21.5 22T318 405l14 71 169 100-5-78-98-53q54-15 76-35t22-52q0-93-196-93l-11 68q77 0 108 7z"/><glyph glyph-name="uniFEDC" unicode="ك" horiz-adv-x="542" arabic-form="medial" d="M562 60L542 0q-91 0-153.5 35.5T264 163q-6-72-73.5-117.5T0 0l-20 57 30 66q94 0 133 20.5t39 60.5q0 26-17 59t-55 80l-73 89 24 106 403 231-6-117-320-180 166-207q50-63 82-91.5t68.5-39.5 98.5-11z"/><glyph glyph-name="uniFEDB" unicode="ك" horiz-adv-x="462" d="M419 649L127 485q99-48 151-90.5t70.5-83.5 18.5-94q0-102-89.5-159.5T0 0l-20 57 30 66q103 0 160 12.5t79 35.5 22 58q0 28-18.5 53t-78 60.5T-2 429l24 110 404 230z"/><glyph glyph-name="uniFB8F" unicode="ک" horiz-adv-x="996" arabic-form="final" d="M1016 60L996 0q-61 0-107.5 15T801 65t-84 98q-5-71-77.5-119.5T408-14l-1-2h-71v1q-115 5-178.5 28T68 79.5 42 195q0 40 10 82t28 79l80-25q-19-63-19-111 0-41 19.5-64.5t71-35T380 107q147 3 201 28.5t54 68.5q0 26-17 59t-55 80l-72 89 23 106 404 231-7-120-317-179 177-222q45-57 75-82.5t64.5-34 95.5-8.5z"/><glyph glyph-name="uniFB91" unicode="ک" horiz-adv-x="542" arabic-form="medial" d="M562 60L542 0q-91 0-153.5 35.5T264 163q-6-72-73.5-117.5T0 0l-20 57 30 66q94 0 133 20.5t39 60.5q0 26-17 59t-55 80l-73 89 24 106 403 231-6-117-320-180 166-207q50-63 82-91.5t68.5-39.5 98.5-11z"/><glyph glyph-name="uniFB90" unicode="ک" horiz-adv-x="462" d="M419 649L127 485q99-48 151-90.5t70.5-83.5 18.5-94q0-102-89.5-159.5T0 0l-20 57 30 66q103 0 160 12.5t79 35.5 22 58q0 28-18.5 53t-78 60.5T-2 429l24 110 404 230z"/><glyph glyph-name="uni063B.init" unicode="ػ" horiz-adv-x="462" d="M419 649L127 485q99-48 151-90.5t70.5-83.5 18.5-94q0-102-89.5-159.5T0 0l-20 57 30 66q103 0 160 12.5t79 35.5 22 58q0 28-18.5 53t-78 60.5T-2 429l24 110 404 230zm-476 89q-17 17-17 41t17 41 40 17q24 0 41-17t17-41-17-41-41-17q-23 0-40 17zm160 0q-17 17-17 41t17 41 41 17q23 0 40.5-17t17.5-41-17.5-41-40.5-17q-24 0-41 17z"/><glyph glyph-name="uni063B.medi" unicode="ػ" horiz-adv-x="542" d="M562 60L542 0q-91 0-153.5 35.5T264 163q-6-72-73.5-117.5T0 0l-20 57 30 66q94 0 133 20.5t39 60.5q0 26-17 59t-55 80l-73 89 24 106 403 231-6-117-320-180 166-207q50-63 82-91.5t68.5-39.5 98.5-11zM-23 738q-17 17-17 41t17 41 40 17q24 0 41-17t17-41-17-41-41-17q-23 0-40 17zm160 0q-17 17-17 41t17 41 41 17q23 0 40.5-17t17.5-41-17.5-41-40.5-17q-24 0-41 17z"/><glyph glyph-name="uni063B.fina" unicode="ػ" horiz-adv-x="996" d="M1016 60L996 0q-61 0-107.5 15T801 65t-84 98q-5-71-77.5-119.5T408-14l-1-2h-71v1q-115 5-178.5 28T68 79.5 42 195q0 40 10 82t28 79l80-25q-19-63-19-111 0-41 19.5-64.5t71-35T380 107q147 3 201 28.5t54 68.5q0 26-17 59t-55 80l-72 89 23 106 404 231-7-120-317-179 177-222q45-57 75-82.5t64.5-34 95.5-8.5zM425 738q-17 17-17 41t17 41 40 17q24 0 41-17t17-41-17-41-41-17q-23 0-40 17zm160 0q-17 17-17 41t17 41 41 17q23 0 40.5-17t17.5-41-17.5-41-40.5-17q-24 0-41 17z"/><glyph glyph-name="uni063C.init" unicode="ؼ" horiz-adv-x="462" d="M419 649L127 485q99-48 151-90.5t70.5-83.5 18.5-94q0-102-89.5-159.5T0 0l-20 57 30 66q103 0 160 12.5t79 35.5 22 58q0 28-18.5 53t-78 60.5T-2 429l24 110 404 230zM71.5-106.5Q88-123 88-145q0-24-16.5-40.5T33-202q-24 0-40.5 16.5T-24-145q0 23 16.5 39T33-90q22 0 38.5-16.5zm174 .5q16.5-16 16.5-39 0-24-16.5-40.5T205-202q-22 0-38.5 16.5T150-145q0 22 16.5 38.5T205-90q24 0 40.5-16zM158-234.5q16-16.5 16-39.5t-16-39.5-39-16.5-39 16.5T64-274t16 39.5 39 16.5 39-16.5z"/><glyph glyph-name="uni063C.medi" unicode="ؼ" horiz-adv-x="542" d="M562 60L542 0q-91 0-153.5 35.5T264 163q-6-72-73.5-117.5T0 0l-20 57 30 66q94 0 133 20.5t39 60.5q0 26-17 59t-55 80l-73 89 24 106 403 231-6-117-320-180 166-207q50-63 82-91.5t68.5-39.5 98.5-11zM240.5-106.5Q257-123 257-145q0-24-16.5-40.5T202-202q-24 0-40.5 16.5T145-145q0 23 16.5 39T202-90q22 0 38.5-16.5zm174 .5q16.5-16 16.5-39 0-24-16.5-40.5T374-202q-22 0-38.5 16.5T319-145q0 22 16.5 38.5T374-90q24 0 40.5-16zM327-234.5q16-16.5 16-39.5t-16-39.5-39-16.5-39 16.5-16 39.5 16 39.5 39 16.5 39-16.5z"/><glyph glyph-name="uni063C.fina" unicode="ؼ" horiz-adv-x="996" d="M1016 60L996 0q-61 0-107.5 15T801 65t-84 98q-5-71-77.5-119.5T408-14l-1-2h-71v1q-115 5-178.5 28T68 79.5 42 195q0 40 10 82t28 79l80-25q-19-63-19-111 0-41 19.5-64.5t71-35T380 107q147 3 201 28.5t54 68.5q0 26-17 59t-55 80l-72 89 23 106 404 231-7-120-317-179 177-222q45-57 75-82.5t64.5-34 95.5-8.5zM330.5-106.5Q347-123 347-145q0-24-16.5-40.5T292-202q-24 0-40.5 16.5T235-145q0 23 16.5 39T292-90q22 0 38.5-16.5zm174 .5q16.5-16 16.5-39 0-24-16.5-40.5T464-202q-22 0-38.5 16.5T409-145q0 22 16.5 38.5T464-90q24 0 40.5-16zM417-234.5q16-16.5 16-39.5t-16-39.5-39-16.5-39 16.5-16 39.5 16 39.5 39 16.5 39-16.5z"/><glyph glyph-name="uniFB93" unicode="گ" horiz-adv-x="996" arabic-form="final" d="M913 812L518 587l21 88 379 219zm103-752L996 0q-61 0-107.5 15T801 65t-84 98q-5-71-77.5-119.5T408-14l-1-2h-71v1q-115 5-178.5 28T68 79.5 42 195q0 40 10 82t28 79l80-25q-19-63-19-111 0-41 19.5-64.5t71-35T380 107q147 3 201 28.5t54 68.5q0 26-17 59t-55 80l-72 89 23 106 404 231-7-120-317-179 177-222q45-57 75-82.5t64.5-34 95.5-8.5z"/><glyph glyph-name="uniFB95" unicode="گ" horiz-adv-x="542" arabic-form="medial" d="M453 812L59 587l21 88 378 219zM562 60L542 0q-91 0-153.5 35.5T264 163q-6-72-73.5-117.5T0 0l-20 57 30 66q94 0 133 20.5t39 60.5q0 26-17 59t-55 80l-73 89 24 106 403 231-6-117-320-180 166-207q50-63 82-91.5t68.5-39.5 98.5-11z"/><glyph glyph-name="uniFB94" unicode="گ" horiz-adv-x="464" d="M420 812L25 587l21 88 379 219zm-1-163L127 485q99-48 151-90.5t70.5-83.5 18.5-94q0-102-89.5-159.5T0 0l-20 57 30 66q103 0 160 12.5t79 35.5 22 58q0 28-18.5 53t-78 60.5T-2 429l24 110 404 230z"/><glyph glyph-name="uni06B0.init" unicode="ڰ" horiz-adv-x="464" d="M420 812L25 587l21 88 379 219zm-1-163l-54-30q19-12 30.5-32t11.5-45q0-38-26-63.5T315 453q-38 0-64 24.5T223 539l-96-54q99-48 151-90.5t70.5-83.5 18.5-94q0-102-89.5-159.5T0 0l-20 57 30 66q103 0 160 12.5t79 35.5 22 58q0 28-18.5 53t-78 60.5T-2 429l24 110 404 230zm-76-131.5q10 10.5 10 24.5 0 16-10.5 25.5T315 577t-27-9.5-10-25.5q0-14 10-24.5t27-10.5q18 0 28 10.5z"/><glyph glyph-name="uni06B0.medi" unicode="ڰ" horiz-adv-x="542" d="M453 812L59 587l21 88 378 219zM562 60L542 0q-91 0-153.5 35.5T264 163q-6-72-73.5-117.5T0 0l-20 57 30 66q94 0 133 20.5t39 60.5q0 26-17 59t-55 80l-73 89 24 106 403 231-6-117-57-32q17-12 27-31.5t10-42.5q0-38-26-63.5T347 457q-37 0-63 23t-29 58l-117-66 166-207q50-63 82-91.5t68.5-39.5 98.5-11zM374 522q10 10 10 24 0 16-10 25.5t-27 9.5-27.5-9.5T309 546q0-14 10.5-24t27.5-10 27 10z"/><glyph glyph-name="uni06B0.fina" unicode="ڰ" horiz-adv-x="996" d="M913 812L518 587l21 88 379 219zm103-752L996 0q-61 0-107.5 15T801 65t-84 98q-5-71-77.5-119.5T408-14l-1-2h-71v1q-115 5-178.5 28T68 79.5 42 195q0 40 10 82t28 79l80-25q-19-63-19-111 0-41 19.5-64.5t71-35T380 107q147 3 201 28.5t54 68.5q0 26-17 59t-55 80l-72 89 23 106 404 231-7-120-58-33q17-12 27-31t10-42q0-39-26-64.5T798 453q-37 0-62.5 23T706 534l-112-64 177-222q45-57 75-82.5t64.5-34 95.5-8.5zM826 518.5q10 10.5 10 24.5 0 15-10.5 25T798 578q-16 0-26.5-10T761 543q0-14 10-24.5t27-10.5q18 0 28 10.5z"/><glyph glyph-name="uni06B4.init" unicode="ڴ" horiz-adv-x="464" d="M420 812L25 587l21 88 379 219zm-1-163L127 485q99-48 151-90.5t70.5-83.5 18.5-94q0-102-89.5-159.5T0 0l-20 57 30 66q103 0 160 12.5t79 35.5 22 58q0 28-18.5 53t-78 60.5T-2 429l24 110 404 230zM-7 924.5Q-23 941-23 964t16 39.5 39 16.5 39-16.5T87 964t-16-39.5T32 908t-39 16.5zM-94.5 796q-16.5 16-16.5 39t16.5 39.5T-54 891q22 0 38.5-16.5T1 835q0-22-16.5-38.5T-54 780q-24 0-40.5 16zm174 .5Q63 813 63 835q0 23 16.5 39.5T118 891q24 0 40.5-16.5T175 835t-16.5-39-40.5-16q-22 0-38.5 16.5z"/><glyph glyph-name="uni06B4.medi" unicode="ڴ" horiz-adv-x="542" d="M453 812L59 587l21 88 378 219zM562 60L542 0q-91 0-153.5 35.5T264 163q-6-72-73.5-117.5T0 0l-20 57 30 66q94 0 133 20.5t39 60.5q0 26-17 59t-55 80l-73 89 24 106 403 231-6-117-320-180 166-207q50-63 82-91.5t68.5-39.5 98.5-11zM23 923.5Q7 940 7 963t16 39.5 39 16.5 39-16.5 16-39.5-16-39.5T62 907t-39 16.5zM-64.5 795Q-81 811-81 834t16.5 39.5T-24 890q22 0 38.5-16.5T31 834q0-22-16.5-38.5T-24 779q-24 0-40.5 16zm174 .5Q93 812 93 834q0 23 16.5 39.5T148 890q24 0 40.5-16.5T205 834t-16.5-39-40.5-16q-22 0-38.5 16.5z"/><glyph glyph-name="uni06B4.fina" unicode="ڴ" horiz-adv-x="996" d="M913 812L518 587l21 88 379 219zm103-752L996 0q-61 0-107.5 15T801 65t-84 98q-5-71-77.5-119.5T408-14l-1-2h-71v1q-115 5-178.5 28T68 79.5 42 195q0 40 10 82t28 79l80-25q-19-63-19-111 0-41 19.5-64.5t71-35T380 107q147 3 201 28.5t54 68.5q0 26-17 59t-55 80l-72 89 23 106 404 231-7-120-317-179 177-222q45-57 75-82.5t64.5-34 95.5-8.5zM483 924.5Q467 941 467 964t16 39.5 39 16.5 39-16.5 16-39.5-16-39.5-39-16.5-39 16.5zM395.5 796Q379 812 379 835t16.5 39.5T436 891q22 0 38.5-16.5T491 835q0-22-16.5-38.5T436 780q-24 0-40.5 16zm174 .5Q553 813 553 835q0 23 16.5 39.5T608 891q24 0 40.5-16.5T665 835t-16.5-39-40.5-16q-22 0-38.5 16.5z"/><glyph glyph-name="uni06AA.init" unicode="ڪ" horiz-adv-x="1181" d="M1057 347.5q73-43.5 73-146.5 0-40-28-74t-75-55q-76-33-246-52.5T340 0H0l-20 63 25 60q42 0 144-2 195-3 226-3 253 0 400 14.5T977.5 167t55.5 40q0 32-44 51.5T845 278q-100-1-271-13-170-12-254-12-71 0-134 5.5T89 272l12 100q41 107 137.5 185T470 661l-22-118q-84-20-150.5-63.5T192 373q69-6 141-6 96 0 268 12 164 12 244 12 139 0 212-43.5z"/><glyph glyph-name="uni06AA.medi" unicode="ڪ" horiz-adv-x="1248" d="M1268 59l-20-59q-71 0-115.5 29t-53.5 75q-19-16-52-32-76-33-246-52.5T340 0H0l-20 63 25 60q42 0 144-2 195-3 226-3 253 0 400 14.5T977.5 167t55.5 40q0 32-44 51.5T845 278q-100-1-271-13-170-12-254-12-71 0-134 5.5T89 272l12 100q41 107 137.5 185T470 661l-22-118q-84-20-150.5-63.5T192 373q69-6 141-6 96 0 268 12 164 12 244 12 135 0 208-41.5t77-137.5q0-52 28.5-70.5T1259 123z"/><glyph glyph-name="uni06AA.fina" unicode="ڪ" horiz-adv-x="1318" d="M1338 59l-20-59q-71 0-115.5 29t-53.5 75q-19-16-52-32-75-33-247-52.5T410 0H71L35 123l104-2q172-4 290-4 261 0 411.5 14.5t206.5 35 56 40.5q0 32-44 51.5T915 278q-100-1-271-13-170-12-254-12-71 0-134 5.5T159 272l12 100q41 107 138 185t232 104l-22-118q-84-20-151-63.5T262 373q69-6 141-6 96 0 268 12 164 12 244 12 135 0 208-41.5t77-137.5q0-52 29-70.5t100-18.5z"/><glyph glyph-name="uni06AB.init" unicode="ګ" horiz-adv-x="462" d="M419 649l-54-30q17-12 27-31t10-42q0-39-26-64.5T310 456q-37 0-62.5 22.5T219 536l-92-51q99-48 151-90.5t70.5-83.5 18.5-94q0-102-89.5-159.5T0 0l-20 57 30 66q103 0 160 12.5t79 35.5 22 58q0 28-18.5 53t-78 60.5T-2 429l24 110 404 230zm-81-127.5q10 10.5 10 24.5 0 16-10.5 25.5T310 581t-27-9.5-10-25.5q0-14 10-24.5t27-10.5q18 0 28 10.5z"/><glyph glyph-name="uni06AB.medi" unicode="ګ" horiz-adv-x="542" d="M562 60L542 0q-91 0-153.5 35.5T264 163q-6-72-73.5-117.5T0 0l-20 57 30 66q94 0 133 20.5t39 60.5q0 26-17 59t-55 80l-73 89 24 106 403 231-6-117-61-35q16-12 25.5-30.5T432 546q0-39-26-64.5T340 456q-36 0-61.5 22T249 534l-111-62 166-207q50-63 82-91.5t68.5-39.5 98.5-11zM330 580l-18-10q-9-9-9-24 0-14 10-24.5t27-10.5 27.5 10.5T378 546q0 16-10.5 25.5T340 581q-7 0-10-1z"/><glyph glyph-name="uni06AB.fina" unicode="ګ" horiz-adv-x="996" d="M1016 60L996 0q-61 0-107.5 15T801 65t-84 98q-5-71-77.5-119.5T408-14l-1-2h-71v1q-115 5-178.5 28T68 79.5 42 195q0 40 10 82t28 79l80-25q-19-63-19-111 0-41 19.5-64.5t71-35T380 107q147 3 201 28.5t54 68.5q0 26-17 59t-55 80l-72 89 23 106 404 231-7-120-61-34q32-27 32-69 0-39-26-64.5T790 456q-34 0-59.5 21T699 530l-105-60 177-222q45-57 75-82.5t64.5-34 95.5-8.5zM818 571.5q-10 9.5-27 9.5l-35-19q-3-7-3-16 0-14 10-24.5t27-10.5q18 0 28 10.5t10 24.5q0 16-10 25.5z"/><glyph glyph-name="uni06AC.init" unicode="ڬ" horiz-adv-x="462" d="M419 649L127 485q99-48 151-90.5t70.5-83.5 18.5-94q0-102-89.5-159.5T0 0l-20 57 30 66q103 0 160 12.5t79 35.5 22 58q0 28-18.5 53t-78 60.5T-2 429l24 110 404 230zM18 722Q0 740 0 766t18 44 44 18 44-18 18-44-18-44-44-18-44 18z"/><glyph glyph-name="uni06AC.medi" unicode="ڬ" horiz-adv-x="542" d="M562 60L542 0q-91 0-153.5 35.5T264 163q-6-72-73.5-117.5T0 0l-20 57 30 66q94 0 133 20.5t39 60.5q0 26-17 59t-55 80l-73 89 24 106 403 231-6-117-320-180 166-207q50-63 82-91.5t68.5-39.5 98.5-11zM52 722q-18 18-18 44t18 44 44 18 44-18 18-44-18-44-44-18-44 18z"/><glyph glyph-name="uni06AC.fina" unicode="ڬ" horiz-adv-x="854" d="M874 60L854 0q-56 0-93.5 16T694 72q-58-38-127-59T408-14l-1-2h-71v1q-115 5-178.5 28T68 79.5 42 195q0 40 10 82t28 79l80-25q-19-63-19-111 0-41 19-64.5t69-35T374 107q161 6 270 67v588l105 14V235q0-42 9-65.5t34-35 72-11.5zM397 340q31 7 31 20 0 12-21.5 22T318 405l14 71 169 100-5-78-98-53q54-15 76-35t22-52q0-93-196-93l-11 68q77 0 108 7zm254 515q-18 18-18 44t18 44 44 18 44-18 18-44-18-44-44-18-44 18z"/><glyph glyph-name="uni06AE.init" unicode="ڮ" horiz-adv-x="462" d="M419 649L127 485q99-48 151-90.5t70.5-83.5 18.5-94q0-102-89.5-159.5T0 0l-20 57 30 66q103 0 160 12.5t79 35.5 22 58q0 28-18.5 53t-78 60.5T-2 429l24 110 404 230zM71.5-106.5Q88-123 88-145q0-24-16.5-40.5T33-202q-24 0-40.5 16.5T-24-145q0 23 16.5 39T33-90q22 0 38.5-16.5zm174 .5q16.5-16 16.5-39 0-24-16.5-40.5T205-202q-22 0-38.5 16.5T150-145q0 22 16.5 38.5T205-90q24 0 40.5-16zM158-234.5q16-16.5 16-39.5t-16-39.5-39-16.5-39 16.5T64-274t16 39.5 39 16.5 39-16.5z"/><glyph glyph-name="uni06AE.medi" unicode="ڮ" horiz-adv-x="542" d="M562 60L542 0q-91 0-153.5 35.5T264 163q-6-72-73.5-117.5T0 0l-20 57 30 66q94 0 133 20.5t39 60.5q0 26-17 59t-55 80l-73 89 24 106 403 231-6-117-320-180 166-207q50-63 82-91.5t68.5-39.5 98.5-11zM240.5-106.5Q257-123 257-145q0-24-16.5-40.5T202-202q-24 0-40.5 16.5T145-145q0 23 16.5 39T202-90q22 0 38.5-16.5zm174 .5q16.5-16 16.5-39 0-24-16.5-40.5T374-202q-22 0-38.5 16.5T319-145q0 22 16.5 38.5T374-90q24 0 40.5-16zM327-234.5q16-16.5 16-39.5t-16-39.5-39-16.5-39 16.5-16 39.5 16 39.5 39 16.5 39-16.5z"/><glyph glyph-name="uni06AE.fina" unicode="ڮ" horiz-adv-x="854" d="M874 60L854 0q-56 0-93.5 16T694 72q-58-38-127-59T408-14l-1-2h-71v1q-115 5-178.5 28T68 79.5 42 195q0 40 10 82t28 79l80-25q-19-63-19-111 0-41 19-64.5t69-35T374 107q161 6 270 67v588l105 14V235q0-42 9-65.5t34-35 72-11.5zM397 340q31 7 31 20 0 12-21.5 22T318 405l14 71 169 100-5-78-98-53q54-15 76-35t22-52q0-93-196-93l-11 68q77 0 108 7zm-59.5-446.5Q354-123 354-145q0-24-16.5-40.5T299-202q-24 0-40.5 16.5T242-145q0 23 16.5 39T299-90q22 0 38.5-16.5zm174 .5q16.5-16 16.5-39 0-24-16.5-40.5T471-202q-22 0-38.5 16.5T416-145q0 22 16.5 38.5T471-90q24 0 40.5-16zM424-234.5q16-16.5 16-39.5t-16-39.5-39-16.5-39 16.5-16 39.5 16 39.5 39 16.5 39-16.5z"/><glyph glyph-name="uni06B2.init" unicode="ڲ" horiz-adv-x="464" d="M420 812L25 587l21 88 379 219zm-1-163L127 485q99-48 151-90.5t70.5-83.5 18.5-94q0-102-89.5-159.5T0 0l-20 57 30 66q103 0 160 12.5t79 35.5 22 58q0 28-18.5 53t-78 60.5T-2 429l24 110 404 230zM-2-184q-17 17-17 41t17 41 40 17q24 0 41-17t17-41-17-41-41-17q-23 0-40 17zm160 0q-17 17-17 41t17 41 41 17q23 0 40.5-17t17.5-41-17.5-41-40.5-17q-24 0-41 17z"/><glyph glyph-name="uni06B2.medi" unicode="ڲ" horiz-adv-x="542" d="M453 812L59 587l21 88 378 219zM562 60L542 0q-91 0-153.5 35.5T264 163q-6-72-73.5-117.5T0 0l-20 57 30 66q94 0 133 20.5t39 60.5q0 26-17 59t-55 80l-73 89 24 106 403 231-6-117-320-180 166-207q50-63 82-91.5t68.5-39.5 98.5-11zM167-184q-17 17-17 41t17 41 40 17q24 0 41-17t17-41-17-41-41-17q-23 0-40 17zm160 0q-17 17-17 41t17 41 41 17q23 0 40.5-17t17.5-41-17.5-41-40.5-17q-24 0-41 17z"/><glyph glyph-name="uni06B2.fina" unicode="ڲ" horiz-adv-x="996" d="M913 812L518 587l21 88 379 219zm103-752L996 0q-61 0-107.5 15T801 65t-84 98q-5-71-77.5-119.5T408-14l-1-2h-71v1q-115 5-178.5 28T68 79.5 42 195q0 40 10 82t28 79l80-25q-19-63-19-111 0-41 19.5-64.5t71-35T380 107q147 3 201 28.5t54 68.5q0 26-17 59t-55 80l-72 89 23 106 404 231-7-120-317-179 177-222q45-57 75-82.5t64.5-34 95.5-8.5zM257-184q-17 17-17 41t17 41 40 17q24 0 41-17t17-41-17-41-41-17q-23 0-40 17zm160 0q-17 17-17 41t17 41 41 17q23 0 40.5-17t17.5-41-17.5-41-40.5-17q-24 0-41 17z"/><glyph glyph-name="uniFBD4" unicode="ڭ" horiz-adv-x="854" arabic-form="final" d="M874 60L854 0q-56 0-93.5 16T694 72q-58-38-127-59T408-14l-1-2h-71v1q-115 5-178.5 28T68 79.5 42 195q0 40 10 82t28 79l80-25q-19-63-19-111 0-41 19-64.5t69-35T374 107q161 6 270 67v588l105 14V235q0-42 9-65.5t34-35 72-11.5zM397 340q31 7 31 20 0 12-21.5 22T318 405l14 71 169 100-5-78-98-53q54-15 76-35t22-52q0-93-196-93l-11 68q77 0 108 7zm261 644.5q-16 16.5-16 39.5t16 39.5 39 16.5 39-16.5 16-39.5-16-39.5-39-16.5-39 16.5zM570.5 856Q554 872 554 895t16.5 39.5T611 951q22 0 38.5-16.5T666 895q0-22-16.5-38.5T611 840q-24 0-40.5 16zm174 .5Q728 873 728 895q0 23 16.5 39.5T783 951q24 0 40.5-16.5T840 895t-16.5-39-40.5-16q-22 0-38.5 16.5z"/><glyph glyph-name="uniFBD6" unicode="ڭ" horiz-adv-x="542" arabic-form="medial" d="M562 60L542 0q-91 0-153.5 35.5T264 163q-6-72-73.5-117.5T0 0l-20 57 30 66q94 0 133 20.5t39 60.5q0 26-17 59t-55 80l-73 89 24 106 403 231-6-117-320-180 166-207q50-63 82-91.5t68.5-39.5 98.5-11zM59 851.5Q43 868 43 891t16 39.5T98 947t39-16.5 16-39.5-16-39.5T98 835t-39 16.5zM-28.5 723Q-45 739-45 762t16.5 39.5T12 818q22 0 38.5-16.5T67 762q0-22-16.5-38.5T12 707q-24 0-40.5 16zm174 .5Q129 740 129 762q0 23 16.5 39.5T184 818q24 0 40.5-16.5T241 762t-16.5-39-40.5-16q-22 0-38.5 16.5z"/><glyph glyph-name="uniFBD5" unicode="ڭ" horiz-adv-x="462" d="M419 649L127 485q99-48 151-90.5t70.5-83.5 18.5-94q0-102-89.5-159.5T0 0l-20 57 30 66q103 0 160 12.5t79 35.5 22 58q0 28-18.5 53t-78 60.5T-2 429l24 110 404 230zM25 851.5Q9 868 9 891t16 39.5T64 947t39-16.5 16-39.5-16-39.5T64 835t-39 16.5zM-62.5 723Q-79 739-79 762t16.5 39.5T-22 818q22 0 38.5-16.5T33 762q0-22-16.5-38.5T-22 707q-24 0-40.5 16zm174 .5Q95 740 95 762q0 23 16.5 39.5T150 818q24 0 40.5-16.5T207 762t-16.5-39-40.5-16q-22 0-38.5 16.5z"/><glyph glyph-name="uniFB9B" unicode="ڱ" horiz-adv-x="996" arabic-form="final" d="M913 812L518 587l21 88 379 219zm103-752L996 0q-61 0-107.5 15T801 65t-84 98q-5-71-77.5-119.5T408-14l-1-2h-71v1q-115 5-178.5 28T68 79.5 42 195q0 40 10 82t28 79l80-25q-19-63-19-111 0-41 19.5-64.5t71-35T380 107q147 3 201 28.5t54 68.5q0 26-17 59t-55 80l-72 89 23 106 404 231-7-120-317-179 177-222q45-57 75-82.5t64.5-34 95.5-8.5zM401 811q-17 17-17 41t17 41 40 17q24 0 41-17t17-41-17-41-41-17q-23 0-40 17zm160 0q-17 17-17 41t17 41 41 17q23 0 40.5-17t17.5-41-17.5-41-40.5-17q-24 0-41 17z"/><glyph glyph-name="uniFB9D" unicode="ڱ" horiz-adv-x="542" arabic-form="medial" d="M453 812L59 587l21 88 378 219zM562 60L542 0q-91 0-153.5 35.5T264 163q-6-72-73.5-117.5T0 0l-20 57 30 66q94 0 133 20.5t39 60.5q0 26-17 59t-55 80l-73 89 24 106 403 231-6-117-320-180 166-207q50-63 82-91.5t68.5-39.5 98.5-11zM-59 810q-17 17-17 41t17 41 40 17q24 0 41-17t17-41-17-41-41-17q-23 0-40 17zm160 0q-17 17-17 41t17 41 41 17q23 0 40.5-17t17.5-41-17.5-41-40.5-17q-24 0-41 17z"/><glyph glyph-name="uniFB9C" unicode="ڱ" horiz-adv-x="464" d="M420 812L25 587l21 88 379 219zm-1-163L127 485q99-48 151-90.5t70.5-83.5 18.5-94q0-102-89.5-159.5T0 0l-20 57 30 66q103 0 160 12.5t79 35.5 22 58q0 28-18.5 53t-78 60.5T-2 429l24 110 404 230zM-89 811q-17 17-17 41t17 41 40 17q24 0 41-17t17-41-17-41-41-17q-23 0-40 17zm160 0q-17 17-17 41t17 41 41 17q23 0 40.5-17t17.5-41-17.5-41-40.5-17q-24 0-41 17z"/><glyph glyph-name="uniFB97" unicode="ڳ" horiz-adv-x="996" arabic-form="final" d="M913 812L518 587l21 88 379 219zm103-752L996 0q-61 0-107.5 15T801 65t-84 98q-5-71-77.5-119.5T408-14l-1-2h-71v1q-115 5-178.5 28T68 79.5 42 195q0 40 10 82t28 79l80-25q-19-63-19-111 0-41 19.5-64.5t71-35T380 107q147 3 201 28.5t54 68.5q0 26-17 59t-55 80l-72 89 23 106 404 231-7-120-317-179 177-222q45-57 75-82.5t64.5-34 95.5-8.5zM337-173q-17 17-17 41t17 40.5T378-75t41-16.5 17-40.5-17-41-41-17-41 17zm.5-154.5Q321-311 321-286q0 24 16.5 41t41.5 17q23 0 40.5-17t17.5-41-17-41-41-17q-25 0-41.5 16.5z"/><glyph glyph-name="uniFB99" unicode="ڳ" horiz-adv-x="542" arabic-form="medial" d="M453 812L59 587l21 88 378 219zM562 60L542 0q-91 0-153.5 35.5T264 163q-6-72-73.5-117.5T0 0l-20 57 30 66q94 0 133 20.5t39 60.5q0 26-17 59t-55 80l-73 89 24 106 403 231-6-117-320-180 166-207q50-63 82-91.5t68.5-39.5 98.5-11zM247-173q-17 17-17 41t17 40.5T288-75t41-16.5 17-40.5-17-41-41-17-41 17zm.5-154.5Q231-311 231-286q0 24 16.5 41t41.5 17q23 0 40.5-17t17.5-41-17-41-41-17q-25 0-41.5 16.5z"/><glyph glyph-name="uniFB98" unicode="ڳ" horiz-adv-x="464" d="M420 812L25 587l21 88 379 219zm-1-163L127 485q99-48 151-90.5t70.5-83.5 18.5-94q0-102-89.5-159.5T0 0l-20 57 30 66q103 0 160 12.5t79 35.5 22 58q0 28-18.5 53t-78 60.5T-2 429l24 110 404 230zM78-173q-17 17-17 41t17 40.5T119-75t41-16.5 17-40.5-17-41-41-17-41 17zm.5-154.5Q62-311 62-286q0 24 16.5 41t41.5 17q23 0 40.5-17t17.5-41-17-41-41-17q-25 0-41.5 16.5z"/><glyph glyph-name="uniFEDE" unicode="ل" horiz-adv-x="712" arabic-form="final" d="M712 0q-52 0-87 27-17-130-95-187.5T312-218q-137 0-203.5 67T42 37q0 102 51 202l80-24q-27-73-27-159 0-70 42-110.5T322-95q75 0 119 19t64 61 20 114v661l105 13V211q0-52 21-70t71-18l10-64z"/><glyph glyph-name="uniFEE0" unicode="ل" horiz-adv-x="261" arabic-form="medial" d="M281 58L261 0q-87 0-130 59-23-34-54.5-46.5T0 0l-20 57 30 66q32 0 46.5 8T75 155.5t4 51.5v553l104 14V208q0-47 19.5-66t68.5-19z"/><glyph glyph-name="uniFEDF" unicode="ل" horiz-adv-x="254" d="M-20 57l30 66q42 0 60 21.5T88 223v537l105 13V221q0-82-19.5-130T112 21.5 0 0z"/><glyph glyph-name="uni06B5.init" unicode="ڵ" horiz-adv-x="254" d="M-20 57l30 66q42 0 60 21.5T88 223v537l105 13V221q0-82-19.5-130T112 21.5 0 0zm161 838l51 85 58-24-80-143h-60L32 956l58 24z"/><glyph glyph-name="uni06B5.medi" unicode="ڵ" horiz-adv-x="261" d="M281 58L261 0q-87 0-130 59-23-34-54.5-46.5T0 0l-20 57 30 66q32 0 46.5 8T75 155.5t4 51.5v553l104 14V208q0-47 19.5-66t68.5-19zM131 892l51 85 58-24-80-143h-60L22 953l58 24z"/><glyph glyph-name="uni06B5.fina" unicode="ڵ" horiz-adv-x="712" d="M712 0q-52 0-87 27-17-130-95-187.5T312-218q-137 0-203.5 67T42 37q0 102 51 202l80-24q-27-73-27-159 0-70 42-110.5T322-95q75 0 119 19t64 61 20 114v661l105 13V211q0-52 21-70t71-18l10-64zM578 892l51 85 58-24-80-143h-60l-78 143 58 24z"/><glyph glyph-name="uni06B6.init" unicode="ڶ" horiz-adv-x="254" d="M-20 57l30 66q42 0 60 21.5T88 223v537l105 13V221q0-82-19.5-130T112 21.5 0 0zM95 858q-18 18-18 44t18 44 44 18 44-18 18-44-18-44-44-18-44 18z"/><glyph glyph-name="uni06B6.medi" unicode="ڶ" horiz-adv-x="261" d="M281 58L261 0q-87 0-130 59-23-34-54.5-46.5T0 0l-20 57 30 66q32 0 46.5 8T75 155.5t4 51.5v553l104 14V208q0-47 19.5-66t68.5-19zM85 855q-18 18-18 44t18 44 44 18 44-18 18-44-18-44-44-18-44 18z"/><glyph glyph-name="uni06B6.fina" unicode="ڶ" horiz-adv-x="712" d="M712 0q-52 0-87 27-17-130-95-187.5T312-218q-137 0-203.5 67T42 37q0 102 51 202l80-24q-27-73-27-159 0-70 42-110.5T322-95q75 0 119 19t64 61 20 114v661l105 13V211q0-52 21-70t71-18l10-64zM532 855q-18 18-18 44t18 44 44 18 44-18 18-44-18-44-44-18-44 18z"/><glyph glyph-name="uni06B7.init" unicode="ڷ" horiz-adv-x="254" d="M-20 57l30 66q42 0 60 21.5T88 223v537l105 13V221q0-82-19.5-130T112 21.5 0 0zm122 930.5Q86 1004 86 1027t16 39.5 39 16.5 39-16.5 16-39.5-16-39.5-39-16.5-39 16.5zM14.5 859Q-2 875-2 898t16.5 39.5T55 954q22 0 38.5-16.5T110 898q0-22-16.5-38.5T55 843q-24 0-40.5 16zm174 .5Q172 876 172 898q0 23 16.5 39.5T227 954q24 0 40.5-16.5T284 898t-16.5-39-40.5-16q-22 0-38.5 16.5z"/><glyph glyph-name="uni06B7.medi" unicode="ڷ" horiz-adv-x="261" d="M281 58L261 0q-87 0-130 59-23-34-54.5-46.5T0 0l-20 57 30 66q32 0 46.5 8T75 155.5t4 51.5v553l104 14V208q0-47 19.5-66t68.5-19zM92 984.5Q76 1001 76 1024t16 39.5 39 16.5 39-16.5 16-39.5-16-39.5-39-16.5-39 16.5zM4.5 856Q-12 872-12 895t16.5 39.5T45 951q22 0 38.5-16.5T100 895q0-22-16.5-38.5T45 840q-24 0-40.5 16zm174 .5Q162 873 162 895q0 23 16.5 39.5T217 951q24 0 40.5-16.5T274 895t-16.5-39-40.5-16q-22 0-38.5 16.5z"/><glyph glyph-name="uni06B7.fina" unicode="ڷ" horiz-adv-x="712" d="M712 0q-52 0-87 27-17-130-95-187.5T312-218q-137 0-203.5 67T42 37q0 102 51 202l80-24q-27-73-27-159 0-70 42-110.5T322-95q75 0 119 19t64 61 20 114v661l105 13V211q0-52 21-70t71-18l10-64zM539 984.5q-16 16.5-16 39.5t16 39.5 39 16.5 39-16.5 16-39.5-16-39.5-39-16.5-39 16.5zM451.5 856Q435 872 435 895t16.5 39.5T492 951q22 0 38.5-16.5T547 895q0-22-16.5-38.5T492 840q-24 0-40.5 16zm174 .5Q609 873 609 895q0 23 16.5 39.5T664 951q24 0 40.5-16.5T721 895t-16.5-39-40.5-16q-22 0-38.5 16.5z"/><glyph glyph-name="uni06B8.init" unicode="ڸ" horiz-adv-x="254" d="M-20 57l30 66q42 0 60 21.5T88 223v537l105 13V221q0-82-19.5-130T112 21.5 0 0zM91.5-106.5Q108-123 108-145q0-24-16.5-40.5T53-202q-24 0-40.5 16.5T-4-145q0 23 16.5 39T53-90q22 0 38.5-16.5zm174 .5q16.5-16 16.5-39 0-24-16.5-40.5T225-202q-22 0-38.5 16.5T170-145q0 22 16.5 38.5T225-90q24 0 40.5-16zM178-234.5q16-16.5 16-39.5t-16-39.5-39-16.5-39 16.5T84-274t16 39.5 39 16.5 39-16.5z"/><glyph glyph-name="uni06B8.medi" unicode="ڸ" horiz-adv-x="261" d="M281 58L261 0q-87 0-130 59-23-34-54.5-46.5T0 0l-20 57 30 66q32 0 46.5 8T75 155.5t4 51.5v553l104 14V208q0-47 19.5-66t68.5-19zM82.5-106.5Q99-123 99-145q0-24-16.5-40.5T44-202q-24 0-40.5 16.5T-13-145q0 23 16.5 39T44-90q22 0 38.5-16.5zm174 .5q16.5-16 16.5-39 0-24-16.5-40.5T216-202q-22 0-38.5 16.5T161-145q0 22 16.5 38.5T216-90q24 0 40.5-16zM169-234.5q16-16.5 16-39.5t-16-39.5-39-16.5-39 16.5T75-274t16 39.5 39 16.5 39-16.5z"/><glyph glyph-name="uni06B8.fina" unicode="ڸ" horiz-adv-x="712" d="M712 0q-52 0-87 27-17-130-95-187.5T312-218q-137 0-203.5 67T42 37q0 102 51 202l80-24q-27-73-27-159 0-70 42-110.5T322-95q75 0 119 19t64 61 20 114v661l105 13V211q0-52 21-70t71-18l10-64zM264.5-322.5Q281-339 281-361q0-24-16.5-40.5T226-418q-24 0-40.5 16.5T169-361q0 23 16.5 39t40.5 16q22 0 38.5-16.5zm174 .5q16.5-16 16.5-39 0-24-16.5-40.5T398-418q-22 0-38.5 16.5T343-361q0 22 16.5 38.5T398-306q24 0 40.5-16zM351-450.5q16-16.5 16-39.5t-16-39.5-39-16.5-39 16.5-16 39.5 16 39.5 39 16.5 39-16.5z"/><glyph glyph-name="uniFEE2" unicode="م" horiz-adv-x="721" arabic-form="final" d="M741 59L721 0q-43 0-75 15.5T595 58q-20-36-49.5-55T478-16q-51 0-96.5 21T278 63q-31 20-48.5 29t-29.5 9q-31 0-40.5-27.5T150-2q0-98 46-330L77-350Q60-247 51-170T42-14q0 111 32 180t103 69q17 0 38-8 54 116 109.5 167T454 445q48 0 87-28.5t62.5-81.5T627 211q0-52 24-70t81-18zm-227 74q20 28 20 79 0 55-26 83t-68 28q-40 0-72-33t-71-112q51-35 87.5-54t75.5-19q34 0 54 28z"/><glyph glyph-name="uniFEE4" unicode="م" horiz-adv-x="635" arabic-form="medial" d="M655 59L635 0q-42 0-74 15.5T510 57q-40-73-118-73-53 0-110 25T161 80Q108 0 17 0H0l-20 56 30 67h16q30 0 51.5 19.5T127 221q39 84 74.5 132.5t74.5 70 90 21.5q49 0 88.5-29.5t63-82.5T541 211q0-52 23.5-70t80.5-18zm-226.5 75.5Q448 164 448 211q0 54-26 83.5T353 324q-27 0-49-12.5T259 267t-52-92q106-70 169-70 33 0 52.5 29.5z"/><glyph glyph-name="uniFEE3" unicode="م" horiz-adv-x="592" d="M455 415.5q40-29.5 63-83.5t23-124q0-105-39.5-164.5T392-16q-53 0-110 25T161 80Q108 0 17 0H0l-20 56 30 67h16q30 0 51.5 19.5T127 221q39 84 74.5 132.5t74.5 70 90 21.5q49 0 89-29.5zm-26.5-281Q448 164 448 211q0 54-26 83.5T353 324q-27 0-49-12.5T259 267t-52-92q106-70 169-70 33 0 52.5 29.5z"/><glyph glyph-name="uniFEE6" unicode="ن" horiz-adv-x="731" arabic-form="final" d="M731 0q-59 0-97 32-4-111-43-175t-108-90-171-26h-1q-137 0-203 66.5T42-5q0 104 51 202l80-24q-27-73-27-158 0-71 42-111.5T322-137q76 0 121.5 18.5T510-60t21 108q0 58-15.5 113T467 287l115 46q7-26 36-106 21-63 48.5-83.5T741 123l10-66zM275 351q-18 18-18 44t18 44 44 18 44-18 18-44-18-44-44-18-44 18z"/><glyph glyph-name="uniFEE8" unicode="ن" horiz-adv-x="338" arabic-form="medial" d="M358 58L338 0q-64 0-103.5 15T170 70q-25-40-63.5-55T0 0l-20 57 31 66q52 0 74 9.5t27 28 5 62.5v115h105V224q0-42 8.5-62.5t35-29.5 82.5-9zM124 433q-18 18-18 44t18 44 44 18 44-18 18-44-18-44-44-18-44 18z"/><glyph glyph-name="uniFEE7" unicode="ن" horiz-adv-x="306" d="M99.5 129.5q29.5 6.5 40 22T150 198q0 59-47 185l109 36q21-61 32-123.5T255 186q0-75-23.5-115T154 15.5 0 0l-20 57 30 66q60 0 89.5 6.5zM81 501q-18 18-18 44t18 44 44 18 44-18 18-44-18-44-44-18-44 18z"/><glyph glyph-name="uni06B9.init" unicode="ڹ" horiz-adv-x="306" d="M99.5 129.5q29.5 6.5 40 22T150 198q0 59-47 185l109 36q21-61 32-123.5T255 186q0-75-23.5-115T154 15.5 0 0l-20 57 30 66q60 0 89.5 6.5zM101-196q-18 18-18 44t18 44 44 18 44-18 18-44-18-44-44-18-44 18zM81 501q-18 18-18 44t18 44 44 18 44-18 18-44-18-44-44-18-44 18z"/><glyph glyph-name="uni06B9.medi" unicode="ڹ" horiz-adv-x="338" d="M358 58L338 0q-64 0-103.5 15T170 70q-25-40-63.5-55T0 0l-20 57 31 66q52 0 74 9.5t27 28 5 62.5v115h105V224q0-42 8.5-62.5t35-29.5 82.5-9zM125-196q-18 18-18 44t18 44 44 18 44-18 18-44-18-44-44-18-44 18zm-1 629q-18 18-18 44t18 44 44 18 44-18 18-44-18-44-44-18-44 18z"/><glyph glyph-name="uni06B9.fina" unicode="ڹ" horiz-adv-x="731" d="M731 0q-59 0-97 32-4-111-43-175t-108-90-171-26h-1q-137 0-203 66.5T42-5q0 104 51 202l80-24q-27-73-27-158 0-71 42-111.5T322-137q76 0 121.5 18.5T510-60t21 108q0 58-15.5 113T467 287l115 46q7-26 36-106 21-63 48.5-83.5T741 123l10-66zM276-442q-18 18-18 44t18 44 44 18 44-18 18-44-18-44-44-18-44 18zm-1 793q-18 18-18 44t18 44 44 18 44-18 18-44-18-44-44-18-44 18z"/><glyph glyph-name="uniFB9F" unicode="ں" horiz-adv-x="731" arabic-form="final" d="M731 0q-59 0-97 32-4-111-43-175t-108-90-171-26h-1q-137 0-203 66.5T42-5q0 104 51 202l80-24q-27-73-27-158 0-71 42-111.5T322-137q76 0 121.5 18.5T510-60t21 108q0 58-15.5 113T467 287l115 46q7-26 36-106 21-63 48.5-83.5T741 123l10-66z"/><glyph glyph-name="uniFBA1" unicode="ڻ" horiz-adv-x="731" arabic-form="final" d="M731 0q-59 0-97 32-4-111-43-175t-108-90-171-26h-1q-137 0-203 66.5T42-5q0 104 51 202l80-24q-27-73-27-158 0-71 42-111.5T322-137q76 0 121.5 18.5T510-60t21 108q0 58-15.5 113T467 287l115 46q7-26 36-106 21-63 48.5-83.5T741 123l10-66zM425.5 489q21.5-26 21.5-65 0-33-24.5-61T346 335H191l7 59h32l2 4v151h58v-71q20 20 38 28.5t38 8.5q38 0 59.5-26zm-46-87.5Q392 409 392 426q0 29-32 29-22 0-44.5-17T272 394h64q31 0 43.5 7.5z"/><glyph glyph-name="uniFBA3" unicode="ڻ" horiz-adv-x="338" arabic-form="medial" d="M358 58L338 0q-64 0-103.5 15T170 70q-25-40-63.5-55T0 0l-20 57 31 66q52 0 74 9.5t27 28 5 62.5v115h105V224q0-42 8.5-62.5t35-29.5 82.5-9zm-83.5 513q21.5-26 21.5-65 0-33-24.5-61T195 417H40l7 59h32l2 4v151h58v-71q20 20 38 28.5t38 8.5q38 0 59.5-26zm-46-87.5Q241 491 241 508q0 29-32 29-22 0-44.5-17T121 476h64q31 0 43.5 7.5z"/><glyph glyph-name="uniFBA2" unicode="ڻ" horiz-adv-x="306" d="M99.5 129.5q29.5 6.5 40 22T150 198q0 59-47 185l109 36q21-61 32-123.5T255 186q0-75-23.5-115T154 15.5 0 0l-20 57 30 66q60 0 89.5 6.5zm132 509.5q21.5-26 21.5-65 0-33-24.5-61T152 485H-3l7 59h32l2 4v151h58v-71q20 20 38 28.5t38 8.5q38 0 59.5-26zm-46-87.5Q198 559 198 576q0 29-32 29-22 0-44.5-17T78 544h64q31 0 43.5 7.5z"/><glyph glyph-name="uni06BC.init" unicode="ڼ" horiz-adv-x="306" d="M80.5 501Q62 519 62 545q0 27 18.5 45t44.5 18 44-18 18-45q0-26-18-44t-44-18-44.5 18zM242 93.5Q229 58 200 37q24-26 24-62 0-38-26-63.5T133-114 67.5-88.5 41-25q0 15 4 26Q31 0 0 0l-20 57 30 66q60 0 89.5 6.5t40 22T150 198q0 59-47 185l109 36q21-61 32-123.5T255 186q0-57-13-92.5zM131 10l-14-3Q95-1 95-25q0-14 10.5-24.5T133-60t27 10.5T170-25q0 16-10 25.5T133 10h-2z"/><glyph glyph-name="uni06BC.medi" unicode="ڼ" horiz-adv-x="338" d="M123.5 432.5Q105 451 105 477t18.5 44 44.5 18 44-18 18-44-18-44.5-44-18.5-44.5 18.5zM234.5 15Q195 30 170 70q-2-5-10-15 20-12 31.5-32T203-22q0-38-26-63.5T111-111q-39 0-65.5 25.5T19-22q0 11 3 22H0l-20 57 31 66q52 0 74 9.5t27 28 5 62.5v115h105V224q0-42 8.5-62.5t35-29.5 82.5-9l10-65-20-58q-64 0-103.5 15zM139-46.5Q149-36 149-22q0 16-10.5 25.5T111 13 84 3.5 74-22q0-14 10-24.5T111-57q18 0 28 10.5z"/><glyph glyph-name="uni06BC.fina" unicode="ڼ" horiz-adv-x="731" d="M274.5 350.5Q256 369 256 395t18.5 44 44.5 18 44-18 18-44-18-44.5-44-18.5-44.5 18.5zM731 0q-59 0-97 32-6-140-66.5-206.5T393-254q5-17 5-32 0-39-25.5-64.5T307-376q-39 0-65.5 26T215-286q0 17 7 36-92 20-136 83T42-5q0 104 51 202l80-24q-27-73-27-158 0-71 42-111.5T322-137q76 0 121.5 18.5T510-60t21 108q0 58-15.5 113T467 287l115 46q7-26 36-106 21-63 48.5-83.5T741 123l10-66zM331-259h-20q-19 0-28 1-14-9-14-28 0-14 10.5-24.5T307-321t27 10.5 10 24.5q0 17-13 27z"/><glyph glyph-name="uni06BD.init" unicode="ڽ" horiz-adv-x="306" d="M99.5 129.5q29.5 6.5 40 22T150 198q0 59-47 185l109 36q21-61 32-123.5T255 186q0-75-23.5-115T154 15.5 0 0l-20 57 30 66q60 0 89.5 6.5zM88 630.5Q72 647 72 670t16 39.5 39 16.5 39-16.5 16-39.5-16-39.5-39-16.5-39 16.5zM.5 502Q-16 518-16 541T.5 580.5 41 597q22 0 38.5-16.5T96 541q0-22-16.5-38.5T41 486q-24 0-40.5 16zm174 .5Q158 519 158 541q0 23 16.5 39.5T213 597q24 0 40.5-16.5T270 541t-16.5-39-40.5-16q-22 0-38.5 16.5z"/><glyph glyph-name="uni06BD.medi" unicode="ڽ" horiz-adv-x="338" d="M358 58L338 0q-64 0-103.5 15T170 70q-25-40-63.5-55T0 0l-20 57 31 66q52 0 74 9.5t27 28 5 62.5v115h105V224q0-42 8.5-62.5t35-29.5 82.5-9zM131 562.5Q115 579 115 602t16 39.5 39 16.5 39-16.5 16-39.5-16-39.5-39-16.5-39 16.5zM43.5 434Q27 450 27 473t16.5 39.5T84 529q22 0 38.5-16.5T139 473q0-22-16.5-38.5T84 418q-24 0-40.5 16zm174 .5Q201 451 201 473q0 23 16.5 39.5T256 529q24 0 40.5-16.5T313 473t-16.5-39-40.5-16q-22 0-38.5 16.5z"/><glyph glyph-name="uni06BD.fina" unicode="ڽ" horiz-adv-x="731" d="M731 0q-59 0-97 32-4-111-43-175t-108-90-171-26h-1q-137 0-203 66.5T42-5q0 104 51 202l80-24q-27-73-27-158 0-71 42-111.5T322-137q76 0 121.5 18.5T510-60t21 108q0 58-15.5 113T467 287l115 46q7-26 36-106 21-63 48.5-83.5T741 123l10-66zM282 480.5Q266 497 266 520t16 39.5 39 16.5 39-16.5 16-39.5-16-39.5-39-16.5-39 16.5zM194.5 352Q178 368 178 391t16.5 39.5T235 447q22 0 38.5-16.5T290 391q0-22-16.5-38.5T235 336q-24 0-40.5 16zm174 .5Q352 369 352 391q0 23 16.5 39.5T407 447q24 0 40.5-16.5T464 391t-16.5-39-40.5-16q-22 0-38.5 16.5z"/><glyph glyph-name="uniFEEA" unicode="ه" horiz-adv-x="518" arabic-form="final" d="M538 56L518 0h-28Q377 0 340 94q-26-31-65.5-48.5T191 28q-76 0-122 43.5T23 185q0 57 36.5 109T165 380.5 326 422v88l105 13V218q0-54 16.5-74.5T501 123h27zm-393.5 99q21.5-17 64.5-17 66 0 117 47v131q-98-4-150.5-37T123 201q0-29 21.5-46z"/><glyph glyph-name="uniFEEC" unicode="ه" horiz-adv-x="498" arabic-form="medial" d="M498 0H395q71-48 71-132 0-68-43-106.5T315-277q-63 0-117.5 35T108-144 66 0H0l-20 56 30 67h56q8 95 44.5 172.5T202 418t116 45q70 0 110.5-43.5T469 300q0-48-24-96.5T377 123h131l10-66zM239.5 318Q207 292 183 241.5T150 123h35q53 0 95.5 20.5t66.5 55 24 74.5q0 34-17 52.5T304 344q-32 0-64.5-26zM347-142.5Q364-126 364-99q0 45-37.5 72T224 0h-74q12-77 52.5-118t94.5-41q33 0 50 16.5z"/><glyph glyph-name="uniFEEB" unicode="ه" horiz-adv-x="646" d="M440.5 390q89.5-63 122-109.5T595 173q0-48-23.5-91.5T508 11t-85-27q-108 0-199 47Q147 0 44 0H0l-20 56 30 67h57q17 0 47 2-51 70-51 150 0 52 23.5 95t64.5 66q-33 17-59 33l61 103q198-119 287.5-182zM164 206q23-32 64-57 45 18 69.5 49t24.5 74-27 71-66 28q-37 0-62.5-27T141 274q0-36 23-68zm319.5-90q21.5 17 21.5 45 0 27-22.5 54T400 284v-6q0-49-16-92t-47-78q41-9 86-9 39 0 60.5 17z"/><glyph glyph-name="uniFBA5" unicode="ۀ" horiz-adv-x="518" arabic-form="final" d="M538 56L518 0h-28Q377 0 340 94q-26-31-65.5-48.5T191 28q-76 0-122 43.5T23 185q0 57 36.5 109T165 380.5 326 422v88l105 13V218q0-54 16.5-74.5T501 123h27zm-393.5 99q21.5-17 64.5-17 66 0 117 47v131q-98-4-150.5-37T123 201q0-29 21.5-46zM490 603l-221-35-8 61 63 10q-38 34-38 68 0 38 27.5 64t78.5 26q38 0 83-25l-38-59q-26 16-47 16-18 0-26-9t-8-21q0-22 31-49l93 15z"/><glyph glyph-name="uniFBA7" unicode="ہ" horiz-adv-x="601" arabic-form="final" d="M23-31q41 193 105 275t151 82q42 0 70-13t46-32.5 40-52.5q23-34 42.5-55t52-35.5T611 123l10-67-20-56q-76 0-126 21.5t-76.5 50T344 143q-19 31-33.5 45.5T276 203q-49 0-80.5-60T132-53z"/><glyph glyph-name="uniFBA9" unicode="ہ" horiz-adv-x="601" arabic-form="medial" d="M621 57L601 0h-33Q411 0 411-147q0-52 20-137l-94-31Q186-145 181 59q-27-30-63-44.5T33 0H0l-20 57 30 66h35q44 0 74.5 21t54 65T222 330l8 26 100-28q-45-152-45-238 0-60 9-104t34-104v8q0 114 63 173.5T581 123h30z"/><glyph glyph-name="uniFBA8" unicode="ہ" horiz-adv-x="306" d="M99.5 129.5q29.5 6.5 40 22T150 198q0 59-47 185l109 36q21-61 32-123.5T255 186q0-75-23.5-115T154 15.5 0 0l-20 57 30 66q60 0 89.5 6.5zM88-248q-19 18-19 50 0 34 22 80l35 76h41l-14-100q47-13 47-63 0-26-18-43.5T137-266q-30 0-49 18z"/><glyph glyph-name="uni06C2.fina" unicode="ۂ" horiz-adv-x="601" d="M23-31q41 193 105 275t151 82q42 0 70-13t46-32.5 40-52.5q23-34 42.5-55t52-35.5T611 123l10-67-20-56q-76 0-126 21.5t-76.5 50T344 143q-19 31-33.5 45.5T276 203q-49 0-80.5-60T132-53zm368 434l-221-35-8 61 63 10q-38 34-38 68 0 38 27.5 64t78.5 26q38 0 83-25l-38-59q-26 16-47 16-18 0-26-9t-8-21q0-22 31-49l93 15z"/><glyph glyph-name="uniFBAB" unicode="ھ" horiz-adv-x="592" arabic-form="final" d="M592 0H489q71-47 71-132 0-68-42.5-106.5T409-277q-63 0-117 35t-89 98T161 1Q69 5 18 37l50 108q38-18 93-21 8 94 44.5 172T297 418.5 413 463q70 0 110-43.5T563 300q0-48-24-96.5T472 123h131l9-66zM334 318q-32-26-56-76t-33-119h35q53 0 95.5 20.5t66.5 55 24 74.5q0 34-17.5 52.5T398 344q-32 0-64-26zm107.5-460.5Q459-126 459-99q0 45-38 72T318 0h-73q11-77 52-118t94-41q33 0 50.5 16.5z"/><glyph glyph-name="uniFBAD" unicode="ھ" horiz-adv-x="498" arabic-form="medial" d="M498 0H395q71-48 71-132 0-68-43-106.5T315-277q-63 0-117.5 35T108-144 66 0H0l-20 56 30 67h56q8 95 44.5 172.5T202 418t116 45q70 0 110.5-43.5T469 300q0-48-24-96.5T377 123h131l10-66zM239.5 318Q207 292 183 241.5T150 123h35q53 0 95.5 20.5t66.5 55 24 74.5q0 34-17 52.5T304 344q-32 0-64.5-26zM347-142.5Q364-126 364-99q0 45-37.5 72T224 0h-74q12-77 52.5-118t94.5-41q33 0 50 16.5z"/><glyph glyph-name="uniFBAC" unicode="ھ" horiz-adv-x="646" d="M440.5 390q89.5-63 122-109.5T595 173q0-48-23.5-91.5T508 11t-85-27q-108 0-199 47Q147 0 44 0H0l-20 56 30 67h57q17 0 47 2-51 70-51 150 0 52 23.5 95t64.5 66q-33 17-59 33l61 103q198-119 287.5-182zM164 206q23-32 64-57 45 18 69.5 49t24.5 74-27 71-66 28q-37 0-62.5-27T141 274q0-36 23-68zm319.5-90q21.5 17 21.5 45 0 27-22.5 54T400 284v-6q0-49-16-92t-47-78q41-9 86-9 39 0 60.5 17z"/><glyph glyph-name="uni06FF.init" unicode="ۿ" horiz-adv-x="646" d="M440.5 390q89.5-63 122-109.5T595 173q0-48-23.5-91.5T508 11t-85-27q-108 0-199 47Q147 0 44 0H0l-20 56 30 67h57q17 0 47 2-51 70-51 150 0 52 23.5 95t64.5 66q-33 17-59 33l61 103q198-119 287.5-182zM164 206q23-32 64-57 45 18 69.5 49t24.5 74-27 71-66 28q-37 0-62.5-27T141 274q0-36 23-68zm319.5-90q21.5 17 21.5 45 0 27-22.5 54T400 284v-6q0-49-16-92t-47-78q41-9 86-9 39 0 60.5 17zM274 591l78 142h60l80-142-58-24-51 84-51-84z"/><glyph glyph-name="uni06FF.medi" unicode="ۿ" horiz-adv-x="498" d="M498 0H395q71-48 71-132 0-68-43-106.5T315-277q-63 0-117.5 35T108-144 66 0H0l-20 56 30 67h56q8 95 44.5 172.5T202 418t116 45q70 0 110.5-43.5T469 300q0-48-24-96.5T377 123h131l10-66zM239.5 318Q207 292 183 241.5T150 123h35q53 0 95.5 20.5t66.5 55 24 74.5q0 34-17 52.5T304 344q-32 0-64.5-26zM347-142.5Q364-126 364-99q0 45-37.5 72T224 0h-74q12-77 52.5-118t94.5-41q33 0 50 16.5zM209 555l78 142h60l80-142-58-24-51 84-51-84z"/><glyph glyph-name="uni06FF.fina" unicode="ۿ" horiz-adv-x="592" d="M592 0H489q71-47 71-132 0-68-42.5-106.5T409-277q-63 0-117 35t-89 98T161 1Q69 5 18 37l50 108q38-18 93-21 8 94 44.5 172T297 418.5 413 463q70 0 110-43.5T563 300q0-48-24-96.5T472 123h131l9-66zM334 318q-32-26-56-76t-33-119h35q53 0 95.5 20.5t66.5 55 24 74.5q0 34-17.5 52.5T398 344q-32 0-64-26zm107.5-460.5Q459-126 459-99q0 45-38 72T318 0h-73q11-77 52-118t94-41q33 0 50.5 16.5zM304 555l78 142h60l80-142-58-24-51 84-51-84z"/><glyph glyph-name="uniFE94" unicode="ة" horiz-adv-x="518" arabic-form="final" d="M538 56L518 0h-28Q377 0 340 94q-26-31-65.5-48.5T191 28q-76 0-122 43.5T23 185q0 57 36.5 109T165 380.5 326 422v88l105 13V218q0-54 16.5-74.5T501 123h27zm-393.5 99q21.5-17 64.5-17 66 0 117 47v131q-98-4-150.5-37T123 201q0-29 21.5-46zM257 627q-17 17-17 41t17 41 40 17q24 0 41-17t17-41-17-41-41-17q-23 0-40 17zm160 0q-17 17-17 41t17 41 41 17q23 0 40.5-17t17.5-41-17.5-41-40.5-17q-24 0-41 17z"/><glyph glyph-name="uni06C3.fina" unicode="ۃ" horiz-adv-x="601" d="M23-31q41 193 105 275t151 82q42 0 70-13t46-32.5 40-52.5q23-34 42.5-55t52-35.5T611 123l10-67-20-56q-76 0-126 21.5t-76.5 50T344 143q-19 31-33.5 45.5T276 203q-49 0-80.5-60T132-53zm135 458q-17 17-17 41t17 41 40 17q24 0 41-17t17-41-17-41-41-17q-23 0-40 17zm160 0q-17 17-17 41t17 41 41 17q23 0 40.5-17t17.5-41-17.5-41-40.5-17q-24 0-41 17z"/><glyph glyph-name="uniFEEE" unicode="و" horiz-adv-x="545" arabic-form="final" d="M545 0h-95q-25-109-112.5-173.5T80-277L42-164q135 30 209 70T353 0h-65Q183 0 125 51.5T67 189q0 58 26 106.5t70.5 76.5 96.5 28q55 0 100-31.5t72-94T461 123h94l10-66zM371 118q-4 87-34 128t-81 41q-43 0-71-25t-28-64q0-43 31.5-63t98.5-20q45 0 84 3z"/><glyph glyph-name="uni06C4.fina" unicode="ۄ" horiz-adv-x="545" d="M545 0h-95q-25-109-112.5-173.5T80-277L42-164q14 2 32 8-20 22-20 54 0 36 25 60t61 24q35 0 60-24t25-60v-5Q321-63 353 0h-65Q183 0 125 51.5T67 189q0 58 26 106.5t70.5 76.5 96.5 28q55 0 100-31.5t72-94T461 123h94l10-66zM371 118q-4 87-34 128t-81 41q-43 0-71-25t-28-64q0-43 31.5-63t98.5-20q45 0 84 3zM114.5-78.5Q105-88 105-102q0-13 9.5-22.5T140-134t25.5 9.5T175-102q0 14-9.5 23.5T140-69t-25.5-9.5z"/><glyph glyph-name="uni06CA.fina" unicode="ۊ" horiz-adv-x="545" d="M545 0h-95q-25-109-112.5-173.5T80-277L42-164q135 30 209 70T353 0h-65Q183 0 125 51.5T67 189q0 58 26 106.5t70.5 76.5 96.5 28q55 0 100-31.5t72-94T461 123h94l10-66zM371 118q-4 87-34 128t-81 41q-43 0-71-25t-28-64q0-43 31.5-63t98.5-20q45 0 84 3zM140 501q-17 17-17 41t17 41 40 17q24 0 41-17t17-41-17-41-41-17q-23 0-40 17zm160 0q-17 17-17 41t17 41 41 17q23 0 40.5-17t17.5-41-17.5-41-40.5-17q-24 0-41 17z"/><glyph glyph-name="uni06CF.fina" unicode="ۏ" horiz-adv-x="545" d="M545 0h-95q-25-109-112.5-173.5T80-277L42-164q135 30 209 70T353 0h-65Q183 0 125 51.5T67 189q0 58 26 106.5t70.5 76.5 96.5 28q55 0 100-31.5t72-94T461 123h94l10-66zM371 118q-4 87-34 128t-81 41q-43 0-71-25t-28-64q0-43 31.5-63t98.5-20q45 0 84 3zM215 485q-18 18-18 44t18 44 44 18 44-18 18-44-18-44-44-18-44 18z"/><glyph glyph-name="uniFE86" unicode="ؤ" horiz-adv-x="545" arabic-form="final" d="M545 0h-95q-25-109-112.5-173.5T80-277L42-164q135 30 209 70T353 0h-65Q183 0 125 51.5T67 189q0 58 26 106.5t70.5 76.5 96.5 28q55 0 100-31.5t72-94T461 123h94l10-66zM371 118q-4 87-34 128t-81 41q-43 0-71-25t-28-64q0-43 31.5-63t98.5-20q45 0 84 3zm2 359l-221-35-8 61 63 10q-38 34-38 68 0 38 27.5 64t78.5 26q38 0 83-25l-38-59q-26 16-47 16-18 0-26-9t-8-21q0-22 31-49l93 15z"/><glyph glyph-name="uniFBE1" unicode="ۅ" horiz-adv-x="545" arabic-form="final" d="M545 0h-95q-25-109-112.5-173.5T80-277L42-164q109 24 185 58l-155 4-35 57 270-11q30 24 46 56h-65Q183 0 125 51.5T67 189q0 58 26 106.5t70.5 76.5 96.5 28q55 0 100-31.5t72-94T461 123h94l10-66zM371 118q-4 87-34 128t-81 41q-43 0-71-25t-28-64q0-43 31.5-63t98.5-20q45 0 84 3z"/><glyph glyph-name="uniFBDA" unicode="ۆ" horiz-adv-x="545" arabic-form="final" d="M545 0h-95q-25-109-112.5-173.5T80-277L42-164q135 30 209 70T353 0h-65Q183 0 125 51.5T67 189q0 58 26 106.5t70.5 76.5 96.5 28q55 0 100-31.5t72-94T461 123h94l10-66zM371 118q-4 87-34 128t-81 41q-43 0-71-25t-28-64q0-43 31.5-63t98.5-20q45 0 84 3zM261 522l51 85 58-24-80-143h-60l-78 143 58 24z"/><glyph glyph-name="uniFBD8" unicode="ۇ" horiz-adv-x="545" arabic-form="final" d="M545 0h-95q-25-109-112.5-173.5T80-277L42-164q135 30 209 70T353 0h-65Q183 0 125 51.5T67 189q0 58 26 106.5t70.5 76.5 96.5 28q55 0 100-31.5t72-94T461 123h94l10-66zM371 118q-4 87-34 128t-81 41q-43 0-71-25t-28-64q0-43 31.5-63t98.5-20q45 0 84 3zm-34.5 541.5Q358 635 358 599q0-48-38.5-94T196 429l-28 57q47 14 76 33-59 28-59 79 0 39 27 62.5t62 23.5q41 0 62.5-24.5zm-83-46.5q-7.5-7-7.5-21 0-22 38-39 16 19 16 38 0 13-7 21t-20 8q-12 0-19.5-7z"/><glyph glyph-name="uniFBDC" unicode="ۈ" horiz-adv-x="545" arabic-form="final" d="M545 0h-95q-25-109-112.5-173.5T80-277L42-164q135 30 209 70T353 0h-65Q183 0 125 51.5T67 189q0 58 26 106.5t70.5 76.5 96.5 28q55 0 100-31.5t72-94T461 123h94l10-66zM371 118q-4 87-34 128t-81 41q-43 0-71-25t-28-64q0-43 31.5-63t98.5-20q45 0 84 3zm-76 518V450h-68v178z"/><glyph glyph-name="uniFBE3" unicode="ۉ" horiz-adv-x="545" arabic-form="final" d="M545 0h-95q-25-109-112.5-173.5T80-277L42-164q135 30 209 70T353 0h-65Q183 0 125 51.5T67 189q0 58 26 106.5t70.5 76.5 96.5 28q55 0 100-31.5t72-94T461 123h94l10-66zM371 118q-4 87-34 128t-81 41q-43 0-71-25t-28-64q0-43 31.5-63t98.5-20q45 0 84 3zM152 491l78 142h60l80-142-58-24-51 84-51-84z"/><glyph glyph-name="uniFBDF" unicode="ۋ" horiz-adv-x="545" arabic-form="final" d="M545 0h-95q-25-109-112.5-173.5T80-277L42-164q135 30 209 70T353 0h-65Q183 0 125 51.5T67 189q0 58 26 106.5t70.5 76.5 96.5 28q55 0 100-31.5t72-94T461 123h94l10-66zM371 118q-4 87-34 128t-81 41q-43 0-71-25t-28-64q0-43 31.5-63t98.5-20q45 0 84 3zM222 614.5Q206 631 206 654t16 39.5 39 16.5 39-16.5 16-39.5-16-39.5-39-16.5-39 16.5zM134.5 486Q118 502 118 525t16.5 39.5T175 581q22 0 38.5-16.5T230 525q0-22-16.5-38.5T175 470q-24 0-40.5 16zm174 .5Q292 503 292 525q0 23 16.5 39.5T347 581q24 0 40.5-16.5T404 525t-16.5-39-40.5-16q-22 0-38.5 16.5z"/><glyph glyph-name="uniFEF0" unicode="ى" horiz-adv-x="727" arabic-form="final" d="M727 0q-36 0-72 14 7-19 7-34 0-53-39-98.5T505-191t-193-27q-137 0-203.5 67T42 37q0 102 51 202l80-24q-27-73-27-159 0-70 42-110.5T322-95q74 0 130 14t85.5 35T567-5q0 25-35.5 44T406 82l50 105 77-22q71-22 115.5-32t88.5-10l10-66z"/><glyph glyph-name="uniFEF2" unicode="ي" horiz-adv-x="727" arabic-form="final" d="M727 0q-36 0-72 14 7-19 7-34 0-53-39-98.5T505-191t-193-27q-137 0-203.5 67T42 37q0 102 51 202l80-24q-27-73-27-159 0-70 42-110.5T322-95q74 0 130 14t85.5 35T567-5q0 25-35.5 44T406 82l50 105 77-22q71-22 115.5-32t88.5-10l10-66zM196-393q-17 17-17 41t17 41 40 17q24 0 41-17t17-41-17-41-41-17q-23 0-40 17zm160 0q-17 17-17 41t17 41 41 17q23 0 40.5-17t17.5-41-17.5-41-40.5-17q-24 0-41 17z"/><glyph glyph-name="uniFEF4" unicode="ي" horiz-adv-x="338" arabic-form="medial" d="M358 58L338 0q-64 0-103.5 15T170 70q-25-40-63.5-55T0 0l-20 57 31 66q52 0 74 9.5t27 28 5 62.5v115h105V224q0-42 8.5-62.5t35-29.5 82.5-9zM48-184q-17 17-17 41t17 41 40 17q24 0 41-17t17-41-17-41-41-17q-23 0-40 17zm160 0q-17 17-17 41t17 41 41 17q23 0 40.5-17t17.5-41-17.5-41-40.5-17q-24 0-41 17z"/><glyph glyph-name="uniFEF3" unicode="ي" horiz-adv-x="306" d="M99.5 129.5q29.5 6.5 40 22T150 198q0 59-47 185l109 36q21-61 32-123.5T255 186q0-75-23.5-115T154 15.5 0 0l-20 57 30 66q60 0 89.5 6.5zM24-184Q7-167 7-143t17 41 40 17q24 0 41-17t17-41-17-41-41-17q-23 0-40 17zm160 0q-17 17-17 41t17 41 41 17q23 0 40.5-17t17.5-41-17.5-41-40.5-17q-24 0-41 17z"/><glyph glyph-name="uniFE8A" unicode="ئ" horiz-adv-x="727" arabic-form="final" d="M727 0q-36 0-72 14 7-19 7-34 0-53-39-98.5T505-191t-193-27q-137 0-203.5 67T42 37q0 102 51 202l80-24q-27-73-27-159 0-70 42-110.5T322-95q74 0 130 14t85.5 35T567-5q0 25-35.5 44T406 82l50 105 77-22q71-22 115.5-32t88.5-10l10-66zM262 333L41 298l-8 61 63 10q-38 34-38 68 0 38 27.5 64t78.5 26q38 0 83-25l-38-59q-26 16-47 16-18 0-26-9t-8-21q0-22 31-49l93 15z"/><glyph glyph-name="uniFE8C" unicode="ئ" horiz-adv-x="338" arabic-form="medial" d="M358 58L338 0q-64 0-103.5 15T170 70q-25-40-63.5-55T0 0l-20 57 31 66q52 0 74 9.5t27 28 5 62.5v115h105V224q0-42 8.5-62.5t35-29.5 82.5-9zm-76 367L61 390l-8 61 63 10q-38 34-38 68 0 38 27.5 64t78.5 26q38 0 83-25l-38-59q-26 16-47 16-18 0-26-9t-8-21q0-22 31-49l93 15z"/><glyph glyph-name="uniFE8B" unicode="ئ" horiz-adv-x="306" d="M99.5 129.5q29.5 6.5 40 22T150 198q0 59-47 185l109 36q21-61 32-123.5T255 186q0-75-23.5-115T154 15.5 0 0l-20 57 30 66q60 0 89.5 6.5zM239 493L18 458l-8 61 63 10q-38 34-38 68 0 38 27.5 64t78.5 26q38 0 83-25l-38-59q-26 16-47 16-18 0-26-9t-8-21q0-22 31-49l93 15z"/><glyph glyph-name="uni06CE.init" unicode="ێ" horiz-adv-x="306" d="M99.5 129.5q29.5 6.5 40 22T150 198q0 59-47 185l109 36q21-61 32-123.5T255 186q0-75-23.5-115T154 15.5 0 0l-20 57 30 66q60 0 89.5 6.5zM24-184Q7-167 7-143t17 41 40 17q24 0 41-17t17-41-17-41-41-17q-23 0-40 17zm160 0q-17 17-17 41t17 41 41 17q23 0 40.5-17t17.5-41-17.5-41-40.5-17q-24 0-41 17zm-57 722l51 85 58-24-80-143H96L18 599l58 24z"/><glyph glyph-name="uni06CE.medi" unicode="ێ" horiz-adv-x="338" d="M358 58L338 0q-64 0-103.5 15T170 70q-25-40-63.5-55T0 0l-20 57 31 66q52 0 74 9.5t27 28 5 62.5v115h105V224q0-42 8.5-62.5t35-29.5 82.5-9zM48-184q-17 17-17 41t17 41 40 17q24 0 41-17t17-41-17-41-41-17q-23 0-40 17zm160 0q-17 17-17 41t17 41 41 17q23 0 40.5-17t17.5-41-17.5-41-40.5-17q-24 0-41 17zm-38 654l51 85 58-24-80-143h-60L61 531l58 24z"/><glyph glyph-name="uni06CE.fina" unicode="ێ" horiz-adv-x="727" d="M727 0q-36 0-72 14 7-19 7-34 0-53-39-98.5T505-191t-193-27q-137 0-203.5 67T42 37q0 102 51 202l80-24q-27-73-27-159 0-70 42-110.5T322-95q74 0 130 14t85.5 35T567-5q0 25-35.5 44T406 82l50 105 77-22q71-22 115.5-32t88.5-10l10-66zM150 378l51 85 58-24-80-143h-60L41 439l58 24z"/><glyph glyph-name="uniFBFD" unicode="ی" horiz-adv-x="727" arabic-form="final" d="M727 0q-36 0-72 14 7-19 7-34 0-53-39-98.5T505-191t-193-27q-137 0-203.5 67T42 37q0 102 51 202l80-24q-27-73-27-159 0-70 42-110.5T322-95q74 0 130 14t85.5 35T567-5q0 25-35.5 44T406 82l50 105 77-22q71-22 115.5-32t88.5-10l10-66z"/><glyph glyph-name="uniFBFF" unicode="ی" horiz-adv-x="338" arabic-form="medial" d="M358 58L338 0q-64 0-103.5 15T170 70q-25-40-63.5-55T0 0l-20 57 31 66q52 0 74 9.5t27 28 5 62.5v115h105V224q0-42 8.5-62.5t35-29.5 82.5-9zM48-184q-17 17-17 41t17 41 40 17q24 0 41-17t17-41-17-41-41-17q-23 0-40 17zm160 0q-17 17-17 41t17 41 41 17q23 0 40.5-17t17.5-41-17.5-41-40.5-17q-24 0-41 17z"/><glyph glyph-name="uniFBFE" unicode="ی" horiz-adv-x="306" d="M99.5 129.5q29.5 6.5 40 22T150 198q0 59-47 185l109 36q21-61 32-123.5T255 186q0-75-23.5-115T154 15.5 0 0l-20 57 30 66q60 0 89.5 6.5zM24-184Q7-167 7-143t17 41 40 17q24 0 41-17t17-41-17-41-41-17q-23 0-40 17zm160 0q-17 17-17 41t17 41 41 17q23 0 40.5-17t17.5-41-17.5-41-40.5-17q-24 0-41 17z"/><glyph glyph-name="uni06CD.fina" unicode="ۍ" horiz-adv-x="777" d="M777 0q-36 0-72 14 7-19 7-34 0-53-39-98.5T555-191t-193-27q-137 0-203.5 67T92 37q0 43 10 88-46-15-94-21l-13 57q79 23 149 78l80-24q-28-75-28-159 0-70 42-110.5T372-95q74 0 130 14t85.5 35T617-5q0 25-35.5 44T456 82l50 105 77-22q71-22 115.5-32t88.5-10l10-66z"/><glyph glyph-name="uni0620.init" unicode="ؠ" horiz-adv-x="306" d="M237-25q0-38-26-63.5T146-114 80.5-88.5 54-25q0 15 4 26Q40 0 0 0l-20 57 30 66q60 0 89.5 6.5t40 22T150 198q0 59-47 185l109 36q21-61 32-123.5T255 186q0-53-11.5-87.5T207 43q30-28 30-68zm-63.5-24.5Q184-39 184-25 184-9 173.5.5T146 10 118.5.5 108-25q0-14 10.5-24.5T146-60t27.5 10.5z"/><glyph glyph-name="uni0620.medi" unicode="ؠ" horiz-adv-x="338" d="M234.5 15Q195 30 170 70l-7-11q24-11 38-32.5T215-22q0-38-25.5-63.5T124-111q-39 0-65.5 25.5T32-22q0 12 3 23Q24 0 0 0l-20 57 31 66q52 0 74 9.5t27 28 5 62.5v115h105V224q0-42 8.5-62.5t35-29.5 82.5-9l10-65-20-58q-64 0-103.5 15zm-83-61.5Q162-36 162-22q0 16-10.5 25.5T124 13 96.5 3.5 86-22q0-14 10.5-24.5T124-57t27.5 10.5z"/><glyph glyph-name="uni0620.fina" unicode="ؠ" horiz-adv-x="727" d="M727 0q-36 0-72 14 7-19 7-34 0-47-30-87.5t-91-69T392-214q9-18 9-40 0-39-25.5-64.5T310-344q-39 0-65.5 26T218-254q0 24 11 44-95 18-141 82T42 37q0 102 51 202l80-24q-27-73-27-159 0-70 42-110.5T322-95q74 0 130 14t85.5 35T567-5q0 25-35.5 44T406 82l50 105 77-22q71-22 115.5-32t88.5-10l10-66zM337-278.5q10 10.5 10 24.5 0 15-10.5 25T310-219q-17 0-27.5-10T272-254q0-14 10.5-24.5T310-289t27 10.5z"/><glyph glyph-name="uniFBE5" unicode="ې" horiz-adv-x="727" arabic-form="final" d="M727 0q-36 0-72 14 7-19 7-34 0-53-39-98.5T505-191t-193-27q-137 0-203.5 67T42 37q0 102 51 202l80-24q-27-73-27-159 0-70 42-110.5T322-95q74 0 130 14t85.5 35T567-5q0 25-35.5 44T406 82l50 105 77-22q71-22 115.5-32t88.5-10l10-66zM276-382q-17 17-17 41t17 40.5 41 16.5 41-16.5 17-40.5-17-41-41-17-41 17zm.5-154.5Q260-520 260-495q0 24 16.5 41t41.5 17q23 0 40.5-17t17.5-41-17-41-41-17q-25 0-41.5 16.5z"/><glyph glyph-name="uniFBE7" unicode="ې" horiz-adv-x="338" arabic-form="medial" d="M358 58L338 0q-64 0-103.5 15T170 70q-25-40-63.5-55T0 0l-20 57 31 66q52 0 74 9.5t27 28 5 62.5v115h105V224q0-42 8.5-62.5t35-29.5 82.5-9zM128-173q-17 17-17 41t17 40.5T169-75t41-16.5 17-40.5-17-41-41-17-41 17zm.5-154.5Q112-311 112-286q0 24 16.5 41t41.5 17q23 0 40.5-17t17.5-41-17-41-41-17q-25 0-41.5 16.5z"/><glyph glyph-name="uniFBE6" unicode="ې" horiz-adv-x="306" d="M99.5 129.5q29.5 6.5 40 22T150 198q0 59-47 185l109 36q21-61 32-123.5T255 186q0-75-23.5-115T154 15.5 0 0l-20 57 30 66q60 0 89.5 6.5zM105-173q-17 17-17 41t17 40.5T146-75t41-16.5 17-40.5-17-41-41-17-41 17zm.5-154.5Q89-311 89-286q0 24 16.5 41t41.5 17q23 0 40.5-17t17.5-41-17-41-41-17q-25 0-41.5 16.5z"/><glyph glyph-name="uni06D1.init" unicode="ۑ" horiz-adv-x="306" d="M99.5 129.5q29.5 6.5 40 22T150 198q0 59-47 185l109 36q21-61 32-123.5T255 186q0-75-23.5-115T154 15.5 0 0l-20 57 30 66q60 0 89.5 6.5zm-2-236Q114-123 114-145q0-24-16.5-40.5T59-202q-24 0-40.5 16.5T2-145q0 23 16.5 39T59-90q22 0 38.5-16.5zm174 .5q16.5-16 16.5-39 0-24-16.5-40.5T231-202q-22 0-38.5 16.5T176-145q0 22 16.5 38.5T231-90q24 0 40.5-16zM184-234.5q16-16.5 16-39.5t-16-39.5-39-16.5-39 16.5T90-274t16 39.5 39 16.5 39-16.5z"/><glyph glyph-name="uni06D1.medi" unicode="ۑ" horiz-adv-x="338" d="M358 58L338 0q-64 0-103.5 15T170 70q-25-40-63.5-55T0 0l-20 57 31 66q52 0 74 9.5t27 28 5 62.5v115h105V224q0-42 8.5-62.5t35-29.5 82.5-9zM121.5-106.5Q138-123 138-145q0-24-16.5-40.5T83-202q-24 0-40.5 16.5T26-145q0 23 16.5 39T83-90q22 0 38.5-16.5zm174 .5q16.5-16 16.5-39 0-24-16.5-40.5T255-202q-22 0-38.5 16.5T200-145q0 22 16.5 38.5T255-90q24 0 40.5-16zM208-234.5q16-16.5 16-39.5t-16-39.5-39-16.5-39 16.5-16 39.5 16 39.5 39 16.5 39-16.5z"/><glyph glyph-name="uni06D1.fina" unicode="ۑ" horiz-adv-x="727" d="M727 0q-36 0-72 14 7-19 7-34 0-53-39-98.5T505-191t-193-27q-137 0-203.5 67T42 37q0 102 51 202l80-24q-27-73-27-159 0-70 42-110.5T322-95q74 0 130 14t85.5 35T567-5q0 25-35.5 44T406 82l50 105 77-22q71-22 115.5-32t88.5-10l10-66zM269.5-315.5Q286-332 286-354q0-24-16.5-40.5T231-411q-24 0-40.5 16.5T174-354q0 23 16.5 39t40.5 16q22 0 38.5-16.5zm174 .5q16.5-16 16.5-39 0-24-16.5-40.5T403-411q-22 0-38.5 16.5T348-354q0 22 16.5 38.5T403-299q24 0 40.5-16zM356-443.5q16-16.5 16-39.5t-16-39.5-39-16.5-39 16.5-16 39.5 16 39.5 39 16.5 39-16.5z"/><glyph glyph-name="uniFBAF" unicode="ے" horiz-adv-x="784" arabic-form="final" d="M224-288q-67 0-112 21t-66.5 54.5T24-140q0 66 39.5 126.5T184 85t197 38h414l9-66-20-57H359q-80 0-134-17t-80-44.5-26-59.5q0-22 15.5-33.5T189-166h584l-38-122H224z"/><glyph glyph-name="uniFBB1" unicode="ۓ" horiz-adv-x="784" arabic-form="final" d="M224-288q-67 0-112 21t-66.5 54.5T24-140q0 66 39.5 126.5T184 85t197 38h414l9-66-20-57H359q-80 0-134-17t-80-44.5-26-59.5q0-22 15.5-33.5T189-166h584l-38-122H224zm147 528l-221-35-8 61 63 10q-38 34-38 68 0 38 27.5 64t78.5 26q38 0 83-25l-38-59q-26 16-47 16-18 0-26-9t-8-21q0-22 31-49l93 15z"/><glyph glyph-name="uni0676.fina" unicode="ٶ" horiz-adv-x="545" d="M443 536l-221-35-8 61 63 10q-38 34-38 68 0 38 27.5 64t78.5 26q38 0 83-25l-38-59q-26 16-47 16-18 0-26-9t-8-21q0-22 31-49l93 15zM545 0h-95q-25-109-112.5-173.5T80-277L42-164q135 30 209 70T353 0h-65Q183 0 125 51.5T67 189q0 58 26 106.5t70.5 76.5 96.5 28q55 0 100-31.5t72-94T461 123h94l10-66zM371 118q-4 87-34 128t-81 41q-43 0-71-25t-28-64q0-43 31.5-63t98.5-20q45 0 84 3z"/><glyph glyph-name="uni0677.fina" unicode="ٷ" horiz-adv-x="545" d="M545 0h-95q-25-109-112.5-173.5T80-277L42-164q135 30 209 70T353 0h-65Q183 0 125 51.5T67 189q0 58 26 106.5t70.5 76.5 96.5 28q55 0 100-31.5t72-94T461 123h94l10-66zM371 118q-4 87-34 128t-81 41q-43 0-71-25t-28-64q0-43 31.5-63t98.5-20q45 0 84 3zm2 359l-221-35-8 61 63 10q-38 34-38 68 0 38 27.5 64t78.5 26q38 0 83-25l-38-59q-26 16-47 16-18 0-26-9t-8-21q0-22 31-49l93 15zm-38.5 449.5Q356 902 356 866q0-48-38.5-94T194 696l-28 57q47 14 76 33-59 28-59 79 0 39 27 62.5t62 23.5q41 0 62.5-24.5zm-83-46.5q-7.5-7-7.5-21 0-22 38-39 16 19 16 38 0 13-7 21t-20 8q-12 0-19.5-7z"/><glyph glyph-name="uni0678.init" unicode="ٸ" horiz-adv-x="306" d="M265 576L44 541l-8 61 63 10q-38 34-38 68 0 38 27.5 64t78.5 26q38 0 83-25l-38-59q-26 16-47 16-18 0-26-9t-8-21q0-22 31-49l93 15zM99.5 129.5q29.5 6.5 40 22T150 198q0 59-47 185l109 36q21-61 32-123.5T255 186q0-75-23.5-115T154 15.5 0 0l-20 57 30 66q60 0 89.5 6.5z"/><glyph glyph-name="uni0678.medi" unicode="ٸ" horiz-adv-x="338" d="M77 532l63 10q-38 34-38 68 0 38 27.5 64t78.5 26q38 0 83-25l-38-59q-26 16-47 16-18 0-26.5-9t-8.5-21q0-23 32-49l93 15 10-62-221-35zM358 58L338 0q-64 0-103.5 15T170 70q-25-40-63.5-55T0 0l-20 57 31 66q52 0 74 9.5t27 28 5 62.5v115h105V224q0-42 8.5-62.5t35-29.5 82.5-9z"/><glyph glyph-name="uni0678.fina" unicode="ٸ" horiz-adv-x="727" d="M727 0q-36 0-72 14 7-19 7-34 0-53-39-98.5T505-191t-193-27q-137 0-203.5 67T42 37q0 102 51 202l80-24q-27-73-27-159 0-70 42-110.5T322-95q74 0 130 14t85.5 35T567-5q0 25-35.5 44T406 82l50 105 77-22q71-22 115.5-32t88.5-10l10-66zm-82 297l-221-35-8 61 63 10q-38 34-38 68 0 38 27.5 64t78.5 26q38 0 83-25l-38-59q-26 16-47 16-18 0-26-9t-8-21q0-22 31-49l93 15z"/><glyph glyph-name="uni06D5.fina" unicode="ە" horiz-adv-x="518" d="M538 56L518 0h-28Q377 0 340 94q-26-31-65.5-48.5T191 28q-76 0-122 43.5T23 185q0 57 36.5 109T165 380.5 326 422v88l105 13V218q0-54 16.5-74.5T501 123h27zm-393.5 99q21.5-17 64.5-17 66 0 117 47v131q-98-4-150.5-37T123 201q0-29 21.5-46z"/><glyph glyph-name="uniFE70" unicode="ﹰ" horiz-adv-x="600" arabic-form="isolated" d="M30 748l224 43-2-65-224-43zm0-97l224 43-2-65-224-43z"/><glyph glyph-name="uniFE72" unicode="ﹲ" horiz-adv-x="600" arabic-form="isolated" d="M301.5 810.5Q322 786 322 749q0-45-36-92.5T183 577l-53 24q0 23-4 34t-15 11q-8 0-15.5-5T77 624l-33 38q37 44 70 44 25 0 41.5-17t21.5-49q21 12 39 27-64 29-64 82 0 40 26.5 63t62.5 23q40 0 60.5-24.5zm-81-47Q213 756 213 742q0-25 37-40 15 22 15 40 0 13-7 21t-18 8q-12 0-19.5-7.5z"/><glyph glyph-name="uniFE74" unicode="ﹴ" horiz-adv-x="600" arabic-form="isolated" d="M32-98l224 43-2-65-224-43zm1-92l224 43-2-65-224-43z"/><glyph glyph-name="uniFE76" unicode="ﹶ" horiz-adv-x="600" arabic-form="isolated" d="M30 648l224 43-2-65-224-43z"/><glyph glyph-name="uniFE78" unicode="ﹸ" horiz-adv-x="600" arabic-form="isolated" d="M174.5 799.5Q196 775 196 739q0-48-38.5-94T34 569L6 626q47 14 76 33-59 28-59 79 0 39 27 62.5t62 23.5q41 0 62.5-24.5zm-83-46.5q-7.5-7-7.5-21 0-22 38-39 16 19 16 38 0 13-7 21t-20 8q-12 0-19.5-7z"/><glyph glyph-name="uniFE7C" unicode="ﹼ" horiz-adv-x="600" arabic-form="isolated" d="M265.5 743q5.5-25 5.5-43 0-38-20.5-59.5T195 619q-38 0-55 26-21-30-59-30-27 0-49.5 20T9 693q0 31 16 70l53-12q-6-22-6-43 0-12 4.5-19.5T90 681q10 0 16.5 8t6.5 25v33h54v-36q0-13 5.5-20t14.5-7q21 0 21 33 0 26-11 54l54 17q9-20 14.5-45z"/><glyph glyph-name="uniFC61" unicode="ﱡ" arabic-form="isolated" d="M265.5 743q5.5-25 5.5-43 0-38-20.5-59.5T195 619q-38 0-55 26-21-30-59-30-27 0-49.5 20T9 693q0 31 16 70l53-12q-6-22-6-43 0-12 4.5-19.5T90 681q10 0 16.5 8t6.5 25v33h54v-36q0-13 5.5-20t14.5-7q21 0 21 33 0 26-11 54l54 17q9-20 14.5-45zm-51 272.5Q236 991 236 955q0-48-38.5-94T74 785l-28 57q47 14 76 33-59 28-59 79 0 39 27 62.5t62 23.5q41 0 62.5-24.5zm-83-46.5q-7.5-7-7.5-21 0-22 38-39 16 19 16 38 0 13-7 21t-20 8q-12 0-19.5-7z"/><glyph glyph-name="uniFC63" unicode="ﱣ" arabic-form="isolated" d="M265.5 743q5.5-25 5.5-43 0-38-20.5-59.5T195 619q-38 0-55 26-21-30-59-30-27 0-49.5 20T9 693q0 31 16 70l53-12q-6-22-6-43 0-12 4.5-19.5T90 681q10 0 16.5 8t6.5 25v33h54v-36q0-13 5.5-20t14.5-7q21 0 21 33 0 26-11 54l54 17q9-20 14.5-45zM173 991V805h-68v178z"/><glyph glyph-name="uniFE7E" unicode="ﹾ" horiz-adv-x="600" arabic-form="isolated" d="M169.5 603.5Q141 577 100 577t-69.5 26.5T2 673t28.5 69.5T100 769t69.5-26.5T198 673t-28.5-69.5zm-39.5 98Q119 712 100 712t-30-10.5T59 673t11-28.5 30-10.5 30 10.5 11 28.5-11 28.5z"/><glyph glyph-name=".notdef" horiz-adv-x="666" d="M543-350H123v1400h420V-350zM178 998V-298h311V998H178zm231.5-579q25.5-32 25.5-83 0-53-22.5-82T340 218v-45q0-11-7.5-17.5T315 149t-17.5 6.5T290 173v84q53 3 72 19.5t19 57.5q0 33-13 51t-48 18q-29 0-52-11-8-3-13-3-11 0-17.5 6.5T231 412q0 19 29.5 29t63.5 10q60 0 85.5-32zM340 110q10-10 10-25 0-16-10-26.5T315 48t-25 10.5T280 85q0 15 10 25t25 10 25-10z"/><glyph glyph-name="NULL"/><glyph glyph-name="nonmarkingreturn" horiz-adv-x="250"/><glyph glyph-name="space" horiz-adv-x="250"/><glyph glyph-name="A" unicode="A" horiz-adv-x="583" d="M404 160H175L132 0H-5l215 691h163L587 0H447zm-27 100l-88 330-88-330h176z"/><glyph glyph-name="Aacute" unicode="Á" horiz-adv-x="583" d="M404 160H175L132 0H-5l215 691h163L587 0H447zm-27 100l-88 330-88-330h176zm46 576l-229-83-33 66 212 117z"/><glyph glyph-name="Aacute.loclHUN" horiz-adv-x="583" d="M404 160H175L132 0H-5l215 691h163L587 0H447zm-27 100l-88 330-88-330h176zm48 630L287 738l-59 35 101 174z"/><glyph glyph-name="Abreve" unicode="Ă" horiz-adv-x="583" d="M404 160H175L132 0H-5l215 691h163L587 0H447zm-27 100l-88 330-88-330h176zM178 795q-44 41-50 103l75 15q10-31 32-49t55-18 56 18 32 49l76-15q-6-62-50.5-103T290 754q-68 0-112 41z"/><glyph glyph-name="uni1EAE" unicode="Ắ" horiz-adv-x="583" d="M404 160H175L132 0H-5l215 691h163L587 0H447zm-27 100l-88 330-88-330h176zM179 779q-44 41-50 103l75 15q10-31 32-49t55-18 56 18 32 49l76-15q-6-62-50.5-103T291 738q-68 0-112 41zm263 242L294 887l-50 45 125 159z"/><glyph glyph-name="uni1EB6" unicode="Ặ" horiz-adv-x="583" d="M404 160H175L132 0H-5l215 691h163L587 0H447zm-27 100l-88 330-88-330h176zM178 795q-44 41-50 103l75 15q10-31 32-49t55-18 56 18 32 49l76-15q-6-62-50.5-103T290 754q-68 0-112 41zm55.5-994Q211-177 211-143q0 33 22.5 54.5T292-67q35 0 57.5-21.5T372-143q0-34-22.5-56T292-221q-36 0-58.5 22z"/><glyph glyph-name="uni1EB0" unicode="Ằ" horiz-adv-x="583" d="M404 160H175L132 0H-5l215 691h163L587 0H447zm-27 100l-88 330-88-330h176zM179 779q-44 41-50 103l75 15q10-31 32-49t55-18 56 18 32 49l76-15q-6-62-50.5-103T291 738q-68 0-112 41zm163 153l-50-45-148 134 72 70z"/><glyph glyph-name="uni1EB2" unicode="Ẳ" horiz-adv-x="583" d="M404 160H175L132 0H-5l215 691h163L587 0H447zm-27 100l-88 330-88-330h176zM179 779q-44 41-50 103l75 15q10-31 32-49t55-18 56 18 32 49l76-15q-6-62-50.5-103T291 738q-68 0-112 41zm71 187q38 4 54.5 12.5T321 1007q0 16-11.5 24.5T279 1040q-28 0-59-13l-24 59q43 25 102 25 56 0 86.5-26.5T415 1013q0-37-21.5-59.5T332 924v-45h-82v87z"/><glyph glyph-name="uni1EB4" unicode="Ẵ" horiz-adv-x="583" d="M404 160H175L132 0H-5l215 691h163L587 0H447zm-27 100l-88 330-88-330h176zM178 779q-44 41-50 103l75 15q10-31 32-49t55-18 56 18 32 49l76-15q-6-62-50.5-103T290 738q-68 0-112 41zm137.5 151.5Q300 937 280 950q-14 9-23.5 13.5T237 968q-17 0-28.5-10T184 925l-69 33q20 45 50 72.5t70 27.5q22 0 38-6.5t36-19.5q25-18 42-18 15 0 27 10t26 32l68-33q-20-46-51-72.5T352 924q-21 0-36.5 6.5z"/><glyph glyph-name="uni01CD" unicode="Ǎ" horiz-adv-x="583" d="M404 160H175L132 0H-5l215 691h163L587 0H447zm-27 100l-88 330-88-330h176zm94 612L332 752h-80L113 872l49 56 130-83 130 83z"/><glyph glyph-name="Acircumflex" unicode="Â" horiz-adv-x="583" d="M404 160H175L132 0H-5l215 691h163L587 0H447zm-27 100l-88 330-88-330h176zM112 812l139 121h80l139-121-49-55-130 82-130-82z"/><glyph glyph-name="uni1EA4" unicode="Ấ" horiz-adv-x="583" d="M404 160H175L132 0H-5l215 691h163L587 0H447zm-27 100l-88 330-88-330h176zM112 774l139 121h80l139-121-49-55-130 82-130-82zm475 215L439 855l-50 45 125 159z"/><glyph glyph-name="uni1EAC" unicode="Ậ" horiz-adv-x="583" d="M404 160H175L132 0H-5l215 691h163L587 0H447zm-27 100l-88 330-88-330h176zM112 812l139 121h80l139-121-49-55-130 82-130-82zM233.5-199Q211-177 211-143q0 33 22.5 54.5T292-67q35 0 57.5-21.5T372-143q0-34-22.5-56T292-221q-36 0-58.5 22z"/><glyph glyph-name="uni1EA6" unicode="Ầ" horiz-adv-x="583" d="M404 160H175L132 0H-5l215 691h163L587 0H447zm-27 100l-88 330-88-330h176zM111 774l139 121h80l139-121-49-55-130 82-130-82zm82 126l-50-45L-5 989l72 70z"/><glyph glyph-name="uni1EA8" unicode="Ẩ" horiz-adv-x="583" d="M404 160H175L132 0H-5l215 691h163L587 0H447zm-27 100l-88 330-88-330h176zM111 774l139 121h80l139-121-49-55-130 82-130-82zm300 151q38 4 54.5 12.5T482 966q0 16-11.5 24.5T440 999q-28 0-59-13l-24 59q43 25 102 25 56 0 86.5-26.5T576 972q0-37-21.5-59.5T493 883v-45h-82v87z"/><glyph glyph-name="uni1EAA" unicode="Ẫ" horiz-adv-x="583" d="M404 160H175L132 0H-5l215 691h163L587 0H447zm-27 100l-88 330-88-330h176zM110 774l139 121h80l139-121-49-55-130 82-130-82zm201.5 155.5Q296 936 276 949q-14 9-23.5 13.5T233 967q-17 0-28.5-10T180 924l-69 33q20 45 50 72.5t70 27.5q22 0 38-6.5t36-19.5q25-18 42-18 15 0 27 10t26 32l68-33q-20-46-51-72.5T348 923q-21 0-36.5 6.5z"/><glyph glyph-name="uni0200" unicode="Ȁ" horiz-adv-x="583" d="M404 160H175L132 0H-5l215 691h163L587 0H447zm-27 100l-88 330-88-330h176zM257 787l-71-32L72 925l93 48zm156 3l-72-30-105 167 94 46z"/><glyph glyph-name="Adieresis" unicode="Ä" horiz-adv-x="583" d="M404 160H175L132 0H-5l215 691h163L587 0H447zm-27 100l-88 330-88-330h176zM230 891q20-20 20-49t-20-49-49-20q-30 0-50.5 20T110 842t20.5 49 50.5 20q29 0 49-20zm222 0q20-20 20-49t-20-49-50-20q-29 0-49.5 20T332 842t20.5 49 49.5 20q30 0 50-20z"/><glyph glyph-name="uni01DE" unicode="Ǟ" horiz-adv-x="583" d="M404 160H175L132 0H-5l215 691h163L587 0H447zm-27 100l-88 330-88-330h176zM231 864q20-20 20-49t-20-49-49-20q-30 0-50.5 20T111 815t20.5 49 50.5 20q29 0 49-20zm222 0q20-20 20-49t-20-49-50-20q-29 0-49.5 20T333 815t20.5 49 49.5 20q30 0 50-20zm-304 60v91h291v-91H149z"/><glyph glyph-name="uni0226" unicode="Ȧ" horiz-adv-x="583" d="M404 160H175L132 0H-5l215 691h163L587 0H447zm-27 100l-88 330-88-330h176zm-27.5 640.5Q372 878 372 845t-22.5-55-58.5-22q-35 0-57.5 22T211 845t22.5 55.5T291 923q36 0 58.5-22.5z"/><glyph glyph-name="uni1EA0" unicode="Ạ" horiz-adv-x="583" d="M404 160H175L132 0H-5l215 691h163L587 0H447zm-27 100l-88 330-88-330h176zM233.5-199Q211-177 211-143q0 33 22.5 54.5T292-67q35 0 57.5-21.5T372-143q0-34-22.5-56T292-221q-36 0-58.5 22z"/><glyph glyph-name="uni01E0" unicode="Ǡ" horiz-adv-x="583" d="M404 160H175L132 0H-5l215 691h163L587 0H447zm-27 100l-88 330-88-330h176zm-26.5 610.5Q373 848 373 815t-22.5-55-58.5-22q-35 0-57.5 22T212 815t22.5 55.5T292 893q36 0 58.5-22.5zM149 924v91h291v-91H149z"/><glyph glyph-name="Agrave" unicode="À" horiz-adv-x="583" d="M404 160H175L132 0H-5l215 691h163L587 0H447zm-27 100l-88 330-88-330h176zm39 559l-33-66-229 83 50 100z"/><glyph glyph-name="uni1EA2" unicode="Ả" horiz-adv-x="583" d="M404 160H175L132 0H-5l215 691h163L587 0H447zm-27 100l-88 330-88-330h176zM250 850q38 4 54.5 12.5T321 891q0 16-11.5 24.5T279 924q-28 0-59-13l-24 59q43 25 102 25 56 0 86.5-26.5T415 897q0-37-21.5-59.5T332 808v-45h-82v87z"/><glyph glyph-name="uni0202" unicode="Ȃ" horiz-adv-x="583" d="M404 160H175L132 0H-5l215 691h163L587 0H447zm-27 100l-88 330-88-330h176zm26.5 635.5Q448 853 454 784l-76-15q-9 37-31.5 57T290 846q-67 0-87-77l-75 15q6 69 49.5 111.5T290 938t113.5-42.5z"/><glyph glyph-name="uni2C6D" unicode="Ɑ" horiz-adv-x="689" d="M611.5 109.5Q621 93 647 81l-41-96q-48 10-76.5 28.5T486 64q-67-79-172-79-78 0-139.5 40T78 143.5 43 332q0 116 35.5 200.5t97.5 129T318 706q95 0 160-70l10 55h114V162q0-36 9.5-52.5zm-202-8.5q32.5 16 60.5 47v397q-53 60-129 60-159 0-159-273 0-247 154-247 41 0 73.5 16z"/><glyph glyph-name="Amacron" unicode="Ā" horiz-adv-x="583" d="M404 160H175L132 0H-5l215 691h163L587 0H447zm-27 100l-88 330-88-330h176zM146 787v91h291v-91H146z"/><glyph glyph-name="Aogonek" unicode="Ą" horiz-adv-x="583" d="M428.5-54Q403-80 403-108q0-46 54-46 29 0 61 7l-10-85q-35-7-66-7-61 0-99 30t-38 79q0 51 34.5 88T441 22l-37 138H175L132 0H-5l215 691h163L587 0h-64q-69-28-94.5-54zM377 260l-88 330-88-330h176z"/><glyph glyph-name="Aring" unicode="Å" horiz-adv-x="583" d="M404 160H175L132 0H-5l215 691h163L587 0H447zm-27 100l-88 330-88-330h176zm7 684.5q35-34.5 35-85.5 0-50-35.5-85T292 739q-57 0-92.5 35T164 859q0 51 35.5 85.5T292 979t92-34.5zM256 898q-13-14-13-39t13-38.5 36-13.5q22 0 35 13.5t13 38.5-13 39-35 14q-23 0-36-14z"/><glyph glyph-name="Aringacute" unicode="Ǻ" horiz-adv-x="583" d="M404 160H175L132 0H-5l215 691h163L587 0H447zm-27 100l-88 330-88-330h176zm7 669.5q35-34.5 35-85.5 0-50-35.5-85T292 724q-57 0-92.5 35T164 844q0 51 35.5 85.5T292 964t92-34.5zM256 883q-13-14-13-39t13-38.5 36-13.5q22 0 35 13.5t13 38.5-13 39-35 14q-23 0-36-14zm168 169l-229-83-33 66 212 117z"/><glyph glyph-name="uni023A" unicode="Ⱥ" horiz-adv-x="583" d="M456 0l-44 160H285L224-72l-52 12 58 220h-63L123 0H-5l215 691h161l17 62 52-12-38-142v-1L587 0H456zM255 254l64 242-30 108-96-350h62zm131 0l-39 140v-1l-36-139h75z"/><glyph glyph-name="Atilde" unicode="Ã" horiz-adv-x="583" d="M404 160H175L132 0H-5l215 691h163L587 0H447zm-27 100l-88 330-88-330h176zm-63.5 517.5Q298 785 278 798q-15 10-24 14.5t-19 4.5q-17 0-28.5-10.5T182 772l-69 34q20 47 50 75.5t70 28.5q22 0 37.5-7t36.5-20q13-10 22.5-14.5T349 864q15 0 27 10t26 33l68-34q-20-48-51-75.5T350 770q-21 0-36.5 7.5z"/><glyph glyph-name="AE" unicode="Æ" horiz-adv-x="832" d="M790 99V0H451l-32 160H179L122 0H-18l273 691h496l-15-98H448l44-194h250v-98H514l46-202h230zM399 260l-67 331-118-331h185z"/><glyph glyph-name="AEacute" unicode="Ǽ" horiz-adv-x="832" d="M790 99V0H451l-32 160H179L122 0H-18l273 691h496l-15-98H448l44-194h250v-98H514l46-202h230zM399 260l-67 331-118-331h185zm211 576l-229-83-33 66 212 117z"/><glyph glyph-name="uni01E2" unicode="Ǣ" horiz-adv-x="832" d="M790 99V0H451l-32 160H179L122 0H-18l273 691h496l-15-98H448l44-194h250v-98H514l46-202h230zM399 260l-67 331-118-331h185zm-66 527v91h291v-91H333z"/><glyph glyph-name="B" unicode="B" horiz-adv-x="613" d="M534.5 315Q578 277 578 199q0-108-76-153.5T289 0H81v691h181q286 0 286-176 0-61-37-99.5T420 366q71-13 114.5-51zM213 594V407h81q55 0 87 24.5t32 72.5q0 50-33.5 70T275 594h-62zm188.5-473q38.5 22 38.5 83 0 59-36.5 85T304 315h-91V99h77q73 0 111.5 22z"/><glyph glyph-name="uni1E02" unicode="Ḃ" horiz-adv-x="613" d="M534.5 315Q578 277 578 199q0-108-76-153.5T289 0H81v691h181q286 0 286-176 0-61-37-99.5T420 366q71-13 114.5-51zM213 594V407h81q55 0 87 24.5t32 72.5q0 50-33.5 70T275 594h-62zm188.5-473q38.5 22 38.5 83 0 59-36.5 85T304 315h-91V99h77q73 0 111.5 22zm-46 779.5Q378 878 378 845t-22.5-55-58.5-22q-35 0-57.5 22T217 845t22.5 55.5T297 923q36 0 58.5-22.5z"/><glyph glyph-name="uni1E04" unicode="Ḅ" horiz-adv-x="613" d="M534.5 315Q578 277 578 199q0-108-76-153.5T289 0H81v691h181q286 0 286-176 0-61-37-99.5T420 366q71-13 114.5-51zM213 594V407h81q55 0 87 24.5t32 72.5q0 50-33.5 70T275 594h-62zm188.5-473q38.5 22 38.5 83 0 59-36.5 85T304 315h-91V99h77q73 0 111.5 22zm-150-320Q229-177 229-143q0 33 22.5 54.5T310-67q35 0 57.5-21.5T390-143q0-34-22.5-56T310-221q-36 0-58.5 22z"/><glyph glyph-name="uniA7B4" unicode="Ꞵ" horiz-adv-x="613" d="M534.5 316Q578 279 578 204q0-104-71-154T326 0q-56 0-113 13v-219H81v897h181q286 0 286-176 0-61-37-99.5T420 366q71-13 114.5-50zm-129-191q34.5 26 34.5 84 0 55-35 80.5T311 315h-40l10 92h20q50 0 81 24.5t31 70.5q0 52-33.5 72T275 594h-62V108q58-9 101-9 57 0 91.5 26z"/><glyph glyph-name="uni0181" unicode="Ɓ" horiz-adv-x="728" d="M649.5 315.5Q693 278 693 199q0-108-76-153.5T404 0H196v593h-30q-50 0-50-45 0-17 4-32t13-37l-84-39q-20 30-31 56.5T7 554q0 63 44 100t122 37h204q286 0 286-176 0-61-37-99.5T535 366q71-13 114.5-50.5zM328 594V407h81q55 0 87 24.5t32 72.5q0 50-33.5 70T390 594h-62zm188.5-473q38.5 22 38.5 83 0 59-36.5 85T419 315h-91V99h77q73 0 111.5 22z"/><glyph glyph-name="uni0181.ss02" horiz-adv-x="588" d="M494.5 385Q565 331 565 225q0-114-73-169.5T295 0H81v691h406l-14-103H213V439h82q129 0 199.5-54zM391 127.5q35 28.5 35 95.5 0 62-34.5 91T288 343h-75V99h78q65 0 100 28.5z"/><glyph glyph-name="uni0243" unicode="Ƀ" horiz-adv-x="626" d="M547.5 315Q591 277 591 199q0-108-76-153.5T302 0H94v172H17v76h77v443h181q139 0 213-42t74-134q0-60-37-98.5T434 366q70-13 113.5-51zM227 594V407h80q56 0 88 24.5t32 72.5q0 50-34 70t-105 20h-61zm187.5-473q38.5 22 38.5 83 0 59-36.5 85T318 315h-91v-67h134v-76H227V99h76q73 0 111.5 22z"/><glyph glyph-name="uni0182" unicode="Ƃ" horiz-adv-x="588" d="M494.5 385Q565 331 565 225q0-114-73-169.5T295 0H81v691h406l-14-103H213V439h82q129 0 199.5-54zM391 127.5q35 28.5 35 95.5 0 62-34.5 91T288 343h-75V99h78q65 0 100 28.5z"/><glyph glyph-name="C" unicode="C" horiz-adv-x="568" d="M455 688q47-18 92-55l-67-78q-61 49-128 49-77 0-123.5-62T182 347q0-130 46-193t124-63q41 0 73 14.5t68 41.5l62-78q-35-36-88.5-60T347-15q-90 0-159 42T81 150.5 43 347q0 113 39.5 194t108 123T345 706q63 0 110-18z"/><glyph glyph-name="Cacute" unicode="Ć" horiz-adv-x="568" d="M455 688q47-18 92-55l-67-78q-61 49-128 49-77 0-123.5-62T182 347q0-130 46-193t124-63q41 0 73 14.5t68 41.5l62-78q-35-36-88.5-60T347-15q-90 0-159 42T81 150.5 43 347q0 113 39.5 194t108 123T345 706q63 0 110-18zm27 148l-229-83-33 66 212 117z"/><glyph glyph-name="Cacute.loclPLK" horiz-adv-x="568" d="M455 688q47-18 92-55l-67-78q-61 49-128 49-77 0-123.5-62T182 347q0-130 46-193t124-63q41 0 73 14.5t68 41.5l62-78q-35-36-88.5-60T347-15q-90 0-159 42T81 150.5 43 347q0 113 39.5 194t108 123T345 706q63 0 110-18zm29 202L346 738l-59 35 101 174z"/><glyph glyph-name="Ccaron" unicode="Č" horiz-adv-x="568" d="M455 688q47-18 92-55l-67-78q-61 49-128 49-77 0-123.5-62T182 347q0-130 46-193t124-63q41 0 73 14.5t68 41.5l62-78q-35-36-88.5-60T347-15q-90 0-159 42T81 150.5 43 347q0 113 39.5 194t108 123T345 706q63 0 110-18zm75 184L391 752h-80L172 872l49 56 130-83 130 83z"/><glyph glyph-name="Ccedilla" unicode="Ç" horiz-adv-x="568" d="M479.5 15.5Q435-7 380-13v-39q50-5 74.5-29.5T479-144q0-50-38.5-79.5T341-253q-30 0-57.5 8T239-225l31 63q30-16 63-16 48 0 48 34 0 20-21 29t-69 9l12 94Q184 3 113.5 96T43 347q0 113 39.5 194t108 123T345 706q63 0 110-18t92-55l-67-78q-61 49-128 49-77 0-123.5-62T182 347q0-130 46-193t124-63q41 0 73 14.5t68 41.5l62-78q-31-31-75.5-53.5z"/><glyph glyph-name="Ccircumflex" unicode="Ĉ" horiz-adv-x="568" d="M455 688q47-18 92-55l-67-78q-61 49-128 49-77 0-123.5-62T182 347q0-130 46-193t124-63q41 0 73 14.5t68 41.5l62-78q-35-36-88.5-60T347-15q-90 0-159 42T81 150.5 43 347q0 113 39.5 194t108 123T345 706q63 0 110-18zM171 812l139 121h80l139-121-49-55-130 82-130-82z"/><glyph glyph-name="Cdotaccent" unicode="Ċ" horiz-adv-x="568" d="M455 688q47-18 92-55l-67-78q-61 49-128 49-77 0-123.5-62T182 347q0-130 46-193t124-63q41 0 73 14.5t68 41.5l62-78q-35-36-88.5-60T347-15q-90 0-159 42T81 150.5 43 347q0 113 39.5 194t108 123T345 706q63 0 110-18zm-46.5 212.5Q431 878 431 845t-22.5-55-58.5-22q-35 0-57.5 22T270 845t22.5 55.5T350 923q36 0 58.5-22.5z"/><glyph glyph-name="uniA7B3" unicode="Ꭓ" horiz-adv-x="554" d="M554-147H407L274 212 141-147H0l195 444L16 691h147l113-309 117 309h141L354 303z"/><glyph glyph-name="uni0187" unicode="Ƈ" horiz-adv-x="568" d="M716 805l-41-81q-19 11-35 16t-36 5q-57 0-57-67v-45l-59-69q-67 40-137 40-77 0-123-62t-46-195q0-131 46-193.5T353 91q40 0 71 15t69 43l62-80q-35-36-88.5-60T347-15q-90 0-159 42T81 150.5 43 347q0 112 39.5 193.5t106 123.5T335 706q54 0 94-17 3 74 44 114t117 40q70 0 126-38z"/><glyph glyph-name="uni023B" unicode="Ȼ" horiz-adv-x="568" d="M555 69q-35-36-88.5-60T347-15q-38 0-75 8l-18-65-52 12 18 70Q137 47 90 133T43 347q0 113 39.5 194t108 123T345 706q23 0 59-4l14 51 51-12-14-53q45-16 92-55l-67-78q-27 21-51 32L299 99q27-8 53-8 41 0 73 14.5t68 41.5zM228.5 542Q182 480 182 347q0-158 70-220v1l126 474q-18 2-26 2-77 0-123.5-62z"/><glyph glyph-name="D" unicode="D" horiz-adv-x="648" d="M508.5 618Q605 545 605 349q0-192-95-270.5T269 0H81v691h170q161 0 257.5-73zM213 592V99h65q88 0 138 54.5T466 349q0 98-25.5 151.5t-67 72.5-99.5 19h-61z"/><glyph glyph-name="uni01F1" unicode="Ǳ" horiz-adv-x="1157" d="M508.5 618Q605 545 605 349q0-192-95-270.5T269 0H81v691h170q161 0 257.5-73zM213 592V99h65q88 0 138 54.5T466 349q0 98-25.5 151.5t-67 72.5-99.5 19h-61zm906-3L800 108h322L1108 0H646v101l325 485H679v105h440V589z"/><glyph glyph-name="uni01C4" unicode="Ǆ" horiz-adv-x="1157" d="M508.5 618Q605 545 605 349q0-192-95-270.5T269 0H81v691h170q161 0 257.5-73zM213 592V99h65q88 0 138 54.5T466 349q0 98-25.5 151.5t-67 72.5-99.5 19h-61zm906-3L800 108h322L1108 0H646v101l325 485H679v105h440V589zm-43 283L937 752h-80L718 872l49 56 130-83 130 83z"/><glyph glyph-name="uni0189" unicode="Ɖ" horiz-adv-x="661" d="M521.5 618Q618 545 618 349q0-192-95-270.5T282 0H94v310H17v86h77v295h170q161 0 257.5-73zM429 153.5Q479 208 479 349q0 98-25.5 151.5t-67 72.5-99.5 19h-61V396h145v-86H226V99h65q88 0 138 54.5z"/><glyph glyph-name="Eth" unicode="Ð" horiz-adv-x="661" d="M521.5 618Q618 545 618 349q0-192-95-270.5T282 0H94v310H17v86h77v295h170q161 0 257.5-73zM429 153.5Q479 208 479 349q0 98-25.5 151.5t-67 72.5-99.5 19h-61V396h145v-86H226V99h65q88 0 138 54.5z"/><glyph glyph-name="Dcaron" unicode="Ď" horiz-adv-x="648" d="M508.5 618Q605 545 605 349q0-192-95-270.5T269 0H81v691h170q161 0 257.5-73zM213 592V99h65q88 0 138 54.5T466 349q0 98-25.5 151.5t-67 72.5-99.5 19h-61zm265 280L339 752h-80L120 872l49 56 130-83 130 83z"/><glyph glyph-name="uni1E12" unicode="Ḓ" horiz-adv-x="648" d="M508.5 618Q605 545 605 349q0-192-95-270.5T269 0H81v691h170q161 0 257.5-73zM213 592V99h65q88 0 138 54.5T466 349q0 98-25.5 151.5t-67 72.5-99.5 19h-61zm-89-783L262-65h81l139-126-49-56-130 88-130-88z"/><glyph glyph-name="Dcroat" unicode="Đ" horiz-adv-x="661" d="M521.5 618Q618 545 618 349q0-192-95-270.5T282 0H94v310H17v86h77v295h170q161 0 257.5-73zM429 153.5Q479 208 479 349q0 98-25.5 151.5t-67 72.5-99.5 19h-61V396h145v-86H226V99h65q88 0 138 54.5z"/><glyph glyph-name="uni1E0A" unicode="Ḋ" horiz-adv-x="648" d="M508.5 618Q605 545 605 349q0-192-95-270.5T269 0H81v691h170q161 0 257.5-73zM213 592V99h65q88 0 138 54.5T466 349q0 98-25.5 151.5t-67 72.5-99.5 19h-61zm143.5 308.5Q379 878 379 845t-22.5-55-58.5-22q-35 0-57.5 22T218 845t22.5 55.5T298 923q36 0 58.5-22.5z"/><glyph glyph-name="uni1E0C" unicode="Ḍ" horiz-adv-x="648" d="M508.5 618Q605 545 605 349q0-192-95-270.5T269 0H81v691h170q161 0 257.5-73zM213 592V99h65q88 0 138 54.5T466 349q0 98-25.5 151.5t-67 72.5-99.5 19h-61zm31.5-791Q222-177 222-143q0 33 22.5 54.5T303-67q35 0 57.5-21.5T383-143q0-34-22.5-56T303-221q-36 0-58.5 22z"/><glyph glyph-name="uni018A" unicode="Ɗ" horiz-adv-x="763" d="M623 618q97-73 97-269 0-192-95-270.5T384 0H196v593h-30q-50 0-50-45 0-17 4-32t13-37l-84-39q-20 30-31 56.5T7 554q0 63 44 100t122 37h193q160 0 257-73zm-92-464.5Q581 208 581 349q0 98-25.5 151.5t-67 72.5-99.5 19h-61V99h65q88 0 138 54.5z"/><glyph glyph-name="uni1E0E" unicode="Ḏ" horiz-adv-x="648" d="M508.5 618Q605 545 605 349q0-192-95-270.5T269 0H81v691h170q161 0 257.5-73zM213 592V99h65q88 0 138 54.5T466 349q0 98-25.5 151.5t-67 72.5-99.5 19h-61zm-56-774v91h291v-91H157z"/><glyph glyph-name="uni018B" unicode="Ƌ" horiz-adv-x="588" d="M508 0H285Q165 0 94 53.5T23 218q0 106 71.5 163.5T293 439h82v149H107v103h401V0zM375 99v244h-75q-68 0-102.5-30.5T163 218q0-65 34.5-92T297 99h78z"/><glyph glyph-name="uni01F2" unicode="ǲ" horiz-adv-x="1085" d="M508.5 618Q605 545 605 349q0-192-95-270.5T269 0H81v691h170q161 0 257.5-73zM213 592V99h65q88 0 138 54.5T466 349q0 98-25.5 151.5t-67 72.5-99.5 19h-61zm849-155L806 100h261L1054 0H659v92l257 337H681v100h381v-92z"/><glyph glyph-name="uni01C5" unicode="ǅ" horiz-adv-x="1085" d="M508.5 618Q605 545 605 349q0-192-95-270.5T269 0H81v691h170q161 0 257.5-73zM213 592V99h65q88 0 138 54.5T466 349q0 98-25.5 151.5t-67 72.5-99.5 19h-61zm849-155L806 100h261L1054 0H659v92l257 337H681v100h381v-92zm-16 307L907 619h-80L688 744l49 56 130-88 130 88z"/><glyph glyph-name="E" unicode="E" horiz-adv-x="530" d="M468 593H213V400h222v-98H213V99h273V0H81v691h401z"/><glyph glyph-name="Eacute" unicode="É" horiz-adv-x="530" d="M468 593H213V400h222v-98H213V99h273V0H81v691h401zm-53 243l-229-83-33 66 212 117z"/><glyph glyph-name="Eacute.loclHUN" horiz-adv-x="530" d="M468 593H213V400h222v-98H213V99h273V0H81v691h401zm-51 297L279 738l-59 35 101 174z"/><glyph glyph-name="Ebreve" unicode="Ĕ" horiz-adv-x="530" d="M468 593H213V400h222v-98H213V99h273V0H81v691h401zM170 795q-44 41-50 103l75 15q10-31 32-49t55-18 56 18 32 49l76-15q-6-62-50.5-103T282 754q-68 0-112 41z"/><glyph glyph-name="Ecaron" unicode="Ě" horiz-adv-x="530" d="M468 593H213V400h222v-98H213V99h273V0H81v691h401zm-5 279L324 752h-80L105 872l49 56 130-83 130 83z"/><glyph glyph-name="uni0228" unicode="Ȩ" horiz-adv-x="530" d="M320 0v-52q50-5 74.5-29.5T419-144q0-50-38.5-79.5T281-253q-31 0-58 7.5T179-225l31 63q30-16 63-16 48 0 48 34 0 20-21 29t-69 9L244 0H81v691h401l-14-98H213V400h222v-98H213V99h273V0H320z"/><glyph glyph-name="Ecircumflex" unicode="Ê" horiz-adv-x="530" d="M468 593H213V400h222v-98H213V99h273V0H81v691h401zM104 812l139 121h80l139-121-49-55-130 82-130-82z"/><glyph glyph-name="uni1EBE" unicode="Ế" horiz-adv-x="530" d="M468 593H213V400h222v-98H213V99h273V0H81v691h401zM104 774l139 121h80l139-121-49-55-130 82-130-82zm475 215L431 855l-50 45 125 159z"/><glyph glyph-name="uni1EC6" unicode="Ệ" horiz-adv-x="530" d="M468 593H213V400h222v-98H213V99h273V0H81v691h401zM104 812l139 121h80l139-121-49-55-130 82-130-82zM224.5-199Q202-177 202-143q0 33 22.5 54.5T283-67q35 0 57.5-21.5T363-143q0-34-22.5-56T283-221q-36 0-58.5 22z"/><glyph glyph-name="uni1EC0" unicode="Ề" horiz-adv-x="530" d="M468 593H213V400h222v-98H213V99h273V0H81v691h401zM103 774l139 121h80l139-121-49-55-130 82-130-82zm82 126l-50-45-148 134 72 70z"/><glyph glyph-name="uni1EC2" unicode="Ể" horiz-adv-x="530" d="M468 593H213V400h222v-98H213V99h273V0H81v691h401zM103 774l139 121h80l139-121-49-55-130 82-130-82zm300 151q38 4 54.5 12.5T474 966q0 16-11.5 24.5T432 999q-28 0-59-13l-24 59q43 25 102 25 56 0 86.5-26.5T568 972q0-37-21.5-59.5T485 883v-45h-82v87z"/><glyph glyph-name="uni1EC4" unicode="Ễ" horiz-adv-x="530" d="M468 593H213V400h222v-98H213V99h273V0H81v691h401zM102 774l139 121h80l139-121-49-55-130 82-130-82zm201.5 155.5Q288 936 268 949q-14 9-23.5 13.5T225 967q-17 0-28.5-10T172 924l-69 33q20 45 50 72.5t70 27.5q22 0 38-6.5t36-19.5q25-18 42-18 15 0 27 10t26 32l68-33q-20-46-51-72.5T340 923q-21 0-36.5 6.5z"/><glyph glyph-name="uni0204" unicode="Ȅ" horiz-adv-x="530" d="M468 593H213V400h222v-98H213V99h273V0H81v691h401zM249 787l-71-32L64 925l93 48zm156 3l-72-30-105 167 94 46z"/><glyph glyph-name="Edieresis" unicode="Ë" horiz-adv-x="530" d="M468 593H213V400h222v-98H213V99h273V0H81v691h401zM222 891q20-20 20-49t-20-49-49-20q-30 0-50.5 20T102 842t20.5 49 50.5 20q29 0 49-20zm222 0q20-20 20-49t-20-49-50-20q-29 0-49.5 20T324 842t20.5 49 49.5 20q30 0 50-20z"/><glyph glyph-name="Edotaccent" unicode="Ė" horiz-adv-x="530" d="M468 593H213V400h222v-98H213V99h273V0H81v691h401zM341.5 900.5Q364 878 364 845t-22.5-55-58.5-22q-35 0-57.5 22T203 845t22.5 55.5T283 923q36 0 58.5-22.5z"/><glyph glyph-name="uni1EB8" unicode="Ẹ" horiz-adv-x="530" d="M468 593H213V400h222v-98H213V99h273V0H81v691h401zM224.5-199Q202-177 202-143q0 33 22.5 54.5T283-67q35 0 57.5-21.5T363-143q0-34-22.5-56T283-221q-36 0-58.5 22z"/><glyph glyph-name="Egrave" unicode="È" horiz-adv-x="530" d="M468 593H213V400h222v-98H213V99h273V0H81v691h401zm-60 226l-33-66-229 83 50 100z"/><glyph glyph-name="uni1EBA" unicode="Ẻ" horiz-adv-x="530" d="M468 593H213V400h222v-98H213V99h273V0H81v691h401zM242 850q38 4 54.5 12.5T313 891q0 16-11.5 24.5T271 924q-28 0-59-13l-24 59q43 25 102 25 56 0 86.5-26.5T407 897q0-37-21.5-59.5T324 808v-45h-82v87z"/><glyph glyph-name="uni0206" unicode="Ȇ" horiz-adv-x="530" d="M468 593H213V400h222v-98H213V99h273V0H81v691h401zm-72.5 302.5Q440 853 446 784l-76-15q-9 37-31.5 57T282 846q-67 0-87-77l-75 15q6 69 49.5 111.5T282 938t113.5-42.5z"/><glyph glyph-name="Emacron" unicode="Ē" horiz-adv-x="530" d="M468 593H213V400h222v-98H213V99h273V0H81v691h401zM138 787v91h291v-91H138z"/><glyph glyph-name="Eogonek" unicode="Ę" horiz-adv-x="530" d="M486 99V0h-40q-69-28-95-54t-26-54q0-46 55-46 27 0 61 7l-10-85q-37-7-67-7-61 0-99 30t-38 79q0 80 90 130H81v691h401l-14-98H213V400h222v-98H213V99h273z"/><glyph glyph-name="uni0190" unicode="Ɛ" horiz-adv-x="532" d="M510 617l-67-71q-67 60-144 60-54 0-80-26t-26-67q0-46 31.5-72.5T310 414h71l-17-99h-52q-68 0-102.5-29.5T175 202t34.5-84T306 88q45 0 81 16t68 48l74-71q-88-96-234-96-75 0-134 26.5T68.5 86 35 196q0 76 45.5 120T202 368q-70 15-107.5 56T57 527q0 51 27.5 91.5t79.5 64T286 706q130 0 224-89z"/><glyph glyph-name="uni018E" unicode="Ǝ" horiz-adv-x="530" d="M449 691V0H44v99h273v203H95v98h222v193H50v98h399z"/><glyph glyph-name="uni01A9" unicode="Ʃ" horiz-adv-x="503" d="M473 591H177l183-218v-64L176 102h297V0H30v100l206 239L30 591v100h443V591z"/><glyph glyph-name="uni0246" unicode="Ɇ" horiz-adv-x="530" d="M486 99V0H247l-19-72-53 12 16 60H81v691h294l16 62 52-12-13-50h52l-14-98h-64l-51-193h82v-98H327L273 99h213zM213 400h85l51 193H213V400zm5-301l2 9 52 194h-59V99h5z"/><glyph glyph-name="uni1EBC" unicode="Ẽ" horiz-adv-x="530" d="M468 593H213V400h222v-98H213V99h273V0H81v691h401zM305.5 777.5Q290 785 270 798q-15 10-24 14.5t-19 4.5q-17 0-28.5-10.5T174 772l-69 34q20 47 50 75.5t70 28.5q22 0 37.5-7t36.5-20q13-10 22.5-14.5T341 864q15 0 27 10t26 33l68-34q-20-48-51-75.5T342 770q-21 0-36.5 7.5z"/><glyph glyph-name="uni01B7" unicode="Ʒ" horiz-adv-x="533" d="M440.5 347Q498 295 498 202q0-62-31.5-111.5T376 13 236-15q-77 0-132.5 24.5T7 82l71 69q34-34 69-49t82-15q63 0 97 31.5t34 87.5q0 59-34.5 85T221 317h-94v81l191 193H42v100h426v-98L273 400q110-1 167.5-53z"/><glyph glyph-name="uni01EE" unicode="Ǯ" horiz-adv-x="533" d="M440.5 347Q498 295 498 202q0-62-31.5-111.5T376 13 236-15q-77 0-132.5 24.5T7 82l71 69q34-34 69-49t82-15q63 0 97 31.5t34 87.5q0 59-34.5 85T221 317h-94v81l191 193H42v100h426v-98L273 400q110-1 167.5-53zM434 872L295 752h-80L76 872l49 56 130-83 130 83z"/><glyph glyph-name="uni01B8" unicode="Ƹ" horiz-adv-x="533" d="M526 82q-42-49-98.5-73T290-15q-77 0-135 27T66 87.5 35 197q0 90 59.5 145.5T259 400L65 593v98h425V591H216l190-194v-80h-94q-140 0-140-117 0-52 33-82.5T297 87q51 0 87.5 15t70.5 49z"/><glyph glyph-name="F" unicode="F" horiz-adv-x="489" d="M81 691h391l-14-98H213V386h213v-98H213V0H81v691z"/><glyph glyph-name="uni1E1E" unicode="Ḟ" horiz-adv-x="489" d="M81 691h391l-14-98H213V386h213v-98H213V0H81v691zm263.5 209.5Q367 878 367 845t-22.5-55-58.5-22q-35 0-57.5 22T206 845t22.5 55.5T286 923q36 0 58.5-22.5z"/><glyph glyph-name="uni0191" unicode="Ƒ" horiz-adv-x="489" d="M213 593V386h213v-98H213V-43q0-86-47.5-130.5T35-218q-75 0-129 41l46 80q20-11 35-16t36-5q58 0 58 67v742h391l-14-98H213z"/><glyph glyph-name="G" unicode="G" horiz-adv-x="638" d="M480.5 685.5Q533 665 580 625l-71-74q-37 29-69.5 42T364 606q-80 0-131-64t-51-196q0-138 40.5-199T346 86q63 0 110 27v180H352l-14 98h248V53Q474-15 348-15q-148 0-226.5 92T43 346q0 113 42.5 194.5T200 664t160 42q68 0 120.5-20.5z"/><glyph glyph-name="uni01F4" unicode="Ǵ" horiz-adv-x="638" d="M480.5 685.5Q533 665 580 625l-71-74q-37 29-69.5 42T364 606q-80 0-131-64t-51-196q0-138 40.5-199T346 86q63 0 110 27v180H352l-14 98h248V53Q474-15 348-15q-148 0-226.5 92T43 346q0 113 42.5 194.5T200 664t160 42q68 0 120.5-20.5zM484 836l-229-83-33 66 212 117z"/><glyph glyph-name="Gbreve" unicode="Ğ" horiz-adv-x="638" d="M480.5 685.5Q533 665 580 625l-71-74q-37 29-69.5 42T364 606q-80 0-131-64t-51-196q0-138 40.5-199T346 86q63 0 110 27v180H352l-14 98h248V53Q474-15 348-15q-148 0-226.5 92T43 346q0 113 42.5 194.5T200 664t160 42q68 0 120.5-20.5zM240 795q-44 41-50 103l75 15q10-31 32-49t55-18 56 18 32 49l76-15q-6-62-50.5-103T352 754q-68 0-112 41z"/><glyph glyph-name="Gcaron" unicode="Ǧ" horiz-adv-x="638" d="M480.5 685.5Q533 665 580 625l-71-74q-37 29-69.5 42T364 606q-80 0-131-64t-51-196q0-138 40.5-199T346 86q63 0 110 27v180H352l-14 98h248V53Q474-15 348-15q-148 0-226.5 92T43 346q0 113 42.5 194.5T200 664t160 42q68 0 120.5-20.5zM532 872L393 752h-80L174 872l49 56 130-83 130 83z"/><glyph glyph-name="Gcircumflex" unicode="Ĝ" horiz-adv-x="638" d="M480.5 685.5Q533 665 580 625l-71-74q-37 29-69.5 42T364 606q-80 0-131-64t-51-196q0-138 40.5-199T346 86q63 0 110 27v180H352l-14 98h248V53Q474-15 348-15q-148 0-226.5 92T43 346q0 113 42.5 194.5T200 664t160 42q68 0 120.5-20.5zM174 812l139 121h80l139-121-49-55-130 82-130-82z"/><glyph glyph-name="uni0122" unicode="Ģ" horiz-adv-x="638" d="M480.5 685.5Q533 665 580 625l-71-74q-37 29-69.5 42T364 606q-80 0-131-64t-51-196q0-138 40.5-199T346 86q63 0 110 27v180H352l-14 98h248V53Q474-15 348-15q-148 0-226.5 92T43 346q0 113 42.5 194.5T200 664t160 42q68 0 120.5-20.5zM396-91.5q20-19.5 20-48.5 0-16-5.5-32.5T389-221l-44-91h-67l28 116q-29 22-29 56 0 29 20 48.5T347-72q29 0 49-19.5z"/><glyph glyph-name="Gdotaccent" unicode="Ġ" horiz-adv-x="638" d="M480.5 685.5Q533 665 580 625l-71-74q-37 29-69.5 42T364 606q-80 0-131-64t-51-196q0-138 40.5-199T346 86q63 0 110 27v180H352l-14 98h248V53Q474-15 348-15q-148 0-226.5 92T43 346q0 113 42.5 194.5T200 664t160 42q68 0 120.5-20.5zm-70 215Q433 878 433 845t-22.5-55-58.5-22q-35 0-57.5 22T272 845t22.5 55.5T352 923q36 0 58.5-22.5z"/><glyph glyph-name="uni0193" unicode="Ɠ" horiz-adv-x="602" d="M750 805l-42-81q-19 11-34.5 16t-35.5 5q-58 0-58-67v-53l-64-67q-39 24-75 36t-77 12q-80 0-131-64t-51-196q0-138 40.5-199T346 86q63 0 110 27v180H352l-14 98h248V53Q478-15 343-15q-145 0-222.5 92T43 346q0 112 42 193.5t111 124T344 706q71 0 119-24 1 77 42 119t119 42q68 0 126-38z"/><glyph glyph-name="uni0241" unicode="Ɂ" horiz-adv-x="489" d="M148 325l63 17q62 17 91 49.5t29 94.5q0 55-29 87.5T220 606q-40 0-75-14.5T73 546L7 617q49 45 104 67t122 22q72 0 125.5-27t82-75.5T469 492q0-88-43-134.5T305 284l-24-8V0H148v325z"/><glyph glyph-name="uni01E4" unicode="Ǥ" horiz-adv-x="654" d="M651 173h-65V53Q478-15 346-15q-147 0-225 92T43 346q0 113 42.5 194.5t114 123.5T358 706q71 0 123.5-20.5T580 625l-70-74q-38 29-70.5 42T364 606q-80 0-131-64t-51-196q0-138 40.5-199T346 86q61 0 117 25v62H349v87h114v50H351l-13 90h248V260h65v-87z"/><glyph glyph-name="uni021C" unicode="Ȝ" horiz-adv-x="513" d="M353.5 682q50.5-24 76.5-65.5t26-95.5q0-65-37.5-106.5T311 358q77-8 122-48t45-115Q478 89 378 9.5T68-108L57-6q109 26 171 57t86 67 24 82q0 105-137 105h-69l16 99h55q55 0 85.5 27t30.5 77q0 45-25 71.5T217 606q-75 0-150-60L3 617q97 89 229 89 71 0 121.5-24z"/><glyph glyph-name="H" unicode="H" horiz-adv-x="672" d="M459 309H213V0H81v691h132V414h246v277h133V0H459v309z"/></font>
</defs>
</svg>
