<?xml version="1.0" standalone="no"?>
<!DOCTYPE svg PUBLIC "-//W3C//DTD SVG 1.1//EN" "http://www.w3.org/Graphics/SVG/1.1/DTD/svg11.dtd" >
<svg xmlns="http://www.w3.org/2000/svg" xmlns:xlink="http://www.w3.org/1999/xlink" version="1.1">
<metadata>
Created by FontForge 20170910 at Wed Jul 16 01:23:44 2008
 By Jimmy Wärting
BPG Nino, universal Unicode Georgian font
</metadata>
<defs>
<font id="BPGNinoMediumCaps" horiz-adv-x="411" >
  <font-face 
    font-family="BPG Nino Medium Caps"
    font-weight="500"
    font-style="italic"
    font-variant="small-caps"
    font-stretch="normal"
    units-per-em="1000"
    panose-1="2 0 5 3 0 0 0 2 0 4"
    ascent="720"
    descent="-280"
    x-height="467"
    cap-height="644"
    bbox="-27 -271 1138 835"
    underline-thickness="24"
    underline-position="-49"
    slope="-25"
    unicode-range="U+0020-2219"
  />
<missing-glyph horiz-adv-x="847" 
d="M165 614v-620h559v620h-559zM737 -25h-586v658h586v-658z" />
    <glyph glyph-name=".notdef" horiz-adv-x="847" 
d="M165 614v-620h559v620h-559zM737 -25h-586v658h586v-658z" />
    <glyph glyph-name=".null" horiz-adv-x="0" 
 />
    <glyph glyph-name="nonmarkingreturn" horiz-adv-x="314" 
 />
    <glyph glyph-name="space" unicode=" " horiz-adv-x="244" 
 />
    <glyph glyph-name="exclam" unicode="!" horiz-adv-x="272" 
d="M159 176h-55v535h81l-26 -182v-353zM181 2h-74v71h74v-71z" />
    <glyph glyph-name="quotedbl" unicode="&#x22;" horiz-adv-x="301" 
d="M243 533h-20l-21 106v84h62v-85zM96 533h-24l-20 105v85h62v-84z" />
    <glyph glyph-name="numbersign" unicode="#" horiz-adv-x="882" 
d="M646 83h212v-48h-212v48zM750 401c-40 0 -68 -35 -68 -70c0 -41 28 -73 68 -73c48 0 72 30 72 72c0 37 -28 71 -72 71zM750 450c75 0 117 -60 117 -121c0 -68 -42 -122 -117 -122c-70 0 -112 56 -112 123c0 61 40 120 112 120zM634 668c-33 0 -57 -35 -57 -67v-598h-49
l-290 582v-466c0 -58 -43 -116 -103 -116c-58 0 -101 54 -107 112h44c3 -35 36 -59 59 -59c34 0 60 21 60 63v518h-98v49h148l289 -577v492c0 62 50 115 104 115c55 0 107 -47 113 -109h-50c-2 28 -33 61 -63 61z" />
    <glyph glyph-name="dollar" unicode="$" horiz-adv-x="488" 
d="M323 198l11 -1c56 24 81 59 81 87c0 77 -120 103 -239 198c-63 -34 -87 -63 -87 -97c0 -56 46 -84 234 -187zM74 63l55 8c17 -71 60 -98 132 -98c68 0 117 39 117 86c0 40 -37 69 -183 153c-98 51 -153 95 -153 166c0 31 37 87 117 115c-53 43 -70 77 -70 107
c0 65 60 123 154 123c103 0 159 -45 178 -124c-25 -6 -31 -2 -56 -7c-16 71 -55 91 -115 91s-112 -34 -112 -77c0 -40 32 -72 170 -144c105 -58 155 -96 155 -162c0 -27 -13 -57 -30 -74h1c-13 -13 -42 -28 -89 -47c60 -41 85 -77 85 -120c0 -66 -65 -128 -169 -128
s-167 49 -187 132z" />
    <glyph glyph-name="percent" unicode="%" horiz-adv-x="807" 
d="M221 -24h-43c54 87 412 724 422 743h41c-12 -22 -414 -714 -420 -743zM201 682c-59 0 -105 -29 -105 -148c0 -100 44 -139 105 -139s104 42 104 148c0 103 -46 139 -104 139zM618 299c-63 0 -106 -36 -106 -148c0 -104 50 -141 105 -141c60 0 106 42 106 149
c0 101 -47 140 -105 140zM46 544c0 96 52 175 150 175c91 0 158 -62 158 -180s-71 -180 -155 -180c-88 0 -153 59 -153 185zM464 160c0 94 51 175 151 175c88 0 158 -66 158 -181c0 -116 -72 -178 -157 -178c-89 0 -152 56 -152 184z" />
    <glyph glyph-name="ampersand" unicode="&#x26;" horiz-adv-x="689" 
d="M448 579c0 55 -55 107 -117 107c-56 0 -121 -46 -121 -105c0 -24 20 -67 100 -153c109 58 138 106 138 151zM492 144l-211 231c-100 -57 -168 -94 -168 -170c0 -65 65 -166 173 -166c65 0 146 29 206 105zM519 109l-8 -17c-67 -65 -140 -97 -220 -97
c-140 0 -239 91 -239 202c0 83 65 152 198 212c-54 76 -98 91 -98 164c0 83 82 150 182 150c101 0 168 -68 171 -142c0 -65 -66 -125 -170 -178c21 -29 171 -185 187 -205c24 43 40 87 52 124l56 -15c-16 -57 -40 -108 -67 -148c41 -46 71 -84 117 -119l-42 -44
c-33 18 -80 72 -119 113z" />
    <glyph glyph-name="quotesingle" unicode="'" horiz-adv-x="162" 
d="M96 532h-24l-19 104v87h62v-88z" />
    <glyph glyph-name="parenleft" unicode="(" horiz-adv-x="360" 
d="M313 -256h-35c-104 135 -196 308 -196 488c0 179 68 327 196 489h34c-124 -183 -163 -322 -163 -489c0 -160 55 -321 164 -488z" />
    <glyph glyph-name="parenright" unicode=")" horiz-adv-x="360" 
d="M127 -254h-36c112 167 165 328 165 488c-11 166 -12 268 -163 489h34c125 -165 195 -304 195 -489c0 -181 -88 -359 -195 -488z" />
    <glyph glyph-name="asterisk" unicode="*" horiz-adv-x="510" 
d="M61 563l21 61l173 -75l-18 174h55l-23 -174l177 75l24 -61l-199 -32l140 -127l-49 -31l-100 148l-96 -150l-46 31l130 130z" />
    <glyph glyph-name="plus" unicode="+" horiz-adv-x="495" 
d="M284 56h-47v164h-180v47h180v164h47v-164h180v-47h-180v-164z" />
    <glyph glyph-name="comma" unicode="," horiz-adv-x="210" 
d="M122 2h-50v85h85v-87c0 -75 -17 -114 -84 -138l-9 16c39 22 58 63 58 124z" />
    <glyph glyph-name="hyphen" unicode="-" horiz-adv-x="360" 
d="M356 184h-334v66h334v-66z" />
    <glyph glyph-name="period" unicode="." horiz-adv-x="280" 
d="M201 2h-96v96h96v-96z" />
    <glyph glyph-name="slash" unicode="/" horiz-adv-x="286" 
d="M58 -5h-44l229 728h41z" />
    <glyph glyph-name="zero" unicode="0" horiz-adv-x="484" 
d="M242 0c-189 0 -219 197 -219 343c0 149 30 345 219 345s220 -196 220 -345c0 -146 -31 -343 -220 -343zM242 48c145 0 159 193 159 295c0 107 -14 297 -159 297c-146 0 -159 -190 -159 -297c0 -102 13 -295 159 -295z" />
    <glyph glyph-name="one" unicode="1" horiz-adv-x="484" 
d="M269 674h58v-663h-59v594l-153 -121l-39 46z" />
    <glyph glyph-name="two" unicode="2" horiz-adv-x="484" 
d="M445 65v-54h-418v51l237 245c68 74 116 137 116 204c0 100 -91 129 -139 129c-60 0 -129 -35 -139 -129l-66 5c11 56 41 172 209 172c122 0 195 -80 195 -177c0 -64 -29 -128 -144 -246l-196 -202c22 1 50 2 78 2h267z" />
    <glyph glyph-name="three" unicode="3" horiz-adv-x="484" 
d="M22 167l64 15c8 -76 62 -134 144 -134c122 0 157 69 157 138c0 84 -46 149 -159 149c-17 0 -33 -2 -45 -3v54h35c90 0 160 46 160 130s-49 124 -130 124c-105 0 -140 -65 -158 -110l-58 22c45 124 155 136 215 136c154 0 191 -101 191 -170c0 -100 -70 -133 -119 -155v-1
c101 -18 129 -93 129 -167c0 -150 -112 -195 -215 -195c-132 0 -187 76 -211 167z" />
    <glyph glyph-name="four" unicode="4" horiz-adv-x="484" 
d="M363 674v-480h96v-49h-96v-134h-57v134h-281v64l247 465h91zM55 194h251v386c0 18 1 32 1 50z" />
    <glyph glyph-name="five" unicode="5" horiz-adv-x="484" 
d="M395 674v-48h-254l-5 -217c48 21 89 25 104 25c110 0 203 -90 203 -216c0 -136 -94 -218 -211 -218c-93 0 -161 52 -191 156l59 18c7 -35 42 -126 139 -126c58 0 143 43 143 172c0 121 -87 164 -157 164c-40 0 -97 -13 -145 -54l9 344h306z" />
    <glyph glyph-name="six" unicode="6" horiz-adv-x="484" 
d="M284 674h75l-57 -68c-58 -73 -130 -161 -160 -222l2 -2c28 15 58 31 112 31c117 0 199 -91 199 -202c0 -116 -76 -211 -214 -211c-144 0 -212 100 -212 216c0 112 65 210 163 338zM394 206c0 108 -76 157 -146 157c-109 0 -158 -36 -158 -135c0 -97 40 -180 151 -180
c94 0 153 69 153 158z" />
    <glyph glyph-name="seven" unicode="7" horiz-adv-x="484" 
d="M28 674h410v-48l-288 -615h-68l296 615h-350v48z" />
    <glyph glyph-name="eight" unicode="8" horiz-adv-x="484" 
d="M242 0c-150 0 -205 97 -205 176c0 110 85 156 150 191c-45 22 -130 77 -130 164c0 104 66 157 185 157c142 0 185 -85 185 -157c0 -87 -85 -142 -130 -164c66 -35 150 -81 150 -191c0 -79 -55 -176 -205 -176zM242 48c97 0 144 65 144 126c0 78 -40 102 -144 165
c-105 -62 -144 -88 -144 -165c0 -61 47 -126 144 -126zM242 640c-83 0 -124 -53 -124 -106c0 -67 61 -106 124 -138c62 31 125 71 125 138c0 53 -42 106 -125 106z" />
    <glyph glyph-name="nine" unicode="9" horiz-adv-x="484" 
d="M198 11h-75l59 72c59 72 129 161 160 221l-2 2c-29 -14 -57 -29 -112 -29c-118 0 -199 89 -199 200c0 117 76 211 214 211c144 0 212 -99 212 -214c0 -114 -64 -211 -163 -340zM90 482c0 -105 76 -157 146 -157c54 0 111 25 133 40c12 19 25 51 25 95
c0 99 -40 180 -151 180c-94 0 -153 -68 -153 -158z" />
    <glyph glyph-name="colon" unicode=":" horiz-adv-x="272" 
d="M191 337h-83v81h83v-81zM191 2h-83v81h83v-81z" />
    <glyph glyph-name="semicolon" unicode=";" horiz-adv-x="286" 
d="M189 333h-85v84h85v-84zM148 2h-44v85h85v-85c0 -45 -22 -90 -67 -137l-12 12c26 39 38 79 38 125z" />
    <glyph glyph-name="less" unicode="&#x3c;" horiz-adv-x="495" 
d="M464 47l-409 158v55l409 157v-47l-365 -137c1 -1 122 -47 365 -138v-48z" />
    <glyph glyph-name="equal" unicode="=" horiz-adv-x="495" 
d="M464 328v-47h-407v47h407zM464 144v-46h-407v46h407z" />
    <glyph glyph-name="greater" unicode="&#x3e;" horiz-adv-x="495" 
d="M464 262v-57c-271 -105 -407 -159 -409 -160v50l365 138l-365 136v48z" />
    <glyph glyph-name="question" unicode="?" horiz-adv-x="404" 
d="M208 100c29 0 45 -23 45 -51c0 -27 -16 -47 -45 -47c-31 0 -51 19 -51 47s20 51 51 51zM229 245v-78h-48v78c0 84 158 170 158 270c0 65 -42 153 -123 153c-61 0 -122 -57 -122 -116c0 -38 21 -83 65 -83c35 0 51 16 51 52c0 9 -1 25 -6 44h26c11 -27 15 -47 15 -64
c0 -51 -30 -84 -86 -84c-72 0 -115 69 -115 135c0 86 81 158 172 158c105 0 172 -99 172 -195c0 -75 -42 -121 -107 -190c-40 -43 -52 -51 -52 -80z" />
    <glyph glyph-name="at" unicode="@" horiz-adv-x="795" 
d="M255 211c0 -98 51 -157 101 -157c48 0 101 47 136 129v-1c16 43 24 88 24 135c0 134 -98 157 -106 157c-83 0 -155 -135 -155 -263zM477 75l-19 5c-37 -53 -81 -79 -117 -79c-84 0 -141 99 -141 216c0 184 122 311 205 311c25 0 0 -7 51 -30c43 -20 60 -50 77 -87
c6 23 15 73 18 101h54l-56 -325c-8 -46 -14 -71 -14 -79c0 -26 18 -46 39 -46c33 0 110 59 141 145h-1c20 47 30 96 30 148c0 190 -139 325 -305 325c-185 0 -357 -160 -357 -446c0 -252 142 -394 370 -394c125 0 239 54 294 151h54c-63 -133 -201 -207 -348 -207
c-247 0 -410 166 -410 443c0 327 189 506 401 506c184 0 342 -149 342 -380c0 -173 -114 -353 -238 -353c-48 0 -67 22 -70 75z" />
    <glyph glyph-name="A" unicode="A" horiz-adv-x="492" 
d="M65 0h-57l202 644h65l216 -644h-63l-63 200h-240zM204 460l-64 -206h209l-61 195c-18 56 -31 104 -39 140l-16 -1c-8 -43 -17 -89 -29 -128z" />
    <glyph glyph-name="B" unicode="B" horiz-adv-x="492" 
d="M259 0h-197v644h194c105 0 172 -57 172 -160c0 -58 -32 -109 -88 -143c71 -26 114 -82 114 -158c0 -117 -61 -183 -195 -183zM115 584v-218h127c92 0 133 28 133 108c0 73 -28 110 -142 110h-118zM115 306v-246h144c98 0 138 39 138 123c0 79 -41 123 -147 123h-135z" />
    <glyph glyph-name="C" unicode="C" horiz-adv-x="533" 
d="M447 212l55 -17c-32 -137 -111 -206 -219 -206c-48 0 -90 11 -124 35v-1c-70 48 -117 161 -117 304c0 211 106 329 245 329c98 0 175 -61 206 -178l-54 -16c-26 91 -76 137 -151 137c-111 0 -190 -85 -190 -272c0 -189 73 -281 184 -281c79 0 144 55 165 166z" />
    <glyph glyph-name="D" unicode="D" horiz-adv-x="533" 
d="M249 0h-187v644h178c157 0 253 -83 253 -318c0 -222 -88 -326 -244 -326zM116 584v-524h124c151 0 197 96 197 267c0 182 -57 257 -198 257h-123z" />
    <glyph glyph-name="E" unicode="E" horiz-adv-x="492" 
d="M453 0h-388v644h375v-60h-321v-221h300v-59h-300v-244h334v-60z" />
    <glyph glyph-name="F" unicode="F" horiz-adv-x="451" 
d="M123 0h-54v644h348v-60h-294v-223h255v-60h-255v-301z" />
    <glyph glyph-name="G" unicode="G" horiz-adv-x="574" 
d="M479 260h-160v59c74 0 139 1 212 1v-234c-68 -64 -140 -97 -216 -97c-151 0 -268 119 -268 327c0 219 113 340 263 340c107 0 183 -53 211 -182c-18 -6 -31 -10 -47 -16c-24 93 -77 141 -165 141c-119 0 -206 -92 -206 -275s87 -274 209 -274c60 0 131 35 167 74v136z
" />
    <glyph glyph-name="H" unicode="H" horiz-adv-x="533" 
d="M117 0h-54v644h54v-272h301v272h54v-644h-54v312h-301v-312z" />
    <glyph glyph-name="I" unicode="I" horiz-adv-x="205" 
d="M134 0h-54v644h54v-644z" />
    <glyph glyph-name="J" unicode="J" horiz-adv-x="369" 
d="M27 171l47 8c6 -100 39 -130 90 -130c70 0 90 55 90 148v447h54v-442c0 -161 -55 -213 -144 -213c-96 0 -135 66 -137 182z" />
    <glyph glyph-name="K" unicode="K" horiz-adv-x="492" 
d="M115 0h-54v644h54v-344c89 107 194 236 282 344h75l-220 -258l233 -386h-74l-197 342l-99 -118v-224z" />
    <glyph glyph-name="L" unicode="L" 
d="M381 0h-321v644h54v-584h267v-60z" />
    <glyph glyph-name="M" unicode="M" horiz-adv-x="615" 
d="M112 0h-51v644h92l155 -564h14l158 564h81v-644h-51v607l-17 -57c-52 -183 -101 -366 -154 -550h-51l-159 560l-17 47v-607z" />
    <glyph glyph-name="N" unicode="N" horiz-adv-x="533" 
d="M113 0h-51v644h59l285 -519l15 -46v565h51v-644h-59l-285 520l-15 46v-566z" />
    <glyph glyph-name="O" unicode="O" horiz-adv-x="574" 
d="M43 313c0 220 110 343 251 343c137 0 251 -122 251 -329c0 -204 -102 -338 -251 -338c-146 0 -251 142 -251 324zM99 312c0 -169 87 -266 194 -266c112 0 196 98 196 277c0 58 -10 111 -29 157h1c-27 68 -97 119 -166 119c-110 0 -196 -89 -196 -287z" />
    <glyph glyph-name="P" unicode="P" horiz-adv-x="492" 
d="M118 0h-54v644h196c141 0 200 -55 200 -181c0 -115 -50 -193 -194 -193h-148v-270zM118 584v-255h150c94 0 136 43 136 130c0 27 -5 52 -16 72v-1c-11 21 -24 35 -41 43h1c-16 7 -43 11 -82 11h-148z" />
    <glyph glyph-name="Q" unicode="Q" horiz-adv-x="574" 
d="M461 68l1 -13c32 -26 59 -46 87 -59l-15 -44c-36 17 -74 45 -111 80c-42 -29 -87 -43 -133 -43c-144 0 -251 137 -251 333c0 218 116 334 252 334c143 0 250 -129 250 -333c0 -108 -29 -197 -80 -255zM303 116l12 47c36 -14 69 -37 98 -65c47 53 71 129 71 225
c0 176 -84 276 -192 276c-109 0 -197 -90 -197 -277c0 -181 86 -276 196 -276c27 0 57 8 89 24c-27 23 -53 37 -77 46z" />
    <glyph glyph-name="R" unicode="R" horiz-adv-x="533" 
d="M117 0h-54v644h232c121 0 184 -48 184 -171c0 -95 -59 -157 -169 -176c83 -49 92 -77 120 -130l88 -167h-70l-69 133c-57 110 -78 135 -110 150h1c-15 8 -35 11 -61 11h-92v-294zM117 589v-237h164c93 0 142 40 142 120c0 73 -42 117 -125 117h-181z" />
    <glyph glyph-name="S" unicode="S" horiz-adv-x="492" 
d="M40 195l50 6c12 -93 71 -152 168 -152c91 0 144 51 144 122c0 18 -5 41 -13 56c-20 35 -34 43 -157 79c-126 37 -171 82 -171 176c0 103 71 174 183 174s185 -73 193 -180l-51 -6c-10 86 -57 126 -140 126c-87 0 -134 -44 -134 -107c0 -58 18 -83 136 -115
c147 -44 207 -83 207 -196c0 -114 -82 -190 -202 -190c-125 0 -209 80 -213 207z" />
    <glyph glyph-name="T" unicode="T" horiz-adv-x="451" 
d="M257 0h-53v584h-180v60h413v-60h-180v-584z" />
    <glyph glyph-name="U" unicode="U" horiz-adv-x="533" 
d="M419 271v373h54v-373c0 -176 -46 -282 -204 -282c-138 0 -206 69 -206 282v373h54v-373c0 -160 41 -221 147 -221c104 0 155 45 155 221z" />
    <glyph glyph-name="V" unicode="V" horiz-adv-x="492" 
d="M278 0h-61l-205 644h59c56 -191 126 -405 169 -586h15c9 35 19 76 30 111l145 475h54c-69 -218 -137 -426 -206 -644z" />
    <glyph glyph-name="W" unicode="W" horiz-adv-x="696" 
d="M216 0h-59c-47 217 -94 427 -140 644h55l81 -427c8 -44 16 -92 23 -138h17l25 125l101 440h73l76 -328c19 -81 33 -159 43 -236h17c7 43 16 93 28 146l83 418h53l-145 -644h-53c-38 166 -77 332 -114 498l-18 80h-17c-5 -29 -10 -57 -15 -80z" />
    <glyph glyph-name="X" unicode="X" horiz-adv-x="492" 
d="M81 0h-65l205 336c-59 101 -121 206 -180 308h64l97 -165c20 -34 37 -67 50 -98c18 34 35 65 51 91l108 172h56l-185 -303l200 -341h-67l-135 231c-8 14 -23 44 -31 61l-34 -66z" />
    <glyph glyph-name="Y" unicode="Y" horiz-adv-x="492" 
d="M271 0h-54v274l-202 370h66l104 -195c21 -39 48 -94 64 -129c15 34 43 90 67 134l102 190h63l-210 -370v-274z" />
    <glyph glyph-name="Z" unicode="Z" horiz-adv-x="451" 
d="M433 0h-411v69l277 423c18 27 40 58 68 92h-314v60h371v-66c-101 -154 -202 -304 -303 -457h1l-44 -61h355v-60z" />
    <glyph glyph-name="bracketleft" unicode="[" horiz-adv-x="218" 
d="M209 -203h-145v923h145v-55h-90v-813h90v-55z" />
    <glyph glyph-name="backslash" unicode="\" horiz-adv-x="218" 
d="M221 -20h-40c-57 249 -115 493 -171 742h38c57 -249 113 -493 173 -742z" />
    <glyph glyph-name="bracketright" unicode="]" horiz-adv-x="218" 
d="M169 720v-923h-145v55h91v813h-91v55h145z" />
    <glyph glyph-name="asciicircum" unicode="^" horiz-adv-x="368" 
d="M193 663l-109 -322h-51c48 131 92 250 137 381h46l139 -381h-53z" />
    <glyph glyph-name="underscore" unicode="_" horiz-adv-x="436" 
d="M-2 -126v29h460v-29h-460z" />
    <glyph glyph-name="grave" unicode="`" horiz-adv-x="261" 
d="M125 723l49 -120h-41c-28 43 -51 79 -79 120h71z" />
    <glyph glyph-name="a" unicode="a" 
d="M314 51l-16 6c-43 -45 -90 -68 -139 -68c-77 0 -127 49 -127 129c0 156 165 129 277 174v27c0 84 -42 109 -104 109c-63 0 -95 -21 -112 -91l-48 8c19 92 71 133 170 133c122 0 143 -58 143 -174v-110c0 -143 1 -154 17 -194h-50c-5 15 -9 33 -11 51zM309 204v45
c-48 -23 -151 -37 -184 -55v1c-25 -14 -40 -41 -40 -74c0 -52 34 -86 90 -86c78 0 134 51 134 169z" />
    <glyph glyph-name="b" unicode="b" 
d="M98 56v-56h-44v651h49v-260c38 58 77 87 118 87c86 0 159 -82 159 -238c0 -159 -74 -251 -163 -251c-43 0 -78 24 -104 71zM97 237c0 -139 45 -199 117 -199c61 0 116 69 116 196c0 129 -51 194 -117 194c-59 0 -116 -66 -116 -191z" />
    <glyph glyph-name="c" unicode="c" horiz-adv-x="369" 
d="M314 158l48 -8c-17 -107 -80 -161 -157 -161c-98 0 -170 80 -170 245c0 162 72 244 173 244c75 0 130 -45 146 -138l-46 -8c-16 65 -51 96 -98 96c-69 0 -125 -57 -125 -193s51 -197 121 -197c55 0 97 35 108 120z" />
    <glyph glyph-name="d" unicode="d" 
d="M358 0h-45v56l-16 4c-24 -46 -62 -71 -102 -71c-90 0 -165 91 -165 244c0 160 71 245 158 245c42 0 85 -33 120 -91v264h50v-651zM81 233c0 -131 56 -195 118 -195c64 0 115 65 115 186c0 143 -53 204 -120 204c-31 0 -59 -16 -81 -49h1c-22 -31 -33 -80 -33 -146z" />
    <glyph glyph-name="e" unicode="e" 
d="M324 137l51 -8c-23 -92 -81 -140 -164 -140c-53 0 -96 21 -130 61h1c-33 41 -50 101 -50 179c0 164 76 249 176 249c98 0 172 -84 172 -244v-12h-298c6 -128 61 -184 130 -184c54 0 90 33 112 99zM86 271h242c-9 110 -55 157 -120 157s-116 -56 -122 -157z" />
    <glyph glyph-name="f" unicode="f" horiz-adv-x="205" 
d="M124 0h-49v421h-60v46h60v60c0 95 29 136 101 136c16 0 34 -2 53 -6l-8 -53c-11 1 -21 1 -32 1c-45 0 -65 -20 -65 -84v-54h77v-46h-77v-421z" />
    <glyph glyph-name="g" unicode="g" 
d="M42 -60l48 -9c9 -53 42 -78 99 -78c64 0 102 30 116 92v-1c4 18 6 66 6 139c-39 -55 -78 -83 -120 -83c-97 0 -163 105 -163 237c0 161 78 241 164 241c44 0 86 -31 125 -92v81h44v-410c0 -182 -45 -254 -170 -254c-94 0 -147 52 -149 137zM80 242
c0 -133 51 -192 118 -192c63 0 118 53 118 188c0 129 -54 190 -122 190c-59 0 -114 -61 -114 -186z" />
    <glyph glyph-name="h" unicode="h" 
d="M103 0h-48v651h48v-259c41 57 84 86 129 86c76 0 128 -39 128 -180v-298h-49v298c0 91 -35 127 -93 127c-62 0 -115 -41 -115 -169v-256z" />
    <glyph glyph-name="i" unicode="i" horiz-adv-x="164" 
d="M106 575h-49v76h49v-76zM106 0h-49v467h49v-467z" />
    <glyph glyph-name="j" unicode="j" horiz-adv-x="164" 
d="M106 574h-49v77h49v-77zM-27 -191l10 52c9 -3 17 -4 24 -4c32 0 50 13 50 109v501h49v-503c0 -129 -33 -161 -90 -161c-15 0 -29 2 -43 6z" />
    <glyph glyph-name="k" unicode="k" horiz-adv-x="369" 
d="M105 0h-49v651h49v-399l174 215h63l-144 -171c54 -96 109 -198 162 -296h-61l-135 255l-59 -68v-187z" />
    <glyph glyph-name="l" unicode="l" horiz-adv-x="164" 
d="M104 0h-49v651h49v-651z" />
    <glyph glyph-name="m" unicode="m" horiz-adv-x="615" 
d="M103 0h-50v467h42v-63l16 -4c27 50 68 78 114 78c52 0 90 -35 109 -100c38 67 80 100 126 100c71 0 114 -47 114 -154v-324h-49v296c0 95 -26 128 -79 128c-61 0 -107 -44 -107 -152v-272h-49v306c0 87 -30 118 -79 118c-68 0 -108 -43 -108 -181v-243z" />
    <glyph glyph-name="n" unicode="n" 
d="M103 0h-48v467h42v-65l15 -4c29 54 70 80 120 80c40 0 75 -18 96 -43c23 -28 31 -55 31 -146v-289h-49v286c0 100 -30 138 -92 138c-69 0 -115 -47 -115 -168v-256z" />
    <glyph glyph-name="o" unicode="o" 
d="M29 233c0 161 75 245 178 245c98 0 177 -83 177 -240c0 -170 -77 -249 -177 -249s-178 83 -178 244zM80 233c0 -132 57 -195 128 -195c70 0 125 69 125 195c0 132 -58 195 -128 195c-69 0 -125 -66 -125 -195z" />
    <glyph glyph-name="p" unicode="p" 
d="M103 -186h-49v653h44v-88c41 70 79 99 124 99c86 0 159 -82 159 -238c0 -161 -76 -251 -164 -251c-39 0 -79 31 -114 82v-257zM97 230c0 -129 51 -192 116 -192c61 0 118 64 118 198c0 132 -54 196 -118 196c-30 0 -57 -18 -82 -54h1c-24 -34 -35 -84 -35 -148z" />
    <glyph glyph-name="q" unicode="q" 
d="M357 -186h-49v233l-15 4c-22 -40 -61 -62 -96 -62c-90 0 -166 92 -166 249c0 133 55 240 159 240c45 0 82 -25 110 -75l14 3v61h43v-653zM82 235c0 -132 53 -197 120 -197c60 0 113 64 113 187c0 135 -54 206 -121 206c-59 0 -112 -58 -112 -196z" />
    <glyph glyph-name="r" unicode="r" horiz-adv-x="246" 
d="M104 0h-49v467h43v-69l16 -3c32 71 53 83 79 83c20 0 37 -7 59 -21c-6 -22 -12 -38 -18 -59c-15 9 -29 13 -43 13c-67 0 -87 -88 -87 -166v-245z" />
    <glyph glyph-name="s" unicode="s" horiz-adv-x="369" 
d="M31 128l48 10c11 -67 50 -100 110 -100c65 0 102 36 102 87c0 39 -14 55 -96 80c-119 36 -154 63 -154 142c0 78 53 131 141 131s129 -42 143 -120l-48 -8c-9 52 -40 78 -94 78c-64 0 -96 -30 -96 -71c0 -37 4 -48 100 -81c128 -40 154 -61 154 -141
c0 -88 -57 -146 -155 -146c-87 0 -140 45 -155 139z" />
    <glyph glyph-name="t" unicode="t" horiz-adv-x="205" 
d="M189 54l7 -56c-14 -3 -27 -5 -40 -5c-60 0 -84 13 -84 140v288h-50v46h50v124l49 36v-160h67v-46h-67v-293c0 -66 13 -76 47 -76c6 0 13 0 21 2z" />
    <glyph glyph-name="u" unicode="u" 
d="M357 0h-42v67l-14 4c-31 -55 -71 -82 -121 -82c-96 0 -127 66 -127 186v292h49v-260c0 -124 23 -165 91 -165c64 0 115 40 115 174v251h49v-467z" />
    <glyph glyph-name="v" unicode="v" horiz-adv-x="369" 
d="M213 0h-49l-145 467h51l84 -284c10 -33 19 -69 26 -101l16 -1c6 25 15 61 26 96l87 290h49z" />
    <glyph glyph-name="w" unicode="w" horiz-adv-x="533" 
d="M180 0h-56c-39 158 -78 309 -117 467h52c19 -92 41 -183 61 -273l24 -108h16l84 381h53l79 -371h17l90 371h47l-120 -467h-56c-20 95 -41 187 -62 283l-15 87h-17z" />
    <glyph glyph-name="x" unicode="x" horiz-adv-x="369" 
d="M78 0h-60l140 243l-130 224h63l94 -179l103 179h59l-131 -219l142 -248h-61c-29 50 -53 96 -79 146l-30 56c-33 -62 -76 -139 -110 -202z" />
    <glyph glyph-name="y" unicode="y" horiz-adv-x="369" 
d="M52 -190l-5 59c10 -3 20 -4 28 -4c54 0 57 8 94 125l-148 477h53l82 -275c10 -35 20 -75 29 -115h16c8 41 17 78 28 113l83 277h49l-148 -482c-48 -155 -70 -182 -126 -182c-10 0 -22 2 -35 7z" />
    <glyph glyph-name="z" unicode="z" horiz-adv-x="369" 
d="M354 0h-333v55l262 367c-28 -2 -73 -4 -95 -4h-152v49h306v-43l-266 -378c43 4 77 7 104 7h174v-53z" />
    <glyph glyph-name="braceleft" unicode="{" horiz-adv-x="262" 
d="M30 213v63c66 5 85 54 85 205c0 176 10 236 119 236h14v-57h-3c-81 0 -87 -76 -87 -181v-62v-38c0 -63 -27 -99 -91 -138c80 -40 95 -84 95 -223c0 -183 9 -190 83 -190h3v-59h-14c-93 0 -119 23 -119 238c0 168 -24 191 -85 206z" />
    <glyph glyph-name="bar" unicode="|" horiz-adv-x="70" 
d="M56 -271h-42v993h42v-993z" />
    <glyph glyph-name="braceright" unicode="}" horiz-adv-x="262" 
d="M244 276v-63c-63 -7 -86 -49 -86 -206c-3 -158 -2 -238 -120 -238h-14v59h3c56 0 82 8 82 115c0 230 11 260 98 300c-85 50 -98 86 -98 227c0 170 2 190 -82 190h-3v57h14c86 0 105 -47 114 -100c11 -260 2 -331 92 -341z" />
    <glyph glyph-name="asciitilde" unicode="~" horiz-adv-x="458" 
d="M39 299v73c13 36 48 54 104 54c15 0 31 -4 49 -9c25 -8 119 -58 154 -58c38 0 67 23 96 50v-75c-32 -33 -66 -50 -105 -50c-16 0 -29 0 -44 5c-21 6 -114 63 -158 63c-26 0 -55 -12 -96 -53z" />
    <glyph glyph-name="degree" unicode="&#xb0;" horiz-adv-x="434" 
d="M107 587c0 -62 54 -104 117 -104c64 0 118 42 118 104c0 54 -54 101 -118 101c-63 0 -117 -47 -117 -101zM82 587c0 69 68 129 142 129c77 0 143 -60 143 -129c0 -76 -66 -133 -143 -133c-73 0 -142 56 -142 133z" />
    <glyph glyph-name="section" unicode="&#xa7;" horiz-adv-x="542" 
d="M359 136l14 -1c59 31 89 68 89 100c0 75 -116 106 -266 219c-72 -40 -98 -68 -98 -107c0 -66 52 -86 261 -211zM82 -10l60 8c21 -76 68 -110 148 -110c77 0 130 42 130 96c0 48 -47 80 -202 170c-48 25 -84 47 -107 66v-1c-33 28 -63 76 -63 117c0 55 28 97 129 129
c-61 50 -78 86 -78 122c0 70 66 136 171 136c116 0 140 -49 198 -139c-10 -5 -19 -5 -28 -5h-11c-8 0 -15 -1 -24 -3c-18 80 -59 102 -125 102c-73 0 -122 -39 -126 -87c0 -54 43 -71 187 -161c116 -52 174 -112 174 -178c0 -57 -11 -84 -131 -133c65 -48 95 -90 95 -133
c0 -80 -72 -141 -189 -141c-116 0 -185 53 -208 145z" />
    <glyph glyph-name="bullet" unicode="&#x2022;" horiz-adv-x="379" 
d="M74 339c0 66 59 119 126 119c69 0 128 -54 128 -119c0 -64 -59 -119 -128 -119c-67 0 -126 55 -126 119z" />
    <glyph glyph-name="paragraph" unicode="&#xb6;" horiz-adv-x="583" 
d="M297 -231h-56v546c-148 12 -232 85 -232 193c0 133 78 213 253 213h344v-61h-82v-891h-59v891h-168v-891z" />
    <glyph glyph-name="registered" unicode="&#xae;" horiz-adv-x="798" 
d="M421 725c221 0 414 -169 414 -383c0 -226 -213 -379 -408 -379c-218 0 -424 158 -424 379c0 242 231 380 418 383zM421 687c-235 0 -381 -178 -384 -345c0 -178 160 -340 384 -343c244 0 375 187 383 343c0 199 -189 342 -383 345zM286 138h-38v397h143
c116 0 181 -20 181 -99c0 -53 -44 -102 -130 -107v-10c0 -8 -10 -13 -10 -17c1 -3 7 -9 21 -13c56 -18 81 -59 140 -148c0 -1 0 -2 1 -2l-52 -1c-76 131 -109 182 -191 182h-65v-182zM286 507v-157h110c96 0 132 35 132 79c0 52 -46 78 -137 78h-105z" />
    <glyph glyph-name="copyright" unicode="&#xa9;" horiz-adv-x="798" 
d="M421 722c227 0 414 -174 414 -382c0 -236 -221 -380 -414 -380c-227 0 -418 176 -418 380c0 241 231 382 418 382zM421 683c-237 0 -381 -177 -384 -343c0 -173 159 -343 384 -343c241 0 375 184 383 343c0 203 -192 340 -383 343zM573 256l35 -6
c-29 -82 -108 -122 -187 -122c-124 0 -209 80 -209 211v4c0 131 87 207 209 207h4c83 0 142 -40 175 -101l-14 -2c-3 -3 -12 -3 -20 -3c-28 53 -72 76 -143 76c-95 0 -171 -65 -171 -182c0 -116 71 -177 164 -177c75 0 130 38 157 95z" />
    <glyph glyph-name="trademark" unicode="&#x2122;" horiz-adv-x="1083" 
d="M319 328h-39v363h-155v35h349v-35h-155v-363zM597 328h-34v398h81l134 -386c21 52 49 156 69 200l5 15c20 61 45 135 56 171h79v-398h-33v352c-7 3 -11 3 -15 3h-5c-4 0 -7 1 -13 3c-19 -42 -77 -226 -91 -262c-11 -27 -22 -59 -30 -87l-3 -9h-38l-128 366
c-14 -7 -23 -8 -28 -8h-6v-358z" />
    <glyph glyph-name="acute" unicode="&#xb4;" horiz-adv-x="360" 
d="M194 600h-48l64 119h87z" />
    <glyph glyph-name="plusminus" unicode="&#xb1;" horiz-adv-x="595" 
d="M572 62v-60h-520v60h520zM341 138h-59v212h-230v58h230v211h59v-211h231v-58h-231v-212z" />
    <glyph glyph-name="ordmasculine" unicode="&#xba;" horiz-adv-x="395" 
d="M208 677c-74 0 -126 -37 -126 -141c4 -92 49 -141 124 -141c72 0 125 41 125 144c0 96 -52 138 -123 138zM208 720c100 0 169 -71 169 -184s-73 -180 -169 -182c-101 0 -172 68 -172 181c0 115 70 185 172 185z" />
    <glyph glyph-name="logicalnot" unicode="&#xac;" horiz-adv-x="633" 
d="M593 418v-288h-63v229h-458v59h521z" />
    <glyph glyph-name="guillemotleft" unicode="&#xab;" horiz-adv-x="488" 
d="M428 368l-116 -183l116 -183h-38l-139 183c1 0 47 61 140 183h37zM247 368l-116 -183l116 -183h-37l-140 183l141 183h36z" />
    <glyph glyph-name="guillemotright" unicode="&#xbb;" horiz-adv-x="488" 
d="M59 1l137 183l-137 183h59l139 -184l-139 -182h-59zM262 1l115 183l-115 183h36l138 -183l-138 -183h-36z" />
    <glyph glyph-name="ellipsis" unicode="&#x2026;" horiz-adv-x="683" 
d="M119 2h-80v79h80v-79zM382 2h-82v79h82v-79zM644 2h-81v79h81v-79z" />
    <glyph glyph-name="endash" unicode="&#x2013;" horiz-adv-x="603" 
d="M624 179h-621v48h621v-48z" />
    <glyph glyph-name="emdash" unicode="&#x2014;" horiz-adv-x="1083" 
d="M1138 189h-1140v48h1140v-48z" />
    <glyph glyph-name="quotedblleft" unicode="&#x201c;" horiz-adv-x="360" 
d="M271 581h39v-78h-82v70c0 84 21 122 67 146l9 -13c-32 -26 -33 -57 -33 -125zM113 581h37v-78h-81v70c0 87 17 119 65 146l10 -13c-22 -22 -32 -50 -32 -102c0 -7 1 -15 1 -23z" />
    <glyph glyph-name="quotedblright" unicode="&#x201d;" horiz-adv-x="360" 
d="M117 637h-56v83h73v-74c0 -94 -24 -124 -68 -143c-5 1 -6 5 -6 10c38 25 51 58 57 124zM275 637h-53v83h71v-74c0 -94 -24 -124 -68 -143c-1 3 -6 7 -7 10c37 24 53 61 57 124z" />
    <glyph glyph-name="quoteleft" unicode="&#x2018;" horiz-adv-x="241" 
d="M106 588h54v-82h-78v73c0 67 24 115 72 144l10 -19c-39 -36 -58 -75 -58 -116z" />
    <glyph glyph-name="quoteright" unicode="&#x2019;" horiz-adv-x="241" 
d="M139 643h-55v80h78v-73c0 -67 -23 -114 -70 -143l-10 17c38 37 57 77 57 119z" />
    <glyph glyph-name="currency" unicode="&#xa4;" horiz-adv-x="473" 
d="M68 113l-16 15c-3 4 -3 4 -10 7l61 54c-19 32 -33 67 -33 100c0 31 11 66 34 99l-62 53c8 5 16 13 20 20l4 3c1 0 5 5 9 10l60 -57c40 24 78 35 110 35c33 0 71 -11 110 -35c20 22 40 39 60 57l13 -14c8 -5 13 -14 20 -19l-58 -53c20 -32 32 -67 32 -99
c0 -33 -11 -67 -34 -100c16 -11 41 -41 60 -54l-33 -30c-1 -2 -2 -3 -3 -3s-1 1 -2 2l5 1l-60 55c-39 -23 -75 -35 -110 -35c-31 0 -71 14 -110 35l-30 -29c-5 -5 -14 -9 -27 -14l-10 -4l5 -4v-2l2 -2c-5 1 -8 3 -8 6c0 0 0 1 1 2zM113 289c0 -64 60 -118 132 -118
c71 0 132 54 132 118c0 65 -60 117 -132 117s-132 -52 -132 -117zM406 98l1 2c0 -1 0 -2 1 -2h-2zM410 100h-3v1z" />
    <glyph glyph-name="guilsinglleft" unicode="&#x2039;" horiz-adv-x="360" 
d="M285 452l-147 -227l146 -224h-47l-170 224l170 227h48z" />
    <glyph glyph-name="guilsinglright" unicode="&#x203a;" horiz-adv-x="360" 
d="M75 1l147 227l-147 224h47l165 -222l-165 -229h-47z" />
    <glyph glyph-name="uni2219" unicode="&#x2219;" horiz-adv-x="271" 
d="M174 181h-71v72h71v-72z" />
    <glyph glyph-name="quotesinglbase" unicode="&#x201a;" horiz-adv-x="241" 
d="M139 2h-53v81h73v-72c0 -93 -27 -125 -69 -145l-8 9v3c43 21 52 58 57 124z" />
    <glyph glyph-name="quotedblbase" unicode="&#x201e;" horiz-adv-x="379" 
d="M275 2h-39v81h77v-72c0 -92 -27 -126 -68 -145l-8 11c41 25 33 57 38 125zM110 2h-37v81h77v-72c0 -95 -24 -120 -68 -145l-7 11c35 24 32 57 35 125z" />
    <glyph glyph-name="tilde" unicode="&#x2dc;" horiz-adv-x="360" 
d="M54 626h-40c13 61 47 92 97 92c24 0 113 -45 156 -45c32 0 50 9 59 46h36c-9 -61 -45 -92 -92 -92c-33 0 -120 48 -152 48c-33 0 -56 -14 -64 -49z" />
    <glyph glyph-name="ring" unicode="&#x2da;" horiz-adv-x="376" 
d="M134 625c0 -30 30 -57 65 -57c34 0 63 26 63 56c0 28 -29 54 -63 54c-35 0 -65 -24 -65 -53zM97 625c0 50 45 95 101 95c54 0 101 -45 101 -96c0 -54 -46 -99 -100 -99c-60 0 -102 46 -102 100z" />
    <glyph glyph-name="brokenbar" unicode="&#xa6;" horiz-adv-x="220" 
d="M98 717h37v-413h-37v413zM98 148h37v-411h-37v411z" />
    <glyph glyph-name="macron" unicode="&#xaf;" horiz-adv-x="598" 
d="M638 678h-649v42h649v-42z" />
    <glyph glyph-name="periodcentered" unicode="&#xb7;" horiz-adv-x="338" 
d="M216 169h-81v80h81v-80z" />
    <glyph glyph-name="uni10D0" unicode="&#x10d0;" horiz-adv-x="509" 
d="M449 260v-69c0 -123 -80 -195 -194 -195c-109 0 -195 73 -195 198v31c0 32 17 69 48 115c14 -6 27 -13 41 -20c-19 -35 -27 -65 -27 -95v-34c0 -92 30 -146 133 -146c92 0 131 56 131 146v69c0 76 -38 145 -101 207c-56 54 -97 130 -97 186v43h57v-43
c0 -56 34 -114 103 -176c66 -60 101 -134 101 -217z" />
    <glyph glyph-name="uni10D1" unicode="&#x10d1;" horiz-adv-x="509" 
d="M122 279v-85c0 -86 50 -149 132 -149c84 0 132 61 132 143v94c0 90 -57 150 -132 150c-83 0 -132 -60 -132 -153zM142 706h61c2 -62 110 -81 110 -136c0 -31 -6 -62 -22 -92c51 0 158 -81 158 -193v-103c0 -89 -83 -186 -195 -186c-114 0 -194 94 -194 187v102
c0 115 97 193 176 193c11 25 16 54 16 88c0 44 -108 58 -110 140z" />
    <glyph glyph-name="uni10D2" unicode="&#x10d2;" horiz-adv-x="573" 
d="M450 206v59c0 76 -66 153 -143 153h-32c-87 0 -153 -55 -153 -167v-45c0 -82 62 -161 163 -161c121 0 165 77 165 161zM513 266v-67c0 -100 -87 -203 -231 -203c-119 0 -222 103 -222 203v55c6 136 114 214 243 214c33 34 50 67 50 100c0 54 -26 87 -93 87
c-68 0 -98 -26 -98 -67v-58h-54v58c0 61 63 118 152 118c98 0 147 -57 147 -130c0 -37 -17 -75 -50 -112c40 -7 156 -78 156 -198z" />
    <glyph glyph-name="uni10D3" unicode="&#x10d3;" horiz-adv-x="758" 
d="M636 447v39c0 124 -33 169 -116 169c-85 0 -119 -38 -119 -167v-38c0 -123 35 -175 119 -175c83 0 116 54 116 172zM548 -5h-75c-4 43 -62 76 -174 97c-48 -1 -97 -16 -143 -47l-22 54c29 7 68 14 118 19c-129 98 -192 210 -192 335v66c0 100 60 187 181 187
c47 0 93 -23 138 -70c32 47 79 70 141 70c122 0 178 -90 178 -220v-41c0 -145 -60 -220 -178 -220c-112 0 -181 82 -181 224v35c0 29 7 69 20 118c-29 42 -63 53 -118 53c-77 0 -120 -50 -120 -136v-63c0 -129 55 -276 272 -343c102 -32 153 -69 155 -118z" />
    <glyph glyph-name="uni10D4" unicode="&#x10d4;" horiz-adv-x="525" 
d="M450 554v-400c0 -100 -80 -158 -195 -158c-114 0 -194 76 -194 168c0 52 9 97 28 141h58c-17 -43 -25 -89 -25 -142c0 -74 43 -118 133 -118c72 0 132 37 132 111v398c0 57 -42 101 -114 101c-67 0 -123 -37 -123 -102c0 -24 4 -52 11 -85h-50c-12 34 -17 62 -17 85
c0 91 74 153 173 153c106 0 183 -59 183 -152z" />
    <glyph glyph-name="uni10D5" unicode="&#x10d5;" horiz-adv-x="510" 
d="M450 235v-77c0 -85 -74 -162 -195 -162c-111 0 -194 70 -194 159v37c0 29 9 60 28 100h53c-13 -40 -20 -75 -20 -104v-27c0 -77 57 -116 133 -116c86 0 132 40 132 113v77c0 69 -26 108 -77 117h-61v50h61c46 0 69 43 69 128v22c0 67 -43 103 -118 103
c-77 0 -119 -55 -119 -90v-16c0 -18 2 -36 6 -56c-20 0 -36 -1 -56 -1c-8 19 -11 36 -11 54v22c0 77 92 138 180 138c116 0 179 -80 179 -150v-31c0 -61 -30 -111 -88 -149c64 -22 98 -68 98 -141z" />
    <glyph glyph-name="uni10D6" unicode="&#x10d6;" horiz-adv-x="561" 
d="M302 546v36c0 42 -47 73 -102 73c-63 0 -104 -24 -104 -75v-34c0 -55 43 -83 106 -83c62 0 100 39 100 83zM153 257v-56c0 -90 54 -156 143 -156c92 0 144 65 144 161v43c0 94 -52 154 -144 154c-82 0 -143 -43 -143 -146zM361 584v-24c0 -35 -24 -71 -74 -107
c141 0 214 -85 214 -185v-77c0 -119 -78 -195 -205 -195c-121 0 -202 74 -202 195v74c0 71 31 123 94 157c-100 12 -148 58 -148 140v22c0 66 55 122 158 122c108 0 163 -48 163 -122z" />
    <glyph glyph-name="uni10D7" unicode="&#x10d7;" horiz-adv-x="787" 
d="M378 249v277c0 80 -50 129 -130 129c-86 0 -127 -71 -127 -217v-166c0 -176 41 -227 127 -227c92 0 130 76 130 204zM727 443v-70c0 -165 -52 -295 -144 -377h-66c101 94 149 217 149 372v105c0 56 -9 102 -27 133v-1c-18 33 -57 50 -114 50c-44 0 -82 -16 -115 -48
c20 -26 29 -52 29 -81v-274c0 -152 -70 -256 -191 -256c-114 0 -188 81 -188 269v191c0 184 81 250 188 250c62 0 109 -22 145 -68c43 46 92 68 146 68c122 0 188 -72 188 -263z" />
    <glyph glyph-name="uni10D8" unicode="&#x10d8;" horiz-adv-x="509" 
d="M449 457v-76c0 -120 -26 -244 -77 -376h-68c54 130 82 256 82 373v79c0 138 -45 198 -131 198c-94 0 -133 -62 -133 -198v-79c0 -117 28 -243 84 -373h-67c-53 132 -79 256 -79 373v83c0 166 83 245 195 245c123 0 194 -79 194 -249z" />
    <glyph glyph-name="uni10D9" unicode="&#x10d9;" horiz-adv-x="509" 
d="M449 228v-46c0 -113 -83 -186 -195 -186c-110 0 -194 78 -194 156v42c0 39 11 74 28 100h53c-12 -39 -19 -76 -19 -109v-22c0 -63 53 -118 132 -118s132 41 132 137v46c0 40 -10 76 -31 106h1c-19 30 -46 45 -80 45h-91v51h88c58 0 95 34 95 92v35c0 55 -30 88 -90 98v50
c100 -25 152 -76 152 -149v-21c0 -64 -37 -106 -107 -130c84 -26 126 -85 126 -177z" />
    <glyph glyph-name="uni10DA" unicode="&#x10da;" horiz-adv-x="999" 
d="M939 537v-48c0 -84 -47 -167 -123 -234h-59c80 68 122 148 122 238v39c0 58 -47 118 -108 118c-64 0 -113 -24 -113 -134v-103h-56v102c0 100 -34 140 -101 140c-58 0 -103 -38 -103 -136v-106h-55v108c0 102 -38 129 -113 129c-63 0 -108 -51 -108 -153v-36
c0 -171 191 -305 389 -345c101 -21 171 -55 210 -110h-89c-57 48 -129 75 -219 75c-62 0 -124 -21 -168 -46c-13 16 -25 34 -37 50c35 10 82 20 141 30c-193 103 -289 220 -289 351v34c0 112 58 201 170 201c67 0 117 -35 146 -108c23 76 65 113 125 113s102 -35 127 -106
c29 67 77 101 142 101c92 0 169 -81 169 -164z" />
    <glyph glyph-name="uni10DB" unicode="&#x10db;" horiz-adv-x="524" 
d="M386 194v100c0 103 -55 147 -131 147c-69 0 -133 -59 -133 -149v-98c0 -98 55 -149 133 -149c72 0 131 47 131 149zM449 569v-387c0 -113 -88 -186 -194 -186c-112 0 -195 72 -195 198v98c0 109 87 198 196 198c60 0 104 -26 131 -79l5 1v157c0 47 -54 86 -129 86
c-78 0 -120 -31 -120 -68v-30h-61v30c0 60 86 119 182 119c90 0 185 -58 185 -137z" />
    <glyph glyph-name="uni10DC" unicode="&#x10dc;" horiz-adv-x="524" 
d="M403 192v105c0 95 -53 144 -133 144c-94 0 -134 -45 -134 -145v-110c0 -90 55 -141 133 -141c88 0 134 53 134 147zM464 301v-116c0 -122 -78 -189 -194 -189c-107 0 -195 69 -195 190v389c0 82 50 122 112 122c33 0 122 -22 155 -22c32 0 69 9 108 28v-40
c-39 -23 -76 -35 -115 -35c-34 0 -83 18 -125 18c-56 0 -81 -17 -81 -74v-165c41 56 88 83 140 83c113 0 195 -79 195 -189z" />
    <glyph glyph-name="uni10DD" unicode="&#x10dd;" horiz-adv-x="795" 
d="M674 405v45c0 131 -23 205 -121 205c-83 0 -124 -43 -124 -141v-257h-62v257c0 98 -40 141 -123 141c-90 0 -123 -72 -123 -210v-43c0 -150 58 -283 172 -396h-75c-103 106 -158 241 -158 394v45c0 147 46 261 184 261c72 0 123 -37 157 -111c28 74 78 111 152 111
c135 0 182 -117 182 -249v-57c0 -155 -53 -289 -153 -395h-76c113 111 168 244 168 400z" />
    <glyph glyph-name="uni10DE" unicode="&#x10de;" horiz-adv-x="510" 
d="M450 254v-53c0 -122 -74 -205 -195 -205c-96 0 -194 76 -194 169v53c0 21 8 44 28 74h51c-12 -36 -18 -63 -18 -85v-26c0 -66 52 -136 133 -136c94 0 132 57 132 163v44c0 70 -40 127 -102 127h-69v51h69c48 0 79 29 79 88v16c0 30 -34 52 -102 72c-64 18 -97 51 -98 100
h60c2 -34 37 -62 103 -77c66 -16 98 -46 98 -91v-21c0 -44 -29 -81 -89 -114c76 -38 114 -87 114 -149z" />
    <glyph glyph-name="uni10DF" unicode="&#x10df;" horiz-adv-x="524" 
d="M449 706v-540c0 -101 -84 -170 -190 -170c-118 0 -199 51 -199 165v21c0 13 2 30 10 51h58c-4 -23 -6 -41 -6 -50v-25c0 -75 70 -113 137 -113c79 0 127 56 127 125v484l-223 -48c69 -26 112 -63 112 -135c0 -107 -94 -138 -215 -138v50c106 1 160 19 160 80
c0 82 -57 126 -160 127v31z" />
    <glyph glyph-name="uni10E1" unicode="&#x10e1;" horiz-adv-x="524" 
d="M464 248v-43c0 -116 -77 -209 -195 -209c-111 0 -194 65 -194 216v494h61v-494c0 -106 46 -167 133 -167c84 0 134 69 134 168v26c0 46 -20 89 -60 129c-39 38 -58 74 -58 102s7 53 22 74c21 -7 42 -12 62 -17c-17 -18 -26 -36 -26 -57c0 -30 21 -65 61 -101
s60 -76 60 -121z" />
    <glyph glyph-name="uni10E3" unicode="&#x10e3;" horiz-adv-x="598" 
d="M523 607v-413c0 -126 -64 -198 -182 -198c-123 0 -204 71 -204 186v43c0 33 8 60 21 82h56c-10 -35 -15 -67 -15 -102v-24c0 -83 57 -136 142 -136c88 0 122 50 122 152v410c0 25 -30 51 -83 51c-48 0 -72 -17 -72 -51v-169h-46v169c0 34 -20 51 -60 51
c-18 0 -33 -8 -45 -26h1c-11 -15 -22 -23 -36 -23c-17 0 -43 15 -62 35v55c27 -21 50 -33 65 -33c24 0 43 37 70 37c42 0 71 -16 90 -49c34 33 69 49 99 49c68 0 139 -44 139 -96z" />
    <glyph glyph-name="uni10E4" unicode="&#x10e4;" horiz-adv-x="780" 
d="M367 466v33c0 108 -33 156 -123 156c-91 0 -123 -41 -123 -153v-36c0 -104 41 -145 123 -145c80 0 123 41 123 145zM709 196v-30c0 -107 -94 -170 -245 -170c-170 0 -252 44 -253 168h60c2 -106 102 -119 193 -119c120 0 183 40 183 121v25c0 81 -40 128 -93 128h-50v48
h50c43 0 105 30 105 128v43c0 79 -39 117 -121 117c-46 0 -89 -18 -130 -55c14 -31 21 -63 21 -95v-39c0 -115 -78 -196 -185 -196c-103 0 -184 82 -184 196v36c0 117 55 204 184 204c56 0 105 -25 147 -74c41 50 90 74 147 74c112 0 182 -77 182 -163v-43
c0 -82 -34 -127 -132 -155v-6c96 -18 121 -76 121 -143z" />
    <glyph glyph-name="uni10E5" unicode="&#x10e5;" horiz-adv-x="524" 
d="M449 706v-553c0 -96 -80 -157 -195 -157c-105 0 -194 60 -194 162v9c0 26 5 49 19 74h60c-11 -23 -17 -50 -17 -77v-11c0 -66 37 -108 132 -108c83 0 132 40 132 103v216c0 56 -83 153 -150 153s-91 -35 -91 -76c0 -15 3 -37 8 -61h-52c-8 23 -11 44 -11 61
c0 74 54 124 146 124c63 0 112 -41 156 -106v202h-95v45h152z" />
    <glyph glyph-name="uni10E6" unicode="&#x10e6;" horiz-adv-x="740" 
d="M680 533v-45c0 -76 -30 -155 -81 -222h-55c51 70 75 145 75 229v36c0 84 -35 124 -108 124c-69 0 -111 -7 -111 -164v-102h-61v102c0 154 -50 164 -109 164c-69 0 -109 -57 -109 -151v-38c0 -186 141 -317 283 -361c72 -22 113 -58 122 -110h-75c-22 51 -70 82 -141 82
c-46 0 -90 -13 -127 -40c-10 19 -17 35 -27 53c26 12 69 21 120 27c-144 94 -216 211 -216 349v38c0 98 59 202 168 202c67 0 113 -41 141 -124c25 83 72 124 141 124c106 0 170 -63 170 -173z" />
    <glyph glyph-name="uni10E7" unicode="&#x10e7;" horiz-adv-x="525" 
d="M450 696v-520c0 -118 -59 -180 -195 -180c-52 0 -98 13 -137 38v-1c-36 25 -58 66 -58 120c0 22 4 48 15 77h59c-8 -24 -12 -55 -12 -90c0 -51 55 -95 133 -95c88 0 132 30 132 140v210c-29 -51 -72 -76 -131 -76c-91 0 -181 72 -181 180v51c0 44 24 96 65 146h68
c-52 -63 -77 -115 -77 -159v-38c0 -71 59 -133 125 -133c90 0 131 61 131 127v203h63z" />
    <glyph glyph-name="uni10E8" unicode="&#x10e8;" horiz-adv-x="560" 
d="M425 194v71c0 104 -49 152 -143 152c-79 0 -143 -74 -143 -162v-52c0 -89 67 -158 142 -158c89 0 144 75 144 149zM485 547v-353c0 -116 -95 -198 -204 -198c-96 0 -204 76 -204 205v64c0 114 90 202 204 202c67 0 114 -26 142 -77l5 1v154c0 104 -22 116 -80 116
c-46 0 -71 -31 -71 -80v-22h-47v22c0 50 -18 80 -73 80c-43 0 -69 -19 -69 -58v-73h-48v73c0 55 49 103 98 103c40 0 89 -17 113 -76c34 63 73 76 105 76c87 0 129 -39 129 -159z" />
    <glyph glyph-name="uni10E9" unicode="&#x10e9;" horiz-adv-x="524" 
d="M366 521l-46 8c9 17 15 39 15 63c0 42 -37 63 -110 63c-61 0 -93 -25 -94 -76v-208c40 55 87 82 138 82c124 0 195 -68 195 -198v-31c0 -76 -34 -150 -94 -218h-76c75 68 109 139 109 221v28c0 84 -39 147 -134 148c-75 -2 -136 -56 -138 -130v-267h-56v580
c0 73 70 120 151 120c95 0 164 -43 164 -113c0 -25 -9 -50 -24 -72z" />
    <glyph glyph-name="uni10EB" unicode="&#x10eb;" horiz-adv-x="524" 
d="M386 191v101c0 74 -47 149 -132 149c-84 0 -132 -49 -132 -149v-104c0 -92 44 -143 132 -143c78 0 132 51 132 146zM449 706v-518c0 -110 -77 -192 -195 -192s-194 80 -194 200v100c0 107 51 194 194 194c45 0 90 -24 132 -72v288h63z" />
    <glyph glyph-name="uni10ED" unicode="&#x10ed;" horiz-adv-x="510" 
d="M239 354h-30c-25 0 -48 7 -69 20v-1c-20 13 -30 40 -30 79c0 69 51 95 99 95h75v114h-83v45h134v-159h90v-40h-90v-41c0 -81 19 -138 58 -169c38 -30 57 -66 57 -113v-12c0 -102 -75 -176 -195 -176c-114 0 -195 88 -195 187c0 31 10 61 23 85h54
c-10 -28 -14 -56 -14 -87c0 -63 48 -136 132 -136c83 0 132 45 132 127v16c0 34 -17 68 -52 102c-34 33 -51 91 -51 174v43h-78c-34 0 -49 -17 -49 -52c0 -40 16 -59 63 -59h19v-42z" />
    <glyph glyph-name="uni10EE" unicode="&#x10ee;" horiz-adv-x="524" 
d="M136 289v-101c0 -90 57 -143 133 -143c78 0 134 52 134 143v98c0 92 -50 155 -134 155c-82 0 -133 -48 -133 -152zM75 172v534h61v-289c46 49 91 73 133 73c135 0 195 -88 195 -191v-127c0 -92 -68 -176 -195 -176c-99 0 -194 77 -194 176z" />
    <glyph glyph-name="uni10EF" unicode="&#x10ef;" horiz-adv-x="510" 
d="M61 570v50l149 -20l14 106h50l-14 -110l170 -19v-51l-168 23c7 -81 40 -143 100 -186c58 -41 88 -92 88 -149v-36c0 -97 -73 -182 -195 -182c-103 0 -194 85 -194 179v42c0 33 8 67 22 100h56c-11 -44 -17 -78 -17 -100v-39c0 -81 59 -133 134 -133c80 0 131 42 131 132
v37c0 50 -28 98 -85 144c-54 44 -85 109 -92 193z" />
    <glyph glyph-name="uni10F0" unicode="&#x10f0;" horiz-adv-x="509" 
d="M449 158c0 -111 -79 -162 -195 -162c-126 0 -193 70 -194 215h62c0 -101 25 -166 132 -166c84 0 132 35 132 101c0 82 -27 120 -78 120h-79v48h79c41 0 65 14 65 72c0 42 -20 64 -79 64h-80v50h80c40 0 65 31 65 75c0 57 0 80 -231 80v46c227 0 291 -35 291 -123
c0 -40 -24 -75 -71 -104c56 -20 86 -48 86 -87c0 -45 -29 -78 -84 -101c65 -23 99 -65 99 -128z" />
    <glyph glyph-name="uni10FB" unicode="&#x10fb;" horiz-adv-x="397" 
d="M49 -25v78h77v-78h-77zM49 332v77h77v-77h-77zM271 152v77h77v-77h-77z" />
    <glyph glyph-name="Euro" unicode="&#x20ac;" horiz-adv-x="603" 
d="M509 292l-4 -21l-3 -14c0 -3 -117 -5 -350 -5c42 -187 167 -235 282 -235c57 0 107 11 150 33v-67c-43 -14 -94 -23 -140 -23c-167 14 -321 116 -366 292l-82 4c5 19 6 26 6 28v3l2 7h63v99h-71c0 5 2 32 8 38l68 4c40 177 197 274 374 290c57 -4 116 -16 160 -35
c-1 -20 -10 -44 -14 -63c-49 24 -99 39 -148 39c-149 0 -250 -84 -295 -231h392c-5 -20 -9 -22 -9 -42h-389v-99h369z" />
    <glyph glyph-name="uni2010" unicode="&#x2010;" horiz-adv-x="360" 
d="M356 186h-334v66h334v-66z" />
    <glyph glyph-name="uni2011" unicode="&#x2011;" horiz-adv-x="360" 
d="M356 186h-334v66h334v-66z" />
    <glyph glyph-name="figuredash" unicode="&#x2012;" horiz-adv-x="603" 
d="M632 237v-51h-632v51h632z" />
    <glyph glyph-name="quotereversed" unicode="&#x201b;" horiz-adv-x="241" 
d="M166 519l-7 -10c-69 34 -69 86 -69 145v69h72v-80h-54c1 -60 17 -104 58 -124z" />
    <glyph glyph-name="uni201F" unicode="&#x201f;" horiz-adv-x="360" 
d="M294 517l-7 -12c-67 43 -68 86 -68 146v71h72v-79h-56c3 -63 19 -106 59 -126zM140 517l-9 -12c-31 20 -69 40 -69 63c0 9 2 19 2 29c0 17 -2 35 -2 54v71h73v-79h-53c0 -61 21 -106 58 -126z" />
    <glyph glyph-name="uni2027" unicode="&#x2027;" horiz-adv-x="338" 
d="M216 248v-79h-81v79h81z" />
    <glyph glyph-name="afii00208" unicode="&#x2015;" horiz-adv-x="610" 
d="M605 237v-51h-569v51h569z" />
    <glyph glyph-name="uni10E0" unicode="&#x10e0;" horiz-adv-x="795" 
d="M735 308v-24c0 -106 -47 -200 -136 -278h-68c98 88 146 181 146 277v25c0 82 -60 138 -124 138c-68 0 -125 -48 -125 -147v-100h-61v100c0 101 -64 147 -123 147c-75 0 -123 -56 -123 -138v-28c0 -93 51 -186 146 -275h-76c-84 79 -131 176 -131 281v22
c0 214 136 398 499 398v-51c-190 0 -342 -53 -419 -191c46 17 81 26 104 26c73 0 123 -38 155 -114c39 76 90 114 154 114c97 0 182 -68 182 -182z" />
    <glyph glyph-name="uni10EC" unicode="&#x10ec;" horiz-adv-x="546" 
d="M122 265v-71c0 -74 53 -149 142 -149c77 0 144 71 144 158v52c0 87 -61 162 -145 162c-92 0 -141 -48 -141 -152zM60 194v353c0 120 45 159 130 159c32 0 71 -13 105 -76c27 59 73 76 113 76c49 0 98 -46 98 -103v-73h-46v73c0 39 -28 58 -70 58c-54 0 -74 -30 -74 -80
v-22h-48v22c0 49 -24 80 -69 80c-62 0 -81 -12 -81 -116v-154l5 -1c26 51 74 77 141 77c116 0 204 -89 204 -202v-64c0 -125 -103 -205 -204 -205c-105 0 -204 82 -204 198z" />
    <glyph glyph-name="uni10E2" unicode="&#x10e2;" horiz-adv-x="643" 
d="M583 381v-138c0 -142 -123 -247 -261 -247c-145 0 -262 103 -262 247v138c0 165 125 263 244 263l-28 62h87l-28 -62c133 0 248 -94 248 -263zM523 243v138c0 151 -60 224 -186 224l16 -312h-68l17 312c-110 0 -180 -73 -180 -224v-138c0 -107 73 -198 200 -198
c130 0 201 95 201 198z" />
    <glyph glyph-name="uni10EA" unicode="&#x10ea;" horiz-adv-x="577" 
d="M517 223v-17c0 -114 -94 -210 -223 -210c-141 0 -234 116 -234 247v180c0 112 25 208 66 273h56c-39 -77 -60 -168 -60 -273v-180c0 -103 80 -198 172 -198c88 0 161 68 161 161v15c0 75 -26 126 -95 126h-69v49h69c53 0 95 33 95 99c0 77 -143 101 -145 201h51
c1 -31 28 -62 79 -89c52 -28 77 -63 77 -110c0 -83 -50 -108 -115 -122v-6c91 -23 115 -71 115 -146z" />
    <glyph glyph-name="uni10F1" unicode="&#x10f1;" horiz-adv-x="509" 
d="M449 159c0 -104 -72 -163 -195 -163c-114 0 -194 66 -194 191v519h56v-522c1 -84 52 -139 139 -139c83 0 133 37 133 114c0 67 -22 103 -80 103h-50v46h50c53 0 80 28 80 73c0 33 -28 69 -95 69h-35v50h35c66 0 95 37 95 84c0 44 -38 70 -130 71v51
c115 0 191 -39 191 -121c0 -54 -33 -88 -95 -107v-6c62 -11 95 -40 95 -92c0 -51 -35 -84 -102 -97c67 -23 102 -63 102 -124z" />
    <glyph glyph-name="uni10F2" unicode="&#x10f2;" horiz-adv-x="509" 
d="M122 456v-177c0 -74 44 -139 133 -193c88 54 131 120 131 194v195c0 128 -44 180 -131 180c-81 0 -133 -49 -133 -199zM60 -26v49c64 0 119 15 163 45c-108 52 -163 123 -163 212v195c0 187 85 231 195 231c116 0 194 -49 194 -231v-195c0 -89 -53 -161 -157 -212
c36 -30 89 -44 157 -45v-49c-62 0 -126 24 -195 70c-76 -47 -139 -70 -194 -70z" />
    <glyph glyph-name="uni10F3" unicode="&#x10f3;" horiz-adv-x="509" 
d="M449 228v-46c0 -105 -73 -186 -195 -186c-103 0 -194 70 -194 156v42c0 35 22 69 65 103l31 -34c-22 -21 -34 -47 -34 -78v-22c0 -52 36 -118 132 -118c69 0 132 31 132 137v46c0 92 -54 156 -110 156h-91v51h88c60 0 113 74 113 211h-250v-83h-62v133h375v-76
c0 -91 -42 -160 -123 -211c81 -26 123 -86 123 -181z" />
    <glyph glyph-name="uni10F4" unicode="&#x10f4;" horiz-adv-x="509" 
d="M449 186v-28c0 -103 -76 -162 -194 -162c-124 0 -195 86 -195 176c0 35 18 68 52 103l39 -35c-19 -26 -29 -47 -29 -70c0 -70 54 -125 133 -125c96 0 131 53 131 107v35c0 63 -26 95 -98 95h-30v51h30c66 0 98 60 98 190c-56 -43 -113 -64 -169 -64
c-111 0 -157 51 -157 119c0 67 90 128 236 128v-51c-126 0 -174 -19 -174 -80c0 -43 25 -76 91 -76c60 0 137 35 236 110c0 -182 -40 -280 -119 -299c79 -27 119 -68 119 -124z" />
    <glyph glyph-name="uni10F5" unicode="&#x10f5;" horiz-adv-x="546" 
d="M506 256h-57v-104c0 -111 -96 -156 -194 -156c-122 0 -195 66 -195 156c0 75 61 156 195 156h131v81h-131c-135 0 -195 72 -195 153c0 89 74 164 195 164c107 0 194 -60 194 -168v-100h57v-49h-57v-81h57v-52zM122 542c0 -64 48 -104 122 -104h142v100
c0 76 -48 117 -131 117c-90 0 -133 -46 -133 -113zM386 152v104h-131c-102 0 -133 -41 -133 -107c0 -59 54 -104 133 -104c87 0 131 34 131 107z" />
    <glyph glyph-name="uni10F6" unicode="&#x10f6;" horiz-adv-x="724" 
d="M604 345v187c0 106 -49 128 -106 128c-82 0 -108 -29 -108 -125v-190c0 -102 52 -121 108 -123c84 1 106 47 106 123zM227 711c61 0 104 -27 136 -83c27 56 72 83 135 83c99 0 166 -38 166 -173v-193c0 -110 -75 -173 -165 -173c-40 0 -76 16 -109 49v-76
c0 -98 -63 -148 -189 -149v47c90 0 132 33 132 101v388c0 99 -30 128 -106 128c-70 0 -105 -27 -105 -122v-193c0 -107 55 -128 112 -128v-45c-93 0 -174 52 -174 173v190c0 109 50 176 167 176z" />
    <glyph glyph-name="afii10017" unicode="&#x410;" horiz-adv-x="492" 
d="M65 0h-57l202 644h65l216 -644h-63l-63 200h-240zM204 460l-64 -206h209l-61 195c-18 56 -31 104 -39 140l-16 -1c-8 -43 -17 -89 -29 -128z" />
    <glyph glyph-name="afii10018" unicode="&#x411;" horiz-adv-x="484" 
d="M67 0v644h335v-60h-281v-222h139c128 0 198 -49 198 -179c0 -126 -63 -183 -187 -183h-204zM121 305v-248h153c80 0 125 34 125 124c0 84 -29 124 -173 124h-105z" />
    <glyph glyph-name="afii10019" unicode="&#x412;" horiz-adv-x="492" 
d="M259 0h-197v644h194c105 0 172 -57 172 -160c0 -58 -32 -109 -88 -143c71 -26 114 -82 114 -158c0 -117 -61 -183 -195 -183zM115 584v-218h127c92 0 133 28 133 108c0 73 -28 110 -142 110h-118zM115 306v-246h144c98 0 138 39 138 123c0 79 -41 123 -147 123h-135z" />
    <glyph glyph-name="afii10020" unicode="&#x413;" horiz-adv-x="394" 
d="M65 0v645h312v-61h-257v-584h-55z" />
    <glyph glyph-name="afii10021" unicode="&#x414;" horiz-adv-x="500" 
d="M114 557v87h312v-584h49v-215h-47v155h-376v-155h-46v215h38c46 84 70 250 70 497zM372 60v524h-207v-42c0 -99 -12 -346 -51 -482h258z" />
    <glyph glyph-name="afii10022" unicode="&#x415;" horiz-adv-x="492" 
d="M453 0h-388v644h375v-60h-321v-221h300v-59h-300v-244h334v-60z" />
    <glyph glyph-name="afii10024" unicode="&#x416;" horiz-adv-x="681" 
d="M318 644h56v-290c91 0 99 26 140 141c45 127 51 149 165 149v-58h-22c-48 0 -66 -16 -96 -113c-38 -109 -43 -111 -106 -145c95 -32 160 -203 224 -328h-70l-88 175c-58 114 -79 135 -147 135v-310h-56v310c-79 0 -96 -36 -149 -135l-88 -175h-69l106 208
c32 63 73 104 119 120c-66 33 -74 43 -107 145c-34 104 -50 113 -98 113h-20v58c97 0 112 -2 165 -149c44 -125 51 -141 141 -141v290z" />
    <glyph glyph-name="afii10025" unicode="&#x417;" horiz-adv-x="446" 
d="M36 172l51 16c13 -64 64 -142 139 -142c78 0 132 57 132 131c0 39 -13 71 -39 94h1c-25 22 -59 34 -101 34h-25v58c81 3 142 28 142 117c0 58 -39 117 -111 117c-82 0 -126 -78 -130 -151l-50 14c17 131 77 196 181 196c101 0 163 -83 163 -172c0 -58 -27 -107 -81 -147
c74 -24 107 -81 107 -157c0 -110 -76 -191 -189 -191c-97 0 -160 60 -190 183z" />
    <glyph glyph-name="afii10026" unicode="&#x418;" horiz-adv-x="530" 
d="M65 0v644h47v-519l15 -4l289 523h57v-644h-47v519l-15 3l-289 -522h-57z" />
    <glyph glyph-name="afii10027" unicode="&#x419;" horiz-adv-x="530" 
d="M65 0v644h47v-519l15 -4l289 523h57v-644h-47v519l-15 3l-289 -522h-57zM352 806h27c-9 -67 -47 -99 -100 -99c-52 0 -89 32 -98 99h27c9 -40 32 -61 70 -61c41 0 64 18 74 61z" />
    <glyph glyph-name="afii10028" unicode="&#x41a;" horiz-adv-x="429" 
d="M65 0v644h54v-290c84 0 92 16 138 141c39 114 56 151 147 151c7 0 11 0 18 -1v-59h-22c-42 0 -62 -5 -97 -113c-36 -111 -42 -111 -107 -145c45 -15 87 -56 120 -120l105 -208h-69c-127 249 -154 310 -217 310l-16 -1v-309h-54z" />
    <glyph glyph-name="afii10029" unicode="&#x41b;" horiz-adv-x="484" 
d="M104 187v457h322v-644h-54v584h-214v-350c0 -170 -17 -245 -97 -245c-14 0 -29 2 -47 8l9 58c8 -3 16 -5 23 -5c33 0 58 10 58 137z" />
    <glyph glyph-name="afii10030" unicode="&#x41c;" horiz-adv-x="615" 
d="M112 0h-51v644h92l155 -584h14l158 584h81v-644h-51v607l-17 -57c-52 -183 -102 -366 -155 -550h-51l-175 617v-617z" />
    <glyph glyph-name="afii10031" unicode="&#x41d;" horiz-adv-x="533" 
d="M117 0h-54v644h54v-272h301v272h54v-644h-54v312h-301v-312z" />
    <glyph glyph-name="afii10032" unicode="&#x41e;" horiz-adv-x="574" 
d="M43 313c0 220 110 343 251 343c137 0 251 -122 251 -329c0 -204 -102 -338 -251 -338c-146 0 -251 142 -251 324zM99 312c0 -169 87 -266 194 -266c112 0 196 98 196 277c0 58 -10 111 -29 157h1c-27 68 -97 119 -166 119c-110 0 -196 -89 -196 -287z" />
    <glyph glyph-name="afii10033" unicode="&#x41f;" horiz-adv-x="533" 
d="M121 584v-584h-55v644h409v-644h-54v584h-300z" />
    <glyph glyph-name="afii10034" unicode="&#x420;" horiz-adv-x="492" 
d="M118 0h-54v644h196c141 0 200 -55 200 -181c0 -115 -50 -193 -194 -193h-148v-270zM118 584v-255h150c94 0 136 43 136 130c0 27 -5 52 -16 72v-1c-11 21 -24 35 -41 43h1c-16 7 -43 11 -82 11h-148z" />
    <glyph glyph-name="afii10035" unicode="&#x421;" horiz-adv-x="533" 
d="M447 212l55 -17c-32 -137 -111 -206 -219 -206c-48 0 -90 11 -124 35v-1c-70 48 -117 161 -117 304c0 211 106 329 245 329c98 0 175 -61 206 -178l-54 -16c-26 91 -76 137 -151 137c-111 0 -190 -85 -190 -272c0 -189 73 -281 184 -281c79 0 144 55 165 166z" />
    <glyph glyph-name="afii10036" unicode="&#x422;" horiz-adv-x="451" 
d="M257 0h-53v584h-180v60h413v-60h-180v-584z" />
    <glyph glyph-name="afii10037" unicode="&#x423;" horiz-adv-x="468" 
d="M230 167l-216 477h53l184 -420l160 420h52l-199 -502c-52 -130 -70 -151 -123 -151c-16 0 -38 5 -60 13v53c17 -10 33 -14 52 -14c39 0 61 13 97 124z" />
    <glyph glyph-name="afii10038" unicode="&#x424;" horiz-adv-x="561" 
d="M260 565v79h49v-79c146 -10 224 -107 224 -240c0 -131 -77 -230 -224 -240v-85h-49v85c-69 3 -122 26 -164 69h1c-41 43 -62 100 -62 171c0 72 21 128 62 171h-1c42 43 95 66 164 69zM309 508v-365c106 6 168 67 168 182c0 110 -57 175 -168 183zM260 143v365
c-53 -3 -95 -20 -125 -53v1c-29 -32 -44 -75 -44 -131c0 -112 63 -176 169 -182z" />
    <glyph glyph-name="afii10039" unicode="&#x425;" horiz-adv-x="492" 
d="M81 0h-65l205 336c-59 101 -121 206 -180 308h64l97 -165c20 -34 37 -67 50 -98c18 34 35 65 51 91l108 172h56l-185 -303l200 -341h-67l-135 231c-8 14 -23 44 -31 61l-34 -66z" />
    <glyph glyph-name="afii10040" unicode="&#x426;" horiz-adv-x="546" 
d="M64 0v644h54v-584h301v584h54v-584h49v-244h-45v184h-413z" />
    <glyph glyph-name="afii10041" unicode="&#x427;" horiz-adv-x="492" 
d="M434 644v-644h-54v272c-72 -33 -131 -49 -178 -49c-123 0 -164 93 -164 235v186h54v-177c0 -135 42 -186 120 -186c52 0 108 14 168 44v319h54z" />
    <glyph glyph-name="afii10042" unicode="&#x428;" horiz-adv-x="677" 
d="M63 0v644h55v-584h198v584h54v-584h199v584h53v-644h-559z" />
    <glyph glyph-name="afii10043" unicode="&#x429;" horiz-adv-x="692" 
d="M63 0v644h54v-584h198v584h55v-584h198v584h54v-584h49v-244h-46v184h-562z" />
    <glyph glyph-name="afii10044" unicode="&#x42a;" horiz-adv-x="584" 
d="M5 584v60h219v-283h139c126 0 199 -46 199 -179c0 -92 -40 -182 -194 -182h-198v584h-165zM224 304v-247h141c95 0 138 36 138 125s-41 122 -174 122h-105z" />
    <glyph glyph-name="afii10045" unicode="&#x42b;" horiz-adv-x="689" 
d="M65 0v644h54v-283h138c128 0 200 -47 200 -178c0 -92 -40 -183 -194 -183h-198zM119 304v-247h140c95 0 138 36 138 126c0 89 -40 121 -173 121h-105zM629 0h-54v644h54v-644z" />
    <glyph glyph-name="afii10046" unicode="&#x42c;" horiz-adv-x="484" 
d="M66 0v644h54v-283h139c125 0 199 -46 199 -178c0 -93 -39 -183 -194 -183h-198zM120 304v-247h141c95 0 137 36 137 126c0 81 -30 121 -172 121h-106z" />
    <glyph glyph-name="afii10047" unicode="&#x42d;" horiz-adv-x="530" 
d="M238 303v60h199c-16 162 -86 234 -184 234c-79 0 -131 -46 -154 -137l-53 18c29 116 105 178 207 178c155 0 243 -153 243 -327c0 -182 -77 -340 -239 -340c-116 0 -189 69 -218 204c20 6 32 11 51 16c28 -128 90 -165 170 -165c52 0 94 23 127 70v-1
c32 46 50 109 52 190h-201z" />
    <glyph glyph-name="afii10048" unicode="&#x42e;" horiz-adv-x="745" 
d="M64 0v644h54v-297h123c10 192 106 309 236 309c128 0 237 -119 237 -330c0 -205 -96 -337 -239 -337c-141 0 -218 124 -233 299h-124v-288h-54zM295 319c0 -172 73 -273 181 -273c112 0 182 101 182 278s-73 276 -180 276c-109 0 -183 -100 -183 -281z" />
    <glyph glyph-name="afii10049" unicode="&#x42f;" horiz-adv-x="533" 
d="M477 0h-54v294h-92h-19c-45 0 -72 -9 -151 -161l-69 -133h-70l88 167c28 53 36 79 120 130c-110 19 -169 81 -169 176c0 112 50 171 184 171h232v-644zM423 352v237h-181c-83 0 -125 -44 -125 -117c0 -80 48 -120 142 -120h164z" />
    <glyph glyph-name="afii10065" unicode="&#x430;" 
d="M314 51l-16 6c-43 -45 -90 -68 -139 -68c-77 0 -127 49 -127 129c0 156 165 129 277 174v27c0 84 -42 109 -104 109c-63 0 -95 -21 -112 -91l-48 8c19 92 71 133 170 133c122 0 143 -58 143 -174v-110c0 -143 1 -154 17 -194h-50c-5 15 -9 33 -11 51zM309 204v45
c-48 -23 -151 -37 -184 -55v1c-25 -14 -40 -41 -40 -74c0 -52 34 -86 90 -86c78 0 134 51 134 169z" />
    <glyph glyph-name="afii10066" unicode="&#x431;" horiz-adv-x="423" 
d="M343 667h45c-7 -71 -22 -81 -128 -81c-147 0 -178 -53 -181 -206l15 -5c33 62 76 92 130 92c101 0 172 -95 172 -234c0 -131 -62 -244 -174 -244c-101 0 -183 46 -183 342c0 128 18 214 51 257v-1c35 43 87 64 158 64c83 0 86 1 95 16zM344 235c0 57 -11 100 -34 132h1
c-22 33 -52 50 -89 50c-78 0 -125 -72 -125 -197c0 -120 55 -183 126 -183c69 0 121 78 121 198z" />
    <glyph glyph-name="afii10067" unicode="&#x432;" horiz-adv-x="392" 
d="M56 0v467h146c77 0 144 -21 144 -120c0 -43 -19 -78 -56 -105c49 -22 74 -60 74 -116c0 -69 -36 -126 -138 -126h-170zM104 417v-154h82c68 0 110 14 110 77c0 58 -30 77 -108 77h-84zM104 213v-164h99c82 0 110 27 110 81c0 57 -27 83 -117 83h-92z" />
    <glyph glyph-name="afii10068" unicode="&#x433;" horiz-adv-x="270" 
d="M57 0v467h211v-50h-162v-417h-49z" />
    <glyph glyph-name="afii10069" unicode="&#x434;" horiz-adv-x="430" 
d="M109 467h259v-418h43v-187h-37v138h-332v-138h-37v187h32c48 80 72 221 72 418zM319 417h-172c-5 -162 -26 -285 -65 -368h237v368z" />
    <glyph glyph-name="afii10070" unicode="&#x435;" 
d="M324 137l51 -8c-23 -92 -81 -140 -164 -140c-53 0 -96 21 -130 61h1c-33 41 -50 101 -50 179c0 164 76 249 176 249c98 0 172 -84 172 -244v-12h-298c6 -128 61 -184 130 -184c54 0 90 33 112 99zM86 271h242c-9 110 -55 157 -120 157s-116 -56 -122 -157z" />
    <glyph glyph-name="afii10072" unicode="&#x436;" horiz-adv-x="494" 
d="M227 467h50v-210c63 0 65 10 101 109c33 92 33 101 107 101l1 -50h-11c-31 0 -44 -7 -55 -43c-31 -97 -24 -98 -92 -136c40 -13 74 -49 100 -101l67 -137h-53l-70 145c-31 63 -49 79 -95 79v-224h-50v224c-45 0 -64 -11 -96 -79l-69 -145h-54l68 137c26 53 61 88 99 100
c-67 40 -61 41 -92 137c-11 33 -22 43 -55 43h-10l1 50c50 0 63 -7 78 -30c65 -141 44 -180 130 -180v210z" />
    <glyph glyph-name="afii10073" unicode="&#x437;" horiz-adv-x="338" 
d="M157 220l-12 -1v47c62 0 101 16 101 80c0 51 -31 82 -74 82c-41 0 -69 -27 -87 -80l-46 10c21 80 65 120 134 120c78 0 126 -63 126 -135c0 -35 -18 -67 -53 -95c44 -30 66 -70 66 -122c0 -83 -52 -137 -139 -137c-83 0 -132 44 -148 132l46 11c17 -60 54 -95 103 -95
c53 0 88 42 88 92c0 22 -5 41 -15 56v-1c-23 31 -38 36 -90 36z" />
    <glyph glyph-name="afii10074" unicode="&#x438;" horiz-adv-x="413" 
d="M56 0v467h48v-365l16 -4l187 369h57v-467h-49v362l-15 4l-187 -366h-57z" />
    <glyph glyph-name="afii10075" unicode="&#x439;" 
d="M56 0v467h48v-365l16 -4l187 369h57v-467h-49v362l-15 4l-187 -366h-57zM280 650h28c-9 -67 -47 -100 -100 -100c-54 0 -92 33 -101 100h28c10 -41 33 -62 71 -62c41 0 64 19 74 62z" />
    <glyph glyph-name="afii10076" unicode="&#x43a;" horiz-adv-x="323" 
d="M56 0v467h48v-210c30 0 52 6 62 18s57 144 71 165h-1c17 23 29 27 77 27l1 -50h-11c-33 0 -45 -11 -55 -43c-31 -97 -26 -101 -92 -136c39 -13 73 -49 100 -101l67 -137h-53l-70 145c-30 62 -48 79 -96 79v-224h-48z" />
    <glyph glyph-name="afii10077" unicode="&#x43b;" horiz-adv-x="430" 
d="M88 156v311h296v-467h-50v417h-196v-251c0 -124 -2 -169 -79 -169c-14 0 -29 1 -45 2v51c27 1 44 3 49 5c17 4 25 1 25 101z" />
    <glyph glyph-name="afii10078" unicode="&#x43c;" horiz-adv-x="507" 
d="M57 0v467h89l111 -412l123 412h81v-467h-50v384l-16 2l-117 -386h-47l-109 405l-18 -3v-402h-47z" />
    <glyph glyph-name="afii10079" unicode="&#x43d;" horiz-adv-x="407" 
d="M56 0v467h48v-202h206v202h49v-467h-49v215h-206v-215h-48z" />
    <glyph glyph-name="afii10080" unicode="&#x43e;" 
d="M29 233c0 161 75 245 178 245c98 0 177 -83 177 -240c0 -170 -77 -249 -177 -249s-178 83 -178 244zM80 233c0 -132 57 -195 128 -195c70 0 125 69 125 195c0 132 -58 195 -128 195c-69 0 -125 -66 -125 -195z" />
    <glyph glyph-name="afii10081" unicode="&#x43f;" horiz-adv-x="400" 
d="M56 0v467h296v-467h-49v417h-198v-417h-49z" />
    <glyph glyph-name="afii10082" unicode="&#x440;" 
d="M103 -186h-49v653h44v-88c41 70 79 99 124 99c86 0 159 -82 159 -238c0 -161 -76 -251 -164 -251c-39 0 -79 31 -114 82v-257zM97 230c0 -129 51 -192 116 -192c61 0 118 64 118 198c0 132 -54 196 -118 196c-30 0 -57 -18 -82 -54h1c-24 -34 -35 -84 -35 -148z" />
    <glyph glyph-name="afii10083" unicode="&#x441;" horiz-adv-x="369" 
d="M314 158l48 -8c-17 -107 -80 -161 -157 -161c-98 0 -170 80 -170 245c0 162 72 244 173 244c75 0 130 -45 146 -138l-46 -8c-16 65 -51 96 -98 96c-69 0 -125 -57 -125 -193s51 -197 121 -197c55 0 97 35 108 120z" />
    <glyph glyph-name="afii10084" unicode="&#x442;" horiz-adv-x="338" 
d="M20 417v50h305v-50h-128v-417h-50v417h-127z" />
    <glyph glyph-name="afii10085" unicode="&#x443;" horiz-adv-x="369" 
d="M52 -190l-5 59c10 -3 20 -4 28 -4c54 0 57 8 94 125l-148 477h53l82 -275c10 -35 20 -75 29 -115h16c8 41 17 78 28 113l83 277h49l-148 -482c-48 -155 -70 -182 -126 -182c-10 0 -22 2 -35 7z" />
    <glyph glyph-name="afii10086" unicode="&#x444;" horiz-adv-x="607" 
d="M285 398v253h50v-251c37 52 73 78 109 78c84 0 144 -99 144 -244c0 -141 -62 -245 -147 -245c-33 0 -69 23 -106 70v-245h-50v246c-36 -47 -72 -71 -107 -71c-85 0 -146 104 -146 249c0 164 73 240 146 240c37 0 72 -27 107 -80zM334 226c0 -125 33 -189 97 -189
c60 0 107 68 107 200c0 131 -45 192 -105 192c-66 0 -99 -68 -99 -203zM82 234c0 -141 49 -196 107 -196c64 0 97 64 97 189c0 134 -34 201 -101 201c-57 0 -103 -59 -103 -194z" />
    <glyph glyph-name="afii10087" unicode="&#x445;" horiz-adv-x="369" 
d="M78 0h-60l140 243l-130 224h63l94 -179l103 179h59l-131 -219l142 -248h-61c-29 50 -53 96 -79 146l-30 56c-33 -62 -76 -139 -110 -202z" />
    <glyph glyph-name="afii10088" unicode="&#x446;" horiz-adv-x="423" 
d="M56 0v467h49v-418h205v418h49v-418h44v-235h-37v186h-310z" />
    <glyph glyph-name="afii10089" unicode="&#x447;" horiz-adv-x="384" 
d="M31 349v118h49v-83c0 -103 17 -162 98 -162c28 0 64 9 109 28v217h49v-467h-49v200c-49 -19 -91 -28 -126 -28c-76 0 -130 60 -130 177z" />
    <glyph glyph-name="afii10090" unicode="&#x448;" horiz-adv-x="592" 
d="M56 0v467h49v-417h172v417h50v-417h172v417h48v-467h-491z" />
    <glyph glyph-name="afii10091" unicode="&#x449;" horiz-adv-x="607" 
d="M55 0v467h49v-418h172v418h50v-418h172v418h48v-418h45v-235h-37v186h-499z" />
    <glyph glyph-name="afii10092" unicode="&#x44a;" horiz-adv-x="461" 
d="M5 417v50h174v-190h95c97 0 164 -45 164 -139c0 -73 -42 -138 -148 -138h-160v417h-125zM179 227v-179h80c109 0 128 45 128 90c0 57 -32 89 -118 89h-90z" />
    <glyph glyph-name="afii10093" unicode="&#x44b;" horiz-adv-x="549" 
d="M53 0v467h49v-190h95c120 0 164 -65 164 -139c0 -70 -41 -138 -148 -138h-160zM102 227v-178h80c111 0 128 46 128 89c0 55 -30 89 -119 89h-89zM496 0h-49v467h49v-467z" />
    <glyph glyph-name="afii10094" unicode="&#x44c;" horiz-adv-x="384" 
d="M55 0v467h48v-190h95c120 0 164 -65 164 -139c0 -69 -40 -138 -148 -138h-159zM103 227v-178h80c111 0 129 47 129 89c0 55 -33 89 -120 89h-89z" />
    <glyph glyph-name="afii10095" unicode="&#x44d;" horiz-adv-x="376" 
d="M160 214v50h141c-10 96 -50 164 -119 164c-55 0 -89 -32 -102 -97l-48 9c12 80 66 138 148 138c104 0 171 -93 171 -245c0 -147 -66 -244 -164 -244c-94 0 -146 68 -162 161c19 2 31 5 48 8c12 -79 49 -120 109 -120c70 0 110 59 119 176h-141z" />
    <glyph glyph-name="afii10096" unicode="&#x44e;" horiz-adv-x="553" 
d="M55 0v467h49v-203h99c13 142 68 214 163 214c100 0 163 -92 163 -243c0 -156 -59 -246 -164 -246c-96 0 -152 81 -162 225h-99v-214h-49zM367 426c-73 0 -114 -68 -114 -185c0 -138 43 -203 111 -203c60 0 115 47 115 192c0 130 -38 196 -112 196z" />
    <glyph glyph-name="afii10097" unicode="&#x44f;" horiz-adv-x="400" 
d="M176 467h175v-467h-49v189h-48c-75 0 -95 -57 -169 -189h-61l65 117c21 37 42 59 63 65v16c-81 15 -109 73 -109 136c0 83 50 133 133 133zM302 238v179h-105c-85 0 -104 -40 -104 -85c0 -62 30 -94 126 -94h83z" />
    <glyph glyph-name="afii10023" unicode="&#x401;" horiz-adv-x="492" 
d="M453 0h-388v644h375v-60h-321v-221h300v-59h-300v-244h334v-60zM209 742h-51v74h51v-74zM348 742h-52v74h52v-74z" />
    <glyph glyph-name="afii10071" unicode="&#x451;" 
d="M324 137l51 -8c-23 -92 -81 -140 -164 -140c-53 0 -96 21 -130 61h1c-33 41 -50 101 -50 179c0 164 76 249 176 249c98 0 172 -84 172 -244v-12h-298c6 -128 61 -184 130 -184c54 0 90 33 112 99zM86 271h242c-9 110 -55 157 -120 157s-116 -56 -122 -157zM166 580h-52
v75h52v-75zM306 580h-53v75h53v-75z" />
    <glyph glyph-name="Agrave" unicode="&#xc0;" horiz-adv-x="492" 
d="M65 0h-57l202 644h65l216 -644h-63l-63 200h-240zM204 460l-64 -206h209l-61 195c-18 56 -31 104 -39 140l-16 -1c-8 -43 -17 -89 -29 -128zM236 816l43 -108h-36l-103 108h96z" />
    <glyph glyph-name="Aacute" unicode="&#xc1;" horiz-adv-x="492" 
d="M65 0h-57l202 644h65l216 -644h-63l-63 200h-240zM204 460l-64 -206h209l-61 195c-18 56 -31 104 -39 140l-16 -1c-8 -43 -17 -89 -29 -128zM223 708h-36c15 41 26 67 42 108h64z" />
    <glyph glyph-name="Acircumflex" unicode="&#xc2;" horiz-adv-x="492" 
d="M65 0h-57l202 644h65l216 -644h-63l-63 200h-240zM204 460l-64 -206h209l-61 195c-18 56 -31 104 -39 140l-16 -1c-8 -43 -17 -89 -29 -128zM289 708l-46 87l-47 -87h-54l68 108h61l72 -108h-54z" />
    <glyph glyph-name="Atilde" unicode="&#xc3;" horiz-adv-x="492" 
d="M65 0h-57l202 644h65l216 -644h-63l-63 200h-240zM204 460l-64 -206h209l-61 195c-18 56 -31 104 -39 140l-16 -1c-8 -43 -17 -89 -29 -128zM155 708h-32c2 50 29 85 66 85c21 0 74 -38 98 -38c18 0 29 14 35 39h31c-4 -57 -30 -85 -64 -85c-19 0 -76 42 -98 42
c-19 0 -34 -14 -36 -43z" />
    <glyph glyph-name="Adieresis" unicode="&#xc4;" horiz-adv-x="492" 
d="M65 0h-57l202 644h65l216 -644h-63l-63 200h-240zM204 460l-64 -206h209l-61 195c-18 56 -31 104 -39 140l-16 -1c-8 -43 -17 -89 -29 -128zM197 742h-51v74h51v-74zM335 742h-51v74h51v-74z" />
    <glyph glyph-name="Aring" unicode="&#xc5;" horiz-adv-x="492" 
d="M65 0h-57l202 644h65l216 -644h-63l-63 200h-240zM204 460l-64 -206h209l-61 195c-18 56 -31 104 -39 140l-16 -1c-8 -43 -17 -89 -29 -128zM192 763c0 39 28 72 58 72c33 0 58 -33 58 -74s-27 -74 -58 -74c-29 0 -58 33 -58 76zM203 762c0 -34 23 -58 48 -58
c24 0 48 24 48 58c0 33 -23 58 -48 58c-26 0 -48 -26 -48 -58z" />
    <glyph glyph-name="AE" unicode="&#xc6;" horiz-adv-x="738" 
d="M67 0h-58c85 219 168 425 254 644h430v-60h-273v-222h254v-59h-254v-243h284v-60h-337v191h-226zM297 584l-132 -333h202v333h-70z" />
    <glyph glyph-name="Ccedilla" unicode="&#xc7;" horiz-adv-x="533" 
d="M236 -70l15 61c-35 4 -66 14 -92 33v-1c-70 48 -117 161 -117 304c0 211 106 329 245 329c98 0 175 -61 206 -178l-54 -16c-26 91 -76 137 -151 137c-111 0 -190 -85 -190 -272c0 -189 73 -281 184 -281c79 0 144 55 165 166l55 -17c-32 -137 -111 -206 -219 -206
l-13 -44c43 -6 66 -30 66 -60c0 -42 -38 -75 -96 -75c-17 0 -32 1 -45 3c0 14 2 25 3 36l28 -1h6c42 0 60 20 60 43s-13 36 -56 39z" />
    <glyph glyph-name="Egrave" unicode="&#xc8;" horiz-adv-x="492" 
d="M453 0h-388v644h375v-60h-321v-221h300v-59h-300v-244h334v-60zM235 816l43 -108h-35l-74 108h66z" />
    <glyph glyph-name="Eacute" unicode="&#xc9;" horiz-adv-x="492" 
d="M453 0h-388v644h375v-60h-321v-221h300v-59h-300v-244h334v-60zM255 708h-37l43 108h64z" />
    <glyph glyph-name="Ecircumflex" unicode="&#xca;" horiz-adv-x="492" 
d="M453 0h-388v644h375v-60h-321v-221h300v-59h-300v-244h334v-60zM301 708l-46 87l-47 -87h-54l68 108h62l71 -108h-54z" />
    <glyph glyph-name="Edieresis" unicode="&#xcb;" horiz-adv-x="492" 
d="M453 0h-388v644h375v-60h-321v-221h300v-59h-300v-244h334v-60zM208 742h-52v74h52v-74zM346 742h-52v74h52v-74z" />
    <glyph glyph-name="Igrave" unicode="&#xcc;" horiz-adv-x="205" 
d="M134 0h-54v644h54v-644zM104 816l43 -108h-36l-31 108h24z" />
    <glyph glyph-name="Iacute" unicode="&#xcd;" horiz-adv-x="205" 
d="M133 0h-53v644h53v-644zM116 708h-37c16 41 27 67 42 108h65z" />
    <glyph glyph-name="Icircumflex" unicode="&#xce;" horiz-adv-x="205" 
d="M134 0h-54v644h54v-644zM151 708l-46 87l-46 -87h-55l68 108h62l72 -108h-55z" />
    <glyph glyph-name="Idieresis" unicode="&#xcf;" horiz-adv-x="205" 
d="M134 0h-54v644h54v-644zM63 742h-51v74h68zM202 742h-52v74h52v-74z" />
    <glyph glyph-name="Eth" unicode="&#xd0;" horiz-adv-x="533" 
d="M250 0h-188v301h-59v42h59v301h179c156 0 253 -82 253 -319c0 -217 -76 -325 -244 -325zM116 301v-241h125c151 0 196 98 196 266c0 187 -57 258 -198 258h-123v-241h150v-42h-150z" />
    <glyph glyph-name="Ntilde" unicode="&#xd1;" horiz-adv-x="533" 
d="M113 0h-51v644h59l285 -519l15 4v515h51v-644h-59l-285 520l-15 -4v-516zM189 708h-32c2 51 30 85 66 85c22 0 74 -38 98 -38c19 0 30 14 35 39h31c-4 -57 -30 -85 -64 -85c-17 0 -78 42 -97 42s-35 -14 -37 -43z" />
    <glyph glyph-name="Ograve" unicode="&#xd2;" horiz-adv-x="574" 
d="M43 313c0 220 110 343 251 343c137 0 251 -122 251 -329c0 -204 -102 -338 -251 -338c-146 0 -251 142 -251 324zM99 312c0 -169 87 -266 194 -266c112 0 196 98 196 277c0 58 -10 111 -29 157h1c-27 68 -97 119 -166 119c-110 0 -196 -89 -196 -287zM287 816l43 -108
h-36l-73 108h66z" />
    <glyph glyph-name="Oacute" unicode="&#xd3;" horiz-adv-x="574" 
d="M43 313c0 220 110 343 251 343c137 0 251 -122 251 -329c0 -204 -102 -338 -251 -338c-146 0 -251 142 -251 324zM99 312c0 -169 87 -266 194 -266c112 0 196 98 196 277c0 58 -10 111 -29 157h1c-27 68 -97 119 -166 119c-110 0 -196 -89 -196 -287zM281 708h-37l43 108
h64z" />
    <glyph glyph-name="Ocircumflex" unicode="&#xd4;" horiz-adv-x="574" 
d="M43 313c0 220 110 343 251 343c137 0 251 -122 251 -329c0 -204 -102 -338 -251 -338c-146 0 -251 142 -251 324zM99 312c0 -169 87 -266 194 -266c112 0 196 98 196 277c0 58 -10 111 -29 157h1c-27 68 -97 119 -166 119c-110 0 -196 -89 -196 -287zM340 708l-46 87
l-47 -87h-54l68 108h62l71 -108h-54z" />
    <glyph glyph-name="Otilde" unicode="&#xd5;" horiz-adv-x="574" 
d="M43 313c0 220 110 343 251 343c137 0 251 -122 251 -329c0 -204 -102 -338 -251 -338c-146 0 -251 142 -251 324zM99 312c0 -169 87 -266 194 -266c112 0 196 98 196 277c0 58 -10 111 -29 157h1c-27 68 -97 119 -166 119c-110 0 -196 -89 -196 -287zM208 708h-31
c2 52 29 85 66 85c20 0 75 -38 97 -38c19 0 30 14 35 39h31c-4 -57 -30 -85 -64 -85c-17 0 -76 42 -97 42c-19 0 -34 -14 -37 -43z" />
    <glyph glyph-name="Odieresis" unicode="&#xd6;" horiz-adv-x="574" 
d="M43 313c0 220 110 343 251 343c137 0 251 -122 251 -329c0 -204 -102 -338 -251 -338c-146 0 -251 142 -251 324zM99 312c0 -169 87 -266 194 -266c112 0 196 98 196 277c0 58 -10 111 -29 157h1c-27 68 -97 119 -166 119c-110 0 -196 -89 -196 -287zM243 742h-52v74h52
v-74zM381 742h-52v74h52v-74z" />
    <glyph glyph-name="multiply" unicode="&#xd7;" horiz-adv-x="431" 
d="M100 137l-33 41l119 144l-118 143l34 41l117 -143l117 142l33 -40l-117 -143l118 -144l-34 -41l-118 143z" />
    <glyph glyph-name="Oslash" unicode="&#xd8;" horiz-adv-x="574" 
d="M462 579l62 85l24 -25l-65 -88c49 -90 60 -135 60 -228c0 -210 -111 -334 -248 -334c-31 0 -59 4 -84 14v-1c-24 11 -52 31 -85 61c-19 -26 -42 -58 -62 -84l-24 23l64 88c-54 106 -62 140 -62 229c0 216 114 337 252 337c58 0 102 -15 168 -77zM138 136l290 397
c-55 54 -86 66 -134 66c-109 0 -196 -90 -196 -278c0 -74 2 -95 40 -185zM449 503l-289 -395c44 -45 84 -62 132 -62c109 0 195 95 195 274c0 63 -13 124 -38 183z" />
    <glyph glyph-name="Ugrave" unicode="&#xd9;" horiz-adv-x="533" 
d="M419 271v373h54v-373c0 -176 -46 -282 -204 -282c-138 0 -206 69 -206 282v373h54v-373c0 -160 41 -221 147 -221c104 0 155 45 155 221zM258 816l43 -108h-36l-73 108h66z" />
    <glyph glyph-name="Uacute" unicode="&#xda;" horiz-adv-x="533" 
d="M419 271v373h54v-373c0 -176 -46 -282 -204 -282c-138 0 -206 69 -206 282v373h54v-373c0 -160 41 -221 147 -221c104 0 155 45 155 221zM261 708h-37l42 108h65z" />
    <glyph glyph-name="Ucircumflex" unicode="&#xdb;" horiz-adv-x="533" 
d="M419 271v373h54v-373c0 -176 -46 -282 -204 -282c-138 0 -206 69 -206 282v373h54v-373c0 -160 41 -221 147 -221c104 0 155 45 155 221zM315 708l-45 87l-47 -87h-55l68 108h62l72 -108h-55z" />
    <glyph glyph-name="Udieresis" unicode="&#xdc;" horiz-adv-x="533" 
d="M419 271v373h54v-373c0 -176 -46 -282 -204 -282c-138 0 -206 69 -206 282v373h54v-373c0 -160 41 -221 147 -221c104 0 155 45 155 221zM220 742h-51v74h51v-74zM358 742h-51v74h51v-74z" />
    <glyph glyph-name="Yacute" unicode="&#xdd;" horiz-adv-x="492" 
d="M271 0h-54v274l-202 370h66l104 -195c21 -39 48 -94 64 -129c15 34 43 90 67 134l102 190h63l-210 -370v-274zM234 708h-37l42 108h64z" />
    <glyph glyph-name="Thorn" unicode="&#xde;" horiz-adv-x="492" 
d="M118 0h-54v644h54v-134h142c134 0 201 -53 201 -182c0 -57 -15 -104 -44 -141v1c-28 -36 -79 -54 -151 -54h-148v-134zM118 450v-255h150c94 0 136 43 136 129c0 53 -23 99 -57 113h1c-15 9 -43 13 -82 13h-148z" />
    <glyph glyph-name="germandbls" unicode="&#xdf;" horiz-adv-x="451" 
d="M112 0h-49v447c0 144 49 216 151 216c74 0 129 -54 129 -121c0 -15 -2 -30 -6 -45c-11 -45 -50 -122 -50 -142c0 -13 3 -25 11 -38v1c5 -9 20 -24 46 -44h-1c75 -61 89 -86 89 -140c0 -43 -13 -78 -38 -106v1c-25 -27 -55 -40 -89 -40c-54 0 -100 34 -125 96l42 24
c24 -47 50 -71 80 -71c44 0 79 40 79 88c0 37 -8 49 -57 91c-69 58 -89 84 -89 125c0 49 61 156 61 191c0 41 -34 80 -84 80c-63 0 -100 -34 -100 -170v-443z" />
    <glyph glyph-name="agrave" unicode="&#xe0;" 
d="M314 51l-16 6c-43 -45 -90 -68 -139 -68c-77 0 -127 49 -127 129c0 156 165 129 277 174v27c0 84 -42 109 -104 109c-63 0 -95 -21 -112 -91l-48 8c19 92 71 133 170 133c122 0 143 -58 143 -174v-110c0 -143 1 -154 17 -194h-50c-5 15 -9 33 -11 51zM309 204v45
c-48 -23 -151 -37 -184 -55v1c-25 -14 -40 -41 -40 -74c0 -52 34 -86 90 -86c78 0 134 51 134 169zM198 655l44 -110h-36l-74 110h66z" />
    <glyph glyph-name="aacute" unicode="&#xe1;" 
d="M314 51l-16 6c-43 -45 -90 -68 -139 -68c-77 0 -127 49 -127 129c0 156 165 129 277 174v27c0 84 -42 109 -104 109c-63 0 -95 -21 -112 -91l-48 8c19 92 71 133 170 133c122 0 143 -58 143 -174v-110c0 -143 1 -154 17 -194h-50c-5 15 -9 33 -11 51zM309 204v45
c-48 -23 -151 -37 -184 -55v1c-25 -14 -40 -41 -40 -74c0 -52 34 -86 90 -86c78 0 134 51 134 169zM208 545h-38c17 41 27 69 43 110h65z" />
    <glyph glyph-name="acircumflex" unicode="&#xe2;" 
d="M314 51l-16 6c-43 -45 -90 -68 -139 -68c-77 0 -127 49 -127 129c0 156 165 129 277 174v27c0 84 -42 109 -104 109c-63 0 -95 -21 -112 -91l-48 8c19 92 71 133 170 133c122 0 143 -58 143 -174v-110c0 -143 1 -154 17 -194h-50c-5 15 -9 33 -11 51zM309 204v45
c-48 -23 -151 -37 -184 -55v1c-25 -14 -40 -41 -40 -74c0 -52 34 -86 90 -86c78 0 134 51 134 169zM258 545l-47 88l-47 -88h-55c26 41 43 70 69 110h62l72 -110h-54z" />
    <glyph glyph-name="atilde" unicode="&#xe3;" 
d="M314 51l-16 6c-43 -45 -90 -68 -139 -68c-77 0 -127 49 -127 129c0 156 165 129 277 174v27c0 84 -42 109 -104 109c-63 0 -95 -21 -112 -91l-48 8c19 92 71 133 170 133c122 0 143 -58 143 -174v-110c0 -143 1 -154 17 -194h-50c-5 15 -9 33 -11 51zM309 204v45
c-48 -23 -151 -37 -184 -55v1c-25 -14 -40 -41 -40 -74c0 -52 34 -86 90 -86c78 0 134 51 134 169zM121 546h-33c2 53 32 85 67 85c21 0 75 -38 98 -38c20 0 31 13 36 40h31c-3 -58 -29 -86 -64 -86c-20 0 -80 42 -98 42c-20 0 -35 -15 -37 -43z" />
    <glyph glyph-name="adieresis" unicode="&#xe4;" 
d="M314 51l-16 6c-43 -45 -90 -68 -139 -68c-77 0 -127 49 -127 129c0 156 165 129 277 174v27c0 84 -42 109 -104 109c-63 0 -95 -21 -112 -91l-48 8c19 92 71 133 170 133c122 0 143 -58 143 -174v-110c0 -143 1 -154 17 -194h-50c-5 15 -9 33 -11 51zM309 204v45
c-48 -23 -151 -37 -184 -55v1c-25 -14 -40 -41 -40 -74c0 -52 34 -86 90 -86c78 0 134 51 134 169zM160 580h-53v75h53v-75zM299 580h-51v75h51v-75z" />
    <glyph glyph-name="aring" unicode="&#xe5;" 
d="M314 51l-16 6c-43 -45 -90 -68 -139 -68c-77 0 -127 49 -127 129c0 156 165 129 277 174v27c0 84 -42 109 -104 109c-63 0 -95 -21 -112 -91l-48 8c19 92 71 133 170 133c122 0 143 -58 143 -174v-110c0 -143 1 -154 17 -194h-50c-5 15 -9 33 -11 51zM309 204v45
c-48 -23 -151 -37 -184 -55v1c-25 -14 -40 -41 -40 -74c0 -52 34 -86 90 -86c78 0 134 51 134 169zM144 622c0 41 28 73 58 73s58 -33 58 -75s-25 -74 -58 -74s-58 33 -58 76zM154 622c0 -36 24 -60 49 -60s48 24 48 59c0 34 -23 58 -48 58c-26 0 -49 -25 -49 -57z" />
    <glyph glyph-name="ae" unicode="&#xe6;" horiz-adv-x="656" 
d="M579 140l51 -8c-26 -94 -84 -143 -164 -143c-58 0 -104 29 -147 96c-53 -64 -109 -96 -166 -96c-38 0 -69 12 -92 36h1c-24 24 -35 56 -35 93c0 150 135 122 270 172l1 25c0 85 -30 113 -98 113c-67 0 -99 -22 -113 -92l-47 7c20 97 70 135 162 135c69 0 110 -25 134 -74
c38 49 81 74 130 74c101 0 168 -95 168 -238c0 -7 -1 -12 -1 -18h-287c2 -131 43 -184 124 -184c51 0 92 36 109 102zM346 271h238c-8 110 -54 157 -117 157c-68 0 -116 -55 -121 -157zM298 234l-13 9c-18 -10 -63 -23 -118 -33c-67 -13 -87 -44 -87 -89
c0 -51 33 -85 86 -85c81 0 132 40 132 184v14z" />
    <glyph glyph-name="ccedilla" unicode="&#xe7;" horiz-adv-x="369" 
d="M176 -71l14 61c-91 6 -155 88 -155 244c0 162 72 244 173 244c75 0 130 -45 146 -138l-46 -8c-16 65 -51 96 -98 96c-69 0 -125 -57 -125 -193s51 -197 121 -197c55 0 97 35 108 120l48 -8c-15 -99 -70 -152 -140 -160l-12 -45c43 -7 67 -31 67 -61
c0 -41 -37 -76 -97 -76c-17 0 -34 1 -46 4c0 13 2 24 3 36l16 -1c55 0 80 13 80 43c0 22 -15 37 -57 39z" />
    <glyph glyph-name="egrave" unicode="&#xe8;" 
d="M324 137l51 -8c-23 -92 -81 -140 -164 -140c-53 0 -96 21 -130 61h1c-33 41 -50 101 -50 179c0 164 76 249 176 249c98 0 172 -84 172 -244v-12h-298c6 -128 61 -184 130 -184c54 0 90 33 112 99zM86 271h242c-9 110 -55 157 -120 157s-116 -56 -122 -157zM207 655
l43 -110h-36l-74 110h67z" />
    <glyph glyph-name="eacute" unicode="&#xe9;" 
d="M324 137l51 -8c-23 -92 -81 -140 -164 -140c-53 0 -96 21 -130 61h1c-33 41 -50 101 -50 179c0 164 76 249 176 249c98 0 172 -84 172 -244v-12h-298c6 -128 61 -184 130 -184c54 0 90 33 112 99zM86 271h242c-9 110 -55 157 -120 157s-116 -56 -122 -157zM208 545h-37
l43 110h65z" />
    <glyph glyph-name="ecircumflex" unicode="&#xea;" 
d="M324 137l51 -8c-23 -92 -81 -140 -164 -140c-53 0 -96 21 -130 61h1c-33 41 -50 101 -50 179c0 164 76 249 176 249c98 0 172 -84 172 -244v-12h-298c6 -128 61 -184 130 -184c54 0 90 33 112 99zM86 271h242c-9 110 -55 157 -120 157s-116 -56 -122 -157zM266 545
l-46 88l-48 -88h-55c27 41 44 70 70 110h62l72 -110h-55z" />
    <glyph glyph-name="edieresis" unicode="&#xeb;" 
d="M324 137l51 -8c-23 -92 -81 -140 -164 -140c-53 0 -96 21 -130 61h1c-33 41 -50 101 -50 179c0 164 76 249 176 249c98 0 172 -84 172 -244v-12h-298c6 -128 61 -184 130 -184c54 0 90 33 112 99zM86 271h242c-9 110 -55 157 -120 157s-116 -56 -122 -157zM166 580h-52
v75h52v-75zM306 580h-53v75h53v-75z" />
    <glyph glyph-name="igrave" unicode="&#xec;" horiz-adv-x="205" 
d="M132 0h-49v467h49v-467zM92 655l43 -110h-36l-16 110h9z" />
    <glyph glyph-name="iacute" unicode="&#xed;" horiz-adv-x="205" 
d="M131 0h-48v467h48v-467zM107 545h-37c15 41 27 69 42 110h66z" />
    <glyph glyph-name="icircumflex" unicode="&#xee;" horiz-adv-x="205" 
d="M132 0h-49v467h49v-467zM157 545l-46 88l-48 -88h-55l69 110h62l73 -110h-55z" />
    <glyph glyph-name="idieresis" unicode="&#xef;" horiz-adv-x="205" 
d="M132 0h-49v467h49v-467zM61 580h-52v75h74zM201 580h-53v75h53v-75z" />
    <glyph glyph-name="eth" unicode="&#xf0;" 
d="M134 651h53c19 -16 36 -34 49 -48c24 14 52 29 77 43l11 -28l-67 -39c83 -116 124 -232 124 -349c0 -148 -74 -241 -175 -241c-102 0 -175 79 -175 237c0 157 72 241 160 241c29 0 33 1 99 -42c-22 54 -45 98 -70 133l-100 -57l-11 31l93 51c-23 26 -45 48 -68 68z
M330 232c0 121 -56 190 -126 190s-122 -63 -122 -197c0 -129 55 -188 124 -188c68 0 124 69 124 195z" />
    <glyph glyph-name="ntilde" unicode="&#xf1;" 
d="M103 0h-48v467h42v-65l15 -4c29 54 70 80 120 80c40 0 75 -18 96 -43c23 -28 31 -55 31 -146v-289h-49v286c0 100 -30 138 -92 138c-69 0 -115 -47 -115 -168v-256zM133 546h-32c2 52 31 85 66 85c22 0 73 -38 99 -38c19 0 30 13 35 40h32c-4 -58 -30 -86 -65 -86
c-19 0 -80 42 -98 42c-20 0 -35 -15 -37 -43z" />
    <glyph glyph-name="ograve" unicode="&#xf2;" 
d="M29 233c0 161 75 245 178 245c98 0 177 -83 177 -240c0 -170 -77 -249 -177 -249s-178 83 -178 244zM80 233c0 -132 57 -195 128 -195c70 0 125 69 125 195c0 132 -58 195 -128 195c-69 0 -125 -66 -125 -195zM202 655l43 -110h-36l-74 110h67z" />
    <glyph glyph-name="oacute" unicode="&#xf3;" 
d="M29 233c0 161 75 245 178 245c98 0 177 -83 177 -240c0 -170 -77 -249 -177 -249s-178 83 -178 244zM80 233c0 -132 57 -195 128 -195c70 0 125 69 125 195c0 132 -58 195 -128 195c-69 0 -125 -66 -125 -195zM208 545h-38c17 41 27 69 43 110h65z" />
    <glyph glyph-name="ocircumflex" unicode="&#xf4;" 
d="M29 233c0 161 75 245 178 245c98 0 177 -83 177 -240c0 -170 -77 -249 -177 -249s-178 83 -178 244zM80 233c0 -132 57 -195 128 -195c70 0 125 69 125 195c0 132 -58 195 -128 195c-69 0 -125 -66 -125 -195zM253 545l-46 88l-48 -88h-55c26 41 43 70 69 110h62l73 -110
h-55z" />
    <glyph glyph-name="otilde" unicode="&#xf5;" 
d="M29 233c0 161 75 245 178 245c98 0 177 -83 177 -240c0 -170 -77 -249 -177 -249s-178 83 -178 244zM80 233c0 -132 57 -195 128 -195c70 0 125 69 125 195c0 132 -58 195 -128 195c-69 0 -125 -66 -125 -195zM118 546h-32c2 53 32 85 66 85c22 0 76 -38 99 -38
c20 0 30 13 36 40h31c-4 -58 -30 -86 -65 -86c-17 0 -80 42 -97 42c-20 0 -35 -15 -38 -43z" />
    <glyph glyph-name="odieresis" unicode="&#xf6;" 
d="M29 233c0 161 75 245 178 245c98 0 177 -83 177 -240c0 -170 -77 -249 -177 -249s-178 83 -178 244zM80 233c0 -132 57 -195 128 -195c70 0 125 69 125 195c0 132 -58 195 -128 195c-69 0 -125 -66 -125 -195zM160 580h-53v75h53v-75zM299 580h-51v75h51v-75z" />
    <glyph glyph-name="divide" unicode="&#xf7;" horiz-adv-x="494" 
d="M289 421h-75v76h75v-76zM463 350v-58h-423v58h423zM289 146h-75v75h75v-75z" />
    <glyph glyph-name="oslash" unicode="&#xf8;" horiz-adv-x="451" 
d="M346 434l36 58l22 -20l-38 -61c39 -66 45 -107 45 -178c0 -162 -74 -244 -181 -244c-35 0 -70 13 -105 41l-39 -61l-21 20l39 63c-43 62 -48 111 -48 174c0 170 76 252 176 252c37 0 69 -12 114 -44zM134 99l183 290c-28 26 -56 39 -84 39c-68 0 -126 -64 -126 -193
c0 -48 9 -92 27 -136zM335 363l-181 -288c24 -25 50 -37 77 -37c72 0 129 63 129 197c0 50 -2 62 -25 128z" />
    <glyph glyph-name="ugrave" unicode="&#xf9;" 
d="M357 0h-42v67l-14 4c-31 -55 -71 -82 -121 -82c-96 0 -127 66 -127 186v292h49v-260c0 -124 23 -165 91 -165c64 0 115 40 115 174v251h49v-467zM178 655l43 -110h-36l-74 110h67z" />
    <glyph glyph-name="uacute" unicode="&#xfa;" 
d="M357 0h-42v67l-14 4c-31 -55 -71 -82 -121 -82c-96 0 -127 66 -127 186v292h49v-260c0 -124 23 -165 91 -165c64 0 115 40 115 174v251h49v-467zM208 545h-38c17 41 27 69 43 110h102z" />
    <glyph glyph-name="ucircumflex" unicode="&#xfb;" 
d="M357 0h-42v67l-14 4c-31 -55 -71 -82 -121 -82c-96 0 -127 66 -127 186v292h49v-260c0 -124 23 -165 91 -165c64 0 115 40 115 174v251h49v-467zM256 545l-47 88l-47 -88h-55c26 41 43 70 69 110h62l77 -110h-59z" />
    <glyph glyph-name="udieresis" unicode="&#xfc;" 
d="M357 0h-42v67l-14 4c-31 -55 -71 -82 -121 -82c-96 0 -127 66 -127 186v292h49v-260c0 -124 23 -165 91 -165c64 0 115 40 115 174v251h49v-467zM163 580h-52v75h52v-75zM303 580h-52v75h52v-75z" />
    <glyph glyph-name="yacute" unicode="&#xfd;" horiz-adv-x="369" 
d="M52 -190l-5 59c10 -3 20 -4 28 -4c54 0 57 8 94 125l-148 477h53l82 -275c10 -35 20 -75 29 -115h16c8 41 17 78 28 113l83 277h49l-148 -482c-48 -155 -70 -182 -126 -182c-10 0 -22 2 -35 7zM189 545h-38c16 41 27 69 44 110h64z" />
    <glyph glyph-name="thorn" unicode="&#xfe;" 
d="M103 -186h-49v837h49v-254c59 77 78 81 119 81c86 0 159 -82 159 -238c0 -160 -76 -251 -164 -251c-35 0 -57 3 -114 79v-254zM97 230c0 -129 51 -192 116 -192c61 0 118 64 118 198c0 132 -54 196 -118 196c-30 0 -57 -18 -82 -54h1c-24 -34 -35 -84 -35 -148z" />
    <glyph glyph-name="ydieresis" unicode="&#xff;" horiz-adv-x="369" 
d="M52 -190l-5 59c10 -3 20 -4 28 -4c54 0 57 8 94 125l-148 477h53l82 -275c10 -35 20 -75 29 -115h16c8 41 17 78 28 113l83 277h49l-148 -482c-48 -155 -70 -182 -126 -182c-10 0 -22 2 -35 7zM143 580h-53v75h53v-75zM282 580h-52v75h52v-75z" />
    <glyph glyph-name="uni10A0" unicode="&#x10a0;" horiz-adv-x="509" 
d="M449 260v-69c0 -123 -80 -195 -194 -195c-109 0 -195 73 -195 198v31c0 32 17 69 48 115c14 -6 27 -13 41 -20c-19 -35 -27 -65 -27 -95v-34c0 -92 30 -146 133 -146c92 0 131 56 131 146v69c0 76 -38 145 -101 207c-56 54 -97 130 -97 186v43h57v-43
c0 -56 34 -114 103 -176c66 -60 101 -134 101 -217z" />
    <glyph glyph-name="uni10A1" unicode="&#x10a1;" horiz-adv-x="509" 
d="M122 279v-85c0 -86 50 -149 132 -149c84 0 132 61 132 143v94c0 90 -57 150 -132 150c-83 0 -132 -60 -132 -153zM142 706h61c2 -62 110 -81 110 -136c0 -31 -6 -62 -22 -92c51 0 158 -81 158 -193v-103c0 -89 -83 -186 -195 -186c-114 0 -194 94 -194 187v102
c0 115 97 193 176 193c11 25 16 54 16 88c0 44 -108 58 -110 140z" />
    <glyph glyph-name="uni10A2" unicode="&#x10a2;" horiz-adv-x="573" 
d="M450 206v59c0 76 -66 153 -143 153h-32c-87 0 -153 -55 -153 -167v-45c0 -82 62 -161 163 -161c121 0 165 77 165 161zM513 266v-67c0 -100 -87 -203 -231 -203c-119 0 -222 103 -222 203v55c6 136 114 214 243 214c33 34 50 67 50 100c0 54 -26 87 -93 87
c-68 0 -98 -26 -98 -67v-58h-54v58c0 61 63 118 152 118c98 0 147 -57 147 -130c0 -37 -17 -75 -50 -112c40 -7 156 -78 156 -198z" />
    <glyph glyph-name="uni10A3" unicode="&#x10a3;" horiz-adv-x="758" 
d="M636 447v39c0 124 -33 169 -116 169c-85 0 -119 -38 -119 -167v-38c0 -123 35 -175 119 -175c83 0 116 54 116 172zM548 -5h-75c-4 43 -62 76 -174 97c-48 -1 -97 -16 -143 -47l-22 54c29 7 68 14 118 19c-129 98 -192 210 -192 335v66c0 100 60 187 181 187
c47 0 93 -23 138 -70c32 47 79 70 141 70c122 0 178 -90 178 -220v-41c0 -145 -60 -220 -178 -220c-112 0 -181 82 -181 224v35c0 29 7 69 20 118c-29 42 -63 53 -118 53c-77 0 -120 -50 -120 -136v-63c0 -129 55 -276 272 -343c102 -32 153 -69 155 -118z" />
    <glyph glyph-name="uni10A4" unicode="&#x10a4;" horiz-adv-x="525" 
d="M450 554v-400c0 -100 -80 -158 -195 -158c-114 0 -194 76 -194 168c0 52 9 97 28 141h58c-17 -43 -25 -89 -25 -142c0 -74 43 -118 133 -118c72 0 132 37 132 111v398c0 57 -42 101 -114 101c-67 0 -123 -37 -123 -102c0 -24 4 -52 11 -85h-50c-12 34 -17 62 -17 85
c0 91 74 153 173 153c106 0 183 -59 183 -152z" />
    <glyph glyph-name="uni10A5" unicode="&#x10a5;" horiz-adv-x="510" 
d="M450 235v-77c0 -85 -74 -162 -195 -162c-111 0 -194 70 -194 159v37c0 29 9 60 28 100h53c-13 -40 -20 -75 -20 -104v-27c0 -77 57 -116 133 -116c86 0 132 40 132 113v77c0 69 -26 108 -77 117h-61v50h61c46 0 69 43 69 128v22c0 67 -43 103 -118 103
c-77 0 -119 -55 -119 -90v-16c0 -18 2 -36 6 -56c-20 0 -36 -1 -56 -1c-8 19 -11 36 -11 54v22c0 77 92 138 180 138c116 0 179 -80 179 -150v-31c0 -61 -30 -111 -88 -149c64 -22 98 -68 98 -141z" />
    <glyph glyph-name="uni10A6" unicode="&#x10a6;" horiz-adv-x="561" 
d="M302 546v36c0 42 -47 73 -102 73c-63 0 -104 -24 -104 -75v-34c0 -55 43 -83 106 -83c62 0 100 39 100 83zM153 257v-56c0 -90 54 -156 143 -156c92 0 144 65 144 161v43c0 94 -52 154 -144 154c-82 0 -143 -43 -143 -146zM361 584v-24c0 -35 -24 -71 -74 -107
c141 0 214 -85 214 -185v-77c0 -119 -78 -195 -205 -195c-121 0 -202 74 -202 195v74c0 71 31 123 94 157c-100 12 -148 58 -148 140v22c0 66 55 122 158 122c108 0 163 -48 163 -122z" />
    <glyph glyph-name="uni10A7" unicode="&#x10a7;" horiz-adv-x="787" 
d="M378 249v277c0 80 -50 129 -130 129c-86 0 -127 -71 -127 -217v-166c0 -176 41 -227 127 -227c92 0 130 76 130 204zM727 443v-70c0 -165 -52 -295 -144 -377h-66c101 94 149 217 149 372v105c0 56 -9 102 -27 133v-1c-18 33 -57 50 -114 50c-44 0 -82 -16 -115 -48
c20 -26 29 -52 29 -81v-274c0 -152 -70 -256 -191 -256c-114 0 -188 81 -188 269v191c0 184 81 250 188 250c62 0 109 -22 145 -68c43 46 92 68 146 68c122 0 188 -72 188 -263z" />
    <glyph glyph-name="uni10A8" unicode="&#x10a8;" horiz-adv-x="509" 
d="M449 457v-76c0 -120 -26 -244 -77 -376h-68c54 130 82 256 82 373v79c0 138 -45 198 -131 198c-94 0 -133 -62 -133 -198v-79c0 -117 28 -243 84 -373h-67c-53 132 -79 256 -79 373v83c0 166 83 245 195 245c123 0 194 -79 194 -249z" />
    <glyph glyph-name="uni10A9" unicode="&#x10a9;" horiz-adv-x="509" 
d="M449 228v-46c0 -113 -83 -186 -195 -186c-110 0 -194 78 -194 156v42c0 39 11 74 28 100h53c-12 -39 -19 -76 -19 -109v-22c0 -63 53 -118 132 -118s132 41 132 137v46c0 40 -10 76 -31 106h1c-19 30 -46 45 -80 45h-91v51h88c58 0 95 34 95 92v35c0 55 -30 88 -90 98v50
c100 -25 152 -76 152 -149v-21c0 -64 -37 -106 -107 -130c84 -26 126 -85 126 -177z" />
    <glyph glyph-name="uni10AA" unicode="&#x10aa;" horiz-adv-x="999" 
d="M939 537v-48c0 -84 -47 -167 -123 -234h-59c80 68 122 148 122 238v39c0 58 -47 118 -108 118c-64 0 -113 -24 -113 -134v-103h-56v102c0 100 -34 140 -101 140c-58 0 -103 -38 -103 -136v-106h-55v108c0 102 -38 129 -113 129c-63 0 -108 -51 -108 -153v-36
c0 -171 191 -305 389 -345c101 -21 171 -55 210 -110h-89c-57 48 -129 75 -219 75c-62 0 -124 -21 -168 -46c-13 16 -25 34 -37 50c35 10 82 20 141 30c-193 103 -289 220 -289 351v34c0 112 58 201 170 201c67 0 117 -35 146 -108c23 76 65 113 125 113s102 -35 127 -106
c29 67 77 101 142 101c92 0 169 -81 169 -164z" />
    <glyph glyph-name="uni10AB" unicode="&#x10ab;" horiz-adv-x="524" 
d="M386 194v100c0 103 -55 147 -131 147c-69 0 -133 -59 -133 -149v-98c0 -98 55 -149 133 -149c72 0 131 47 131 149zM449 569v-387c0 -113 -88 -186 -194 -186c-112 0 -195 72 -195 198v98c0 109 87 198 196 198c60 0 104 -26 131 -79l5 1v157c0 47 -54 86 -129 86
c-78 0 -120 -31 -120 -68v-30h-61v30c0 60 86 119 182 119c90 0 185 -58 185 -137z" />
    <glyph glyph-name="uni10AC" unicode="&#x10ac;" horiz-adv-x="524" 
d="M403 192v105c0 95 -53 144 -133 144c-94 0 -134 -45 -134 -145v-110c0 -90 55 -141 133 -141c88 0 134 53 134 147zM464 301v-116c0 -122 -78 -189 -194 -189c-107 0 -195 69 -195 190v389c0 82 50 122 112 122c33 0 122 -22 155 -22c32 0 69 9 108 28v-40
c-39 -23 -76 -35 -115 -35c-34 0 -83 18 -125 18c-56 0 -81 -17 -81 -74v-165c41 56 88 83 140 83c113 0 195 -79 195 -189z" />
    <glyph glyph-name="uni10AD" unicode="&#x10ad;" horiz-adv-x="795" 
d="M674 405v45c0 131 -23 205 -121 205c-83 0 -124 -43 -124 -141v-257h-62v257c0 98 -40 141 -123 141c-90 0 -123 -72 -123 -210v-43c0 -150 58 -283 172 -396h-75c-103 106 -158 241 -158 394v45c0 147 46 261 184 261c72 0 123 -37 157 -111c28 74 78 111 152 111
c135 0 182 -117 182 -249v-57c0 -155 -53 -289 -153 -395h-76c113 111 168 244 168 400z" />
    <glyph glyph-name="uni10AE" unicode="&#x10ae;" horiz-adv-x="510" 
d="M450 254v-53c0 -122 -74 -205 -195 -205c-96 0 -194 76 -194 169v53c0 21 8 44 28 74h51c-12 -36 -18 -63 -18 -85v-26c0 -66 52 -136 133 -136c94 0 132 57 132 163v44c0 70 -40 127 -102 127h-69v51h69c48 0 79 29 79 88v16c0 30 -34 52 -102 72c-64 18 -97 51 -98 100
h60c2 -34 37 -62 103 -77c66 -16 98 -46 98 -91v-21c0 -44 -29 -81 -89 -114c76 -38 114 -87 114 -149z" />
    <glyph glyph-name="uni10AF" unicode="&#x10af;" horiz-adv-x="524" 
d="M449 706v-540c0 -101 -84 -170 -190 -170c-118 0 -199 51 -199 165v21c0 13 2 30 10 51h58c-4 -23 -6 -41 -6 -50v-25c0 -75 70 -113 137 -113c79 0 127 56 127 125v484l-223 -48c69 -26 112 -63 112 -135c0 -107 -94 -138 -215 -138v50c106 1 160 19 160 80
c0 82 -57 126 -160 127v31z" />
    <glyph glyph-name="uni10B0" unicode="&#x10b0;" horiz-adv-x="795" 
d="M735 308v-24c0 -106 -47 -200 -136 -278h-68c98 88 146 181 146 277v25c0 82 -60 138 -124 138c-68 0 -125 -48 -125 -147v-100h-61v100c0 101 -64 147 -123 147c-75 0 -123 -56 -123 -138v-28c0 -93 51 -186 146 -275h-76c-84 79 -131 176 -131 281v22
c0 214 136 398 499 398v-51c-190 0 -342 -53 -419 -191c46 17 81 26 104 26c73 0 123 -38 155 -114c39 76 90 114 154 114c97 0 182 -68 182 -182z" />
    <glyph glyph-name="uni10B1" unicode="&#x10b1;" horiz-adv-x="524" 
d="M464 248v-43c0 -116 -77 -209 -195 -209c-111 0 -194 65 -194 216v494h61v-494c0 -106 46 -167 133 -167c84 0 134 69 134 168v26c0 46 -20 89 -60 129c-39 38 -58 74 -58 102s7 53 22 74c21 -7 42 -12 62 -17c-17 -18 -26 -36 -26 -57c0 -30 21 -65 61 -101
s60 -76 60 -121z" />
    <glyph glyph-name="uni10B2" unicode="&#x10b2;" horiz-adv-x="643" 
d="M583 381v-138c0 -142 -123 -247 -261 -247c-145 0 -262 103 -262 247v138c0 165 125 263 244 263l-28 62h87l-28 -62c133 0 248 -94 248 -263zM523 243v138c0 151 -60 224 -186 224l16 -312h-68l17 312c-110 0 -180 -73 -180 -224v-138c0 -107 73 -198 200 -198
c130 0 201 95 201 198z" />
    <glyph glyph-name="uni10B3" unicode="&#x10b3;" horiz-adv-x="598" 
d="M523 607v-413c0 -126 -64 -198 -182 -198c-123 0 -204 71 -204 186v43c0 33 8 60 21 82h56c-10 -35 -15 -67 -15 -102v-24c0 -83 57 -136 142 -136c88 0 122 50 122 152v410c0 25 -30 51 -83 51c-48 0 -72 -17 -72 -51v-169h-46v169c0 34 -20 51 -60 51
c-18 0 -33 -8 -45 -26h1c-11 -15 -22 -23 -36 -23c-17 0 -43 15 -62 35v55c27 -21 50 -33 65 -33c24 0 43 37 70 37c42 0 71 -16 90 -49c34 33 69 49 99 49c68 0 139 -44 139 -96z" />
    <glyph glyph-name="uni10B4" unicode="&#x10b4;" horiz-adv-x="780" 
d="M367 466v33c0 108 -33 156 -123 156c-91 0 -123 -41 -123 -153v-36c0 -104 41 -145 123 -145c80 0 123 41 123 145zM709 196v-30c0 -107 -94 -170 -245 -170c-170 0 -252 44 -253 168h60c2 -106 102 -119 193 -119c120 0 183 40 183 121v25c0 81 -40 128 -93 128h-50v48
h50c43 0 105 30 105 128v43c0 79 -39 117 -121 117c-46 0 -89 -18 -130 -55c14 -31 21 -63 21 -95v-39c0 -115 -78 -196 -185 -196c-103 0 -184 82 -184 196v36c0 117 55 204 184 204c56 0 105 -25 147 -74c41 50 90 74 147 74c112 0 182 -77 182 -163v-43
c0 -82 -34 -127 -132 -155v-6c96 -18 121 -76 121 -143z" />
    <glyph glyph-name="uni10B5" unicode="&#x10b5;" horiz-adv-x="524" 
d="M449 706v-553c0 -96 -80 -157 -195 -157c-105 0 -194 60 -194 162v9c0 26 5 49 19 74h60c-11 -23 -17 -50 -17 -77v-11c0 -66 37 -108 132 -108c83 0 132 40 132 103v216c0 56 -83 153 -150 153s-91 -35 -91 -76c0 -15 3 -37 8 -61h-52c-8 23 -11 44 -11 61
c0 74 54 124 146 124c63 0 112 -41 156 -106v202h-95v45h152z" />
    <glyph glyph-name="uni10B6" unicode="&#x10b6;" horiz-adv-x="740" 
d="M680 533v-45c0 -76 -30 -155 -81 -222h-55c51 70 75 145 75 229v36c0 84 -35 124 -108 124c-69 0 -111 -7 -111 -164v-102h-61v102c0 154 -50 164 -109 164c-69 0 -109 -57 -109 -151v-38c0 -186 141 -317 283 -361c72 -22 113 -58 122 -110h-75c-22 51 -70 82 -141 82
c-46 0 -90 -13 -127 -40c-10 19 -17 35 -27 53c26 12 69 21 120 27c-144 94 -216 211 -216 349v38c0 98 59 202 168 202c67 0 113 -41 141 -124c25 83 72 124 141 124c106 0 170 -63 170 -173z" />
    <glyph glyph-name="uni10B7" unicode="&#x10b7;" horiz-adv-x="525" 
d="M450 696v-520c0 -118 -59 -180 -195 -180c-52 0 -98 13 -137 38v-1c-36 25 -58 66 -58 120c0 22 4 48 15 77h59c-8 -24 -12 -55 -12 -90c0 -51 55 -95 133 -95c88 0 132 30 132 140v210c-29 -51 -72 -76 -131 -76c-91 0 -181 72 -181 180v51c0 44 24 96 65 146h68
c-52 -63 -77 -115 -77 -159v-38c0 -71 59 -133 125 -133c90 0 131 61 131 127v203h63z" />
    <glyph glyph-name="uni10B8" unicode="&#x10b8;" horiz-adv-x="560" 
d="M425 194v71c0 104 -49 152 -143 152c-79 0 -143 -74 -143 -162v-52c0 -89 67 -158 142 -158c89 0 144 75 144 149zM485 547v-353c0 -116 -95 -198 -204 -198c-96 0 -204 76 -204 205v64c0 114 90 202 204 202c67 0 114 -26 142 -77l5 1v154c0 104 -22 116 -80 116
c-46 0 -71 -31 -71 -80v-22h-47v22c0 50 -18 80 -73 80c-43 0 -69 -19 -69 -58v-73h-48v73c0 55 49 103 98 103c40 0 89 -17 113 -76c34 63 73 76 105 76c87 0 129 -39 129 -159z" />
    <glyph glyph-name="uni10B9" unicode="&#x10b9;" horiz-adv-x="524" 
d="M366 521l-46 8c9 17 15 39 15 63c0 42 -37 63 -110 63c-61 0 -93 -25 -94 -76v-208c40 55 87 82 138 82c124 0 195 -68 195 -198v-31c0 -76 -34 -150 -94 -218h-76c75 68 109 139 109 221v28c0 84 -39 147 -134 148c-75 -2 -136 -56 -138 -130v-267h-56v580
c0 73 70 120 151 120c95 0 164 -43 164 -113c0 -25 -9 -50 -24 -72z" />
    <glyph glyph-name="uni10BA" unicode="&#x10ba;" horiz-adv-x="577" 
d="M517 223v-17c0 -114 -94 -210 -223 -210c-141 0 -234 116 -234 247v180c0 112 25 208 66 273h56c-39 -77 -60 -168 -60 -273v-180c0 -103 80 -198 172 -198c88 0 161 68 161 161v15c0 75 -26 126 -95 126h-69v49h69c53 0 95 33 95 99c0 77 -143 101 -145 201h51
c1 -31 28 -62 79 -89c52 -28 77 -63 77 -110c0 -83 -50 -108 -115 -122v-6c91 -23 115 -71 115 -146z" />
    <glyph glyph-name="uni10BB" unicode="&#x10bb;" horiz-adv-x="524" 
d="M386 191v101c0 74 -47 149 -132 149c-84 0 -132 -49 -132 -149v-104c0 -92 44 -143 132 -143c78 0 132 51 132 146zM449 706v-518c0 -110 -77 -192 -195 -192s-194 80 -194 200v100c0 107 51 194 194 194c45 0 90 -24 132 -72v288h63z" />
    <glyph glyph-name="uni10BC" unicode="&#x10bc;" horiz-adv-x="546" 
d="M122 265v-71c0 -74 53 -149 142 -149c77 0 144 71 144 158v52c0 87 -61 162 -145 162c-92 0 -141 -48 -141 -152zM60 194v353c0 120 45 159 130 159c32 0 71 -13 105 -76c27 59 73 76 113 76c49 0 98 -46 98 -103v-73h-46v73c0 39 -28 58 -70 58c-54 0 -74 -30 -74 -80
v-22h-48v22c0 49 -24 80 -69 80c-62 0 -81 -12 -81 -116v-154l5 -1c26 51 74 77 141 77c116 0 204 -89 204 -202v-64c0 -125 -103 -205 -204 -205c-105 0 -204 82 -204 198z" />
    <glyph glyph-name="uni10BD" unicode="&#x10bd;" horiz-adv-x="510" 
d="M239 354h-30c-25 0 -48 7 -69 20v-1c-20 13 -30 40 -30 79c0 69 51 95 99 95h75v114h-83v45h134v-159h90v-40h-90v-41c0 -81 19 -138 58 -169c38 -30 57 -66 57 -113v-12c0 -102 -75 -176 -195 -176c-114 0 -195 88 -195 187c0 31 10 61 23 85h54
c-10 -28 -14 -56 -14 -87c0 -63 48 -136 132 -136c83 0 132 45 132 127v16c0 34 -17 68 -52 102c-34 33 -51 91 -51 174v43h-78c-34 0 -49 -17 -49 -52c0 -40 16 -59 63 -59h19v-42z" />
    <glyph glyph-name="uni10BE" unicode="&#x10be;" horiz-adv-x="524" 
d="M136 289v-101c0 -90 57 -143 133 -143c78 0 134 52 134 143v98c0 92 -50 155 -134 155c-82 0 -133 -48 -133 -152zM75 172v534h61v-289c46 49 91 73 133 73c135 0 195 -88 195 -191v-127c0 -92 -68 -176 -195 -176c-99 0 -194 77 -194 176z" />
    <glyph glyph-name="uni10BF" unicode="&#x10bf;" horiz-adv-x="510" 
d="M61 570v50l149 -20l14 106h50l-14 -110l170 -19v-51l-168 23c7 -81 40 -143 100 -186c58 -41 88 -92 88 -149v-36c0 -97 -73 -182 -195 -182c-103 0 -194 85 -194 179v42c0 33 8 67 22 100h56c-11 -44 -17 -78 -17 -100v-39c0 -81 59 -133 134 -133c80 0 131 42 131 132
v37c0 50 -28 98 -85 144c-54 44 -85 109 -92 193z" />
    <glyph glyph-name="uni10C0" unicode="&#x10c0;" horiz-adv-x="509" 
d="M449 158c0 -111 -79 -162 -195 -162c-126 0 -193 70 -194 215h62c0 -101 25 -166 132 -166c84 0 132 35 132 101c0 82 -27 120 -78 120h-79v48h79c41 0 65 14 65 72c0 42 -20 64 -79 64h-80v50h80c40 0 65 31 65 75c0 57 0 80 -231 80v46c227 0 291 -35 291 -123
c0 -40 -24 -75 -71 -104c56 -20 86 -48 86 -87c0 -45 -29 -78 -84 -101c65 -23 99 -65 99 -128z" />
    <glyph glyph-name="uni10C1" unicode="&#x10c1;" horiz-adv-x="509" 
d="M449 159c0 -104 -72 -163 -195 -163c-114 0 -194 66 -194 191v519h56v-522c1 -84 52 -139 139 -139c83 0 133 37 133 114c0 67 -22 103 -80 103h-50v46h50c53 0 80 28 80 73c0 33 -28 69 -95 69h-35v50h35c66 0 95 37 95 84c0 44 -38 70 -130 71v51
c115 0 191 -39 191 -121c0 -54 -33 -88 -95 -107v-6c62 -11 95 -40 95 -92c0 -51 -35 -84 -102 -97c67 -23 102 -63 102 -124z" />
    <glyph glyph-name="uni10C2" unicode="&#x10c2;" horiz-adv-x="509" 
d="M122 456v-177c0 -74 44 -139 133 -193c88 54 131 120 131 194v195c0 128 -44 180 -131 180c-81 0 -133 -49 -133 -199zM60 -26v49c64 0 119 15 163 45c-108 52 -163 123 -163 212v195c0 187 85 231 195 231c116 0 194 -49 194 -231v-195c0 -89 -53 -161 -157 -212
c36 -30 89 -44 157 -45v-49c-62 0 -126 24 -195 70c-76 -47 -139 -70 -194 -70z" />
    <glyph glyph-name="uni10C3" unicode="&#x10c3;" horiz-adv-x="509" 
d="M449 228v-46c0 -105 -73 -186 -195 -186c-103 0 -194 70 -194 156v42c0 35 22 69 65 103l31 -34c-22 -21 -34 -47 -34 -78v-22c0 -52 36 -118 132 -118c69 0 132 31 132 137v46c0 92 -54 156 -110 156h-91v51h88c60 0 113 74 113 211h-250v-83h-62v133h375v-76
c0 -91 -42 -160 -123 -211c81 -26 123 -86 123 -181z" />
    <glyph glyph-name="uni10C4" unicode="&#x10c4;" horiz-adv-x="509" 
d="M449 186v-28c0 -103 -76 -162 -194 -162c-124 0 -195 86 -195 176c0 35 18 68 52 103l39 -35c-19 -26 -29 -47 -29 -70c0 -70 54 -125 133 -125c96 0 131 53 131 107v35c0 63 -26 95 -98 95h-30v51h30c66 0 98 60 98 190c-56 -43 -113 -64 -169 -64
c-111 0 -157 51 -157 119c0 67 90 128 236 128v-51c-126 0 -174 -19 -174 -80c0 -43 25 -76 91 -76c60 0 137 35 236 110c0 -182 -40 -280 -119 -299c79 -27 119 -68 119 -124z" />
    <glyph glyph-name="uni10C5" unicode="&#x10c5;" horiz-adv-x="546" 
d="M506 256h-57v-104c0 -111 -96 -156 -194 -156c-122 0 -195 66 -195 156c0 75 61 156 195 156h131v81h-131c-135 0 -195 72 -195 153c0 89 74 164 195 164c107 0 194 -60 194 -168v-100h57v-49h-57v-81h57v-52zM122 542c0 -64 48 -104 122 -104h142v100
c0 76 -48 117 -131 117c-90 0 -133 -46 -133 -113zM386 152v104h-131c-102 0 -133 -41 -133 -107c0 -59 54 -104 133 -104c87 0 131 34 131 107z" />
    <glyph glyph-name="uni10C6" unicode="&#x10c6;" horiz-adv-x="724" 
d="M604 345v187c0 106 -49 128 -106 128c-82 0 -108 -29 -108 -125v-190c0 -102 52 -121 108 -123c84 1 106 47 106 123zM227 711c61 0 104 -27 136 -83c27 56 72 83 135 83c99 0 166 -38 166 -173v-193c0 -110 -75 -173 -165 -173c-40 0 -76 16 -109 49v-76
c0 -98 -63 -148 -189 -149v47c90 0 132 33 132 101v388c0 99 -30 128 -106 128c-70 0 -105 -27 -105 -122v-193c0 -107 55 -128 112 -128v-45c-93 0 -174 52 -174 173v190c0 109 50 176 167 176z" />
    <glyph glyph-name="afii61352" unicode="&#x2116;" horiz-adv-x="882" 
d="M646 83h212v-48h-212v48zM750 401c-40 0 -68 -35 -68 -70c0 -41 28 -73 68 -73c48 0 72 30 72 72c0 37 -28 71 -72 71zM750 450c75 0 117 -60 117 -121c0 -68 -42 -122 -117 -122c-70 0 -112 56 -112 123c0 61 40 120 112 120zM634 668c-33 0 -57 -35 -57 -67v-598h-49
l-290 582v-466c0 -58 -43 -116 -103 -116c-58 0 -101 54 -107 112h44c3 -35 36 -59 59 -59c34 0 60 21 60 63v518h-98v49h148l289 -577v492c0 62 50 115 104 115c55 0 107 -47 113 -109h-50c-2 28 -33 61 -63 61z" />
  </font>
</defs>
</svg>
