<svg><defs><font id="NotoSansGeorgian-Medium" horiz-adv-x="0"><font-face font-family="Noto Sans Georgian Med" font-weight="500" panose-1="2 11 6 2 4 5 4 2 2 4" ascent="800" descent="-200" bbox="-182.001 -250.003 1052 879.002" underline-thickness="50" underline-position="-75" unicode-range="U+000D-U+2D2D"/><glyph glyph-name=".notdef" horiz-adv-x="500" d="M50 0v533h400V0H50zm50 50h300v433H100V50z"/><glyph glyph-name="NULL"/><glyph glyph-name="NULL"/><glyph glyph-name="CR" horiz-adv-x="260"/><glyph glyph-name="space" horiz-adv-x="260"/><glyph glyph-name="hyphen" unicode="-" horiz-adv-x="322" d="M37 223v90h248v-90H37z"/><glyph glyph-name="uni00A0" horiz-adv-x="260"/><glyph glyph-name="acutecomb" unicode="́" d="M113 766l-.001-10c-10-12-24.167-27.667-42.5-47S32.833 670.667 12.5 652-26 618-42 606h-70v12c10 12.667 21.167 27.667 33.5 45l36.5 53.5c12 18.333 22.333 34.833 31 49.5h124z"/><glyph glyph-name="uni0302" unicode="̂" d="M57 766c8-14.667 19.498-31.165 34.498-49.498s30.667-36.333 47-54 30.833-32.5 43.5-44.5v-12h-73c-17.333 10.667-35.666 23.667-54.999 39s-38 32-56 50c-36-36.667-72-66.334-108-89.001h-72v12c12.667 12.667 26.834 27.667 42.501 45s31 35.166 46 53.499S-66.667 751.333-58 766H57z"/><glyph glyph-name="uni0304" unicode="̄" d="M154 696v-80h-307v80h307z"/><glyph glyph-name="uni0308" unicode="̈" d="M-149 668c0 19.333 5.167 33.166 15.5 41.499s23.166 12.5 38.499 12.5c14 0 26.333-4.167 37-12.5s16-22.166 16-41.499c0-18-5.333-31.5-16-40.5s-23-13.5-37-13.5c-15.333 0-28.166 4.5-38.499 13.5S-149 650-149 668zm191 0c0 19.333 5.167 33.166 15.5 41.499s22.833 12.5 37.5 12.5c14 0 26.333-4.167 37-12.5s16-22.166 16-41.499c0-18-5.333-31.5-16-40.5S109 614 95 614c-14.667 0-27.167 4.5-37.5 13.5S42 650 42 668z"/><glyph glyph-name="uni0589" unicode="։" horiz-adv-x="273" d="M68 479c0 26.667 6.5 45.5 19.5 56.5S116.667 552 136 552c18.667 0 34.834-5.5 48.501-16.5s20.5-29.833 20.5-56.5c0-25.333-6.833-43.666-20.5-54.999s-29.834-17-48.501-17c-19.333 0-35.5 5.667-48.5 17S68 453.667 68 479zm0-420c0 26 6.5 44.333 19.5 55s29.167 16 48.5 16c18.667 0 34.834-5.333 48.501-16s20.5-29 20.5-55-6.833-44.667-20.5-56S154.667-14 136-14c-19.333 0-35.5 5.667-48.5 17S68 33 68 59z"/><glyph glyph-name="uni10A0" unicode="Ⴀ" horiz-adv-x="633" d="M399-10c-67.333 0-126.498 13.832-177.498 41.499s-90.667 66.5-119 116.5-42.5 108.667-42.5 176c0 47.333 7.5 90.333 22.5 129s35.5 72.5 61.5 101.5 55.333 51.833 88 68.5v3h-154v88h506v-92h-128c-59.333 0-110-12-152-36s-74.167-57.333-96.5-100-33.5-92-33.5-148c0-81.333 20.5-144.166 61.5-188.499s99.5-66.5 175.5-66.5c31.333 0 61.166 3 89.499 9s56.166 13.333 83.499 22V21c-27.333-10.667-55.5-18.5-84.5-23.5S437-10 399-10z"/><glyph glyph-name="uni10A1" unicode="Ⴁ" horiz-adv-x="801" d="M491 0l.002 224.002c0 8 .5 19.333 1.5 34l3.5 54h-5c-20-30.667-47.833-54.667-83.5-72s-74.834-26-117.501-26c-74.667 0-132.5 22.667-173.5 68s-61.5 109.333-61.5 192c0 41.333 6.333 82.666 19 123.999s30.334 80 53.001 116h120c-22.667-27.333-41.5-62.833-56.5-106.5s-22.5-87.834-22.5-132.501c0-54.667 11.667-96.5 35-125.5S262.668 306 312.001 306c61.333 0 106.666 16.5 135.999 49.5S492 441 492 513v201h108V92h192V0H491z"/><glyph glyph-name="uni10A2" unicode="Ⴂ" horiz-adv-x="754" d="M448 0v622H183V384H75v330h481V92h190V0H448z"/><glyph glyph-name="uni10A3" unicode="Ⴃ" horiz-adv-x="767" d="M382-10c-67.333 0-125 11.499-173 34.499s-84.833 56-110.5 99S60 217.666 60 276.999c0 82.667 24 149 72 199s114.667 79 200 87v59H89v92h589v-92H436v-59c86-7.333 152.667-36.166 200-86.499s71-116.833 71-199.5c0-90-28.5-160.333-85.5-211S484.667-10 382-10zm0 91.999c68.667 0 121.166 16.667 157.499 50s54.5 82 54.5 146-18.167 112.833-54.5 146.5-88.5 50.5-156.5 50.5c-67.333 0-119.166-16.833-155.499-50.5s-54.5-82.5-54.5-146.5c0-63.333 17.833-111.833 53.5-145.5s87.5-50.5 155.5-50.5z"/><glyph glyph-name="uni10A4" unicode="Ⴄ" horiz-adv-x="651" d="M448 0v622H183V384H75v330h481V0H448z"/><glyph glyph-name="uni10A5" unicode="Ⴅ" horiz-adv-x="842" d="M450 0v622H182V385H75v329h483V421h241V174H699v155H558V0H450z"/><glyph glyph-name="uni10A6" unicode="Ⴆ" horiz-adv-x="795" d="M464-10c-55.333 0-102.831 11.331-142.498 33.998s-70.167 54.834-91.5 96.501-32 91.167-32 148.5v353h-196v92h304v-163c0-12-.5-27.333-1.5-46s-2.167-36-3.5-52h6c24.667 34.667 51.667 59.334 81 74.001s65 22 107 22c51.333 0 95.166-11.667 131.499-35s64.333-56 84-98 29.5-90.667 29.5-146c0-86-24.333-154.167-73-204.5S550.667-10 464-10zm.002 91.998c52 0 92.333 16.333 121 49s43 79 43 139c0 60.667-13.5 107-40.5 139s-65.5 48-115.5 48c-54.667 0-96-16.5-124-49.5s-42-79.833-42-140.5c0-58.667 13.5-104.167 40.5-136.5s66.167-48.5 117.5-48.5z"/><glyph glyph-name="uni10A7" unicode="Ⴇ" horiz-adv-x="922" d="M638 421h240.999V174h-100v155h-141V0h-215c-116 0-205.5 31-268.5 93s-94.5 149-94.5 261c0 116 32.333 205 97 267S313.333 714 432 714h206V421zM529.999 91v532h-92c-176.667 0-265-89.333-265-268 0-176 85-264 255-264h102z"/><glyph glyph-name="uni10A8" unicode="Ⴈ" horiz-adv-x="492" d="M288 0v622H2v92h394V0H288z"/><glyph glyph-name="uni10A9" unicode="Ⴉ" horiz-adv-x="704" d="M518 0v104c0 13.333.667 28 2 44s2.333 31.333 3 46h-6c-44.667-63.333-107.334-95-188.001-95-50 0-93.167 11-129.5 33s-64.333 52.667-84 92-29.5 85.333-29.5 138v352h108v-92c0-8-.667-19.5-2-34.5S189.333 553.667 188 531h7c24 34.667 50.833 59.167 80.5 73.5S340.667 626 382 626c50.667 0 94.167-11 130.5-33s64.333-52.667 84-92S626 416 626 364V0H518zM351 192c52.667 0 93.667 14.833 123 44.5s44 72.167 44 127.5c0 54.667-14.167 96.667-42.5 126s-66.833 44-115.5 44c-52.667 0-93.5-14.833-122.5-44.5S194 417.333 194 362c0-54.667 14-96.667 42-126s66.333-44 115-44z"/><glyph glyph-name="uni10AA" unicode="Ⴊ" horiz-adv-x="1004" d="M673-10c-54.667 0-101.832 11.332-141.499 33.999s-70.167 54.834-91.5 96.501-32 91.167-32 148.5v353h-225V384h-108v330h441V545c0-6.667-.667-18-2-34s-2.666-35.333-3.999-58h7c24.667 34.667 51.667 59.334 81 74.001s64.666 22 105.999 22c52 0 96.167-11.833 132.5-35.5s64.166-56.5 83.499-98.5 29-90.333 29-145c0-58-11.333-107.833-34-149.5S860.5 46.667 819.5 24 729.667-10 673-10zm.002 91.999c52 0 92.334 16.333 121.001 49s43 79 43 139c0 60.667-13.333 107-40 139s-65.334 48-116.001 48c-54 0-95-16.5-123-49.5s-42-79.833-42-140.5c0-58.667 13.333-104.167 40-136.5s65.667-48.5 117-48.5z"/><glyph glyph-name="uni10AB" unicode="Ⴋ" horiz-adv-x="762" d="M323-10c-52.667 0-98.666 9.5-137.999 28.5s-70 46.667-92 83-33 80.5-33 132.5c0 78 23.167 138 69.5 180S240.667 477 324 477h154v145H114v92h472V477h134v-90H586V247c0-78.667-22.333-141.167-67-187.5S409-10 323-10zm-3.999 92c55.333 0 95.667 14.332 121 42.999s38 68.334 38 119.001v143h-151c-104.667 0-157-51-157-153 0-50.667 13.5-88.667 40.5-114s63.167-38 108.5-38z"/><glyph glyph-name="uni10AC" unicode="Ⴌ" horiz-adv-x="722" d="M96 0v714h508v-92H204V479c0-6-.5-16.833-1.5-32.5S200 411 198 387h6c46 66 112.667 99 200 99 70.667 0 126.167-21.833 166.5-65.5S631 313.333 631 230V0H523v226c0 112-48 168-144 168-57.333 0-100.833-16.333-130.5-49S204 265.333 204 204V0H96z"/><glyph glyph-name="uni10AD" unicode="Ⴍ" horiz-adv-x="881" d="M393-10c-75.333 0-137.665 15.333-186.998 46s-86 73.667-110 129-36 120-36 194c0 72.667 12.167 136.5 36.5 191.5s61.166 97.667 110.499 128S318.667 724 394 724c73.333 0 134.5-15.167 183.5-45.5S663.333 605.667 688 551s37-119 37-193c0-53.333-6.5-102-19.5-146S672.667 130 646 98c12.667-10 24.667-17.5 36-22.5s23.666-7.5 36.999-7.5c38 0 57 27 57 81h96c0-48-10.5-86.5-31.5-115.5s-56.5-43.5-106.5-43.5c-26 0-50.167 5.667-72.5 17S618.333 33 599 51c-26-19.333-56.333-34.333-91-45s-73-16-115-16zm.001 92c76 0 131.334 24.667 166.001 74s52 116.666 52 201.999-17.167 152.166-51.5 200.499-89.5 72.5-165.5 72.5-131.667-24.167-167-72.5-53-115.166-53-200.499 17.667-152.666 53-201.999 90.666-74 165.999-74z"/><glyph glyph-name="uni10AE" unicode="Ⴎ" horiz-adv-x="849" d="M480-10c-88.667 0-157.833 23.167-207.5 69.5S198 170.333 198 253v369H2v92h303V259c0-57.333 14.5-101.166 43.5-131.499s71.833-45.5 128.5-45.5c58.667 0 102.334 15.167 131.001 45.5s43 74.166 43 131.499v455h108V253c0-82.667-24.833-147.167-74.5-193.5S566.667-10 480-10z"/><glyph glyph-name="uni10AF" unicode="Ⴏ" horiz-adv-x="748" d="M544 0l.001 200c0 19.333.5 37.666 1.5 54.999s2.5 35 4.5 53h-5c-20-28-47.833-50.833-83.5-68.5s-75.167-26.5-118.5-26.5c-46 0-86.5 9.667-121.5 29s-62.167 46.5-81.5 81.5-29 75.833-29 122.5c0 40.667 7.333 75.334 22 104.001s33 51.667 55 69v3h-181v92h324v-88c-28.667-8-50.834-20.833-66.501-38.5S238 550.333 232 529s-9-41.333-9-60c0-109.333 48.333-164 145-164 60 0 104.5 16.333 133.5 49S545 437.667 545 507v207h108V0H544z"/><glyph glyph-name="uni10B0" unicode="Ⴐ" horiz-adv-x="935" d="M308-10c-52 0-97.002 11.002-135.002 33.002s-67.167 51.5-87.5 88.5-30.5 78.5-30.5 124.5c0 61.333 19.333 118.666 58 171.999l92-39c-12.667-20-22-41.167-28-63.5s-9-44.166-9-65.499c0-28.667 5.333-55 16-79s26.334-43.167 47.001-57.5 45.667-21.5 75-21.5c46.667 0 82.334 14.667 107.001 44s37 73.666 37 132.999v455h108v-150c0-7.333-.333-18.833-1-34.5s-2-36.167-4-61.5h5c19.333 29.333 42 50.166 68 62.499s54.333 18.5 85 18.5c38.667 0 71.5-9.333 98.5-28s47.5-43 61.5-73 21-62.333 21-97c0-46.667-13-91.334-39-134.001l-95 30c16 29.333 24 60 24 92s-9 59.667-27 83-45 35-81 35c-35.333 0-63.5-11.667-84.5-35S558 366.333 558 325v-72c0-82.667-22-147.167-66-193.5S386.667-10 308-10z"/><glyph glyph-name="uni10B1" unicode="Ⴑ" horiz-adv-x="649" d="M340-10c-78 0-139 23.164-183 69.497s-66 110.833-66 193.5v461h108v-455c0-59.333 12.333-103.666 37-132.999s60-44 106-44c44.667 0 79 15.333 103 46s36 68 36 112c0 46-12.667 89-38 129l92 39c39.333-53.333 59-110.666 59-171.999 0-45.333-10.167-86.666-30.5-123.999S514 45 476 23s-83.333-33-136-33z"/><glyph glyph-name="uni10B2" unicode="Ⴒ" horiz-adv-x="623" d="M96 0l-.001 714h200c178 0 267-71.333 267-214 0-74-24.667-130.667-74-170S370.333 271 281 271h-77V92h329V0H96zm107.999 362h69.002c63.333 0 109.166 10.667 137.499 32S453 449.333 453 496c0 42.667-13.333 74.5-40 95.5S344.666 623 287.999 623h-84V362z"/><glyph glyph-name="uni10B3" unicode="Ⴓ" horiz-adv-x="784" d="M596-174c-6.667 0-13.836.502-21.503 1.502l-25.5 3.5v87c6.667-1.333 13.834-2.333 21.501-3s15.167-1 22.5-1c22.667 0 40 6 52 18s18 28.667 18 50c0 17.333-5.667 32.333-17 45s-25.666 22-42.999 28c-55.333-43.333-125.333-65-210-65-106 0-188 32.167-246 96.5S60 241.668 60 359c0 116.667 28.833 206.667 86.5 270s140.167 95 247.5 95c105.333 0 186.833-32 244.5-96S725 474 725 358c0-46.667-5.5-90.334-16.5-131.001s-28.833-79-53.5-115c32.667-10 59.334-26 80.001-48s31-51 31-87c0-46-15.167-82.667-45.5-110s-71.833-41-124.5-41zM392.998 82.002c145.333 0 218 92 218 276 0 182-72.333 273-217 273-72.667 0-127.5-23-164.5-69s-55.5-114-55.5-204 18.5-158.5 55.5-205.5 91.5-70.5 163.5-70.5z"/><glyph glyph-name="uni10B4" unicode="Ⴔ" horiz-adv-x="842" d="M369 0v172.999c-61.333 0-115.166 11-161.499 33s-82.5 53.333-108.5 94-39 89.334-39 146.001c0 92 32.333 161.333 97 208s153 70 265 70c117.333 0 206.5-23.5 267.5-70.5s91.5-116.167 91.5-207.5c0-58-13-107.333-39-148s-62.333-71.667-109-93S532.667 173 472 173V0H369zm0 259.999v374c-64-1.333-113.833-18.333-149.5-51s-53.5-78-53.5-136c0-58.667 17.667-104.5 53-137.5s85.333-49.5 150-49.5zm103 0c64.667 0 114.667 16.501 150 49.501s53 78.833 53 137.5-17.667 104.167-53 136.5-85.333 49.166-150 50.499v-374z"/><glyph glyph-name="uni10B5" unicode="Ⴕ" horiz-adv-x="633" d="M257 0v385H50v92h207v237h108V477h207v-92H365V0H257z"/><glyph glyph-name="uni10B6" unicode="Ⴖ" horiz-adv-x="742" d="M91 0v462c0 82.667 25.333 147 76 193s119.667 69 207 69c88 0 156.167-23.5 204.5-70.5S651 542 651 460V0H543v455c0 118-58 177-174 177-114 0-171-59.333-171-178V0H91z"/><glyph glyph-name="uni10B7" unicode="Ⴗ" horiz-adv-x="695" d="M491 0l.002 224.002c0 8 .5 19.333 1.5 34l3.5 54h-5c-20-30.667-47.833-54.667-83.5-72s-74.834-26-117.501-26c-74.667 0-132.5 22.667-173.5 68s-61.5 109.333-61.5 192c0 41.333 6.333 82.666 19 123.999s30.334 80 53.001 116h120c-22.667-27.333-41.5-62.833-56.5-106.5s-22.5-87.834-22.5-132.501c0-54.667 11.667-96.5 35-125.5S262.668 306 312.001 306c61.333 0 106.666 16.5 135.999 49.5S492 441 492 513v201h108V0H491z"/><glyph glyph-name="uni10B8" unicode="Ⴘ" horiz-adv-x="711" d="M356-10c-49.333 0-92.999 8.831-130.999 26.498s-67.833 41.834-89.5 72.501-32.5 65.667-32.5 105c0 30.667 7.333 59.334 22 86.001l96-32c-4.667-14-7-29-7-45 0-37.333 12.333-66.833 37-88.5S310.335 82 355.002 82c46.667 0 83.667 14.333 111 43s41 69 41 121v76c0 25.333 2 59.666 6 102.999h-6c-24-34.667-51.667-60-83-76s-66.333-24-105-24c-70.667 0-126.334 22.833-167.001 68.5s-61 109.167-61 190.5v130h108v-127c0-56.667 12.5-99.167 37.5-127.5s60.5-42.5 106.5-42.5c50 0 89.833 16.5 119.5 49.5s44.5 78.5 44.5 136.5v111h108v-467c0-54-10.667-100.167-32-138.5s-51.333-67.666-90-87.999S408.667-10 356-10z"/><glyph glyph-name="uni10B9" unicode="Ⴙ" horiz-adv-x="694" d="M94 0v714h108V452h407V0H501v361H202V0H94z"/><glyph glyph-name="uni10BA" unicode="Ⴚ" horiz-adv-x="710" d="M363-10c-64 0-118.5 14.665-163.5 43.998s-79.5 71.5-103.5 126.5-36 120.833-36 197.5c0 75.333 14.167 140.333 42.5 195s68.666 96.834 120.999 126.501 115.166 44.5 188.499 44.5c74.667 0 141.667-14.333 201-43l-40-89c-55.333 26-109.333 39-162 39-49.333 0-91.666-11.167-126.999-33.5s-62.666-54-81.999-95-29-89.833-29-146.5c0-85.333 18.333-152.166 55-200.499S315 83 379 83c56 0 109 13.333 159 40v172h108V0H538v33C485.333 4.333 427-10 363-10z"/><glyph glyph-name="uni10BB" unicode="Ⴛ" horiz-adv-x="903" d="M311-10C259.667-10 215.166.166 177.499 20.499s-66.667 48.833-87 85.5-30.5 79.334-30.5 128.001c0 75.333 22.5 135 67.5 179s108.167 66 189.5 66h132v235h108V479h260V0h-100v388h-160V247c0-83.333-21.667-147-65-191S388.333-10 311-10zm-3.001 91.999c94 0 141 53.332 141 159.999v146h-128c-101.333 0-152-51-152-153 0-47.333 12.167-84.666 36.5-111.999s58.5-41 102.5-41z"/><glyph glyph-name="uni10BC" unicode="Ⴜ" horiz-adv-x="612" d="M96 0l.001 714.001h200c178 0 267-68 267-204 0-70.667-24.333-124.834-73-162.501S371.667 291 281 291h-77v-76h243V45H346v79H204V0H96zm108.001 381.001l65.001.001c63.333 0 109.833 10 139.5 30s44.5 51.667 44.5 95c0 39.333-13.333 68.666-40 87.999s-68.334 29-125.001 29h-84v-242z"/><glyph glyph-name="uni10BD" unicode="Ⴝ" horiz-adv-x="582" d="M284-10c-76.667 0-135.671 16.831-177.004 50.498s-62 80.167-62 139.5c0 10 .667 19.333 2 28s3 17.334 5 26.001h107c-4.667-14.667-7-31-7-49 0-32 11-57.167 33-75.5s56-27.5 102-27.5c44.667 0 77.834 9.167 99.501 27.5s32.5 43.833 32.5 76.5c0 24-6.667 43.833-20 59.5s-32 29.5-56 41.5-52.667 24.333-86 37c-63.333 24.667-109.833 53.167-139.5 85.5s-44.5 74.5-44.5 126.5c0 38.667 9.333 72 28 100s44.834 49.667 78.501 65 72.834 23 117.501 23c68 0 120.5-16 157.5-48s55.5-75.333 55.5-130c0-4-.167-8-.5-12s-.833-7.667-1.5-11h-107c0 2.667.333 6 1 10s1 8 1 12c0 25.333-9.333 46-28 62s-45.334 24-80.001 24c-35.333 0-63.166-8.333-83.499-25s-30.5-39.667-30.5-69c0-23.333 5.667-42.666 17-57.999s28.333-28.833 51-40.5 51-24.167 85-37.5c41.333-15.333 76.333-32.166 105-50.499s50.5-40 65.5-65 22.5-56.5 22.5-94.5c0-62.667-21.167-111.834-63.5-147.501S361.333-10 284-10z"/><glyph glyph-name="uni10BE" unicode="Ⴞ" horiz-adv-x="706" d="M96 714h108V373h298v341h108V282H204V92h388V0H96v714z"/><glyph glyph-name="uni10BF" unicode="Ⴟ" horiz-adv-x="663" d="M36 0l245 367-168 257H16v90h572v-81L409 366 655 0H535L343 294 150 0H36zm311 437l123 187H230z"/><glyph glyph-name="uni10C0" unicode="Ⴠ" horiz-adv-x="966" d="M657-10c-78 0-139 23.164-183 69.497s-66 110.833-66 193.5v369H183v-238H75v330h441v-455c0-59.333 12.333-103.666 37-132.999s60-44 106-44c44.667 0 79 15.333 103 46s36 68 36 112c0 46-12.667 89-38 129l92 39c39.333-53.333 59-110.666 59-171.999 0-45.333-10.167-86.666-30.5-123.999S831 45 793 23s-83.333-33-136-33z"/><glyph glyph-name="uni10C1" unicode="Ⴡ" horiz-adv-x="716" d="M96 0l-.001 714.001h108v-164c0-9.333-.5-21.333-1.5-36l-3.5-52h6c40.667 58 98 87 172 87 64.667 0 114.834-18.5 150.501-55.5s54.5-89.833 56.5-158.5h112v-92H477v76c0 45.333-9.667 79.666-29 102.999s-50.333 35-93 35c-51.333 0-89.333-15-114-45s-37-76.333-37-139V0H96z"/><glyph glyph-name="uni10C2" unicode="Ⴢ" horiz-adv-x="629" d="M230-10c-36.667 0-69.335 2.333-98.002 7s-58 12.667-88 24v93c65.333-20.667 125.333-31 180-31 72 0 128.833 20.5 170.5 61.5s62.5 97.167 62.5 168.5c0 73.333-20.167 129-60.5 167s-99.166 57-176.499 57h-143v177h102v-84h55c108.667 0 191.834-27.167 249.501-81.5S570 415.667 570 313c0-67.333-14.167-125-42.5-173s-68-85-119-111S298-10 230-10z"/><glyph glyph-name="uni10C3" unicode="Ⴣ" horiz-adv-x="682" d="M478 0v193.001c0 8 .5 19.333 1.5 34s2.5 32.334 4.5 53.001h-6c-20-30.667-47.833-54.5-83.5-71.5s-73.167-25.5-112.5-25.5c-44.667 0-84 8.667-118 26s-60.667 42.5-80 75.5-29 73.167-29 120.5c0 61.333 19.333 118.666 58 171.999l92-39c-12.667-20.667-22-41.334-28-62.001s-9-40.667-9-60c0-44 11.5-78.5 34.5-103.5S260 275 306 275c57.333 0 100.5 16.167 129.5 48.5S479 407.333 479 478v236h108V0H478z"/><glyph glyph-name="uni10C4" unicode="Ⴤ" horiz-adv-x="711" d="M301 0l-.001 239.001c-72 9.333-127.667 36.666-167 81.999s-59 105-59 179v214h108V505c0-58 14.333-102 43-132S298.333 328 357 328c114 0 171 59.333 171 178v208h108V498c0-72-19.667-130.5-59-175.5S481.667 250 409 240V0H301z"/><glyph glyph-name="uni10C5" unicode="Ⴥ" horiz-adv-x="846" d="M246-10c-62.667 0-111.333 13.999-146 41.999s-52 67.333-52 118S65.167 239.833 99.5 267.5 185 309 253 309h84v213c0 64 20 113.667 60 149s96.667 53 170 53c74 0 131-15 171-45s60-72.333 60-127-20.5-96.667-61.5-126-100.167-44-177.5-44H445v-73h270V114H614v107H445v-31c0-61.333-17.5-110-52.5-146S308.667-10 246-10zm199.001 479.999l108.002-.001c45.333 0 78.666 6.667 99.999 20s32 34 32 62c0 26.667-9.833 47.334-29.5 62.001s-49.834 22-90.501 22c-80 0-120-37.667-120-113v-53zM249.003 77.998c28.667 0 50.5 9.332 65.5 27.999s22.5 45.667 22.5 81v34h-71c-36 0-62.5-5.667-79.5-17s-25.5-29.666-25.5-54.999c0-47.333 29.333-71 88-71z"/><glyph glyph-name="uni10C7" unicode="Ⴧ" horiz-adv-x="582" d="M298-10c-77.333 0-137.003 17.835-179.003 53.502s-63 84.834-63 147.501c0 38 7.333 69.5 22 94.5s36.5 46.667 65.5 65 64.167 35.166 105.5 50.499c33.333 13.333 61.333 25.833 84 37.5s39.834 25.167 51.501 40.5 17.5 34.666 17.5 57.999c0 29.333-10.333 52.333-31 69s-48.667 25-84 25c-34.667 0-61.334-8-80.001-24s-28-36.667-28-62c0-4 .333-8 1-12s1-7.333 1-10h-107c0 3.333-.333 7-1 11s-1 8-1 12c0 54.667 18.5 98 55.5 130s89.5 48 157.5 48c44.667 0 83.834-7.667 117.501-23s59.834-37 78.501-65 28-61.333 28-100c0-52-14.833-94.167-44.5-126.5s-76.167-60.833-139.5-85.5c-32.667-12.667-61.167-25-85.5-37s-43.166-25.833-56.499-41.5-20-35.5-20-59.5c0-32.667 10.833-58.167 32.5-76.5s55.167-27.5 100.5-27.5 79 9.167 101 27.5 33 43.5 33 75.5c0 18-2.333 34.333-7 49h107c2-8.667 3.667-17.334 5-26.001s2-18 2-28c0-59.333-20.5-105.833-61.5-139.5S375.333-10 298-10z"/><glyph glyph-name="uni10CD" unicode="Ⴭ" horiz-adv-x="574" d="M34 0v77l366 544H45v93h485v-77L164 93h375V0H34z"/><glyph glyph-name="uni10D0" unicode="ა" horiz-adv-x="559" d="M277-10c-44 0-83.331 7.836-117.998 23.503s-62 38.667-82 69-30 67.833-30 112.5c0 16 1.5 30.833 4.5 44.5s6.167 25.167 9.5 34.5h101c-2.667-10-4.834-21.5-6.501-34.5s-2.5-26.5-2.5-40.5c0-38.667 11.167-68.667 33.5-90s52.5-32 90.5-32c37.333 0 66.833 10.833 88.5 32.5s32.5 52.5 32.5 92.5c0 33.333-7.667 60.5-23 81.5s-32.666 40.833-51.999 59.5l-48 50.5c-16 17.667-29.167 38.167-39.5 61.5s-15.5 51.333-15.5 84h106c0-28.667 8-53.667 24-75s34.333-42.333 55-63c16-16 31.833-33.333 47.5-52s28.667-39.834 39-63.501 15.5-51.5 15.5-83.5c0-42.667-9.833-79.834-29.5-111.501S430.668 34.167 396.001 16.5 321.667-10 277-10z"/><glyph glyph-name="uni10D1" unicode="ბ" horiz-adv-x="610" d="M369 542c56-12 101.504-41.334 136.504-88.001s52.5-108 52.5-184c0-89.333-23-158.333-69-207s-108-73-186-73c-48.667 0-91.834 11-129.501 33s-67.334 53.833-89.001 95.5-32.5 92.167-32.5 151.5c0 82 19.167 146.667 57.5 194s91.166 75 158.499 83c3.333 6 6.166 12.667 8.499 20s3.5 16.333 3.5 27c0 12.667-3.333 23.334-10 32.001s-14.667 16.667-24 24c-13.333 10.667-26.5 23.834-39.5 39.501s-19.5 39.167-19.5 70.5h103c0-15.333 4-28.333 12-39s17.333-20.667 28-30c13.333-11.333 25.5-23.833 36.5-37.5S383 622.667 383 602c0-22-4.667-42-14-60zM305.004 76.999c50 0 86.5 17.333 109.5 52s34.5 81.667 34.5 141c0 60-11.667 106.833-35 140.5s-60 50.5-110 50.5-86.333-16.833-109-50.5-34-80.5-34-140.5c0-59.333 11.5-106.333 34.5-141s59.5-52 109.5-52z"/><glyph glyph-name="uni10D2" unicode="გ" horiz-adv-x="600" d="M298-250c-48.667 0-91.832 10.83-129.499 32.497s-67.334 52.667-89.001 93S47-36.003 47 19.997c0 82.667 21 145.834 63 189.501s98.667 70.5 170 80.5c38 5.333 65.167 16.333 81.5 33s24.5 37.667 24.5 63c0 24-7.667 43.667-23 59s-37.333 23-66 23c-28 0-49.333-7.333-64-22s-22-34-22-58c0-5.333.333-10.666 1-15.999s1.667-10.666 3-15.999H113c-4 15.333-6 31-6 47 0 43.333 17.333 78.5 52 105.5S239.667 549 297 549c38.667 0 72.334-6.667 101.001-20s51.167-31.5 67.5-54.5 24.5-49.167 24.5-78.5c0-30-7.667-56.5-23-79.5s-39.666-40.167-72.999-51.5v-3c55.333-16.667 95.666-47.167 120.999-91.5s38-94.5 38-150.5c0-84-22.833-150-68.5-198S376.667-250 298-250zm2.002 86.997c50 0 86.5 16.833 109.5 50.5s34.5 77.834 34.5 132.501c0 55.333-11.667 99.333-35 132s-60 49-110 49-86.333-16.333-109-49-34-76.667-34-132c0-54.667 11.5-98.834 34.5-132.501s59.5-50.5 109.5-50.5z"/><glyph glyph-name="uni10D3" unicode="დ" horiz-adv-x="890" d="M548-250c-15.333 27.333-35.5 50.831-60.5 70.498s-51.5 34.667-79.5 45-54.333 15.5-79 15.5c-28 0-53.833-3.333-77.5-10s-48.5-16-74.5-28l-34 72c14.667 6.667 31.667 12.834 51 18.501s43.666 9.5 72.999 11.5v3c-67.333 32-120 75.833-158 131.5s-57 123.834-57 204.501c0 50.667 7.833 96 23.5 136s38.667 71.5 69 94.5 67.5 34.5 111.5 34.5c88 0 144-37 168-111h5c14 36.667 37.167 64.334 69.5 83.001s67.5 28 105.5 28c70.667 0 127.334-23.833 170.001-71.5S838 362.667 838 276c0-57.333-10.333-106.5-31-147.5s-48.5-72.333-83.5-94S648.667 2 604 2c-71.333 0-128.333 24-171 72s-64 115-64 201v45c0 48-9.333 83.667-28 107s-44.334 35-77.001 35c-33.333 0-59-15.5-77-46.5s-27-74.167-27-129.5c0-61.333 9.833-111.833 29.5-151.5s46-72.167 79-97.5 69.167-46.333 108.5-63c40-16.667 75.833-33 107.5-49s59.334-34.5 83.001-55.5S611-177.667 627-209zm54 338.998c44 0 76.167 17 96.5 51s30.5 79.333 30.5 136c0 57.333-10 102.5-30 135.5s-52 49.5-96 49.5c-43.333 0-75-16.5-95-49.5s-30-78.167-30-135.5c0-56.667 10-102 30-136s51.333-51 94-51z"/><glyph glyph-name="uni10D4" unicode="ე" horiz-adv-x="593" d="M284-250c-47.333 0-88.832 9.997-124.499 29.997s-63.334 47.833-83.001 83.5S47-59.003 47-11.003c0 18.667 1.833 36.667 5.5 54s8.167 32.333 13.5 45h100c-3.333-12-6.333-26.5-9-43.5s-4-32.5-4-46.5c0-45.333 10.833-83.5 32.5-114.5s54.5-46.5 98.5-46.5c48 0 82 15.833 102 47.5s30 73.834 30 126.501v304c0 46.667-9.5 82.834-28.5 108.501S339.333 462 300 462c-36 0-64.833-10.333-86.5-31S181 380.332 181 341c0-28 3-53.333 9-76H88c-3.333 9.333-6.333 20.833-9 34.5S75 328 75 344c0 44.667 10 82.167 30 112.5s47 53.333 81 69S257.667 549 299 549c68 0 122.167-20.167 162.5-60.5S522 391.333 522 318V8c0-82-20.667-145.5-62-190.5S360-250 284-250z"/><glyph glyph-name="uni10D5" unicode="ვ" horiz-adv-x="587" d="M294-250c-50.667 0-94.499 9.501-131.499 28.501s-65.5 45-85.5 78-30 70.167-30 111.5c0 18.667 1.833 36.167 5.5 52.5s7.5 30.5 11.5 42.5h102c-3.333-10.667-6.333-24-9-40s-4-30.667-4-44c0-24.667 5-47.834 15-69.501s25.333-39.167 46-52.5 47.334-20 80.001-20c46.667 0 81.167 15 103.5 45s33.5 66.667 33.5 110c0 42.667-11.833 77.667-35.5 105s-60.167 41-109.5 41h-39v86h45c44 0 75.333 12.5 94 37.5s28 54.167 28 87.5c0 31.333-9.833 58-29.5 80s-48.167 33-85.5 33c-38 0-66.833-9.667-86.5-29s-29.5-46-29.5-80c0-9.333.667-18.5 2-27.5s3.333-18.5 6-28.5h-103c-7.333 21.333-11 42.666-11 63.999 0 36.667 9.5 69 28.5 97s45.167 50.167 78.5 66.5 71.666 24.5 114.999 24.5c44 0 82.667-8.5 116-25.5s59.166-40 77.499-69 27.5-61.167 27.5-96.5c0-47.333-12.833-85.833-38.5-115.5s-59.5-49.167-101.5-58.5v-4c28-4 54.167-14 78.5-30s44-37.5 59-64.5 22.5-60.167 22.5-99.5c0-47.333-10.167-88.666-30.5-123.999s-48.833-62.833-85.5-82.5S344-250 294-250z"/><glyph glyph-name="uni10D6" unicode="ზ" horiz-adv-x="627" d="M330-10C284-10 242.833.669 206.5 22.002s-65 51.833-86 91.5S89 200.336 89 255.003c0 38 5 72.167 15 102.5s26 56.166 48 77.499v4c-38 10-68.333 29-91 57s-34 62.667-34 104c0 28.667 6.833 56 20.5 82s33.667 47.167 60 63.5 58.833 24.5 97.5 24.5c37.333 0 69.333-7.5 96-22.5s47-34.5 61-58.5 21-49.667 21-77c0-35.333-7.667-63-23-83v-4c3.333 0 7.333-.333 12-1 60-8.667 108.833-35.334 146.5-80.001s56.5-105 56.5-181c0-57.333-10.167-106.333-30.5-147S495.667 44.167 459 22.5 379.333-10 330-10zM205 500.002c26 0 45.667 8.833 59 26.5s20 41.167 20 70.5c0 26.667-6.333 49.334-19 68.001s-32.667 28-60 28-47.333-9.333-60-28-19-41.334-19-68.001c0-26 6.333-48.667 19-68s32.667-29 60-29zm127-423c47.333 0 81.5 17 102.5 51s31.5 79 31.5 135c0 54.667-10.5 98.5-31.5 131.5s-55.5 49.5-103.5 49.5c-46.667 0-80.5-16.5-101.5-49.5s-31.5-76.833-31.5-131.5c0-56 10.5-101 31.5-135s55.167-51 102.5-51z"/><glyph glyph-name="uni10D7" unicode="თ" horiz-adv-x="890" d="M286-10c-44.667 0-84.669 11.005-120.002 33.005s-63.166 53.833-83.499 95.5-30.5 92.167-30.5 151.5c0 89.333 21.333 158.166 64 206.499s99 72.5 169 72.5c38.667 0 74.5-9.333 107.5-28s56.5-46.334 70.5-83.001h6c24 74 80.333 111 169 111 42.667 0 78.834-11.333 108.501-34s52.334-53.834 68.001-93.501 23.5-84.834 23.5-135.501c0-56.667-5.167-107-15.5-151s-25.833-89-46.5-135h-107c21.333 46 36.833 90.833 46.5 134.5s14.5 91.167 14.5 142.5c0 60-9 106.167-27 138.5s-43.667 48.5-77 48.5c-32.667 0-58.334-12-77.001-36s-28-60.667-28-110v-49c0-88.667-21.333-157.334-64-206.001s-99.667-73-171-73zm1.998 87.005c42.667 0 74 17.333 94 52s30 81.667 30 141c0 60-10 106.833-30 140.5s-51.667 50.5-95 50.5c-44 0-76-16.833-96-50.5s-30-80.5-30-140.5c0-59.333 10-106.333 30-141s52.333-52 97-52z"/><glyph glyph-name="uni10D8" unicode="ი" horiz-adv-x="581" d="M112 0C92 46 77.001 90.335 67.001 133.002s-15 90.334-15 143.001c0 82.667 20.167 148.834 60.5 198.501s99.833 74.5 178.5 74.5 138-24.833 178-74.5 60-115.834 60-198.501c0-52.667-4.833-100.334-14.5-143.001s-24.834-87-45.501-133H364c19.333 46 33.833 90.667 43.5 134S422 224.668 422 276.001c0 61.333-11.667 107.666-35 138.999s-55.333 47-96 47c-42 0-74.333-15.5-97-46.5s-34-77.833-34-140.5c0-51.333 4.667-98.5 14-141.5S198 46 218 0H112z"/><glyph glyph-name="uni10D9" unicode="კ" horiz-adv-x="572" d="M280-250c-48 0-89.83 9.503-125.496 28.503s-63.334 45-83.001 78-29.5 70.167-29.5 111.5c0 18.667 1.833 36.167 5.5 52.5s7.5 30.5 11.5 42.5h102c-3.333-10.667-6.333-24-9-40s-4-30.667-4-44c0-24.667 4.833-47.834 14.5-69.501s24.167-39.167 43.5-52.5 44-20 74-20c46.667 0 81 15 103 45s33 67.333 33 112c0 47.333-12.333 86.666-37 117.999s-60.334 47-107.001 47h-40v84h44c30 0 53.833 5.5 71.5 16.5s30.667 25 39 42 12.5 34.5 12.5 52.5c0 30-9.5 55.833-28.5 77.5s-45.5 32.5-79.5 32.5v85c41.333 0 78.166-8.333 110.499-25s57.666-38.667 75.999-66 27.5-57 27.5-89c0-42.667-12.833-78.5-38.5-107.5S407 213.334 365 204v-4c28-4 54.167-14.5 78.5-31.5s44-40.5 59-70.5S525 31.334 525-12c0-48-10.167-89.833-30.5-125.5s-48.833-63.333-85.5-83S329.333-250 280-250z"/><glyph glyph-name="uni10DA" unicode="ლ" horiz-adv-x="1104" d="M693-250c-20.667 33.333-46.496 60.836-77.496 82.503s-64.833 37.834-101.5 48.5-73.334 16-110.001 16c-34.667 0-67.667-4.666-99-14s-61-22-89-38l-40 73c19.333 10 40.666 18.668 63.999 26s46.333 12 69 14v3c-48 15.334-91.5 37.167-130.5 65.5s-69.833 64.5-92.5 108.5-34 97-34 159c0 50.667 7.833 95.167 23.5 133.5s38.667 68.166 69 89.499 67.166 32 110.499 32c38.667 0 70-8.833 94-26.5s41.333-41.834 52-72.501h6c10.667 30.667 28.167 54.834 52.5 72.5s55.166 26.5 92.499 26.5 68.166-8.832 92.499-26.5 41.833-41.833 52.5-72.5h5c11.333 30.667 29.333 54.834 54 72.5s55.334 26.5 92 26.5c44 0 81.168-11.5 111.5-34.5s53.334-54.832 69-95.5 23.5-88 23.5-142c0-43.332-4.666-83.832-14-121.5s-23.665-75.166-42.998-112.5l-92 34c15.333 32.668 26 64.835 32 96.502s9 66.167 9 103.5c0 62-9.333 108.333-28 139s-44.667 46-78 46c-28 0-49.5-11-64.5-33s-22.5-53.667-22.5-95v-156H649v159c0 36-7.5 65.833-22.5 89.5s-39.833 35.5-74.5 35.5c-32.667 0-57-11-73-33s-24-52.667-24-92v-159H354v156c0 38-7.167 68.833-21.5 92.5s-36.833 35.5-67.5 35.5c-32.667 0-58.334-13.833-77.001-41.5s-28-70.167-28-127.5c0-59.333 12.5-109 37.5-149s58.333-71.833 100-95.5S385 7.336 435-3.997c47.333-10.667 93-24.334 137-41.001S655.667-83.332 691-110s62.333-59.334 81-98.001z"/><glyph glyph-name="uni10DB" unicode="მ" horiz-adv-x="608" d="M297-10c-74 0-133.334 23.333-178.001 70s-67 115.334-67 206.001c0 86.667 20 153 60 199s92.667 69 158 69c40.667 0 73.834-7.5 99.501-22.5s46.5-33.5 62.5-55.5h6c-1.333 8-2.833 18.833-4.5 32.5s-2.5 26.5-2.5 38.5v44c0 33.333-9.667 61.333-29 84s-51 34-95 34c-34.667 0-62.834-7.833-84.501-23.5s-32.5-36.167-32.5-61.5c0-3.333.167-7 .5-11s.833-8 1.5-12h-103c-2 6.667-3.333 13.167-4 19.5s-1 12.166-1 17.499c0 30.667 10 57.334 30 80.001s46.833 40.334 80.5 53.001 71.167 19 112.5 19c72 0 128.333-19.333 169-58s61-89.334 61-152.001v-294c0-90.667-20.667-159.334-62-206.001S374.333-10 297-10zm-.001 87c49.333 0 84.667 15.833 106 47.5s32 73.167 32 124.5v18c0 56-10.167 100.167-30.5 132.5s-57.833 48.5-112.5 48.5c-43.333 0-76-17-98-51s-33-78.333-33-133c0-58 10.833-103.667 32.5-137s56.167-50 103.5-50z"/><glyph glyph-name="uni10DC" unicode="ნ" horiz-adv-x="608" d="M312-10c-78 0-137.666 23.501-178.999 70.501s-62 116.167-62 207.5v304c0 45.333 8.333 81.666 25 108.999s39 47.333 67 60 59.333 19 94 19h242v-86h-229c-28.667 0-51.334-7.167-68.001-21.5S177 614 177 580v-31c0-10.667-.833-24.334-2.5-41.001s-2.834-30-3.501-40h5c16 22.667 36.833 41.334 62.5 56.001s58.834 22 99.501 22c65.333 0 118-23.333 158-70s60-116 60-208c0-91.333-22.333-160.5-67-207.5S385.333-10 312-10zm.001 87.001c46.667 0 80.833 16.668 102.5 50.001s32.5 79.666 32.5 138.999c0 60-11 107.333-33 142s-54.667 52-98 52c-54.667 0-92-16.167-112-48.5s-30-76.833-30-133.5v-26c0-53.333 10.5-95.833 31.5-127.5s56.5-47.5 106.5-47.5z"/><glyph glyph-name="uni10DD" unicode="ო" horiz-adv-x="822" d="M114 0C93.333 46.667 77.831 91.5 67.498 134.5s-15.5 90.5-15.5 142.5c0 54 7.833 101.333 23.5 142s39 72.5 70 95.5 69.5 34.5 115.5 34.5c38.667 0 70.167-8.833 94.5-26.5s41.833-41.834 52.5-72.501h5c11.333 30.667 29.333 54.834 54 72.501s55.667 26.5 93 26.5c46 0 84.5-11.5 115.5-34.5s54.5-54.833 70.5-95.5 24-88 24-142c0-52-5.167-99.5-15.5-142.5S728.332 46.667 706.999 0h-106c20.667 46 36 90.833 46 134.5s15 91.167 15 142.5c0 59.333-9.333 105-28 137s-46.334 48-83.001 48c-29.333 0-51.666-11-66.999-33s-23-53.333-23-94V180h-101v155c0 37.333-7.167 67.833-21.5 91.5S301.333 462 270 462c-35.333 0-62.5-15.333-81.5-46S160 339 160 277c0-52 4.833-99.667 14.5-143S199.667 46 221 0H114z"/><glyph glyph-name="uni10DE" unicode="პ" horiz-adv-x="582" d="M285-10c-46 0-86.996 7.84-122.996 23.507s-64.167 38.667-84.5 69-30.5 67.833-30.5 112.5c0 15.333 1.5 29.666 4.5 42.999s6.167 24.666 9.5 33.999h101c-2.667-9.333-4.834-20.333-6.501-33s-2.5-26-2.5-40c0-39.333 11.5-69.5 34.5-90.5s55.5-31.5 97.5-31.5c46.667 0 81 14.833 103 44.5s33 65.167 33 106.5c0 27.333-5.333 52.5-16 75.5s-26.834 41.333-48.501 55-49.5 20.5-83.5 20.5h-44v84h53c38.667 0 66.5 7.167 83.5 21.5s25.5 33.166 25.5 56.499c0 25.333-7.333 44.666-22 57.999s-31.667 25.333-51 36c-15.333 9.333-30.666 19.166-45.999 29.499s-27.833 23.666-37.5 39.999-14.5 37.5-14.5 63.5h106c0-17.333 7.5-31.5 22.5-42.5s33.167-22.167 54.5-33.5c15.333-9.333 30.666-19.666 45.999-31s27.833-25.5 37.5-42.5 14.5-37.832 14.5-62.5c0-40.666-12.333-70.833-37-90.5s-56-33.834-94-42.501v-4c25.333-4.667 50.166-14.834 74.499-30.501s44.666-37.5 60.999-65.5 24.5-63 24.5-105c0-44.667-10-84.167-30-118.5s-48.333-61.166-85-80.5-80-29-130-29z"/><glyph glyph-name="uni10DF" unicode="ჟ" horiz-adv-x="627" d="M313-250c-47.333 0-88.83 8.997-124.496 26.997s-63.334 42.667-83.001 74-29.5 67.333-29.5 108c0 19.333 1.5 36 4.5 50s6.833 27 11.5 39h101c-7.333-23.333-11-49.666-11-78.999 0-36 10.833-67 32.5-93s54.834-39 99.501-39c46.667 0 80.167 15.667 100.5 47s30.5 73.333 30.5 126v446C398.337 434.665 345.67 420.332 287.003 413v-4c19.333-8 35.5-21.167 48.5-39.5s19.5-40.166 19.5-65.499c0-40.667-14.667-74-44-100s-68-39-116-39c-45.333 0-82 12.333-110 37s-42 56-42 94c0 6 .333 12.167 1 18.5s2 12.5 4 18.5h87c-2-9.333-3-18-3-26 0-19.333 5.667-35 17-47s26.666-18 45.999-18c20.667 0 37 6.5 49 19.5s18 29.5 18 49.5c0 26.667-6.5 47-19.5 61s-31.167 22.667-54.5 26v74c49.333 5.333 97.166 13.333 143.499 24S419.667 521 457 539h94V8c0-82-20.667-145.5-62-190.5S389-250 313-250z"/><glyph glyph-name="uni10E0" unicode="რ" horiz-adv-x="817" d="M113 0C91.667 46.667 76.166 91.669 66.499 135.002s-14.5 90.666-14.5 141.999v39c0 123.333 22.333 218.5 67 285.5S234.333 711.668 331 731.001c36 7.333 73 14.333 111 21s75.667 12.667 113 18l16-90-79.5-12c-27.667-4-54.334-8.167-80.001-12.5s-47.167-8.166-64.5-11.499c-28-6-55-14.5-81-25.5s-49.5-27.167-70.5-48.5-37.5-50.333-49.5-87h4c18 26 36.833 42.833 56.5 50.5s39.834 11.5 60.501 11.5c34 0 62.667-8.833 86-26.5s40.666-41.5 51.999-71.5h5c11.333 30.667 29.333 54.667 54 72s55.334 26 92.001 26c46 0 84.5-11.333 115.5-34s54.333-54.334 70-95.001S765 328.667 765 276s-5.167-100.167-15.5-142.5S723.667 46.667 703 0H596c20.667 46 36 90.5 46 133.5S657 224 657 276c0 58-9.333 103-28 135s-46 48-82 48c-28.667 0-50.667-11.167-66-33.5s-23-53.833-23-94.5V180H357v151c0 37.333-7.167 68-21.5 92s-36.833 36-67.5 36c-34.667 0-61.667-15.5-81-46.5s-29-76.833-29-137.5c0-52 5-99.333 15-142s25.333-87 46-133H113z"/><glyph glyph-name="uni10E1" unicode="ს" horiz-adv-x="611" d="M314-10c-78.667 0-138.833 23.167-180.5 69.5S71 173 71 261v499h106V252c0-53.333 10.833-95.833 32.5-127.5S266 77 314 77c46 0 80.167 15.167 102.5 45.5S450 189.666 450 232.999c0 27.333-4.167 50.833-12.5 70.5s-18.5 38.167-30.5 55.5c-16 23.333-30.667 48.833-44 76.5s-20 62.167-20 103.5h106c0-30 5.833-56.333 17.5-79s25.5-45.667 41.5-69c14-20 26-42.667 36-68s15-55.333 15-90c0-49.333-10.167-92.166-30.5-128.499S479.667 40 443 20s-79.667-30-129-30z"/><glyph glyph-name="uni10E2" unicode="ტ" horiz-adv-x="771" d="M385-250c-106.667 0-188.832 35-246.499 105s-86.5 170.667-86.5 302c0 112.667 25 202.667 75 270s120.667 106.666 212 117.999c-2 12.667-3.5 25.334-4.5 38.001s-1.5 23.667-1.5 33v47h104v-45c0-9.333-.667-20.5-2-33.5l-4-38.5c91.333-10.667 162.166-50 212.499-118S719 269.333 719 156c0-82-12.833-153.5-38.5-214.5S617.333-166.667 568-200s-110.333-50-183-50zm.002 87c72.667 0 128.333 26.667 167 80s58 133 58 239c0 184-59.667 286.667-179 308l4-42.5c1.333-14.333 2-29.833 2-46.5V178h-104v199c0 16 .5 31 1.5 45s2.5 27.667 4.5 41c-118.667-20.667-178-123-178-307 0-105.333 19.333-184.833 58-238.5s94-80.5 166-80.5z"/><glyph glyph-name="uni10E3" unicode="უ" horiz-adv-x="613" d="M303-250c-50.667 0-94.498 10-131.498 30s-65.5 47.833-85.5 83.5-30 77.5-30 125.5c0 18.667 1.833 36.667 5.5 54s8.167 32.333 13.5 45h100c-3.333-12-6.333-26.5-9-43.5s-4-32.5-4-46.5c0-45.333 11.167-83.5 33.5-114.5S253.668-163 303.001-163c48 0 82.333 16 103 48s31 74 31 126v347c0 70-25 105-75 105-22.667 0-40.5-9-53.5-27s-19.5-43.333-19.5-76V236h-101v123c0 66-25.667 99-77 99h-72v86h71c33.333 0 60.5-7 81.5-21s36.5-36 46.5-66h4c24 61.333 68.667 92 134 92 52.667 0 93.667-16.5 123-49.5s44-75.167 44-126.5V8c0-82-20.833-145.5-62.5-190.5S379.667-250 303-250z"/><glyph glyph-name="uni10E4" unicode="ფ" horiz-adv-x="870" d="M525-250c-56.667 0-106.001 7.331-148.001 21.998s-74.833 35.834-98.5 63.501-35.5 61.167-35.5 100.5c0 12.667 1.333 26 4 40h101c-1.333-10.667-2-19.667-2-27 0-38 16.333-66.167 49-84.5s76-27.5 130-27.5c55.333 0 96.5 13.5 123.5 40.5s40.5 59.167 40.5 96.5c0 30.667-8.667 57.834-26 81.501S617.333 91 578 91h-23v87h43c32 0 59 13.333 81 40s33 62.334 33 107.001c0 40.667-8.5 73.667-25.5 99s-41.167 38-72.5 38c-32 0-57.5-11.5-76.5-34.5s-28.5-57.833-28.5-104.5v-25c0-49.333-9.667-92.666-29-129.999s-46.166-66.5-80.499-87.5-74.5-31.5-120.5-31.5c-44.667 0-84.167 10.5-118.5 31.5s-61 50.333-80 88-28.5 81.5-28.5 131.5c0 49.333 9.5 92.666 28.5 129.999s45.5 66.5 79.5 87.5 73.667 31.5 119 31.5c36 0 70.333-9.333 103-28s56-46.334 70-83.001h6c12 34 31.667 61 59 81S579.667 549 623 549c40.667 0 75.5-9.833 104.5-29.5s51.333-45.5 67-77.5S818 376 818 340c0-61.333-13.167-108-39.5-140s-60.166-52.667-101.499-62v-4c39.333-10 69.333-29.333 90-58s31-64 31-106-11-79.5-33-112.5-53.333-59.167-94-78.5S581.667-250 525-250zM280.999 135.998c27.333 0 50 7.333 68 22s31.333 34.5 40 59.5 13 52.5 13 82.5c0 44.667-9.833 82.667-29.5 114s-50.5 47-92.5 47c-41.333 0-71.833-15.667-91.5-47s-29.5-69.333-29.5-114c0-30 4.333-57.5 13-82.5s22-44.833 40-59.5 41-22 69-22z"/><glyph glyph-name="uni10E5" unicode="ქ" horiz-adv-x="593" d="M284-250c-47.333 0-88.83 10-124.496 30s-63.334 47.833-83.001 83.5S47.003-59 47.003-11c0 18.667 1.833 36.667 5.5 54s8.167 32.333 13.5 45h100c-3.333-12-6.333-26.5-9-43.5s-4-32.5-4-46.5c0-45.333 10.833-83.5 32.5-114.5s54.5-46.5 98.5-46.5c48 0 82 15.833 102 47.5s30 73.834 30 126.501v261c0 60-9.333 106.667-28 140s-51.334 50-98.001 50c-30.667 0-56.5-10.333-77.5-31s-31.5-50.667-31.5-90c0-28 3-53.333 9-76h-102c-3.333 9.333-6.333 21-9 35s-4 29-4 45c0 44.667 9.167 82 27.5 112s42.166 52.833 71.499 68.5 60 23.5 92 23.5c35.333 0 65.333-7.667 90-23s45-34 61-56h5c-.667 9.333-1.834 23.166-3.501 41.499S416 545.333 416 558v202h106V8c0-82-20.667-145.5-62-190.5S360-250 284-250z"/><glyph glyph-name="uni10E6" unicode="ღ" horiz-adv-x="818" d="M522-250c-23.333 41.333-53.833 73.502-91.5 96.502s-74.834 34.5-111.501 34.5c-28 0-53.833-3.167-77.5-9.5s-48.5-15.833-74.5-28.5l-34 72c14.667 6.667 31.834 13 51.501 19s44.834 9.667 75.501 11v4c-138.667 63.333-208 172-208 326 0 54.667 7.833 102.5 23.5 143.5s38.834 73 69.501 96 68.667 34.5 114 34.5c38.667 0 70.167-8.833 94.5-26.5s41.833-41.834 52.5-72.501h5c11.333 30.667 29.333 54.834 54 72.501s55.667 26.5 93 26.5c45.333 0 83.5-11.5 114.5-34.5s54.333-54.833 70-95.5 23.5-88 23.5-142c0-43.333-4.667-83.833-14-121.5s-24-74.834-44-111.501l-90 33c15.333 32.667 25.833 64.834 31.5 96.501s8.5 66.167 8.5 103.5c0 58.667-9.167 104.167-27.5 136.5s-45.833 48.5-82.5 48.5c-28.667 0-50.667-11-66-33s-23-53-23-93v-157h-100v157c0 37.333-7.333 67.666-22 90.999s-37.334 35-68.001 35c-34.667 0-61.667-15.5-81-46.5s-29-77.167-29-138.5c0-58 9.167-106.333 27.5-145S229.667 61.667 261 37s66.333-45.334 105-62.001c40-16.667 74.5-33 103.5-49s54-34.667 75-56S584-177.667 600-209z"/><glyph glyph-name="uni10E7" unicode="ყ" horiz-adv-x="601" d="M293-250c-48 0-89.835 8.998-125.502 26.998s-63.167 42.667-82.5 74-29 67.333-29 108c0 19.333 1.333 36 4 50s6.667 27 12 39h100c-6.667-22.667-10-49-10-79 0-36 10.667-67 32-93s54.333-39 99-39c47.333 0 81.166 15.667 101.499 47s30.5 73.333 30.5 126v121c0 16 .5 31.333 1.5 46s2.167 29.334 3.5 44.001h-6c-16.667-26.667-39.167-47.167-67.5-61.5s-60.166-21.5-95.499-21.5c-66 0-117.333 19.167-154 57.5s-55 95.833-55 172.5c0 33.333 3.833 64.333 11.5 93s16.834 54.667 27.501 78h105c-10-26-18.333-51.667-25-77s-10-55.666-10-90.999c0-48.667 10.5-85 31.5-109s50.5-36 88.5-36c96 0 144 50.667 144 152v161h105V8c0-82-20.667-145.5-62-190.5S368.333-250 293-250z"/><glyph glyph-name="uni10E8" unicode="შ" horiz-adv-x="609" d="M297-10c-73.333 0-132.336 22.997-177.003 68.997s-67 111.667-67 197c0 82 19.833 145.5 59.5 190.5s92.167 67.5 157.5 67.5c41.333 0 74.666-7.5 99.999-22.5s46.333-33.5 63-55.5h5c-1.333 8-2.666 18.833-3.999 32.5s-2 26.5-2 38.5v90c0 28.667-6.333 50.834-19 66.501s-29.667 23.5-51 23.5c-20.667 0-37.167-6.167-49.5-18.5s-18.5-29.833-18.5-52.5v-40h-103v38c0 24-6.667 41.667-20 53s-28.666 17-45.999 17c-11.333 0-22.666-1.5-33.999-4.5s-22-6.167-32-9.5l-26 79c14 6 29 11 45 15s33.333 6 52 6c21.333 0 42.333-5.167 63-15.5s37-30.166 49-59.499h3c12.667 29.333 30.834 49.166 54.501 59.5s48.5 15.5 74.5 15.5c29.333 0 56.5-6.168 81.5-18.5s45-31.167 60-56.5S538 637.333 538 598V256c0-85.333-20.667-151-62-197S375-10 297-10zm-.003 86.997c49.333 0 84.666 15.333 105.999 46s32 69.334 32 116.001v18c0 33.333-4.333 62.666-13 88s-23.167 45.165-43.5 59.498-48.5 21.5-84.5 21.5c-44 0-77-16.333-99-49s-33-73.667-33-123c0-53.333 10.833-96.166 32.5-128.499s55.834-48.5 102.501-48.5z"/><glyph glyph-name="uni10E9" unicode="ჩ" horiz-adv-x="593" d="M71 0l-.002 578.999c0 56.667 17.333 102.667 52 138s82.334 53 143.001 53c56.667 0 101-12.167 133-36.5s48-53.833 48-88.5c0-33.333-9.333-60.333-28-81s-48-38.167-88-52.5-91.667-28.166-155-41.499v-27c0-20-1.667-42-5-66h5c16.667 25.333 38.834 45.5 66.501 60.5S301 460 335 460c64.667 0 115.167-20.333 151.5-61S541 301 541 227c0-44-4.167-86-12.5-126S510.334 27.333 499.001 0h-105C405.334 30 414.667 63 422 99s11 74.667 11 116c0 52.667-10.5 92.167-31.5 118.5S350.667 373 312 373c-42 0-75-14.5-99-43.5s-36-72.167-36-129.5V0H71zm103.998 537.999c53.333 9.333 95.333 22 126 38s46 36.333 46 61c0 15.333-7 28.333-21 39s-33.667 16-59 16c-27.333 0-49.5-8.167-66.5-24.5s-25.5-39.5-25.5-69.5v-60z"/><glyph glyph-name="uni10EA" unicode="ც" horiz-adv-x="673" d="M353-250c-102 0-177.666 35.169-226.999 105.502s-74 172.166-74 305.499c0 71.333 8 139.833 24 205.5s37.667 123.167 65 172.5h105c-26-50.667-47-108.334-63-173.001s-24-132.667-24-204c0-102.667 14.5-182.334 43.5-239.001s79.5-85 151.5-85c52.667 0 93 13.333 121 40s42 66.334 42 119.001c0 26-5.333 50.5-16 73.5s-27 41.333-49 55-50.333 20.5-85 20.5h-42v87h62c39.333 0 67.666 7.167 84.999 21.5s26 34.166 26 59.499c0 22.667-4.5 41-13.5 55s-19.833 26-32.5 36c-19.333 15.333-37 32.833-53 52.5S375 504.333 375 539h106c1.333-17.333 7.833-32.5 19.5-45.5s25.834-26.5 42.501-40.5c18-14.667 33.167-32 45.5-52s18.5-45.667 18.5-77c0-40-12.5-69.833-37.5-89.5s-56.167-34.167-93.5-43.5v-3c24.667-4.667 48.5-15 71.5-31s41.833-38.333 56.5-67 22-64 22-106c0-46.667-11-87.5-33-122.5s-53.333-62.333-94-82S409.667-250 353-250z"/><glyph glyph-name="uni10EB" unicode="ძ" horiz-adv-x="608" d="M296-10c-73.333 0-132.334 23.501-177.001 70.501s-67 116.167-67 207.5c0 92.667 20 162.667 60 210s92.667 71 158 71c40.667 0 73.834-7.667 99.501-23s46.5-34 62.5-56h6c-1.333 9.333-2.833 23.166-4.5 41.499S431 545.333 431 558v202h107V268c0-91.333-20.833-160.5-62.5-207.5S374-10 296-10zm.999 87.001c49.333 0 84.667 15.833 106 47.5s32 74.167 32 127.5v16c0 62-10.167 109.667-30.5 143s-57.833 50-112.5 50c-43.333 0-76-17.333-98-52s-33-82.334-33-143.001c0-59.333 10.833-105.666 32.5-138.999s56.167-50 103.5-50z"/><glyph glyph-name="uni10EC" unicode="წ" horiz-adv-x="609" d="M312-10c-78 0-137.672 23.003-179.005 69.003s-62 111.667-62 197v342c0 39.333 7.5 71.666 22.5 96.999s35 44.166 60 56.499 52.167 18.5 81.5 18.5c26 0 50.833-5.167 74.5-15.5s41.834-30.166 54.501-59.5h3c11.333 29.334 27.5 49.167 48.5 59.5s42.167 15.5 63.5 15.5c18.667 0 36-2 52-6s30.667-9 44-15l-25-79c-10 3.333-20.667 6.5-32 9.5s-22.666 4.5-33.999 4.5c-17.333 0-32.666-5.5-45.999-16.5s-20-27.167-20-48.5v-43h-103v44c0 20.667-6.167 37-18.5 49s-28.833 18-49.5 18c-21.333 0-38.333-7.833-51-23.5s-19-37.834-19-66.501v-90c0-12-.667-24.833-2-38.5s-2.666-24.5-3.999-32.5h5c16 22 36.833 40.5 62.5 55.5S297.333 514 338 514c65.333 0 118-22.5 158-67.5S556 338 556 256c0-85.333-22.333-151-67-197S385.333-10 312-10zm-.005 87.003c46.667 0 80.834 16.167 102.501 48.5s32.5 75.166 32.5 128.499c0 49.333-11 90.333-33 123s-54.667 49-98 49c-36 0-64.333-7.167-85-21.5s-35.334-34.166-44.001-59.5-13-54.665-13-87.998v-18c0-46.667 10.5-85.334 31.5-116.001s56.5-46 106.5-46z"/><glyph glyph-name="uni10ED" unicode="ჭ" horiz-adv-x="597" d="M305-250c-47.333 0-88.832 9.833-124.499 29.5s-63.334 46.667-83.001 81S68-65.667 68-21c0 18.667 1.833 36.667 5.5 54S81.667 65.333 87 78h100c-3.333-12-6.333-26.5-9-43.5S174 2 174-12c0-27.333 4.667-52.333 14-75s23.833-41 43.5-55 44.167-21 73.5-21c32 0 57.5 7.5 76.5 22.5s32.833 34.333 41.5 58S436-34 436-8c0 29.333-3.667 54.666-11 75.999s-16.666 41.666-27.999 60.999c-12.667 22-24.334 45-35.001 69s-18.667 50-24 78h-3c-16-20-35-34.667-57-44s-47.333-14-76-14c-24 0-47.833 6-71.5 18S87 265.831 71 289.498s-24 53.167-24 88.5 8 65 24 89 37.333 42 64 54 56 18 88 18h96v221h104v-221h119v-87H423v-88c0-39.333 6.833-73.666 20.5-102.999S473 202.333 491 173c14.667-24 27.334-51 38.001-81s16-63.667 16-101c0-46.667-9.5-88.167-28.5-124.5s-46.333-64.833-82-85.5S355.667-250 305-250zm-71.999 551c29.333 0 51 8.834 65 26.501s21 38.5 21 62.5v63h-84c-28.667 0-50-6.833-64-20.5s-21-31.834-21-54.501c0-24 7.667-42.833 23-56.5s35.333-20.5 60-20.5z"/><glyph glyph-name="uni10EE" unicode="ხ" horiz-adv-x="608" d="M312-10c-78 0-137.668 23.499-179.001 70.499s-62 116.167-62 207.5v492h106v-202c0-12.667-.833-28.167-2.5-46.5s-3.167-32.166-4.5-41.499h6c16 22 36.833 40.667 62.5 56s58.834 23 99.501 23c65.333 0 118-23.667 158-71s60-117.333 60-210c0-91.333-22.333-160.5-67-207.5S385.333-10 312-10zm-.001 86.999c46.667 0 80.833 16.667 102.5 50s32.5 79.666 32.5 138.999c0 60.667-11 108.334-33 143.001s-54.667 52-98 52c-54.667 0-92.167-16.667-112.5-50s-30.5-81-30.5-143v-16c0-53.333 10.667-95.833 32-127.5s57-47.5 107-47.5z"/><glyph glyph-name="uni10EF" unicode="ჯ" horiz-adv-x="572" d="M338 318c0-32 9.501-60.335 28.501-85.002s40.5-49.667 64.5-75c24-24.667 45.667-52.334 65-83.001s29-67.667 29-111c0-44-10-82-30-114s-48-56.667-84-74-78.333-26-127-26c-47.333 0-88.833 9-124.5 27s-63.334 42.667-83.001 74S47-81.67 47-41.003c0 19.333 1.5 36 4.5 50s6.833 27 11.5 39h101c-7.333-23.333-11-49.666-11-78.999 0-36 10.833-67 32.5-93s54.5-39 98.5-39c38.667 0 70.5 11 95.5 33s37.5 51.333 37.5 88c0 34.667-8.333 64.334-25 89.001S356 95.333 334 118c-16 17.333-31.833 35.833-47.5 55.5s-28.5 41-38.5 64-15 48.833-15 77.5v35L57 381v86l176-31v112h106V417l176-31v-86l-177 31v-13z"/><glyph glyph-name="uni10F0" unicode="ჰ" horiz-adv-x="573" d="M281-10c-50 0-92.666 8.666-127.999 25.999s-62.166 40-80.499 68-27.5 58-27.5 90c0 14 2 28.333 6 43h101c-1.333-9.333-2-18.333-2-27 0-30.667 10-57.167 30-79.5s54-33.5 102-33.5c45.333 0 78.166 8.333 98.499 25s30.5 36.667 30.5 60c0 24-8.667 44.667-26 62s-49 26-95 26h-51v85h70c30 0 52.833 4.5 68.5 13.5s23.5 24.833 23.5 47.5c0 40-33.667 60-101 60h-61v85h70c28.667 0 48 4.833 58 14.5s15 20.167 15 31.5c0 14.667-6.333 26-19 34s-29 15.333-49 22c-16.667 6-33 13.333-49 22s-29.167 20.5-39.5 35.5-15.5 34.833-15.5 59.5h106c2-14 10.333-25.167 25-33.5s32.334-16.5 53.001-24.5c16-6.667 31.5-14.167 46.5-22.5s27.333-19.5 37-33.5 14.5-31.667 14.5-53c0-22-9.333-40.833-28-56.5s-43.334-26.5-74.001-32.5v-4c16-1.333 33.5-5.833 52.5-13.5s35.167-19 48.5-34 20-33.833 20-56.5c0-26-6.167-46.333-18.5-61s-27.833-25.5-46.5-32.5-37.334-11.833-56.001-14.5v-3c38.667-7.333 70.167-21.166 94.5-41.499S521 194 521 156c0-32.667-10.5-61.5-31.5-86.5S440 25 404 11s-77-21-123-21z"/><glyph glyph-name="uni10F1" unicode="ჱ" horiz-adv-x="678" d="M375-10C262.333-10 180.332 25.001 128.999 95.001s-77 171.333-77 304c0 63.333 8 127 24 191s37.667 120.667 65 170h106c-26.667-50-48-106.667-64-170s-24-126.333-24-189c0-68.667 7-127.167 21-175.5s36.833-85.166 68.5-110.499 73.834-38 126.501-38c43.333 0 77.833 7.667 103.5 23s38.5 36 38.5 62c0 24.667-8.667 45.5-26 62.5s-48.333 25.5-93 25.5h-53v85h72c28.667 0 50.834 4.5 66.501 13.5s23.5 24.833 23.5 47.5c0 39.333-33 59-99 59h-63v86h69c28.667 0 48 5.833 58 17.5s15 23.167 15 34.5c0 16-4.333 28.333-13 37s-19 16.334-31 23.001c-10.667 6.667-21.667 14.167-33 22.5s-20.833 19.166-28.5 32.499-11.5 30.666-11.5 51.999h107c0-14.667 5.167-26.334 15.5-35.001s22.166-16.667 35.499-24c17.333-10 33.166-22.667 47.499-38s21.5-38 21.5-68c0-25.333-9.333-45.333-28-60s-43.334-25-74.001-31v-4c16.667-1.333 34.334-5.833 53.001-13.5s34.667-19 48-34 20-33.833 20-56.5c0-26-6.167-46.333-18.5-61s-27.666-25.5-45.999-32.5-36.833-11.833-55.5-14.5v-3c38-6.667 69.167-20.167 93.5-40.5S626 194.667 626 156c0-32-10.5-60.5-31.5-85.5s-50.333-44.667-88-59S425-10 375-10z"/><glyph glyph-name="uni10F2" unicode="ჲ" horiz-adv-x="592" d="M62 0l-.001 84c24.667 0 48 1.167 70 3.5s47 5.833 75 10.5v3c-51.333 23.333-90 56.166-116 98.499s-39 85.5-39 129.5c0 37.333 9 72.833 27 106.5s45.167 61 81.5 82 81.5 31.5 135.5 31.5 99-10.5 135-31.5 63.167-48.333 81.5-82 27.5-69.167 27.5-106.5c0-44-13-87.167-39-129.5s-65-75.166-117-98.499v-3c28.667-4.667 53.834-8.167 75.501-10.5S504.667 84 530 84V0c-47.333 0-90 4-128 12s-73.333 20.333-106 37c-33.333-16.667-68.833-29-106.5-37S109.333 0 62 0zm233.999 129c40.667 20 73.333 46 98 78s37 72 37 120c0 37.333-11.5 69.5-34.5 96.5s-56.5 40.5-100.5 40.5-77.667-13.5-101-40.5-35-59.167-35-96.5c0-48 12.5-88 37.5-120s57.833-58 98.5-78z"/><glyph glyph-name="uni10F3" unicode="ჳ" horiz-adv-x="587" d="M294-250c-50.667 0-94.501 9.501-131.501 28.501s-65.5 45-85.5 78-30 70.167-30 111.5c0 18.667 1.833 36.167 5.5 52.5s7.5 30.5 11.5 42.5h102c-3.333-10.667-6.333-24-9-40s-4-30.667-4-44c0-24.667 5-47.834 15-69.501s25.333-39.167 46-52.5 47.334-20 80.001-20c46.667 0 81.167 15 103.5 45S431-51.333 431-8c0 52.667-13.833 92.667-41.5 120s-64.167 41-109.5 41h-64v72l172 226H91v88h422v-73L333 233c33.333-3.333 66-14.166 98-32.499s58.167-44.833 78.5-79.5S540 42.667 540-10c0-48.667-10.167-91-30.5-127s-48.833-63.833-85.5-83.5S344-250 294-250z"/><glyph glyph-name="uni10F4" unicode="ჴ" horiz-adv-x="577" d="M285-250c-46 0-86.998 7.833-122.998 23.5s-64.167 38.667-84.5 69-30.5 67.833-30.5 112.5c0 15.333 1.5 29.666 4.5 42.999s6.167 24.666 9.5 33.999h101c-2.667-9.333-4.834-20.333-6.501-33s-2.5-26-2.5-40c0-39.333 11.5-69.5 34.5-90.5s55.5-31.5 97.5-31.5c31.333 0 57 7 77 21s34.833 32.5 44.5 55.5 14.5 47.833 14.5 74.5c0 27.333-5.333 52.333-16 75s-26.834 40.834-48.501 54.501-49.5 20.5-83.5 20.5h-44v87h53c38.667 0 66.5 8.833 83.5 26.5s25.5 41.5 25.5 71.5c0 28.667-10.167 51-30.5 67s-45.166 30.667-74.499 44c-26.667 12-52.667 25.5-78 40.5s-46.166 33.833-62.499 56.5-24.5 51.667-24.5 87c0 47.333 16.167 84.5 48.5 111.5s75.833 40.5 130.5 40.5c54 0 104-13.333 150-40l-35-81c-40 22.667-77.333 34-112 34-52.667 0-79-20.667-79-62 0-28 11.167-49.333 33.5-64s49.5-29.334 81.5-44.001c25.333-11.333 50.5-24.166 75.5-38.499s45.667-32.666 62-54.999 24.5-51.5 24.5-87.5c0-44.667-12.333-78.5-37-101.5s-56-38.833-94-47.5v-4c25.333-4.667 50.166-14.834 74.499-30.501s44.666-37.5 60.999-65.5 24.5-63 24.5-105c0-45.333-10-85.166-30-119.499s-48.333-61-85-80S335-250 285-250z"/><glyph glyph-name="uni10F5" unicode="ჵ" horiz-adv-x="660" d="M284-10c-74 0-131.166 15.667-171.499 47s-60.5 75.333-60.5 132c0 54 19.5 96 58.5 126s93.833 45 164.5 45h139v97h-155c-62.667 0-110.834 14-144.501 42S64 547.333 64 600s19.667 94.167 59 124.5S218 770 290 770c74 0 130.333-17.5 169-52.5S517 632 517 566v-43h109v-86H517v-97h109v-86H517v-47c0-71.333-19.667-125.333-59-162s-97.333-55-174-55zm-15.999 533l146-.001v43c0 79.333-41.667 119-125 119-38.667 0-68.167-7.167-88.5-21.5s-30.5-35.166-30.5-62.499c0-52 32.667-78 98-78zm20-448.001c43.333 0 75.168 11.333 95.501 34s30.5 56.334 30.5 101.001v44h-142c-36 0-63.833-7.333-83.5-22s-29.5-36-29.5-64c0-28.667 11.167-51.334 33.5-68.001s54.166-25 95.499-25z"/><glyph glyph-name="uni10F6" unicode="ჶ" horiz-adv-x="927" d="M375-250c-32.667 0-57.664 5.334-74.997 16.001v81c6-2.667 13.833-5.167 23.5-7.5s19.167-3.5 28.5-3.5c19.333 0 34 5.667 44 17s15 34.333 15 69v65c0 12 .667 26.333 2 43s2.666 29.667 3.999 39h-5c-18-26-39.5-45.667-64.5-59s-54.5-20-88.5-20c-64.667 0-115.334 24.5-152.001 73.5s-55 117.833-55 206.5c0 89.333 18.167 158.166 54.5 206.499S193 549 257 549c35.333 0 65.5-7.167 90.5-21.5S393.668 493 411 467h4c-1.333 12-2.333 24.333-3 37s-1 27-1 43v53c0 44 6.167 78.333 18.5 103s29.333 42 51 52 45.834 15 72.5 15c16 0 30.834-1.667 44.5-5s23.835-7.333 30.502-12v-80c-4.667 2.667-12.167 5.167-22.5 7.5s-20.5 3.5-30.5 3.5c-18.667 0-33.167-5.667-43.5-17s-15.5-34.333-15.5-69v-51c0-16-.333-30.333-1-43s-1.667-25-3-37h4c17.333 26 38.666 46.167 63.999 60.5s55.333 21.5 90 21.5c64 0 114.167-24.167 150.5-72.5s54.5-117.166 54.5-206.499c0-88.667-18.333-157.5-55-206.5S732.668-9.999 668-9.999c-34 0-63.5 6.667-88.5 20s-46.167 33-63.5 59h-6c1.333-9.333 2.666-22.333 3.999-39s2-31 2-43v-66c0-62.667-13-106.834-39-132.501S417-250 375-250zM283.003 79.001c46 0 79.333 15.002 100 45.002s31 78.667 31 146v17c0 61.333-10.5 105.666-31.5 132.999s-53.833 41-98.5 41c-40 0-70.5-15.833-91.5-47.5s-31.5-78.834-31.5-141.501c0-62 10.667-109.667 32-143s51.333-50 90-50zm362 .002c38 0 67.667 16.665 89 49.998s32 81 32 143c0 62.667-10.5 109.834-31.5 141.5s-51.5 47.5-91.5 47.5c-44.667 0-77.5-13.666-98.5-41s-31.5-71.665-31.5-132.998v-17c0-67.333 10.5-116 31.5-146s54.5-45 100.5-45z"/><glyph glyph-name="uni10F7" unicode="ჷ" horiz-adv-x="562" d="M279-250c-70.667 0-127.003 19.165-169.003 57.498s-63 89.833-63 154.5c0 48.667 9.333 89.334 28 122.001s43.834 60.334 75.501 83.001 67.167 43.334 106.5 62.001c32.667 16 58.834 30.667 78.501 44s33.667 27.666 42 42.999 12.5 33.666 12.5 54.999c0 28-8.833 50-26.5 66s-44.834 24-81.501 24c-38.667 0-66.834-8-84.501-24s-26.5-39.333-26.5-70c0-7.333 1-15.333 3-24h-104c-2.667 10.667-4 21-4 31 0 53.333 18.833 95.833 56.5 127.5s90.5 47.5 158.5 47.5c70 0 123.667-16.167 161-48.5s56-75.833 56-130.5c0-35.333-7.167-66-21.5-92s-36.166-49.667-65.499-71-66.333-42.666-111-63.999c-28.667-14-53.667-28.667-75-44s-38.166-34-50.499-56-18.5-49.667-18.5-83c0-37.333 11.333-67 34-89s52.334-33 89.001-33c37.333 0 68 10.167 92 30.5S407-80 407-38c0 14-1 27-3 39s-4.333 21.667-7 29h108c6.667-20 10-44.333 10-73 0-70-21.833-122-65.5-156S349-250 279-250z"/><glyph glyph-name="uni10F8" unicode="ჸ" horiz-adv-x="601" d="M308-250c-75.333 0-133.669 22.502-175.002 67.502s-62 108.5-62 190.5v531h105v-161c0-101.333 48-152 144-152 38 0 67.5 12 88.5 36s31.5 60.333 31.5 109c0 35.333-3.333 65.666-10 90.999s-15 51-25 77h105c10.667-23.333 19.834-49.333 27.501-78s11.5-59.667 11.5-93c0-76.667-18.333-134.167-55-172.5s-88-57.5-154-57.5c-35.333 0-67.166 7.167-95.499 21.5s-50.833 34.833-67.5 61.5h-6c1.333-14.667 2.5-29.334 3.5-44.001s1.5-30 1.5-46V10c0-52.667 10.167-94.667 30.5-126s54.166-47 101.499-47c44.667 0 77.667 13 99 39s32 57 32 93c0 30-3.333 56.333-10 79h100c5.333-12 9.333-25 12-39s4-30.667 4-50c0-40.667-9.667-76.667-29-108S469.333-205 434-223s-77.333-27-126-27z"/><glyph glyph-name="uni10F9" unicode="ჹ" horiz-adv-x="610" d="M307 549c48 0 90.997-10.83 128.997-32.496s67.833-52.667 89.5-93 32.5-88.833 32.5-145.5c0-82-21-144.833-63-188.5s-98.667-70.834-170-81.501c-38-4.667-65.167-15.334-81.5-32.001s-24.5-37.667-24.5-63c0-24 7.667-43.667 23-59s37-23 65-23c28.667 0 50.334 7.333 65.001 22s22 34 22 58c0 5.333-.333 10.666-1 15.999s-1.667 10.666-3 15.999h101c4.667-15.333 7-31 7-47 0-43.333-17.333-78.5-52-105.5s-81-40.5-139-40.5c-38 0-71.5 6.667-100.5 20s-51.5 31.5-67.5 54.5-24 49.167-24 78.5c0 30 7.5 56.5 22.5 79.5s39.5 40.167 73.5 51.5v3c-55.333 16.667-95.666 47-120.999 91s-38 94-38 150c0 84.667 22.833 151 68.5 199S228.333 549 307 549zm-2.003-86.996c-50 0-86.5-16.833-109.5-50.5s-34.5-78.167-34.5-133.5c0-54.667 11.5-98.334 34.5-131.001s59.833-49 110.5-49c50 0 86.333 16.333 109 49s34 76.334 34 131.001c0 55.333-11.5 99.833-34.5 133.5s-59.5 50.5-109.5 50.5z"/><glyph glyph-name="uni10FA" unicode="ჺ" horiz-adv-x="491" d="M82 0l-.002 73.999 76 9v3c-30 16.667-55.167 43-75.5 79s-30.5 79-30.5 129c0 56.667 11.167 103.834 33.5 141.501s53 66 92 85 83.167 28.5 132.5 28.5c28 0 55.167-3 81.5-9s48.5-13.333 66.5-22l-32-85c-17.333 6.667-36.166 12.667-56.499 18s-40.166 8-59.499 8c-50 0-87.333-15.5-112-46.5S161 338 161 282c0-60 14.667-107.5 44-142.5S277.333 87 334 87h113V0H82z"/><glyph glyph-name="uni10FB" unicode="჻" horiz-adv-x="545" d="M137 407c-22.667 0-39.833 6.333-51.5 19S68 456.334 68 479.001c0 48.667 23 73 69 73 22 0 38.833-6.333 50.5-19s17.5-30.667 17.5-54c0-22.667-6.167-40.334-18.5-53.001s-28.833-19-49.5-19zm281.001-210c-21.333 0-38.168 6.169-50.501 18.502S349 245.668 349 269.001c0 48.667 23 73 69 73s69-24.333 69-73c0-22.667-6.167-40.334-18.5-53.001s-29.166-19-50.499-19zM136.999-13.998c-22.667 0-39.833 6.332-51.5 18.999s-17.5 30.667-17.5 54c0 48 23 72 69 72 21.333 0 38-6.167 50-18.5s18-30.166 18-53.499c0-22.667-6.167-40.5-18.5-53.5s-28.833-19.5-49.5-19.5z"/><glyph glyph-name="uni10FC" unicode="ჼ" horiz-adv-x="357" d="M181 408c-46 0-81.167 13.833-105.5 41.5S39 516.334 39 567.001v163c0 28 5.5 50.5 16.5 67.5s25.333 29.167 43 36.5 36.5 11 56.5 11h145v-65H165c-27.333 0-41-13-41-39v-13c0-6.667-.333-14.834-1-24.501s-2-18.167-4-25.5h3c8 14 19.167 25 33.5 33s32.5 12 54.5 12c34.667 0 63-12.833 85-38.5s33-64.167 33-115.5-13-91-39-119-62-42-108-42zm0 67c22 0 37.667 8.333 47 25s14 39 14 67c0 29.333-5.5 51.5-16.5 66.5S200 656 182 656c-24 0-40.833-7.333-50.5-22S117 599 117 573v-13c0-26.667 5.333-47.5 16-62.5s26.667-22.5 48-22.5z"/><glyph glyph-name="uni10FD" unicode="ჽ" horiz-adv-x="562" d="M283-10c-70 0-126.835 17.002-170.502 51.002s-65.5 86-65.5 156c0 28.667 3.333 53 10 73h109c-3.333-7.333-6-17-8-29s-3-25-3-39c0-42 12-73.167 36-93.5s54.667-30.5 92-30.5c36.667 0 66.334 11 89.001 33s34 51.667 34 89c0 32.667-6 58.667-18 78s-28.833 35.5-50.5 48.5-46.5 26.5-74.5 40.5c-44.667 22-81.667 43.5-111 64.5s-51.166 44-65.499 69-21.5 55.167-21.5 90.5c0 54.667 18.667 98.167 56 130.5s90.666 48.5 159.999 48.5c68.667 0 121.667-15.833 159-47.5s56-73.834 56-126.501c0-10.667-1-21.334-3-32.001h-105c2 8.667 3 16.667 3 24 0 30.667-8.667 54-26 70S319.333 682 280 682c-36 0-63-8-81-24s-27-38-27-66c0-21.333 4.333-39.5 13-54.5s22.667-28.833 42-41.5 45.333-27 78-43c40-19.333 75.833-39 107.5-59s56.667-45 75-75S515 250 515 202c0-64.667-21-116.167-63-154.5S353.667-10 283-10z"/><glyph glyph-name="uni10FE" unicode="ჾ" horiz-adv-x="592" d="M62 539c47.333 0 89.834-4 127.501-12s73.167-20.333 106.5-37c32.667 16.667 68 29 106 37s80.667 12 128 12v-84c-25.333 0-48.833-1.167-70.5-3.5S412.667 445.667 384 441v-3c52-24 91-57 117-99s39-85 39-129c0-37.333-9.167-72.833-27.5-106.5s-45.5-61-81.5-82S350-10 296-10 196.833.5 160.5 21.5 97 69.833 79 103.5 52 172.667 52 210c0 44 13 87 39 129s64.667 75 116 99v3c-28 4.667-53 8.167-75 10.5S86.667 455 62 455v84zm234.001-130c-40.667-19.333-73.499-45-98.499-77s-37.5-72-37.5-120c0-37.333 11.667-69.5 35-96.5s57-40.5 101-40.5 77.5 13.5 100.5 40.5 34.5 59.167 34.5 96.5c0 48-12.333 88-37 120s-57.334 57.667-98.001 77z"/><glyph glyph-name="uni10FF" unicode="ჿ" horiz-adv-x="610" d="M558 270c0-89.333-22.999-158.332-68.999-206.999s-108-73-186-73c-48.667 0-91.834 11-129.501 33s-67.334 53.833-89.001 95.5-32.5 92.167-32.5 151.5c0 89.333 22.667 158.166 68 206.499s107.333 72.5 186 72.5c49.333 0 92.833-10.833 130.5-32.5s67.334-53.167 89.001-94.5S558 330 558 270zm-396.999.001c0-60.667 11.5-108 34.5-142s59.5-51 109.5-51 86.5 17 109.5 51 34.5 81.333 34.5 142c0 61.333-11.667 108.5-35 141.5s-60 49.5-110 49.5-86.333-16.5-109-49.5-34-80.167-34-141.5z"/><glyph glyph-name="uni2010" unicode="‐" horiz-adv-x="322" d="M37 223v90h248v-90H37z"/><glyph glyph-name="uni20BE" unicode="₾" horiz-adv-x="775" d="M107 0l-.001 76.002 100 10v3c-50 30-86.667 69.833-110 119.5s-35 103.834-35 162.501c0 80.667 19.167 149.5 57.5 206.5s94.166 94.833 167.499 113.5v79h67v-68c12 1.333 24.333 2 37 2s25-.667 37-2v68h67v-79c72-20 127.167-59.833 165.5-119.5s57.5-134.5 57.5-224.5h-111c0 63.333-8.833 116.666-26.5 159.999s-46.167 74.666-85.5 93.999v-253h-67v272c-11.333 1.333-23.666 2-36.999 2-12.667 0-25-.667-37-2v-272h-67v253c-39.333-18.667-68.166-48.5-86.499-89.5s-27.5-91.167-27.5-150.5c0-54 9.667-101.333 29-142s46.833-72.334 82.5-95.001S362.667 90 412 90h261V0H107z"/><glyph glyph-name="uni2D00" unicode="ⴀ" horiz-adv-x="703" d="M367 0c-71.333 0-123.334 13.332-156.001 39.999s-49 70.334-49 131.001v214c0 25.333-5.5 43-16.5 53s-26.5 15-46.5 15h-80v86h138c23.333 0 43.833-5.167 61.5-15.5S250.333 494 261 466h5c17.333 28 41.166 48.833 71.499 62.5s62.833 20.5 97.5 20.5c62.667 0 110.834-15.667 144.501-47S630 420.334 630 351.001v-102H524v87c0 84-37 126-111 126-55.333 0-93.333-16.167-114-48.5s-31-77.833-31-136.5v-96c0-34.667 8.5-59.334 25.5-74.001s45.833-22 86.5-22h216V0H367z"/><glyph glyph-name="uni2D01" unicode="ⴁ" horiz-adv-x="659" d="M349-250c-92 0-167.001 11.335-225.001 34.002v95c28-13.333 59.833-23.666 95.5-30.999s73.834-11 114.501-11c62.667 0 110.167 9.167 142.5 27.5S525-90.331 525-54.998c0 17.333-2.333 32.333-7 45s-10.667 23.667-18 33c-8 11.333-15 23-21 35s-10.667 25-14 39h-4c-20-38-46.5-65.333-79.5-82s-69.167-25-108.5-25c-62.667 0-110.667 15.667-144 47s-50 81-50 149v353h106v-338c0-82.667 36.667-124 110-124 51.333 0 88.5 15.167 111.5 45.5S441 200.668 441 266.001v273h106v-369c0-20.667 3.5-38.667 10.5-54s15.5-30 25.5-44c12.667-17.333 23.667-35.833 33-55.5s14-45.5 14-77.5c0-60.667-24.833-107.334-74.5-140.001S437-250 349-250z"/><glyph glyph-name="uni2D02" unicode="ⴂ" horiz-adv-x="663" d="M353-250c-92.667 0-168.001 11.33-226.001 33.996v95c28-13.333 59.833-23.666 95.5-30.999s73.834-11 114.501-11c62.667 0 110.167 9.333 142.5 28s48.5 46 48.5 82c0 18.667-3.333 34.834-10 48.501S503.333 22.332 494 35c-12 16.666-23.167 35.333-33.5 56S445 138.334 445 171.001v165c0 84-37 126-111 126-55.333 0-93.333-16.333-114-49s-31-79.667-31-141v-272H83v539h84l15-73h5c18 28 42 48.833 72 62.5s62.333 20.5 97 20.5c63.333 0 111.5-15.667 144.5-47S550 420.335 550 351.002v-173c0-23.333 3.833-43 11.5-59s17.5-32.333 29.5-49c11.333-15.333 21.333-33.333 30-54s13-46.334 13-77c0-60.668-25-107.335-75-140.002s-118.667-49-206-49z"/><glyph glyph-name="uni2D03" unicode="ⴃ" horiz-adv-x="610" d="M303-10c-76 0-136.832 22.834-182.499 68.501s-68.5 109.5-68.5 191.5c0 66.667 18.667 122.834 56 168.501s90 80.167 158 103.5c-9.333 17.333-16.166 37.166-20.499 59.499s-6.5 45.833-6.5 70.5v21h-161v87h451v-87h-186v-20c0-24 2.167-44.5 6.5-61.5s12.166-32.667 23.499-47 28-29.833 50-46.5C470.334 461.334 504.667 423.667 526 385s32-85.667 32-141c0-82-23-144.833-69-188.5S381-10 303-10zm.001 87.001c46 0 81.834 13.502 107.501 40.502s38.5 69.5 38.5 127.5c0 37.333-7.5 70.166-22.5 98.499s-37.833 54.833-68.5 79.5c-8.667 6.667-16.667 13.167-24 19.5s-13 12.166-17 17.499c-50.667-17.333-89.167-43-115.5-77s-39.5-78.333-39.5-133c0-55.333 12.667-98 38-128s59.666-45 102.999-45z"/><glyph glyph-name="uni2D04" unicode="ⴄ" horiz-adv-x="630" d="M356 549c62.667 0 110.834-15.668 144.501-47.001s50.5-81.666 50.5-150.999v-591h-106v576c0 84-37 126-111 126-55.333 0-93.333-16.333-114-49s-31-79.667-31-141V0h-106v539h84l15-72h6c17.333 28 41.166 48.667 71.499 62s62.5 20 96.5 20z"/><glyph glyph-name="uni2D05" unicode="ⴅ" horiz-adv-x="948" d="M687 549c60.667 0 106.333-15.668 137-47.001S870 420.333 870 351V0H764v337c0 83.333-33.667 125-101 125-48 0-82.333-14.833-103-44.5s-31-72.167-31-127.5v-530H424v577c0 83.333-34 125-102 125-50.667 0-85.5-16.333-104.5-49S189 333.333 189 272V0H83v539h84l15-72h6c16 28 38.333 48.667 67 62s59 20 91 20c83.333 0 138-29 164-87h8c17.333 30 41.333 52 72 66s63 21 97 21z"/><glyph glyph-name="uni2D06" unicode="ⴆ" horiz-adv-x="699" d="M430 548c68 0 121.168-24.333 159.501-73s57.5-117 57.5-205c0-90.667-20.833-160-62.5-208s-102.167-72-181.5-72c-160.667 0-241 93.667-241 281v335c0 24.667-5.333 42.167-16 52.5S119.667 674 99 674H19v86h121c46 0 78.667-12.333 98-37s29-55.334 29-92.001v-54c0-16.667-.5-34.167-1.5-52.5S263.333 487.333 262 468h5c17.333 26 39.5 45.833 66.5 59.5S392.667 548 430 548zM404.001 77c44.667 0 78.168 16.5 100.501 49.5s33.5 80.833 33.5 143.5c0 63.333-11.333 111.166-34 143.499s-55.667 48.5-99 48.5c-46.667 0-81.334-13.667-104.001-41s-34-71.666-34-132.999v-18c0-65.333 10.833-113.833 32.5-145.5s56.5-47.5 104.5-47.5z"/><glyph glyph-name="uni2D07" unicode="ⴇ" horiz-adv-x="944" d="M262-10c-60.667 0-106.333 15.667-137 47s-46 81-46 149v353h84l15-72h6c15.333 26 36.833 46.167 64.5 60.5s58.834 21.5 93.501 21.5c84.667 0 140-29.667 166-89h5c16.667 28.667 39.834 50.667 69.501 66s63.167 23 100.5 23c61.333 0 107.166-15.833 137.499-47.5s45.5-81.834 45.5-150.501v-351h-105v337c0 83.333-33.667 125-101 125-46 0-80-14.167-102-42.5s-33-71.5-33-129.5v-290h-83l-16 71h-5c-14-25.333-34.833-45.166-62.5-59.499S298.667-10 262-10zm24.001 87c46.667 0 80.666 14.832 101.999 44.499S420 199.333 420 266v71c0 42-8.167 73.333-24.5 94s-42.166 31-77.499 31c-46 0-79.667-14.833-101-44.5s-32-78.167-32-145.5v-70c0-83.333 33.667-125 101-125z"/><glyph glyph-name="uni2D08" unicode="ⴈ" horiz-adv-x="450" d="M265 0l.001 351c0 34.667-8 60.167-24 76.5s-42 24.5-78 24.5h-144v87h160c67.333 0 116.166-14.833 146.499-44.5S371 418.333 371 355V0H265z"/><glyph glyph-name="uni2D09" unicode="ⴉ" horiz-adv-x="639" d="M455-240v200.999c0 16.667.5 34.167 1.5 52.5s2.5 37.166 4.5 56.499h-6c-17.333-26-39.5-45.833-66.5-59.5s-58.833-20.5-95.5-20.5c-68 0-120.667 24.333-158 73S79 180.332 79 268.999v491h106v-183c0-16.667-.5-34.167-1.5-52.5S181.333 487.333 180 468h5c17.333 26 39.5 45.833 66.5 59.5S310.667 548 348 548c68 0 120.5-24.5 157.5-73.5S561 357 561 269v-509H455zM317 76.999c46.667 0 81.334 13.667 104.001 41s34 72 34 134v21c0 62-11.333 108.833-34 140.5s-55.334 47.5-98.001 47.5c-46.667 0-81.334-13.667-104.001-41s-34-72.333-34-135v-19c0-62 11.333-109 34-141s55.334-48 98.001-48z"/><glyph glyph-name="uni2D0A" unicode="ⴊ" horiz-adv-x="948" d="M607-10c-61.333 0-107.168 15.668-137.501 47.001s-45.5 81-45.5 149v151c0 42-8.167 73.333-24.5 94s-42.166 31-77.499 31c-46 0-79.667-14.833-101-44.5s-32-78.167-32-145.5v-272H83v539h84l15-72h6c15.333 25.333 36.666 45.333 63.999 60s58.666 22 93.999 22c84.667 0 140-29.667 166-89h5c16.667 28.667 39.667 50.667 69 66s63 23 101 23c60.667 0 106.334-15.833 137.001-47.5s46-81.834 46-150.501V0h-83l-16 71h-5c-16-26-37.667-46-65-60S642.333-10 607-10zm22.998 87.001c46.667 0 80.667 14.832 102 44.499s32 77.834 32 144.501v71c0 83.333-33.667 125-101 125-45.333 0-79-14.167-101-42.5s-33-71.5-33-129.5v-88c0-42.667 8.167-74.167 24.5-94.5s41.833-30.5 76.5-30.5z"/><glyph glyph-name="uni2D0B" unicode="ⴋ" horiz-adv-x="616" d="M295-10c-78.667 0-138.833 24.169-180.5 72.502S52 178.668 52 266.001c0 93.333 19.833 162.166 59.5 206.499S213 539 297 539h134v43c0 60-31.667 90-95 90H120v88h231c124 0 186-58.667 186-176V266c0-184-80.667-276-242-276zm1.001 87.002c48 0 82.5 15.667 103.5 47s31.5 78 31.5 140v187h-126c-38 0-67.333-6.333-88-19s-35.167-32.5-43.5-59.5-12.5-62.167-12.5-105.5c0-126.667 45-190 135-190z"/><glyph glyph-name="uni2D0C" unicode="ⴌ" horiz-adv-x="625" d="M79 0l-.001 554c0 71.333 17 123.5 51 156.5s86.667 49.5 158 49.5h238v-88h-229c-41.333 0-70.333-8.5-87-25.5s-25-45.833-25-86.5v-20c0-12.667-.5-25.5-1.5-38.5s-2.167-24.833-3.5-35.5h6c16 26 38.333 46.167 67 60.5S314.333 548 351 548c64.667 0 113.5-16 146.5-48S547 418.333 547 351V0H441v336c0 84-36.667 126-110 126-50.667 0-87.667-14.833-111-44.5S185 339 185 271V0H79z"/><glyph glyph-name="uni2D0D" unicode="ⴍ" horiz-adv-x="949" d="M262-10c-60.667 0-106.331 15.668-136.998 47.001s-46 81.666-46 150.999v351h106V202c0-83.333 33.667-125 101-125 45.333 0 79 13.833 101 41.5s33 71.167 33 130.5v290h105V202c0-42 8.167-73.333 24.5-94s42.166-31 77.499-31c46 0 79.667 14.833 101 44.5s32 78.167 32 145.5v272h106V0h-84l-15 72h-6c-15.333-26.667-37-47-65-61s-59-21-93-21c-84.667 0-140 29.667-166 89h-5c-16.667-28.667-39.834-50.667-69.501-66S299.333-10 262-10z"/><glyph glyph-name="uni2D0E" unicode="ⴎ" horiz-adv-x="713" d="M524 539l106.001.001v-539h-85l-15 71h-5c-16-25.333-38.667-45.166-68-59.499s-63-21.5-101-21.5c-64.667 0-113.334 16-146.001 48s-49 81.333-49 148v199c0 24.667-5.167 42.167-15.5 52.5s-25.833 15.5-46.5 15.5H19v86h121c46 0 78.833-12.333 98.5-37s29.5-55.334 29.5-92.001v-208c0-42.667 8.833-74.167 26.5-94.5s45.5-30.5 83.5-30.5c51.333 0 88.5 14.667 111.5 44S524 198.667 524 266v273z"/><glyph glyph-name="uni2D0F" unicode="ⴏ" horiz-adv-x="713" d="M524-240l.001 212.002c0 20 .5 37.167 1.5 51.5s3.167 30.166 6.5 47.499h-7c-16-25.333-38.667-45.166-68-59.499s-63-21.5-101-21.5c-64.667 0-113.334 16-146.001 48s-49 81.333-49 148v199c0 24.667-5.167 42.167-15.5 52.5s-25.833 15.5-46.5 15.5H19v86h121c46 0 78.833-12.333 98.5-37s29.5-55.334 29.5-92.001v-208c0-42.667 8.833-74.167 26.5-94.5s45.5-30.5 83.5-30.5c51.333 0 88.5 14.667 111.5 44S524 198.667 524 266v273h107v-779H524z"/><glyph glyph-name="uni2D10" unicode="ⴐ" horiz-adv-x="947" d="M262-10c-60 0-105.5 16-136.5 48S79 119.333 79 186v353h106V202c0-83.333 34-125 102-125 46 0 79.833 14.667 101.5 44S421 198.666 421 265.999v494h106v-203c0-38-2-68-6-90h5c15.333 26 36.833 46.167 64.5 60.5s59.5 21.5 95.5 21.5c59.333 0 104.5-16.167 135.5-48.5S868 418.333 868 351V0H762v336c0 42-8.167 73.5-24.5 94.5S695.667 462 661 462c-46.667 0-80.667-15-102-45s-32-78.333-32-145V0h-88l-14 71h-4c-15.333-26-36.833-46-64.5-60S297.333-10 262-10z"/><glyph glyph-name="uni2D11" unicode="ⴑ" horiz-adv-x="631" d="M274-10c-64.667 0-113.333 15.999-146 47.999s-49 81.333-49 148v574h107v-558c0-83.333 36.667-125 110-125 51.333 0 88.5 14.833 111.5 44.5S442 199.333 442 266v273h106V0h-84l-15 71h-6c-16-26-38.5-46-67.5-60S312.667-10 274-10z"/><glyph glyph-name="uni2D12" unicode="ⴒ" horiz-adv-x="620" d="M351 549c68 0 121.165-25.168 159.498-75.501s57.5-118.833 57.5-205.5c0-87.333-19-155.5-57-204.5s-91-73.5-159-73.5c-35.333 0-66.666 6.5-93.999 19.5s-50.333 33.5-69 61.5h-4c.667-7.333 1.334-18 2.001-32s1-25.333 1-34v-28c0-45.333 12.167-80.5 36.5-105.5s58.166-37.5 101.499-37.5c78 0 145.667 14 203 42v-93C501.666-228.334 471.833-236.667 439.5-242s-67.833-8-106.5-8c-84.667 0-147.5 19.667-188.5 59S83-93.667 83-17v556h86l12-71h5c39.333 54 94.333 81 165 81zm-22.002-88.001c-50 0-86.5-15.001-109.5-45.001s-34.5-79.333-34.5-148v-20c0-61.333 11.333-105.5 34-132.5s58.667-40.5 108-40.5c44 0 77 16.333 99 49s33 80.334 33 143.001-11.167 110.667-33.5 144-54.5 50-96.5 50z"/><glyph glyph-name="uni2D13" unicode="ⴓ" horiz-adv-x="949" d="M760-240l.001 212c0 17.333.5 32.833 1.5 46.5s2.833 31.5 5.5 53.5h-6c-15.333-26-37-46.167-65-60.5s-59-21.5-93-21.5c-83.333 0-138.333 29-165 87h-7c-16.667-27.333-39.667-48.666-69-63.999s-62.666-23-99.999-23c-60.667 0-106.334 15.667-137.001 47s-46 81.666-46 150.999v351h106V202c0-83.333 33.667-125 101-125 45.333 0 79 13.833 101 41.5s33 71.167 33 130.5v290h105V202c0-42 8.167-73.333 24.5-94S591.667 77 627 77c46 0 79.667 14.833 101 44.5s32 78.167 32 145.5v493h106V-240H760z"/><glyph glyph-name="uni2D14" unicode="ⴔ" horiz-adv-x="927" d="M411-240l.003 221c0 13.333.667 28.833 2 46.5s2.666 31.5 3.999 41.5h-5c-18-26-39.5-45.667-64.5-59s-54.5-20-88.5-20C194.335-10 143.668 14.5 107 63.5S52 181.333 52 270c0 89.333 18.167 158.166 54.5 206.499s86.5 72.5 150.5 72.5c35.333 0 65.5-7.167 90.5-21.5s46.167-34.5 63.5-60.5h4l18 72h61l18-72h5c17.333 26 38.5 46.167 63.5 60.5s54.833 21.5 89.5 21.5c64 0 114.167-24.167 150.5-72.5S875 359.333 875 270c0-88.667-18.333-157.5-55-206.5S732.667-10 668-10c-34 0-63.333 6.667-88 20s-46 33-64 59h-6c2-10 3.667-23.833 5-41.5s2-33.167 2-46.5v-221H411zM283.003 77c46 0 79.332 15.168 99.999 45.501s31 79.833 31 148.5v16c0 62-10.5 106.667-31.5 134s-53.833 41-98.5 41c-39.333 0-69.666-15.833-90.999-47.5s-32-79.167-32-142.5c0-62.667 10.667-110.834 32-144.501s51.333-50.5 90-50.5zm361.999.001c38 0 67.667 16.832 89 50.499s32 81.834 32 144.501c0 63.333-10.5 110.833-31.5 142.5s-51.5 47.5-91.5 47.5c-44.667 0-77.5-13.667-98.5-41s-31.5-72-31.5-134v-16c0-68.667 10.5-118.167 31.5-148.5s54.5-45.5 100.5-45.5z"/><glyph glyph-name="uni2D15" unicode="ⴕ" horiz-adv-x="491" d="M192-240v691H19v88h173v221h106V539h174v-88H298v-691H192z"/><glyph glyph-name="uni2D16" unicode="ⴖ" horiz-adv-x="630" d="M356 549c62.667 0 110.834-15.668 144.501-47.001s50.5-81.666 50.5-150.999V0h-106v336c0 84-37 126-111 126-55.333 0-93.333-16.333-114-49s-31-79.667-31-141V0h-106v539h84l15-72h6c17.333 28 41.166 48.667 71.499 62s62.5 20 96.5 20z"/><glyph glyph-name="uni2D17" unicode="ⴗ" horiz-adv-x="631" d="M442-240l.002 211.999c0 19.333.667 36.5 2 51.5s3.666 30.833 6.999 47.5h-8c-16-26-38.5-46-67.5-60s-62.833-21-101.5-21c-64.667 0-113.334 16-146.001 48s-49 81.333-49 148v353h107v-337c0-83.333 36.667-125 110-125 51.333 0 88.5 14.833 111.5 44.5S442 199.333 442 266v273h106v-779H442z"/><glyph glyph-name="uni2D18" unicode="ⴘ" horiz-adv-x="631" d="M302-250c-80 0-146.666 11-199.999 33v94c55.333-26.667 121.333-40 198-40 47.333 0 82.666 11.667 105.999 35s35 56.666 35 99.999v26c0 20.667 1.667 44.334 5 71.001h-5c-16-25.333-38.167-44.833-66.5-58.5S312.667-10 274-10c-64.667 0-113.334 16-146.001 48s-49 81.333-49 148v353h107V202c0-83.333 36.667-125 110-125 51.333 0 88.5 14.833 111.5 44.5s34.5 77.834 34.5 144.501v273h106v-543c0-84.667-19.667-146.834-59-186.501S387.333-250 302-250z"/><glyph glyph-name="uni2D19" unicode="ⴙ" horiz-adv-x="629" d="M83-240V760h106V557c0-16-.5-31.167-1.5-45.5S185 482 183 466h7c16 26 38.167 46.167 66.5 60.5S317.333 548 354 548c65.333 0 114.333-16 147-48s49-81.667 49-149V0H445v336c0 84-37 126-111 126-50.667 0-87.5-14.833-110.5-44.5S189 339 189 271v-511H83z"/><glyph glyph-name="uni2D1A" unicode="ⴚ" horiz-adv-x="629" d="M313-250C159.667-250 83.002-172 83.002-16v555h84l15-72h6c16 26.667 39 47 69 61s63 21 99 21c129.333 0 194-66 194-198V0h-105v336c0 42-8.833 73.5-26.5 94.5S372.668 462 334.001 462c-50.667 0-87.5-14.833-110.5-44.5s-34.5-78.167-34.5-145.5V-26c0-47.333 11.167-82 33.5-104S278.667-163 324-163c37.333 0 72.833 3.667 106.5 11s64.167 17 91.5 29v-94c-55.333-22-125-33-209-33z"/><glyph glyph-name="uni2D1B" unicode="ⴛ" horiz-adv-x="936" d="M256-10c-64 0-114.002 24.332-150.002 72.999s-54 117-54 205c0 88.667 18.167 157.667 54.5 207s86.833 74 151.5 74c66.667 0 118.334-26.333 155.001-79h5c-2 12-3.667 26.833-5 44.5s-2 33.834-2 48.501v197h106V557c0-18.667-.667-35.5-2-50.5s-3-28.5-5-40.5h6c16 26.667 37.833 47 65.5 61s58.167 21 91.5 21c60.667 0 106.5-16 137.5-48s46.5-81.667 46.5-149V0h-105v336c0 42-8.167 73.5-24.5 94.5S685.333 462 650 462c-46 0-79.667-14.833-101-44.5S517 339 517 271V0h-84l-18 72h-4c-36-54.667-87.667-82-155-82zm26.998 86.999c45.333 0 78.5 13.331 99.5 39.998s31.5 71.334 31.5 134.001v16c0 70.667-10.5 120.834-31.5 150.501s-54.5 44.5-100.5 44.5c-38.667 0-68.5-17-89.5-51s-31.5-82.333-31.5-145c0-126 40.667-189 122-189z"/><glyph glyph-name="uni2D1C" unicode="ⴜ" horiz-adv-x="948" d="M83-240v779.002h84l15-72h6c15.333 25.333 36.666 45.333 63.999 60s58.666 22 93.999 22c83.333 0 138-29 164-87h8c16.667 27.333 39.5 48.666 68.5 63.999s62.5 23 100.5 23c60.667 0 106.334-15.833 137.001-47.5s46-81.834 46-150.501V0h-106v337c0 83.333-33.667 125-101 125-45.333 0-79-14.167-101-42.5s-33-71.5-33-129.5V0h-105v337c0 42-8.167 73.333-24.5 94S357.333 462 322 462c-46 0-79.667-14.833-101-44.5s-32-78.167-32-145.5v-512H83z"/><glyph glyph-name="uni2D1D" unicode="ⴝ" horiz-adv-x="625" d="M293-250c-86 0-155.665 11.335-208.998 34.002v94c55.333-28 122.333-42 201-42 56.667 0 97.167 8.333 121.5 25s36.5 37.667 36.5 63c0 31.333-10.833 52.166-32.5 62.499s-48.5 15.5-80.5 15.5h-247v537h84l15-73h5c18 28 42 48.833 72 62.5s62.333 20.5 97 20.5c63.333 0 111.666-15.667 144.999-47s50-81.666 50-150.999v-102h-106v87c0 84-37 126-111 126-55.333 0-93.333-16.167-114-48.5s-31-77.833-31-136.5v-191h156c37.333 0 71.5-5.333 102.5-16s55.667-27.834 74-51.501 27.5-54.834 27.5-93.501c0-32.667-9.167-62.167-27.5-88.5s-46.333-47.333-84-63S351.667-250 293-250z"/><glyph glyph-name="uni2D1E" unicode="ⴞ" horiz-adv-x="629" d="M313-250c-77.333 0-135.003 19.001-173.003 57.001s-57 97-57 177v555h106v-272c0-67.333 11.667-115.833 35-145.5s60-44.5 110-44.5c38.667 0 66.834 10.5 84.501 31.5s26.5 52.5 26.5 94.5v336h105v-346c0-68.667-15.833-119.667-47.5-153s-80.5-50-146.5-50c-36.667 0-69.5 7-98.5 21s-51.5 34-67.5 60h-7c2.667-17.333 4.334-34.333 5.001-51s1-31.667 1-45c0-48.667 10.833-83.834 32.5-105.501S277.333-163 324-163c74 0 140.333 13.333 199 40v-94c-54-22-124-33-210-33z"/><glyph glyph-name="uni2D1F" unicode="ⴟ" horiz-adv-x="564" d="M-62-240l318 478-154 219H22v82h515v-76L380 239 551 0H432L320 167 56-240H-62zm381 546l103 152H215z"/><glyph glyph-name="uni2D20" unicode="ⴠ" horiz-adv-x="955" d="M608-10c-60.667 0-106.501 15.998-137.501 47.998s-46.5 81.333-46.5 148v150c0 42-8.167 73.5-24.5 94.5s-41.833 31.5-76.5 31.5c-46.667 0-80.667-14.833-102-44.5s-32-78.167-32-145.5v-272h-106v539h84l13-77h5c15.333 28 37 49.5 65 64.5s60 22.5 96 22.5c122.667 0 184-66 184-198v-149c0-83.333 33.667-125 101-125 46.667 0 80.834 14.833 102.501 44.5S766 199.332 766 265.999v273h106v-539h-85l-15 71h-5c-15.333-25.333-36.5-45.166-63.5-59.499S644.667-10 608-10z"/><glyph glyph-name="uni2D21" unicode="ⴡ" horiz-adv-x="583" d="M83-240l-.002 1000h106V480h4c24.667 46 68.334 69 131.001 69 42 0 74.833-10.833 98.5-32.5s35.5-52.167 35.5-91.5c0-26 4.5-44.5 13.5-55.5s24.833-16.5 47.5-16.5h46v-87h-76c-43.333 0-77.166 10.5-101.499 31.5S351 347.333 351 384c0 52-22 78-66 78-64 0-96-45.667-96-137v-565H83z"/><glyph glyph-name="uni2D22" unicode="ⴢ" horiz-adv-x="607" d="M295-10c-49.333 0-92.167 9.168-128.5 27.501s-64.5 43.333-84.5 75-30 67.167-30 106.5c0 17.333 2.667 36.666 8 57.999h105c-3.333-17.333-5-33-5-47 0-40.667 12.5-73.167 37.5-97.5S255 76 295 76c48.667 0 86 16.667 112 50s39 81 39 143c0 60.667-14.333 106.667-43 138s-72.667 47-132 47H75v85h197c93.333 0 163.833-22.333 211.5-67S555 360.333 555 271c0-87.333-22.833-156-68.5-206S377-10 295-10z"/><glyph glyph-name="uni2D23" unicode="ⴣ" horiz-adv-x="631" d="M442-240l.002 211.999c0 19.333.667 36.5 2 51.5s3.666 30.833 6.999 47.5h-8c-16-26-38.5-46-67.5-60s-62.833-21-101.5-21c-64.667 0-113.334 16-146.001 48s-49 81.333-49 148v353h107v-337c0-83.333 36.667-125 110-125 51.333 0 88.5 14.833 111.5 44.5S442 199.333 442 266v494h106V-240H442z"/><glyph glyph-name="uni2D24" unicode="ⴤ" horiz-adv-x="612" d="M253-240l.001 236c-56 8-99 29.667-129 65s-45 83-45 143v335h106V202c0-40 10.333-70.667 31-92s51-32 91-32c38.667 0 68.5 10.667 89.5 32s31.5 52 31.5 92v337h106V202c0-58-15.333-104.667-46-140S414.667 4.667 360-4v-236H253z"/><glyph glyph-name="uni2D25" unicode="ⴥ" horiz-adv-x="936" d="M673 548c60.667 0 106.498-16 137.498-48s46.5-81.667 46.5-149V0h-105v336c0 42-8.167 73.5-24.5 94.5S685.332 462 649.999 462c-46 0-79.667-14.833-101-44.5s-32-78.5-32-146.5V0h-84l-18 72h-4c-36-54.667-87.667-82-155-82-64 0-114 24.333-150 73s-54 117-54 205c0 88.667 18.167 157.667 54.5 207s86.833 74 151.5 74c66.667 0 118.334-26.333 155.001-79h5c-2 12-3.667 26.5-5 43.5s-2 31.5-2 43.5v18c0 60.667 17 106.667 51 138s86.333 47 157 47h213v-88H626c-38 0-65.667-8.167-83-24.5s-26-41.833-26-76.5v-24c0-28.667-2.333-55.667-7-81h6c16 26.667 37.833 47 65.5 61s58.167 21 91.5 21zM413.998 251v15.998c0 70.667-10.5 120.834-31.5 150.501s-54.5 44.5-100.5 44.5c-38.667 0-68.5-17-89.5-51s-31.5-82.333-31.5-145c0-126 40.667-189 122-189 45.333 0 78.5 13.333 99.5 40s31.5 71.334 31.5 134.001z"/><glyph glyph-name="uni2D27" unicode="ⴧ" horiz-adv-x="542" d="M269-250c-43.333 0-81.834 8.668-115.501 26.001s-59.834 41.833-78.501 73.5-28 69.167-28 112.5c0 48.667 9.167 89.167 27.5 121.5s42.666 59.833 72.999 82.5 63.5 43.667 99.5 63c29.333 16 53 30.667 71 44s31.167 27.666 39.5 42.999 12.5 33.666 12.5 54.999c0 28-8.5 50-25.5 66s-41.167 24-72.5 24c-67.333 0-101-31.333-101-94 0-7.333 1-15.333 3-24h-104c-2.667 10.667-4 21-4 31 0 53.333 18.333 95.833 55 127.5s86.667 47.5 150 47.5c64.667 0 115.334-16.167 152.001-48.5s55-75.833 55-130.5c0-35.333-7.167-65.666-21.5-90.999s-35.5-48.666-63.5-69.999-62.333-43.333-103-66c-25.333-14-48-28.667-68-44s-36-34-48-56-18-49.667-18-83c0-37.333 10.833-67 32.5-89s48.5-33 80.5-33c32.667 0 60.5 10.167 83.5 30.5s34.5 51.5 34.5 93.5c0 14-1 27-3 39s-4.333 21.667-7 29h108c6.667-20 10-44.333 10-73 0-46.667-9.667-85.334-29-116.001s-46.166-53.5-80.499-68.5S312.333-250 269-250z"/><glyph glyph-name="uni2D2D" unicode="ⴭ" horiz-adv-x="475" d="M439 0H35v67l278 390H52v82h379v-75L159 82h280V0z"/><glyph glyph-name="macroncomb" horiz-adv-x="600" d="M94 0v714h411V0H94zm51 51h309v612H145V51z"/><glyph glyph-name="uni10D0_uni0308.ccmp" horiz-adv-x="559" d="M277-10c-44 0-83.331 7.836-117.998 23.503s-62 38.667-82 69-30 67.833-30 112.5c0 16 1.5 30.833 4.5 44.5s6.167 25.167 9.5 34.5h101c-2.667-10-4.834-21.5-6.501-34.5s-2.5-26.5-2.5-40.5c0-38.667 11.167-68.667 33.5-90s52.5-32 90.5-32c37.333 0 66.833 10.833 88.5 32.5s32.5 52.5 32.5 92.5c0 33.333-7.667 60.5-23 81.5s-32.666 40.833-51.999 59.5l-48 50.5c-16 17.667-29.167 38.167-39.5 61.5s-15.5 51.333-15.5 84h106c0-28.667 8-53.667 24-75s34.333-42.333 55-63c16-16 31.833-33.333 47.5-52s28.667-39.834 39-63.501 15.5-51.5 15.5-83.5c0-42.667-9.833-79.834-29.5-111.501S430.668 34.167 396.001 16.5 321.667-10 277-10zM130.002 668.003c0 19.333 5.167 33.166 15.5 41.499s23.166 12.5 38.499 12.5c14 0 26.333-4.167 37-12.5s16-22.166 16-41.499c0-18-5.333-31.5-16-40.5s-23-13.5-37-13.5c-15.333 0-28.166 4.5-38.499 13.5s-15.5 22.5-15.5 40.5zm191 0c0 19.333 5.167 33.166 15.5 41.499s22.833 12.5 37.5 12.5c14 0 26.333-4.167 37-12.5s16-22.166 16-41.499c0-18-5.333-31.5-16-40.5s-23-13.5-37-13.5c-14.667 0-27.167 4.5-37.5 13.5s-15.5 22.5-15.5 40.5z"/><glyph glyph-name="uni10D0_acutecomb.ccmp" d="M277-10c-44 0-83.331 7.836-117.998 23.503s-62 38.667-82 69-30 67.833-30 112.5c0 16 1.5 30.833 4.5 44.5s6.167 25.167 9.5 34.5h101c-2.667-10-4.834-21.5-6.501-34.5s-2.5-26.5-2.5-40.5c0-38.667 11.167-68.667 33.5-90s52.5-32 90.5-32c37.333 0 66.833 10.833 88.5 32.5s32.5 52.5 32.5 92.5c0 33.333-7.667 60.5-23 81.5s-32.666 40.833-51.999 59.5l-48 50.5c-16 17.667-29.167 38.167-39.5 61.5s-15.5 51.333-15.5 84h106c0-28.667 8-53.667 24-75s34.333-42.333 55-63c16-16 31.833-33.333 47.5-52s28.667-39.834 39-63.501 15.5-51.5 15.5-83.5c0-42.667-9.833-79.834-29.5-111.501S430.668 34.167 396.001 16.5 321.667-10 277-10zm135.002 776.003l-.001-10c-10-12-24.167-27.667-42.5-47s-37.666-38.333-57.999-57-38.5-34-54.5-46h-70v12c10 12.667 21.167 27.667 33.5 45l36.5 53.5c12 18.333 22.333 34.833 31 49.5h124z"/><glyph glyph-name="uni10D0_uni0304.ccmp" horiz-adv-x="559" d="M277-10c-44 0-83.331 7.836-117.998 23.503s-62 38.667-82 69-30 67.833-30 112.5c0 16 1.5 30.833 4.5 44.5s6.167 25.167 9.5 34.5h101c-2.667-10-4.834-21.5-6.501-34.5s-2.5-26.5-2.5-40.5c0-38.667 11.167-68.667 33.5-90s52.5-32 90.5-32c37.333 0 66.833 10.833 88.5 32.5s32.5 52.5 32.5 92.5c0 33.333-7.667 60.5-23 81.5s-32.666 40.833-51.999 59.5l-48 50.5c-16 17.667-29.167 38.167-39.5 61.5s-15.5 51.333-15.5 84h106c0-28.667 8-53.667 24-75s34.333-42.333 55-63c16-16 31.833-33.333 47.5-52s28.667-39.834 39-63.501 15.5-51.5 15.5-83.5c0-42.667-9.833-79.834-29.5-111.501S430.668 34.167 396.001 16.5 321.667-10 277-10zm156.002 706.003v-80h-307v80h307z"/><glyph glyph-name="uni10D0_uni0304_uni0308.ccmp" horiz-adv-x="559" d="M277-10c-44 0-83.331 7.836-117.998 23.503s-62 38.667-82 69-30 67.833-30 112.5c0 16 1.5 30.833 4.5 44.5s6.167 25.167 9.5 34.5h101c-2.667-10-4.834-21.5-6.501-34.5s-2.5-26.5-2.5-40.5c0-38.667 11.167-68.667 33.5-90s52.5-32 90.5-32c37.333 0 66.833 10.833 88.5 32.5s32.5 52.5 32.5 92.5c0 33.333-7.667 60.5-23 81.5s-32.666 40.833-51.999 59.5l-48 50.5c-16 17.667-29.167 38.167-39.5 61.5s-15.5 51.333-15.5 84h106c0-28.667 8-53.667 24-75s34.333-42.333 55-63c16-16 31.833-33.333 47.5-52s28.667-39.834 39-63.501 15.5-51.5 15.5-83.5c0-42.667-9.833-79.834-29.5-111.501S430.668 34.167 396.001 16.5 321.667-10 277-10zm156.002 706.003v-80h-307v80h307zm-303 129c0 19.333 5.167 33.166 15.5 41.499s23.166 12.5 38.499 12.5c14 0 26.333-4.167 37-12.5s16-22.166 16-41.499c0-18-5.333-31.5-16-40.5s-23-13.5-37-13.5c-15.333 0-28.166 4.5-38.499 13.5s-15.5 22.5-15.5 40.5zm191 0c0 19.333 5.167 33.166 15.5 41.499s22.833 12.5 37.5 12.5c14 0 26.333-4.167 37-12.5s16-22.166 16-41.499c0-18-5.333-31.5-16-40.5s-23-13.5-37-13.5c-14.667 0-27.167 4.5-37.5 13.5s-15.5 22.5-15.5 40.5z"/><glyph glyph-name="uni10D4_acutecomb.ccmp" d="M284-250c-47.333 0-88.832 9.997-124.499 29.997s-63.334 47.833-83.001 83.5S47-59.003 47-11.003c0 18.667 1.833 36.667 5.5 54s8.167 32.333 13.5 45h100c-3.333-12-6.333-26.5-9-43.5s-4-32.5-4-46.5c0-45.333 10.833-83.5 32.5-114.5s54.5-46.5 98.5-46.5c48 0 82 15.833 102 47.5s30 73.834 30 126.501v304c0 46.667-9.5 82.834-28.5 108.501S339.333 462 300 462c-36 0-64.833-10.333-86.5-31S181 380.332 181 341c0-28 3-53.333 9-76H88c-3.333 9.333-6.333 20.833-9 34.5S75 328 75 344c0 44.667 10 82.167 30 112.5s47 53.333 81 69S257.667 549 299 549c68 0 122.167-20.167 162.5-60.5S522 391.333 522 318V8c0-82-20.667-145.5-62-190.5S360-250 284-250zM429.001 765.997l-.001-10c-10-12-24.167-27.667-42.5-47s-37.666-38.333-57.999-57-38.5-34-54.5-46h-70v12c10 12.667 21.167 27.667 33.5 45l36.5 53.5c12 18.333 22.333 34.833 31 49.5h124z"/><glyph glyph-name="uni10D4_uni0304.ccmp" horiz-adv-x="593" d="M284-250c-47.333 0-88.832 9.997-124.499 29.997s-63.334 47.833-83.001 83.5S47-59.003 47-11.003c0 18.667 1.833 36.667 5.5 54s8.167 32.333 13.5 45h100c-3.333-12-6.333-26.5-9-43.5s-4-32.5-4-46.5c0-45.333 10.833-83.5 32.5-114.5s54.5-46.5 98.5-46.5c48 0 82 15.833 102 47.5s30 73.834 30 126.501v304c0 46.667-9.5 82.834-28.5 108.501S339.333 462 300 462c-36 0-64.833-10.333-86.5-31S181 380.332 181 341c0-28 3-53.333 9-76H88c-3.333 9.333-6.333 20.833-9 34.5S75 328 75 344c0 44.667 10 82.167 30 112.5s47 53.333 81 69S257.667 549 299 549c68 0 122.167-20.167 162.5-60.5S522 391.333 522 318V8c0-82-20.667-145.5-62-190.5S360-250 284-250zm166.001 945.997v-80h-307v80h307z"/><glyph glyph-name="uni10D8_acutecomb.ccmp" d="M112 0C92 46 77.001 90.335 67.001 133.002s-15 90.334-15 143.001c0 82.667 20.167 148.834 60.5 198.501s99.833 74.5 178.5 74.5 138-24.833 178-74.5 60-115.834 60-198.501c0-52.667-4.833-100.334-14.5-143.001s-24.834-87-45.501-133H364c19.333 46 33.833 90.667 43.5 134S422 224.668 422 276.001c0 61.333-11.667 107.666-35 138.999s-55.333 47-96 47c-42 0-74.333-15.5-97-46.5s-34-77.833-34-140.5c0-51.333 4.667-98.5 14-141.5S198 46 218 0H112zm311.001 766.002l-.001-10c-10-12-24.167-27.667-42.5-47s-37.666-38.333-57.999-57-38.5-34-54.5-46h-70v12c10 12.667 21.167 27.667 33.5 45l36.5 53.5c12 18.333 22.333 34.833 31 49.5h124z"/><glyph glyph-name="uni10D8_uni0304.ccmp" horiz-adv-x="581" d="M112 0C92 46 77.001 90.335 67.001 133.002s-15 90.334-15 143.001c0 82.667 20.167 148.834 60.5 198.501s99.833 74.5 178.5 74.5 138-24.833 178-74.5 60-115.834 60-198.501c0-52.667-4.833-100.334-14.5-143.001s-24.834-87-45.501-133H364c19.333 46 33.833 90.667 43.5 134S422 224.668 422 276.001c0 61.333-11.667 107.666-35 138.999s-55.333 47-96 47c-42 0-74.333-15.5-97-46.5s-34-77.833-34-140.5c0-51.333 4.667-98.5 14-141.5S198 46 218 0H112zm332.001 696.002v-80h-307v80h307z"/><glyph glyph-name="uni10DD_uni0308.ccmp" horiz-adv-x="822" d="M114 0C93.333 46.667 77.831 91.5 67.498 134.5s-15.5 90.5-15.5 142.5c0 54 7.833 101.333 23.5 142s39 72.5 70 95.5 69.5 34.5 115.5 34.5c38.667 0 70.167-8.833 94.5-26.5s41.833-41.834 52.5-72.501h5c11.333 30.667 29.333 54.834 54 72.501s55.667 26.5 93 26.5c46 0 84.5-11.5 115.5-34.5s54.5-54.833 70.5-95.5 24-88 24-142c0-52-5.167-99.5-15.5-142.5S728.332 46.667 706.999 0h-106c20.667 46 36 90.833 46 134.5s15 91.167 15 142.5c0 59.333-9.333 105-28 137s-46.334 48-83.001 48c-29.333 0-51.666-11-66.999-33s-23-53.333-23-94V180h-101v155c0 37.333-7.167 67.833-21.5 91.5S301.333 462 270 462c-35.333 0-62.5-15.333-81.5-46S160 339 160 277c0-52 4.833-99.667 14.5-143S199.667 46 221 0H114zm147.998 668c0 19.333 5.167 33.166 15.5 41.499s23.166 12.5 38.499 12.5c14 0 26.333-4.167 37-12.5s16-22.166 16-41.499c0-18-5.333-31.5-16-40.5s-23-13.5-37-13.5c-15.333 0-28.166 4.5-38.499 13.5s-15.5 22.5-15.5 40.5zm191 0c0 19.333 5.167 33.166 15.5 41.499s22.833 12.5 37.5 12.5c14 0 26.333-4.167 37-12.5s16-22.166 16-41.499c0-18-5.333-31.5-16-40.5s-23-13.5-37-13.5c-14.667 0-27.167 4.5-37.5 13.5s-15.5 22.5-15.5 40.5z"/><glyph glyph-name="uni10DD_acutecomb.ccmp" d="M114 0C93.333 46.667 77.831 91.5 67.498 134.5s-15.5 90.5-15.5 142.5c0 54 7.833 101.333 23.5 142s39 72.5 70 95.5 69.5 34.5 115.5 34.5c38.667 0 70.167-8.833 94.5-26.5s41.833-41.834 52.5-72.501h5c11.333 30.667 29.333 54.834 54 72.501s55.667 26.5 93 26.5c46 0 84.5-11.5 115.5-34.5s54.5-54.833 70.5-95.5 24-88 24-142c0-52-5.167-99.5-15.5-142.5S728.332 46.667 706.999 0h-106c20.667 46 36 90.833 46 134.5s15 91.167 15 142.5c0 59.333-9.333 105-28 137s-46.334 48-83.001 48c-29.333 0-51.666-11-66.999-33s-23-53.333-23-94V180h-101v155c0 37.333-7.167 67.833-21.5 91.5S301.333 462 270 462c-35.333 0-62.5-15.333-81.5-46S160 339 160 277c0-52 4.833-99.667 14.5-143S199.667 46 221 0H114zm428.998 766l-.001-10c-10-12-24.167-27.667-42.5-47s-37.666-38.333-57.999-57-38.5-34-54.5-46h-70v12c10 12.667 21.167 27.667 33.5 45l36.5 53.5c12 18.333 22.333 34.833 31 49.5h124z"/><glyph glyph-name="uni10DD_uni0304.ccmp" horiz-adv-x="822" d="M114 0C93.333 46.667 77.831 91.5 67.498 134.5s-15.5 90.5-15.5 142.5c0 54 7.833 101.333 23.5 142s39 72.5 70 95.5 69.5 34.5 115.5 34.5c38.667 0 70.167-8.833 94.5-26.5s41.833-41.834 52.5-72.501h5c11.333 30.667 29.333 54.834 54 72.501s55.667 26.5 93 26.5c46 0 84.5-11.5 115.5-34.5s54.5-54.833 70.5-95.5 24-88 24-142c0-52-5.167-99.5-15.5-142.5S728.332 46.667 706.999 0h-106c20.667 46 36 90.833 46 134.5s15 91.167 15 142.5c0 59.333-9.333 105-28 137s-46.334 48-83.001 48c-29.333 0-51.666-11-66.999-33s-23-53.333-23-94V180h-101v155c0 37.333-7.167 67.833-21.5 91.5S301.333 462 270 462c-35.333 0-62.5-15.333-81.5-46S160 339 160 277c0-52 4.833-99.667 14.5-143S199.667 46 221 0H114zm449.998 696v-80h-307v80h307z"/><glyph glyph-name="uni10DD_uni0304_uni0308.ccmp" horiz-adv-x="822" d="M114 0C93.333 46.667 77.831 91.5 67.498 134.5s-15.5 90.5-15.5 142.5c0 54 7.833 101.333 23.5 142s39 72.5 70 95.5 69.5 34.5 115.5 34.5c38.667 0 70.167-8.833 94.5-26.5s41.833-41.834 52.5-72.501h5c11.333 30.667 29.333 54.834 54 72.501s55.667 26.5 93 26.5c46 0 84.5-11.5 115.5-34.5s54.5-54.833 70.5-95.5 24-88 24-142c0-52-5.167-99.5-15.5-142.5S728.332 46.667 706.999 0h-106c20.667 46 36 90.833 46 134.5s15 91.167 15 142.5c0 59.333-9.333 105-28 137s-46.334 48-83.001 48c-29.333 0-51.666-11-66.999-33s-23-53.333-23-94V180h-101v155c0 37.333-7.167 67.833-21.5 91.5S301.333 462 270 462c-35.333 0-62.5-15.333-81.5-46S160 339 160 277c0-52 4.833-99.667 14.5-143S199.667 46 221 0H114zm449.998 696v-80h-307v80h307zm-302 129c0 19.333 5.167 33.166 15.5 41.499s23.166 12.5 38.499 12.5c14 0 26.333-4.167 37-12.5s16-22.166 16-41.499c0-18-5.333-31.5-16-40.5s-23-13.5-37-13.5c-15.333 0-28.166 4.5-38.499 13.5s-15.5 22.5-15.5 40.5zm191 0c0 19.333 5.167 33.166 15.5 41.499s22.833 12.5 37.5 12.5c14 0 26.333-4.167 37-12.5s16-22.166 16-41.499c0-18-5.333-31.5-16-40.5s-23-13.5-37-13.5c-14.667 0-27.167 4.5-37.5 13.5s-15.5 22.5-15.5 40.5z"/><glyph glyph-name="uni10E3_uni0308.ccmp" horiz-adv-x="613" d="M303-250c-50.667 0-94.498 10-131.498 30s-65.5 47.833-85.5 83.5-30 77.5-30 125.5c0 18.667 1.833 36.667 5.5 54s8.167 32.333 13.5 45h100c-3.333-12-6.333-26.5-9-43.5s-4-32.5-4-46.5c0-45.333 11.167-83.5 33.5-114.5S253.668-163 303.001-163c48 0 82.333 16 103 48s31 74 31 126v347c0 70-25 105-75 105-22.667 0-40.5-9-53.5-27s-19.5-43.333-19.5-76V236h-101v123c0 66-25.667 99-77 99h-72v86h71c33.333 0 60.5-7 81.5-21s36.5-36 46.5-66h4c24 61.333 68.667 92 134 92 52.667 0 93.667-16.5 123-49.5s44-75.167 44-126.5V8c0-82-20.833-145.5-62.5-190.5S379.667-250 303-250zM141.002 668c0 19.333 5.167 33.166 15.5 41.499s23.166 12.5 38.499 12.5c14 0 26.333-4.167 37-12.5s16-22.166 16-41.499c0-18-5.333-31.5-16-40.5s-23-13.5-37-13.5c-15.333 0-28.166 4.5-38.499 13.5s-15.5 22.5-15.5 40.5zm191 0c0 19.333 5.167 33.166 15.5 41.499s22.833 12.5 37.5 12.5c14 0 26.333-4.167 37-12.5s16-22.166 16-41.499c0-18-5.333-31.5-16-40.5s-23-13.5-37-13.5c-14.667 0-27.167 4.5-37.5 13.5s-15.5 22.5-15.5 40.5z"/><glyph glyph-name="uni10E3_acutecomb.ccmp" d="M303-250c-50.667 0-94.498 10-131.498 30s-65.5 47.833-85.5 83.5-30 77.5-30 125.5c0 18.667 1.833 36.667 5.5 54s8.167 32.333 13.5 45h100c-3.333-12-6.333-26.5-9-43.5s-4-32.5-4-46.5c0-45.333 11.167-83.5 33.5-114.5S253.668-163 303.001-163c48 0 82.333 16 103 48s31 74 31 126v347c0 70-25 105-75 105-22.667 0-40.5-9-53.5-27s-19.5-43.333-19.5-76V236h-101v123c0 66-25.667 99-77 99h-72v86h71c33.333 0 60.5-7 81.5-21s36.5-36 46.5-66h4c24 61.333 68.667 92 134 92 52.667 0 93.667-16.5 123-49.5s44-75.167 44-126.5V8c0-82-20.833-145.5-62.5-190.5S379.667-250 303-250zM423.002 766l-.001-10c-10-12-24.167-27.667-42.5-47s-37.666-38.333-57.999-57-38.5-34-54.5-46h-70v12c10 12.667 21.167 27.667 33.5 45l36.5 53.5c12 18.333 22.333 34.833 31 49.5h124z"/><glyph glyph-name="uni10E3_uni0302.ccmp" horiz-adv-x="613" d="M303-250c-50.667 0-94.498 10-131.498 30s-65.5 47.833-85.5 83.5-30 77.5-30 125.5c0 18.667 1.833 36.667 5.5 54s8.167 32.333 13.5 45h100c-3.333-12-6.333-26.5-9-43.5s-4-32.5-4-46.5c0-45.333 11.167-83.5 33.5-114.5S253.668-163 303.001-163c48 0 82.333 16 103 48s31 74 31 126v347c0 70-25 105-75 105-22.667 0-40.5-9-53.5-27s-19.5-43.333-19.5-76V236h-101v123c0 66-25.667 99-77 99h-72v86h71c33.333 0 60.5-7 81.5-21s36.5-36 46.5-66h4c24 61.333 68.667 92 134 92 52.667 0 93.667-16.5 123-49.5s44-75.167 44-126.5V8c0-82-20.833-145.5-62.5-190.5S379.667-250 303-250zm44.002 1016c8-14.667 19.498-31.165 34.498-49.498s30.667-36.333 47-54 30.833-32.5 43.5-44.5v-12h-73c-17.333 10.667-35.666 23.667-54.999 39s-38 32-56 50c-36-36.667-72-66.334-108-89.001h-72v12c12.667 12.667 26.834 27.667 42.501 45s31 35.166 46 53.499 26.833 34.833 35.5 49.5h115z"/><glyph glyph-name="uni10E3_uni0304.ccmp" horiz-adv-x="613" d="M303-250c-50.667 0-94.498 10-131.498 30s-65.5 47.833-85.5 83.5-30 77.5-30 125.5c0 18.667 1.833 36.667 5.5 54s8.167 32.333 13.5 45h100c-3.333-12-6.333-26.5-9-43.5s-4-32.5-4-46.5c0-45.333 11.167-83.5 33.5-114.5S253.668-163 303.001-163c48 0 82.333 16 103 48s31 74 31 126v347c0 70-25 105-75 105-22.667 0-40.5-9-53.5-27s-19.5-43.333-19.5-76V236h-101v123c0 66-25.667 99-77 99h-72v86h71c33.333 0 60.5-7 81.5-21s36.5-36 46.5-66h4c24 61.333 68.667 92 134 92 52.667 0 93.667-16.5 123-49.5s44-75.167 44-126.5V8c0-82-20.833-145.5-62.5-190.5S379.667-250 303-250zm141.002 946v-80h-307v80h307z"/><glyph glyph-name="uni10E3_uni0304_uni0308.ccmp" horiz-adv-x="613" d="M303-250c-50.667 0-94.498 10-131.498 30s-65.5 47.833-85.5 83.5-30 77.5-30 125.5c0 18.667 1.833 36.667 5.5 54s8.167 32.333 13.5 45h100c-3.333-12-6.333-26.5-9-43.5s-4-32.5-4-46.5c0-45.333 11.167-83.5 33.5-114.5S253.668-163 303.001-163c48 0 82.333 16 103 48s31 74 31 126v347c0 70-25 105-75 105-22.667 0-40.5-9-53.5-27s-19.5-43.333-19.5-76V236h-101v123c0 66-25.667 99-77 99h-72v86h71c33.333 0 60.5-7 81.5-21s36.5-36 46.5-66h4c24 61.333 68.667 92 134 92 52.667 0 93.667-16.5 123-49.5s44-75.167 44-126.5V8c0-82-20.833-145.5-62.5-190.5S379.667-250 303-250zm141.002 946v-80h-307v80h307zm-303 129c0 19.333 5.167 33.166 15.5 41.499s23.166 12.5 38.499 12.5c14 0 26.333-4.167 37-12.5s16-22.166 16-41.499c0-18-5.333-31.5-16-40.5s-23-13.5-37-13.5c-15.333 0-28.166 4.5-38.499 13.5s-15.5 22.5-15.5 40.5zm191 0c0 19.333 5.167 33.166 15.5 41.499s22.833 12.5 37.5 12.5c14 0 26.333-4.167 37-12.5s16-22.166 16-41.499c0-18-5.333-31.5-16-40.5s-23-13.5-37-13.5c-14.667 0-27.167 4.5-37.5 13.5s-15.5 22.5-15.5 40.5z"/><glyph glyph-name="uni10F7_acutecomb.ccmp" d="M279-250c-70.667 0-127.003 19.165-169.003 57.498s-63 89.833-63 154.5c0 48.667 9.333 89.334 28 122.001s43.834 60.334 75.501 83.001 67.167 43.334 106.5 62.001c32.667 16 58.834 30.667 78.501 44s33.667 27.666 42 42.999 12.5 33.666 12.5 54.999c0 28-8.833 50-26.5 66s-44.834 24-81.501 24c-38.667 0-66.834-8-84.501-24s-26.5-39.333-26.5-70c0-7.333 1-15.333 3-24h-104c-2.667 10.667-4 21-4 31 0 53.333 18.833 95.833 56.5 127.5s90.5 47.5 158.5 47.5c70 0 123.667-16.167 161-48.5s56-75.833 56-130.5c0-35.333-7.167-66-21.5-92s-36.166-49.667-65.499-71-66.333-42.666-111-63.999c-28.667-14-53.667-28.667-75-44s-38.166-34-50.499-56-18.5-49.667-18.5-83c0-37.333 11.333-67 34-89s52.334-33 89.001-33c37.333 0 68 10.167 92 30.5S407-80 407-38c0 14-1 27-3 39s-4.333 21.667-7 29h108c6.667-20 10-44.333 10-73 0-70-21.833-122-65.5-156S349-250 279-250zM413.997 765.998l-.001-10c-10-12-24.167-27.667-42.5-47s-37.666-38.333-57.999-57-38.5-34-54.5-46h-70v12c10 12.667 21.167 27.667 33.5 45l36.5 53.5c12 18.333 22.333 34.833 31 49.5h124z"/><glyph glyph-name="uni10F7_uni0304.ccmp" horiz-adv-x="562" d="M279-250c-70.667 0-127.003 19.165-169.003 57.498s-63 89.833-63 154.5c0 48.667 9.333 89.334 28 122.001s43.834 60.334 75.501 83.001 67.167 43.334 106.5 62.001c32.667 16 58.834 30.667 78.501 44s33.667 27.666 42 42.999 12.5 33.666 12.5 54.999c0 28-8.833 50-26.5 66s-44.834 24-81.501 24c-38.667 0-66.834-8-84.501-24s-26.5-39.333-26.5-70c0-7.333 1-15.333 3-24h-104c-2.667 10.667-4 21-4 31 0 53.333 18.833 95.833 56.5 127.5s90.5 47.5 158.5 47.5c70 0 123.667-16.167 161-48.5s56-75.833 56-130.5c0-35.333-7.167-66-21.5-92s-36.166-49.667-65.499-71-66.333-42.666-111-63.999c-28.667-14-53.667-28.667-75-44s-38.166-34-50.499-56-18.5-49.667-18.5-83c0-37.333 11.333-67 34-89s52.334-33 89.001-33c37.333 0 68 10.167 92 30.5S407-80 407-38c0 14-1 27-3 39s-4.333 21.667-7 29h108c6.667-20 10-44.333 10-73 0-70-21.833-122-65.5-156S349-250 279-250zm155.997 945.998v-80h-307v80h307z"/></font>
</defs>
</svg>
